<svg xmlns="http://www.w3.org/2000/svg" width="506" height="448" fill="none" viewBox="0 0 506 448">
    <path fill-rule="evenodd" stroke="#000" stroke-width="1.5" d="M28.51 233.455c1.838-7.45 5.827-14.668 8.404-22.411 7.451-22.391 19.14-42.595 33.503-61.129 17.995-23.221 40.076-41.996 66.042-56.28 7.101-3.906 14.167-7.896 21.454-11.42 15.258-7.378 31.273-12.596 48.141-15.185 19.181-2.943 38.462-4.169 57.866-3.097 16.385.905 32.719 2.593 49.114 3.459 6.339.334 12.665 1.522 18.979 2.533 8.937 1.432 17.514 4.133 26.192 6.518 14.886 4.089 28.528 10.697 40.869 19.932 12.463 9.327 25.052 18.533 36.081 29.549 13.372 13.357 25.497 27.594 33.055 45.215 7.132 16.628 8.358 33.544 4.646 50.997-1.196 5.626-2.082 11.317-3.121 16.977-.671 3.656-1.934 7.139-3.355 10.549-3.14 7.535-9.599 10.739-17.111 12.279-9.074 1.859-18.266 1.445-27.446.76-3.805-.283-7.612-.562-11.406-.961-14.039-1.475-25.935 3.961-37.334 11.052-11.64 7.242-17.846 17.92-20.677 31.054-2.06 9.559-3.461 19.427-7.803 28.279-9.132 18.617-21.591 33.658-43.706 37.829-7.727 1.457-15.275 3.796-23.133 4.684-10.815 1.223-20.232-1.449-28.583-8.799-11.597-10.208-21.726-21.841-32.981-32.366-6.313-5.902-12.991-11.062-21.454-13.755-9.5-3.023-17.791-1.308-25.198 5.035-1.895 1.623-3.802 3.272-5.446 5.133-6.835 7.739-15.195 13.747-23.304 19.994-6.452 4.972-14.433 5.978-22.339 6.68-13.127 1.165-25.941-.093-38.367-4.933-6.048-2.355-12.545-3.469-18.216-6.917-10.522-6.398-18.073-15.28-22.892-26.439-2.02-4.679-3.97-9.378-6.403-13.868-6.6-12.18-8.482-25.354-8.593-38.906-.088-10.731 1.462-21.228 4.522-32.042z" clip-rule="evenodd"/>
</svg>
