<svg xmlns="http://www.w3.org/2000/svg">
<defs>
<font id="GTAmericaMono-Thin" horiz-adv-x="620" >
  <font-face 
    font-family="GT America Mono Thin"
    font-weight="275"
    font-stretch="normal"
    units-per-em="1000"
    panose-1="0 0 3 0 0 0 0 0 0 0"
    ascent="785"
    descent="-215"
    x-height="500"
    cap-height="710"
    bbox="-487 -234 1154 915"
    underline-thickness="50"
    underline-position="-50"
    unicode-range="U+000D-U+FB02"
  />
<missing-glyph 
d="M436 663v-47h174v-48h-174v-47h174v-48h-174v-47h174v-47h-174v-48h174v-47h-600v426h600v-47h-174zM70 676h-16l-5 15l-4 -15h-16l13 -9l-5 -15l12 9l13 -9l-5 15zM116 676l13 -9l-5 -15l12 10l13 -10l-5 15l12 9h-15l-5 15l-4 -15h-16zM203 676l13 -9l-5 -15l12 10
l13 -10l-5 15l12 9h-15l-5 15l-4 -15h-16zM290 676l13 -9l-5 -15l12 10l13 -10l-5 15l12 9h-15l-5 15l-5 -15h-15zM417 676h-15l-5 15l-5 -15h-15l12 -9l-4 -15l12 10l13 -10l-5 15zM73 632l12 -9l-4 -14l12 9l12 -9l-4 14l12 9h-15l-5 15l-5 -15h-15zM374 632h-16l-4 15
l-5 -15h-15l12 -9l-5 -14l13 9l12 -9l-5 14zM263 457h94v80h-94v94h-80v-94h-93v-80h93v-93h80v93zM70 589h-16l-5 14l-4 -14h-16l13 -9l-5 -15l12 9l13 -9l-5 15zM116 589l13 -9l-5 -15l12 9l13 -9l-5 15l12 9h-15l-5 14l-4 -14h-16zM290 589l13 -9l-5 -15l12 9l13 -9
l-5 15l12 9h-15l-5 14l-5 -14h-15zM417 589h-15l-5 14l-5 -14h-15l12 -9l-4 -15l12 9l13 -9l-5 15zM70 502h-16l-5 14l-4 -14h-16l13 -10l-5 -14l12 9l13 -9l-5 14zM417 502h-15l-5 14l-5 -14h-15l12 -10l-4 -14l12 9l13 -9l-5 14zM70 414h-16l-5 15l-4 -15h-16l13 -9
l-5 -14l12 9l13 -9l-5 14zM156 414h-15l-5 15l-4 -15h-16l13 -9l-5 -14l12 9l13 -9l-5 14zM330 414h-15l-5 15l-5 -15h-15l13 -9l-5 -14l12 9l13 -9l-5 14zM417 414h-15l-5 15l-5 -15h-15l12 -9l-4 -14l12 9l13 -9l-5 14zM101 362l12 9h-15l-5 14l-5 -14h-15l12 -9l-4 -15
l12 9l12 -9zM361 362l13 9h-16l-4 14l-5 -14h-15l12 -9l-5 -15l13 9l12 -9zM57 318l13 9h-16l-5 15l-4 -15h-16l13 -9l-5 -15l12 9l13 -9zM144 318l12 9h-15l-5 15l-4 -15h-16l13 -9l-5 -15l12 9l13 -9zM231 318l12 9h-15l-5 15l-4 -15h-16l13 -9l-5 -15l12 9l13 -9z

<glyph glyph-name="fi" unicode="fi" horiz-adv-x="1240" 
d="M308 459v-459h-50v459h-160v41h160v68q0 160 172 160q41 0 76 -7v-45q-40 6 -76 6q-65 0 -93.5 -27t-28.5 -91v-64h198v-41h-198zM756 42h169v416h-157v42h207v-458h179v-42h-398v42zM983 600h-77v123h77v-123z" />
    <glyph glyph-name="fl" unicode="fl" horiz-adv-x="1240" 
d="M308 459v-459h-50v459h-160v41h160v68q0 160 172 160q41 0 76 -7v-45q-40 6 -76 6q-65 0 -93.5 -27t-28.5 -91v-64h198v-41h-198zM756 42h166v641h-156v42h207v-683h181v-42h-398v42z" />
    <glyph glyph-name=".notdef" 
d="M436 663v-47h174v-48h-174v-47h174v-48h-174v-47h174v-47h-174v-48h174v-47h-600v426h600v-47h-174zM70 676h-16l-5 15l-4 -15h-16l13 -9l-5 -15l12 9l13 -9l-5 15zM116 676l13 -9l-5 -15l12 10l13 -10l-5 15l12 9h-15l-5 15l-4 -15h-16zM203 676l13 -9l-5 -15l12 10
l13 -10l-5 15l12 9h-15l-5 15l-4 -15h-16zM290 676l13 -9l-5 -15l12 10l13 -10l-5 15l12 9h-15l-5 15l-5 -15h-15zM417 676h-15l-5 15l-5 -15h-15l12 -9l-4 -15l12 10l13 -10l-5 15zM73 632l12 -9l-4 -14l12 9l12 -9l-4 14l12 9h-15l-5 15l-5 -15h-15zM374 632h-16l-4 15
l-5 -15h-15l12 -9l-5 -14l13 9l12 -9l-5 14zM263 457h94v80h-94v94h-80v-94h-93v-80h93v-93h80v93zM70 589h-16l-5 14l-4 -14h-16l13 -9l-5 -15l12 9l13 -9l-5 15zM116 589l13 -9l-5 -15l12 9l13 -9l-5 15l12 9h-15l-5 14l-4 -14h-16zM290 589l13 -9l-5 -15l12 9l13 -9
l-5 15l12 9h-15l-5 14l-5 -14h-15zM417 589h-15l-5 14l-5 -14h-15l12 -9l-4 -15l12 9l13 -9l-5 15zM70 502h-16l-5 14l-4 -14h-16l13 -10l-5 -14l12 9l13 -9l-5 14zM417 502h-15l-5 14l-5 -14h-15l12 -10l-4 -14l12 9l13 -9l-5 14zM70 414h-16l-5 15l-4 -15h-16l13 -9
l-5 -14l12 9l13 -9l-5 14zM156 414h-15l-5 15l-4 -15h-16l13 -9l-5 -14l12 9l13 -9l-5 14zM330 414h-15l-5 15l-5 -15h-15l13 -9l-5 -14l12 9l13 -9l-5 14zM417 414h-15l-5 15l-5 -15h-15l12 -9l-4 -14l12 9l13 -9l-5 14zM101 362l12 9h-15l-5 14l-5 -14h-15l12 -9l-4 -15
l12 9l12 -9zM361 362l13 9h-16l-4 14l-5 -14h-15l12 -9l-5 -15l13 9l12 -9zM57 318l13 9h-16l-5 15l-4 -15h-16l13 -9l-5 -15l12 9l13 -9zM144 318l12 9h-15l-5 15l-4 -15h-16l13 -9l-5 -15l12 9l13 -9zM231 318l12 9h-15l-5 15l-4 -15h-16l13 -9l-5 -15l12 9l13 -9z
M318 318l12 9h-15l-5 15l-5 -15h-15l13 -9l-5 -15l12 9l13 -9zM405 318l12 9h-15l-5 15l-5 -15h-15l12 -9l-4 -15l12 9l13 -9zM10 237h599v-48h-599v48zM10 142h600v-47h-600v47zM10 47h600v-47h-600v47z" />
    <glyph glyph-name=".null" horiz-adv-x="0" 
 />
    <glyph glyph-name=".null" horiz-adv-x="0" 
 />
    <glyph glyph-name="nonmarkingreturn" unicode="&#xd;" horiz-adv-x="0" 
 />
    <glyph glyph-name="space" unicode=" " 
 />
    <glyph glyph-name="A" unicode="A" 
d="M520 0l-73 221h-273l-73 -221h-55l234 710h61l234 -710h-55zM432 269l-17 51q-61 187 -103 338h-2q-47 -164 -104 -338l-17 -51h243z" />
    <glyph glyph-name="B" unicode="B" 
d="M482.5 656.5q51.5 -53.5 51.5 -128.5q0 -60 -33 -103.5t-102 -56.5q74 -9 113 -55t39 -116q0 -81 -50 -139t-169 -58h-235v710h214q120 0 171.5 -53.5zM317 387q93 0 127 40t34 97q0 140 -168 140h-158v-277h165zM326 46q94 0 132 43.5t38 110.5q0 63 -39.5 102.5
t-127.5 39.5h-177v-296h174z" />
    <glyph glyph-name="C" unicode="C" 
d="M130 68q-61 85 -61 239v98q0 156 63.5 239t183.5 83q106 0 164 -64t68 -188l-54 -7q-7 103 -51.5 157.5t-127.5 54.5q-94 0 -142 -67t-48 -205v-97q0 -137 48.5 -209t142.5 -72q78 0 124 53t56 154l54 -9q-13 -113 -71.5 -179t-166.5 -66q-121 0 -182 85z" />
    <glyph glyph-name="D" unicode="D" 
d="M263 710q145 0 223 -94t78 -255q0 -108 -36 -189.5t-104.5 -126.5t-164.5 -45h-168v710h172zM395 86q56 40 85 111.5t29 163.5q0 140 -63 221.5t-183 81.5h-117v-618h114q79 0 135 40z" />
    <glyph glyph-name="E" unicode="E" 
d="M515 663h-345v-276h328v-46h-328v-294h352v-47h-406v710h399v-47z" />
    <glyph glyph-name="F" unicode="F" 
d="M537 663h-352v-276h330v-47h-330v-340h-54v710h406v-47z" />
    <glyph glyph-name="G" unicode="G" 
d="M126 69.5q-58 86.5 -58 234.5v107q0 152 62.5 234t179.5 82q107 0 159 -64t61 -155l-53 -6q-8 76 -49 127t-120 51q-90 0 -137 -65.5t-47 -210.5v-92q0 -136 45 -208.5t138 -72.5q58 0 98.5 33.5t60.5 90t20 124.5v39h-193v45h243v-363h-39l-8 140q-49 -157 -192 -157
q-113 0 -171 86.5z" />
    <glyph glyph-name="H" unicode="H" 
d="M527 0h-54v340h-325v-340h-54v710h54v-323h325v323h54v-710z" />
    <glyph glyph-name="I" unicode="I" 
d="M524 666h-187v-622h187v-44h-428v44h187v622h-187v44h428v-44z" />
    <glyph glyph-name="J" unicode="J" 
d="M451 44.5q-58 -61.5 -158 -61.5q-111 0 -166.5 67t-55.5 185l54 14q0 -111 43.5 -165t126.5 -54q160 0 160 207v473h54v-483q0 -121 -58 -182.5z" />
    <glyph glyph-name="K" unicode="K" 
d="M494 0l-219 396l-126 -149v-247h-54v710h54v-396l323 396h64l-223 -273l244 -437h-63z" />
    <glyph glyph-name="L" unicode="L" 
d="M181 710v-663h362v-47h-416v710h54z" />
    <glyph glyph-name="M" unicode="M" 
d="M284 181l-103 336q-20 66 -33 140h-4q1 -54 1 -180v-477h-52v710h80l107 -370q20 -65 28 -96h4q13 51 27 96l107 370h80v-710h-52v477q0 72 2 180h-4q-18 -90 -33 -140l-104 -336h-51z" />
    <glyph glyph-name="N" unicode="N" 
d="M472 78h2q-2 48 -2 68v564h54v-710h-65l-287 581q-8 17 -16 37.5t-11 27.5h-1q2 -23 2 -61v-585h-55v710h72l281 -566q11 -23 26 -66z" />
    <glyph glyph-name="O" unicode="O" 
d="M129.5 69q-61.5 86 -61.5 247v78q0 161 61.5 247t180.5 86t180.5 -86t61.5 -247v-78q0 -161 -61.5 -247t-180.5 -86t-180.5 86zM496 316v78q0 286 -186 286t-186 -286v-78q0 -286 186 -286t186 286z" />
    <glyph glyph-name="P" unicode="P" 
d="M121 0v710h218q121 0 172.5 -59t51.5 -140q0 -84 -54 -144.5t-178 -60.5h-156v-306h-54zM466.5 397.5q38.5 46.5 38.5 112.5q0 62 -37.5 108t-127.5 46h-165v-313h160q93 0 131.5 46.5z" />
    <glyph glyph-name="Q" unicode="Q" 
d="M511 102.5q-41 -81.5 -122 -107.5q25 -37 52.5 -52t64.5 -15q16 0 44 6v-50q-34 -6 -53 -6q-53 0 -92 29t-60 78q-22 -2 -35 -2q-119 0 -180.5 86t-61.5 247v78q0 161 61.5 247t180.5 86t180.5 -86t61.5 -247v-78q0 -132 -41 -213.5zM496 316v78q0 286 -186 286
t-186 -286v-78q0 -286 186 -286t186 286z" />
    <glyph glyph-name="R" unicode="R" 
d="M317 314h-165v-314h-54v710h214q109 0 168 -51t59 -146q0 -77 -43.5 -127t-122.5 -64l182 -322h-60zM312 359q81 0 125.5 40t44.5 113q0 74 -43.5 113t-126.5 39h-160v-305h160z" />
    <glyph glyph-name="S" unicode="S" 
d="M137 46.5q-62 63.5 -70 165.5l53 8q6 -84 55 -137.5t139 -53.5q80 0 127 35.5t47 106.5q0 50 -17.5 80.5t-47.5 47t-78 29.5l-91 26q-75 21 -119.5 67t-44.5 118q0 55 26.5 97.5t74.5 66.5t111 24q102 0 164 -50.5t68 -159.5l-52 -12q-8 176 -179 176q-77 0 -117.5 -37
t-40.5 -99q0 -54 34 -89.5t96 -53.5l92 -26q83 -23 129.5 -66.5t46.5 -130.5q0 -90 -61 -143t-167 -53q-116 0 -178 63.5z" />
    <glyph glyph-name="T" unicode="T" 
d="M569 710v-47h-233v-663h-54v663h-232v47h519z" />
    <glyph glyph-name="U" unicode="U" 
d="M139 216q0 -86 45 -136t128 -50q82 0 125.5 49.5t43.5 136.5v494h54v-495q0 -107 -57 -169.5t-166 -62.5q-110 0 -169 63t-59 169v495h55v-494z" />
    <glyph glyph-name="V" unicode="V" 
d="M309 55h3q9 36 13 48l185 607h57l-224 -710h-66l-225 710h56l188 -607q4 -12 13 -48z" />
    <glyph glyph-name="W" unicode="W" 
d="M100 710l57 -553q6 -72 8 -108h6q5 46 21 114l92 380h52l92 -380q16 -68 21 -114h6q2 36 8 108l57 553h53l-80 -710h-70l-86 361q-18 73 -24 129h-6q-6 -56 -24 -129l-86 -361h-70l-80 710h53z" />
    <glyph glyph-name="X" unicode="X" 
d="M76 710h61l128 -225q31 -53 44 -86h2q19 43 43 85l128 226h62l-201 -343l224 -367h-65l-155 268q-26 46 -37 72h-2q-8 -19 -39 -75l-154 -265h-62l225 372z" />
    <glyph glyph-name="Y" unicode="Y" 
d="M338 0h-54v288l-236 422h60l203 -374l201 374h60l-234 -422v-288z" />
    <glyph glyph-name="Z" unicode="Z" 
d="M465 663h-371v47h429v-50l-389 -613h403v-47h-460v50z" />
    <glyph glyph-name="Aacute" unicode="&#xc1;" 
d="M520 0l-73 221h-273l-73 -221h-55l234 710h61l234 -710h-55zM432 269l-17 51q-61 187 -103 338h-2q-47 -164 -104 -338l-17 -51h243zM366 884h67l-98 -108h-50z" />
    <glyph glyph-name="Abreve" unicode="&#x102;" 
d="M520 0l-73 221h-273l-73 -221h-55l234 710h61l234 -710h-55zM432 269l-17 51q-61 187 -103 338h-2q-47 -164 -104 -338l-17 -51h243zM242.5 828q27.5 -21 68.5 -21t68.5 21.5t35.5 55.5h45q-9 -56 -50.5 -85t-98.5 -29q-58 0 -99.5 29t-50.5 85h47q7 -35 34.5 -56z" />
    <glyph glyph-name="Acircumflex" unicode="&#xc2;" 
d="M520 0l-73 221h-273l-73 -221h-55l234 710h61l234 -710h-55zM432 269l-17 51q-61 187 -103 338h-2q-47 -164 -104 -338l-17 -51h243zM389 776l-79 80l-78 -80h-54l105 108h56l105 -108h-55z" />
    <glyph glyph-name="Adieresis" unicode="&#xc4;" 
d="M520 0l-73 221h-273l-73 -221h-55l234 710h61l234 -710h-55zM432 269l-17 51q-61 187 -103 338h-2q-47 -164 -104 -338l-17 -51h243zM240 775h-72v109h72v-109zM453 775h-72v109h72v-109z" />
    <glyph glyph-name="AE" unicode="&#xc6;" 
d="M340 47h226v-47h-278v177h-157l-56 -177h-54l235 710h303v-47h-219v-276h202v-46h-202v-294zM145 221h143v451z" />
    <glyph glyph-name="AEacute" unicode="&#x1fc;" 
d="M340 47h226v-47h-278v177h-157l-56 -177h-54l235 710h303v-47h-219v-276h202v-46h-202v-294zM145 221h143v451zM474 884h67l-98 -108h-50z" />
    <glyph glyph-name="Agrave" unicode="&#xc0;" 
d="M520 0l-73 221h-273l-73 -221h-55l234 710h61l234 -710h-55zM432 269l-17 51q-61 187 -103 338h-2q-47 -164 -104 -338l-17 -51h243zM285 776l-98 108h67l81 -108h-50z" />
    <glyph glyph-name="Amacron" unicode="&#x100;" 
d="M520 0l-73 221h-273l-73 -221h-55l234 710h61l234 -710h-55zM432 269l-17 51q-61 187 -103 338h-2q-47 -164 -104 -338l-17 -51h243zM156 829h310v-41h-310v41z" />
    <glyph glyph-name="Aogonek" unicode="&#x104;" 
d="M599 -119q-6 -42 -32 -63t-64 -21q-35 0 -61 22.5t-26 61.5q0 80 104 120l-73 220h-273l-73 -221h-55l234 710h61l234 -710h-1q-64 -20 -91 -50t-27 -63q0 -25 14.5 -41t36.5 -16q23 0 38.5 17t18.5 43zM432 269l-17 51q-61 187 -103 338h-2q-47 -164 -104 -338l-17 -51
h243z" />
    <glyph glyph-name="Aring" unicode="&#xc5;" 
d="M520 0l-73 221h-273l-73 -221h-55l234 710h61l234 -710h-55zM432 269l-17 51q-61 187 -103 338h-2q-47 -164 -104 -338l-17 -51h243zM242 759.5q-27 26.5 -27 64.5q0 39 27 65t69 26t69 -26t27 -65q0 -38 -27 -64.5t-69 -26.5t-69 26.5zM354.5 781q15.5 17 15.5 43
t-15.5 43.5t-43.5 17.5t-43.5 -17.5t-15.5 -43.5t15.5 -43t43.5 -17t43.5 17z" />
    <glyph glyph-name="Atilde" unicode="&#xc3;" 
d="M520 0l-73 221h-273l-73 -221h-55l234 710h61l234 -710h-55zM432 269l-17 51q-61 187 -103 338h-2q-47 -164 -104 -338l-17 -51h243zM280 874q18 -9 44 -27q21 -16 36.5 -23.5t33.5 -7.5q21 0 37 15.5t19 49.5l37 -5q-4 -49 -30.5 -74.5t-65.5 -25.5q-25 0 -44 9.5
t-41 26.5q-20 15 -36 23t-35 8q-55 0 -63 -62l-38 6q6 49 35.5 72.5t68.5 23.5q24 0 42 -9z" />
    <glyph glyph-name="Cacute" unicode="&#x106;" 
d="M130 68q-61 85 -61 239v98q0 156 63.5 239t183.5 83q106 0 164 -64t68 -188l-54 -7q-7 103 -51.5 157.5t-127.5 54.5q-94 0 -142 -67t-48 -205v-97q0 -137 48.5 -209t142.5 -72q78 0 124 53t56 154l54 -9q-13 -113 -71.5 -179t-166.5 -66q-121 0 -182 85zM366 884h67
l-98 -108h-50z" />
    <glyph glyph-name="Ccaron" unicode="&#x10c;" 
d="M130 68q-61 85 -61 239v98q0 156 63.5 239t183.5 83q106 0 164 -64t68 -188l-54 -7q-7 103 -51.5 157.5t-127.5 54.5q-94 0 -142 -67t-48 -205v-97q0 -137 48.5 -209t142.5 -72q78 0 124 53t56 154l54 -9q-13 -113 -71.5 -179t-166.5 -66q-121 0 -182 85zM232 884l79 -80
l78 80h54l-105 -108h-56l-105 108h55z" />
    <glyph glyph-name="Ccedilla" unicode="&#xc7;" 
d="M483 54.5q-55 -65.5 -155 -71.5l-29 -49q8 7 19.5 10.5t22.5 3.5q30 0 49.5 -19t19.5 -50q0 -35 -26 -57.5t-61 -22.5q-28 0 -51 13.5t-33 43.5l38 8q5 -18 17.5 -26.5t28.5 -8.5q19 0 32.5 12t13.5 36q0 22 -13 33.5t-31 11.5q-25 0 -41 -16l-27 9l37 68
q-112 7 -168.5 91t-56.5 233v98q0 156 63.5 239t183.5 83q106 0 164 -64t68 -188l-54 -7q-7 103 -51.5 157.5t-127.5 54.5q-94 0 -142 -67t-48 -205v-97q0 -137 48.5 -209t142.5 -72q78 0 124 53t56 154l54 -9q-12 -108 -67 -173.5z" />
    <glyph glyph-name="Ccircumflex" unicode="&#x108;" 
d="M130 68q-61 85 -61 239v98q0 156 63.5 239t183.5 83q106 0 164 -64t68 -188l-54 -7q-7 103 -51.5 157.5t-127.5 54.5q-94 0 -142 -67t-48 -205v-97q0 -137 48.5 -209t142.5 -72q78 0 124 53t56 154l54 -9q-13 -113 -71.5 -179t-166.5 -66q-121 0 -182 85zM388 776l-79 80
l-78 -80h-54l105 108h56l105 -108h-55z" />
    <glyph glyph-name="Cdotaccent" unicode="&#x10a;" 
d="M130 68q-61 85 -61 239v98q0 156 63.5 239t183.5 83q106 0 164 -64t68 -188l-54 -7q-7 103 -51.5 157.5t-127.5 54.5q-94 0 -142 -67t-48 -205v-97q0 -137 48.5 -209t142.5 -72q78 0 124 53t56 154l54 -9q-13 -113 -71.5 -179t-166.5 -66q-121 0 -182 85zM349 775h-78
v109h78v-109z" />
    <glyph glyph-name="Dcaron" unicode="&#x10e;" 
d="M263 710q145 0 223 -94t78 -255q0 -108 -36 -189.5t-104.5 -126.5t-164.5 -45h-168v710h172zM395 86q56 40 85 111.5t29 163.5q0 140 -63 221.5t-183 81.5h-117v-618h114q79 0 135 40zM200 884l79 -80l78 80h54l-105 -108h-56l-105 108h55z" />
    <glyph glyph-name="Dcroat" unicode="&#x110;" 
d="M486 616q78 -94 78 -255q0 -108 -36 -189.5t-104.5 -126.5t-164.5 -45h-168v346h-91v44h91v320h172q145 0 223 -94zM395 86q56 40 85 111.5t29 163.5q0 140 -63 221.5t-183 81.5h-117v-274h171v-44h-171v-300h114q79 0 135 40z" />
    <glyph glyph-name="Eacute" unicode="&#xc9;" 
d="M515 663h-345v-276h328v-46h-328v-294h352v-47h-406v710h399v-47zM366 884h67l-98 -108h-50z" />
    <glyph glyph-name="Ebreve" unicode="&#x114;" 
d="M515 663h-345v-276h328v-46h-328v-294h352v-47h-406v710h399v-47zM241.5 828q27.5 -21 68.5 -21t68.5 21.5t35.5 55.5h45q-9 -56 -50.5 -85t-98.5 -29q-58 0 -99.5 29t-50.5 85h47q7 -35 34.5 -56z" />
    <glyph glyph-name="Ecaron" unicode="&#x11a;" 
d="M515 663h-345v-276h328v-46h-328v-294h352v-47h-406v710h399v-47zM232 884l79 -80l78 80h54l-105 -108h-56l-105 108h55z" />
    <glyph glyph-name="Ecircumflex" unicode="&#xca;" 
d="M515 663h-345v-276h328v-46h-328v-294h352v-47h-406v710h399v-47zM388 776l-79 80l-78 -80h-54l105 108h56l105 -108h-55z" />
    <glyph glyph-name="Edieresis" unicode="&#xcb;" 
d="M515 663h-345v-276h328v-46h-328v-294h352v-47h-406v710h399v-47zM239 775h-72v109h72v-109zM452 775h-72v109h72v-109z" />
    <glyph glyph-name="Edotaccent" unicode="&#x116;" 
d="M515 663h-345v-276h328v-46h-328v-294h352v-47h-406v710h399v-47zM349 775h-78v109h78v-109z" />
    <glyph glyph-name="Egrave" unicode="&#xc8;" 
d="M515 663h-345v-276h328v-46h-328v-294h352v-47h-406v710h399v-47zM285 776l-98 108h67l81 -108h-50z" />
    <glyph glyph-name="Emacron" unicode="&#x112;" 
d="M515 663h-345v-276h328v-46h-328v-294h352v-47h-406v710h399v-47zM155 829h310v-41h-310v41z" />
    <glyph glyph-name="Eogonek" unicode="&#x118;" 
d="M547 -119q-6 -42 -32 -63t-64 -21q-35 0 -61 22.5t-26 61.5q0 36 24 67t77 52h-349v710h399v-47h-345v-276h328v-46h-328v-294h352v-47q-64 -20 -91 -50t-27 -63q0 -25 14.5 -41t36.5 -16q23 0 38.5 17t18.5 43z" />
    <glyph glyph-name="Eth" unicode="&#xd0;" 
d="M486 616q78 -94 78 -255q0 -108 -36 -189.5t-104.5 -126.5t-164.5 -45h-168v346h-91v44h91v320h172q145 0 223 -94zM395 86q56 40 85 111.5t29 163.5q0 140 -63 221.5t-183 81.5h-117v-274h171v-44h-171v-300h114q79 0 135 40z" />
    <glyph glyph-name="Gbreve" unicode="&#x11e;" 
d="M126 69.5q-58 86.5 -58 234.5v107q0 152 62.5 234t179.5 82q107 0 159 -64t61 -155l-53 -6q-8 76 -49 127t-120 51q-90 0 -137 -65.5t-47 -210.5v-92q0 -136 45 -208.5t138 -72.5q58 0 98.5 33.5t60.5 90t20 124.5v39h-193v45h243v-363h-39l-8 140q-49 -157 -192 -157
q-113 0 -171 86.5zM241.5 828q27.5 -21 68.5 -21t68.5 21.5t35.5 55.5h45q-9 -56 -50.5 -85t-98.5 -29q-58 0 -99.5 29t-50.5 85h47q7 -35 34.5 -56z" />
    <glyph glyph-name="Gcircumflex" unicode="&#x11c;" 
d="M126 69.5q-58 86.5 -58 234.5v107q0 152 62.5 234t179.5 82q107 0 159 -64t61 -155l-53 -6q-8 76 -49 127t-120 51q-90 0 -137 -65.5t-47 -210.5v-92q0 -136 45 -208.5t138 -72.5q58 0 98.5 33.5t60.5 90t20 124.5v39h-193v45h243v-363h-39l-8 140q-49 -157 -192 -157
q-113 0 -171 86.5zM388 776l-79 80l-78 -80h-54l105 108h56l105 -108h-55z" />
    <glyph glyph-name="uni0122" unicode="&#x122;" 
d="M126 69.5q-58 86.5 -58 234.5v107q0 152 62.5 234t179.5 82q107 0 159 -64t61 -155l-53 -6q-8 76 -49 127t-120 51q-90 0 -137 -65.5t-47 -210.5v-92q0 -136 45 -208.5t138 -72.5q58 0 98.5 33.5t60.5 90t20 124.5v39h-193v45h243v-363h-39l-8 140q-49 -157 -192 -157
q-113 0 -171 86.5zM300.5 -165.5q5.5 16.5 5.5 46.5h-30v65h59v-62q0 -38 -9.5 -62.5t-33.5 -40.5l-16 24q19 13 24.5 29.5z" />
    <glyph glyph-name="Gdotaccent" unicode="&#x120;" 
d="M126 69.5q-58 86.5 -58 234.5v107q0 152 62.5 234t179.5 82q107 0 159 -64t61 -155l-53 -6q-8 76 -49 127t-120 51q-90 0 -137 -65.5t-47 -210.5v-92q0 -136 45 -208.5t138 -72.5q58 0 98.5 33.5t60.5 90t20 124.5v39h-193v45h243v-363h-39l-8 140q-49 -157 -192 -157
q-113 0 -171 86.5zM349 775h-78v109h78v-109z" />
    <glyph glyph-name="Hbar" unicode="&#x126;" 
d="M598 571v-37h-71v-534h-54v340h-325v-340h-54v534h-72v37h72v139h54v-139h325v139h54v-139h71zM473 387v147h-325v-147h325z" />
    <glyph glyph-name="Hcircumflex" unicode="&#x124;" 
d="M527 0h-54v340h-325v-340h-54v710h54v-323h325v323h54v-710zM388 776l-79 80l-78 -80h-54l105 108h56l105 -108h-55z" />
    <glyph glyph-name="Iacute" unicode="&#xcd;" 
d="M524 666h-187v-622h187v-44h-428v44h187v622h-187v44h428v-44zM366 884h67l-98 -108h-50z" />
    <glyph glyph-name="Ibreve" unicode="&#x12c;" 
d="M524 666h-187v-622h187v-44h-428v44h187v622h-187v44h428v-44zM241.5 828q27.5 -21 68.5 -21t68.5 21.5t35.5 55.5h45q-9 -56 -50.5 -85t-98.5 -29q-58 0 -99.5 29t-50.5 85h47q7 -35 34.5 -56z" />
    <glyph glyph-name="Icircumflex" unicode="&#xce;" 
d="M524 666h-187v-622h187v-44h-428v44h187v622h-187v44h428v-44zM388 776l-79 80l-78 -80h-54l105 108h56l105 -108h-55z" />
    <glyph glyph-name="Idieresis" unicode="&#xcf;" 
d="M524 666h-187v-622h187v-44h-428v44h187v622h-187v44h428v-44zM239 775h-72v109h72v-109zM452 775h-72v109h72v-109z" />
    <glyph glyph-name="Idotaccent" unicode="&#x130;" 
d="M524 666h-187v-622h187v-44h-428v44h187v622h-187v44h428v-44zM349 775h-78v109h78v-109z" />
    <glyph glyph-name="Igrave" unicode="&#xcc;" 
d="M524 666h-187v-622h187v-44h-428v44h187v622h-187v44h428v-44zM285 776l-98 108h67l81 -108h-50z" />
    <glyph glyph-name="IJ" unicode="&#x132;" 
d="M167 0h-54v710h54v-710zM332 41q66 0 102 29.5t36 108.5v531h54v-534q0 -90 -49 -136.5t-141 -46.5q-52 0 -91 11v46q36 -9 89 -9z" />
    <glyph glyph-name="uni00A40301" 
d="M451 44.5q-58 -61.5 -158 -61.5q-111 0 -166.5 67t-55.5 185l54 14q0 -111 43.5 -165t126.5 -54q160 0 160 207v473h54v-483q0 -121 -58 -182.5zM538 884h67l-98 -108h-50z" />
    <glyph glyph-name="Imacron" unicode="&#x12a;" 
d="M524 666h-187v-622h187v-44h-428v44h187v622h-187v44h428v-44zM155 829h310v-41h-310v41z" />
    <glyph glyph-name="Iogonek" unicode="&#x12e;" 
d="M548 -119q-6 -42 -32 -63t-64 -21q-35 0 -61 22.5t-26 61.5q0 36 24 67t77 52h-370v44h187v622h-187v44h428v-44h-187v-622h187v-44h-1q-64 -20 -91 -50t-27 -63q0 -25 14.5 -41t36.5 -16q23 0 38.5 17t18.5 43z" />
    <glyph glyph-name="Itilde" unicode="&#x128;" 
d="M168 783l-36 5q6 50 35 73.5t69 23.5q24 0 43 -9.5t42 -27.5q21 -16 36 -24t33 -8q22 0 40 15.5t21 51.5l36 -5q-4 -51 -31 -76.5t-69 -25.5q-25 0 -43 9.5t-41 27.5q-22 16 -36 24t-32 8q-55 0 -67 -62zM524 666h-187v-622h187v-44h-428v44h187v622h-187v44h428v-44z
" />
    <glyph glyph-name="Jcircumflex" unicode="&#x134;" 
d="M451 44.5q-58 -61.5 -158 -61.5q-111 0 -166.5 67t-55.5 185l54 14q0 -111 43.5 -165t126.5 -54q160 0 160 207v473h54v-483q0 -121 -58 -182.5zM560 776l-79 80l-78 -80h-54l105 108h56l105 -108h-55z" />
    <glyph glyph-name="uni0136" unicode="&#x136;" 
d="M494 0l-219 396l-126 -149v-247h-54v710h54v-396l323 396h64l-223 -273l244 -437h-63zM304.5 -165.5q5.5 16.5 5.5 46.5h-30v65h59v-62q0 -38 -9.5 -62.5t-33.5 -40.5l-16 24q19 13 24.5 29.5z" />
    <glyph glyph-name="Lacute" unicode="&#x139;" 
d="M181 710v-663h362v-47h-416v710h54zM210 884h67l-98 -108h-50z" />
    <glyph glyph-name="Lcaron" unicode="&#x13d;" 
d="M181 710v-663h362v-47h-416v710h54zM313 560l18 167h54l-37 -167h-35z" />
    <glyph glyph-name="uni013B" unicode="&#x13b;" 
d="M181 710v-663h362v-47h-416v710h54zM304.5 -165.5q5.5 16.5 5.5 46.5h-30v65h59v-62q0 -38 -9.5 -62.5t-33.5 -40.5l-16 24q19 13 24.5 29.5z" />
    <glyph glyph-name="Ldot" unicode="&#x13f;" 
d="M181 710v-663h362v-47h-416v710h54zM433 386h-109v114h109v-114z" />
    <glyph glyph-name="Lslash" unicode="&#x141;" 
d="M181 47h362v-47h-416v316l-111 -69v49l111 69v345h54v-311l188 118v-49l-188 -118v-303z" />
    <glyph glyph-name="Nacute" unicode="&#x143;" 
d="M472 78h2q-2 48 -2 68v564h54v-710h-65l-287 581q-8 17 -16 37.5t-11 27.5h-1q2 -23 2 -61v-585h-55v710h72l281 -566q11 -23 26 -66zM366 884h67l-98 -108h-50z" />
    <glyph glyph-name="Ncaron" unicode="&#x147;" 
d="M472 78h2q-2 48 -2 68v564h54v-710h-65l-287 581q-8 17 -16 37.5t-11 27.5h-1q2 -23 2 -61v-585h-55v710h72l281 -566q11 -23 26 -66zM232 884l79 -80l78 80h54l-105 -108h-56l-105 108h55z" />
    <glyph glyph-name="uni0145" unicode="&#x145;" 
d="M472 78h2q-2 48 -2 68v564h54v-710h-65l-287 581q-8 17 -16 37.5t-11 27.5h-1q2 -23 2 -61v-585h-55v710h72l281 -566q11 -23 26 -66zM304.5 -165.5q5.5 16.5 5.5 46.5h-30v65h59v-62q0 -38 -9.5 -62.5t-33.5 -40.5l-16 24q19 13 24.5 29.5z" />
    <glyph glyph-name="Ntilde" unicode="&#xd1;" 
d="M472 78h2q-2 48 -2 68v564h54v-710h-65l-287 581q-8 17 -16 37.5t-11 27.5h-1q2 -23 2 -61v-585h-55v710h72l281 -566q11 -23 26 -66zM279 874q18 -9 44 -27q21 -16 36.5 -23.5t33.5 -7.5q21 0 37 15.5t19 49.5l37 -5q-4 -49 -30.5 -74.5t-65.5 -25.5q-25 0 -44 9.5
t-41 26.5q-20 15 -36 23t-35 8q-55 0 -63 -62l-38 6q6 49 35.5 72.5t68.5 23.5q24 0 42 -9z" />
    <glyph glyph-name="Eng" unicode="&#x14a;" 
d="M357 -158q108 0 108 139v13l-285 590q-8 17 -16 37.5t-11 26.5h-2q2 -22 2 -60v-588h-51v710h72l267 -554q18 -45 26 -69h2q-2 25 -2 71v552h51v-728q0 -102 -45.5 -145.5t-117.5 -43.5q-44 0 -71 7v49q34 -7 73 -7z" />
    <glyph glyph-name="Oacute" unicode="&#xd3;" 
d="M129.5 69q-61.5 86 -61.5 247v78q0 161 61.5 247t180.5 86t180.5 -86t61.5 -247v-78q0 -161 -61.5 -247t-180.5 -86t-180.5 86zM496 316v78q0 286 -186 286t-186 -286v-78q0 -286 186 -286t186 286zM366 884h67l-98 -108h-50z" />
    <glyph glyph-name="Obreve" unicode="&#x14e;" 
d="M129.5 69q-61.5 86 -61.5 247v78q0 161 61.5 247t180.5 86t180.5 -86t61.5 -247v-78q0 -161 -61.5 -247t-180.5 -86t-180.5 86zM496 316v78q0 286 -186 286t-186 -286v-78q0 -286 186 -286t186 286zM241.5 828q27.5 -21 68.5 -21t68.5 21.5t35.5 55.5h45
q-9 -56 -50.5 -85t-98.5 -29q-58 0 -99.5 29t-50.5 85h47q7 -35 34.5 -56z" />
    <glyph glyph-name="Ocircumflex" unicode="&#xd4;" 
d="M129.5 69q-61.5 86 -61.5 247v78q0 161 61.5 247t180.5 86t180.5 -86t61.5 -247v-78q0 -161 -61.5 -247t-180.5 -86t-180.5 86zM496 316v78q0 286 -186 286t-186 -286v-78q0 -286 186 -286t186 286zM388 776l-79 80l-78 -80h-54l105 108h56l105 -108h-55z" />
    <glyph glyph-name="Odieresis" unicode="&#xd6;" 
d="M129.5 69q-61.5 86 -61.5 247v78q0 161 61.5 247t180.5 86t180.5 -86t61.5 -247v-78q0 -161 -61.5 -247t-180.5 -86t-180.5 86zM496 316v78q0 286 -186 286t-186 -286v-78q0 -286 186 -286t186 286zM239 775h-72v109h72v-109zM452 775h-72v109h72v-109z" />
    <glyph glyph-name="OE" unicode="&#x152;" 
d="M566 47v-47h-306q-104 0 -162 70q-58 72 -58 207v158q0 147 63 216q54 59 152 59h304v-47h-219v-276h202v-46h-202v-294h226zM288 46v618h-38q-76 0 -117 -57q-40 -57 -40 -172v-158q0 -115 43 -173q42 -58 118 -58h34z" />
    <glyph glyph-name="Ograve" unicode="&#xd2;" 
d="M129.5 69q-61.5 86 -61.5 247v78q0 161 61.5 247t180.5 86t180.5 -86t61.5 -247v-78q0 -161 -61.5 -247t-180.5 -86t-180.5 86zM496 316v78q0 286 -186 286t-186 -286v-78q0 -286 186 -286t186 286zM285 776l-98 108h67l81 -108h-50z" />
    <glyph glyph-name="Ohungarumlaut" unicode="&#x150;" 
d="M129.5 69q-61.5 86 -61.5 247v78q0 161 61.5 247t180.5 86t180.5 -86t61.5 -247v-78q0 -161 -61.5 -247t-180.5 -86t-180.5 86zM496 316v78q0 286 -186 286t-186 -286v-78q0 -286 186 -286t186 286zM275 884h54l-62 -108h-50zM410 884h55l-62 -108h-50z" />
    <glyph glyph-name="Omacron" unicode="&#x14c;" 
d="M129.5 69q-61.5 86 -61.5 247v78q0 161 61.5 247t180.5 86t180.5 -86t61.5 -247v-78q0 -161 -61.5 -247t-180.5 -86t-180.5 86zM496 316v78q0 286 -186 286t-186 -286v-78q0 -286 186 -286t186 286zM155 829h310v-41h-310v41z" />
    <glyph glyph-name="Oslash" unicode="&#xd8;" 
d="M502 623q50 -85 50 -229v-78q0 -161 -61.5 -247t-180.5 -86t-180 86l-58 -86l-33 18l69 103q-40 80 -40 212v78q0 161 61.5 247t180.5 86q107 0 169 -71l47 69l32 -19zM144 158l305 452q-46 70 -139 70q-186 0 -186 -286v-78q0 -93 20 -158zM468 573l-306 -457
q44 -86 148 -86q186 0 186 286v78q0 113 -28 179z" />
    <glyph glyph-name="Oslashacute" unicode="&#x1fe;" 
d="M502 623q50 -85 50 -229v-78q0 -161 -61.5 -247t-180.5 -86t-180 86l-58 -86l-33 18l69 103q-40 80 -40 212v78q0 161 61.5 247t180.5 86q107 0 169 -71l47 69l32 -19zM144 158l305 452q-46 70 -139 70q-186 0 -186 -286v-78q0 -93 20 -158zM468 573l-306 -457
q44 -86 148 -86q186 0 186 286v78q0 113 -28 179zM366 884h67l-98 -108h-50z" />
    <glyph glyph-name="Otilde" unicode="&#xd5;" 
d="M129.5 69q-61.5 86 -61.5 247v78q0 161 61.5 247t180.5 86t180.5 -86t61.5 -247v-78q0 -161 -61.5 -247t-180.5 -86t-180.5 86zM496 316v78q0 286 -186 286t-186 -286v-78q0 -286 186 -286t186 286zM279 874q18 -9 44 -27q21 -16 36.5 -23.5t33.5 -7.5q21 0 37 15.5
t19 49.5l37 -5q-4 -49 -30.5 -74.5t-65.5 -25.5q-25 0 -44 9.5t-41 26.5q-20 15 -36 23t-35 8q-55 0 -63 -62l-38 6q6 49 35.5 72.5t68.5 23.5q24 0 42 -9z" />
    <glyph glyph-name="Racute" unicode="&#x154;" 
d="M317 314h-165v-314h-54v710h214q109 0 168 -51t59 -146q0 -77 -43.5 -127t-122.5 -64l182 -322h-60zM312 359q81 0 125.5 40t44.5 113q0 74 -43.5 113t-126.5 39h-160v-305h160zM365 884h67l-98 -108h-50z" />
    <glyph glyph-name="Rcaron" unicode="&#x158;" 
d="M317 314h-165v-314h-54v710h214q109 0 168 -51t59 -146q0 -77 -43.5 -127t-122.5 -64l182 -322h-60zM312 359q81 0 125.5 40t44.5 113q0 74 -43.5 113t-126.5 39h-160v-305h160zM232 884l79 -80l78 80h54l-105 -108h-56l-105 108h55z" />
    <glyph glyph-name="uni0156" unicode="&#x156;" 
d="M317 314h-165v-314h-54v710h214q109 0 168 -51t59 -146q0 -77 -43.5 -127t-122.5 -64l182 -322h-60zM312 359q81 0 125.5 40t44.5 113q0 74 -43.5 113t-126.5 39h-160v-305h160zM304.5 -165.5q5.5 16.5 5.5 46.5h-30v65h59v-62q0 -38 -9.5 -62.5t-33.5 -40.5l-16 24
q19 13 24.5 29.5z" />
    <glyph glyph-name="Sacute" unicode="&#x15a;" 
d="M137 46.5q-62 63.5 -70 165.5l53 8q6 -84 55 -137.5t139 -53.5q80 0 127 35.5t47 106.5q0 50 -17.5 80.5t-47.5 47t-78 29.5l-91 26q-75 21 -119.5 67t-44.5 118q0 55 26.5 97.5t74.5 66.5t111 24q102 0 164 -50.5t68 -159.5l-52 -12q-8 176 -179 176q-77 0 -117.5 -37
t-40.5 -99q0 -54 34 -89.5t96 -53.5l92 -26q83 -23 129.5 -66.5t46.5 -130.5q0 -90 -61 -143t-167 -53q-116 0 -178 63.5zM366 884h67l-98 -108h-50z" />
    <glyph glyph-name="Scaron" unicode="&#x160;" 
d="M137 46.5q-62 63.5 -70 165.5l53 8q6 -84 55 -137.5t139 -53.5q80 0 127 35.5t47 106.5q0 50 -17.5 80.5t-47.5 47t-78 29.5l-91 26q-75 21 -119.5 67t-44.5 118q0 55 26.5 97.5t74.5 66.5t111 24q102 0 164 -50.5t68 -159.5l-52 -12q-8 176 -179 176q-77 0 -117.5 -37
t-40.5 -99q0 -54 34 -89.5t96 -53.5l92 -26q83 -23 129.5 -66.5t46.5 -130.5q0 -90 -61 -143t-167 -53q-116 0 -178 63.5zM232 884l79 -80l78 80h54l-105 -108h-56l-105 108h55z" />
    <glyph glyph-name="Scedilla" unicode="&#x15e;" 
d="M492.5 45.5q-50.5 -51.5 -140.5 -60.5l-30 -51q8 7 19.5 10.5t22.5 3.5q30 0 49.5 -19t19.5 -50q0 -35 -26 -57.5t-61 -22.5q-28 0 -51 13.5t-33 43.5l38 8q5 -18 17.5 -26.5t28.5 -8.5q19 0 32.5 12t13.5 36q0 22 -13 33.5t-31 11.5q-25 0 -41 -16l-27 9l37 68h-2
q-116 0 -178 63.5t-70 165.5l53 8q6 -84 55 -137.5t139 -53.5q80 0 127 35.5t47 106.5q0 50 -17.5 80.5t-47.5 47t-78 29.5l-91 26q-75 21 -119.5 67t-44.5 118q0 55 26.5 97.5t74.5 66.5t111 24q102 0 164 -50.5t68 -159.5l-52 -12q-8 176 -179 176q-77 0 -117.5 -37
t-40.5 -99q0 -54 34 -89.5t96 -53.5l92 -26q83 -23 129.5 -66.5t46.5 -130.5q0 -82 -50.5 -133.5z" />
    <glyph glyph-name="Scircumflex" unicode="&#x15c;" 
d="M137 46.5q-62 63.5 -70 165.5l53 8q6 -84 55 -137.5t139 -53.5q80 0 127 35.5t47 106.5q0 50 -17.5 80.5t-47.5 47t-78 29.5l-91 26q-75 21 -119.5 67t-44.5 118q0 55 26.5 97.5t74.5 66.5t111 24q102 0 164 -50.5t68 -159.5l-52 -12q-8 176 -179 176q-77 0 -117.5 -37
t-40.5 -99q0 -54 34 -89.5t96 -53.5l92 -26q83 -23 129.5 -66.5t46.5 -130.5q0 -90 -61 -143t-167 -53q-116 0 -178 63.5zM388 776l-79 80l-78 -80h-54l105 108h56l105 -108h-55z" />
    <glyph glyph-name="uni0218" unicode="&#x218;" 
d="M137 46.5q-62 63.5 -70 165.5l53 8q6 -84 55 -137.5t139 -53.5q80 0 127 35.5t47 106.5q0 50 -17.5 80.5t-47.5 47t-78 29.5l-91 26q-75 21 -119.5 67t-44.5 118q0 55 26.5 97.5t74.5 66.5t111 24q102 0 164 -50.5t68 -159.5l-52 -12q-8 176 -179 176q-77 0 -117.5 -37
t-40.5 -99q0 -54 34 -89.5t96 -53.5l92 -26q83 -23 129.5 -66.5t46.5 -130.5q0 -90 -61 -143t-167 -53q-116 0 -178 63.5zM338.5 -165.5q5.5 16.5 5.5 46.5h-30v65h59v-62q0 -38 -9.5 -62.5t-33.5 -40.5l-16 24q19 13 24.5 29.5z" />
    <glyph glyph-name="Tbar" unicode="&#x166;" 
d="M569 663h-233v-217h203v-37h-203v-409h-54v409h-202v37h202v217h-232v47h519v-47z" />
    <glyph glyph-name="Tcaron" unicode="&#x164;" 
d="M569 710v-47h-233v-663h-54v663h-232v47h519zM232 884l79 -80l78 80h54l-105 -108h-56l-105 108h55z" />
    <glyph glyph-name="uni0162" unicode="&#x162;" 
d="M327 0l-39 -66q8 7 19.5 10.5t22.5 3.5q30 0 49.5 -19t19.5 -50q0 -35 -26 -57.5t-61 -22.5q-28 0 -51 13.5t-33 43.5l38 8q5 -18 17.5 -26.5t28.5 -8.5q19 0 32.5 12t13.5 36q0 22 -13 33.5t-31 11.5q-25 0 -41 -16l-27 9l46 85h-10v663h-232v47h519v-47h-233v-663h-9z
" />
    <glyph glyph-name="uni021A" unicode="&#x21a;" 
d="M569 710v-47h-233v-663h-54v663h-232v47h519zM304.5 -165.5q5.5 16.5 5.5 46.5h-30v65h59v-62q0 -38 -9.5 -62.5t-33.5 -40.5l-16 24q19 13 24.5 29.5z" />
    <glyph glyph-name="Thorn" unicode="&#xde;" 
d="M110 0v710h53v-122h165q114 0 165.5 -55t51.5 -132q0 -47 -20.5 -91.5t-69 -74.5t-127.5 -30h-165v-205h-53zM328 250q86 0 124.5 45.5t38.5 105.5q0 58 -38.5 100t-124.5 42h-165v-293h165z" />
    <glyph glyph-name="Uacute" unicode="&#xda;" 
d="M139 216q0 -86 45 -136t128 -50q82 0 125.5 49.5t43.5 136.5v494h54v-495q0 -107 -57 -169.5t-166 -62.5q-110 0 -169 63t-59 169v495h55v-494zM366 884h67l-98 -108h-50z" />
    <glyph glyph-name="Ubreve" unicode="&#x16c;" 
d="M139 216q0 -86 45 -136t128 -50q82 0 125.5 49.5t43.5 136.5v494h54v-495q0 -107 -57 -169.5t-166 -62.5q-110 0 -169 63t-59 169v495h55v-494zM241.5 828q27.5 -21 68.5 -21t68.5 21.5t35.5 55.5h45q-9 -56 -50.5 -85t-98.5 -29q-58 0 -99.5 29t-50.5 85h47
q7 -35 34.5 -56z" />
    <glyph glyph-name="Ucircumflex" unicode="&#xdb;" 
d="M139 216q0 -86 45 -136t128 -50q82 0 125.5 49.5t43.5 136.5v494h54v-495q0 -107 -57 -169.5t-166 -62.5q-110 0 -169 63t-59 169v495h55v-494zM388 776l-79 80l-78 -80h-54l105 108h56l105 -108h-55z" />
    <glyph glyph-name="Udieresis" unicode="&#xdc;" 
d="M139 216q0 -86 45 -136t128 -50q82 0 125.5 49.5t43.5 136.5v494h54v-495q0 -107 -57 -169.5t-166 -62.5q-110 0 -169 63t-59 169v495h55v-494zM239 775h-72v109h72v-109zM452 775h-72v109h72v-109z" />
    <glyph glyph-name="Ugrave" unicode="&#xd9;" 
d="M139 216q0 -86 45 -136t128 -50q82 0 125.5 49.5t43.5 136.5v494h54v-495q0 -107 -57 -169.5t-166 -62.5q-110 0 -169 63t-59 169v495h55v-494zM285 776l-98 108h67l81 -108h-50z" />
    <glyph glyph-name="Uhungarumlaut" unicode="&#x170;" 
d="M139 216q0 -86 45 -136t128 -50q82 0 125.5 49.5t43.5 136.5v494h54v-495q0 -107 -57 -169.5t-166 -62.5q-110 0 -169 63t-59 169v495h55v-494zM275 884h54l-62 -108h-50zM410 884h55l-62 -108h-50z" />
    <glyph glyph-name="Umacron" unicode="&#x16a;" 
d="M139 216q0 -86 45 -136t128 -50q82 0 125.5 49.5t43.5 136.5v494h54v-495q0 -107 -57 -169.5t-166 -62.5q-110 0 -169 63t-59 169v495h55v-494zM155 829h310v-41h-310v41z" />
    <glyph glyph-name="Uogonek" unicode="&#x172;" 
d="M535 710v-495q0 -87 -38.5 -145.5t-112.5 -77.5q-51 -21 -72.5 -48.5t-21.5 -56.5q0 -25 14.5 -41t36.5 -16q23 0 38.5 17t18.5 43l35 -9q-6 -42 -32 -63t-64 -21q-35 0 -61 22.5t-26 61.5q0 63 66 102h-4q-110 0 -169 63t-59 169v495h55v-494q0 -86 45 -136t128 -50
q82 0 125.5 49.5t43.5 136.5v494h54z" />
    <glyph glyph-name="Uring" unicode="&#x16e;" 
d="M139 216q0 -86 45 -136t128 -50q82 0 125.5 49.5t43.5 136.5v494h54v-495q0 -107 -57 -169.5t-166 -62.5q-110 0 -169 63t-59 169v495h55v-494zM241 759.5q-27 26.5 -27 64.5q0 39 27 65t69 26t69 -26t27 -65q0 -38 -27 -64.5t-69 -26.5t-69 26.5zM353.5 781
q15.5 17 15.5 43t-15.5 43.5t-43.5 17.5t-43.5 -17.5t-15.5 -43.5t15.5 -43t43.5 -17t43.5 17z" />
    <glyph glyph-name="Utilde" unicode="&#x168;" 
d="M139 216q0 -86 45 -136t128 -50q82 0 125.5 49.5t43.5 136.5v494h54v-495q0 -107 -57 -169.5t-166 -62.5q-110 0 -169 63t-59 169v495h55v-494zM279 874q18 -9 44 -27q21 -16 36.5 -23.5t33.5 -7.5q21 0 37 15.5t19 49.5l37 -5q-4 -49 -30.5 -74.5t-65.5 -25.5
q-25 0 -44 9.5t-41 26.5q-20 15 -36 23t-35 8q-55 0 -63 -62l-38 6q6 49 35.5 72.5t68.5 23.5q24 0 42 -9z" />
    <glyph glyph-name="Wacute" unicode="&#x1e82;" 
d="M100 710l57 -553q6 -72 8 -108h6q5 46 21 114l92 380h52l92 -380q16 -68 21 -114h6q2 36 8 108l57 553h53l-80 -710h-70l-86 361q-18 73 -24 129h-6q-6 -56 -24 -129l-86 -361h-70l-80 710h53zM366 884h67l-98 -108h-50z" />
    <glyph glyph-name="Wcircumflex" unicode="&#x174;" 
d="M100 710l57 -553q6 -72 8 -108h6q5 46 21 114l92 380h52l92 -380q16 -68 21 -114h6q2 36 8 108l57 553h53l-80 -710h-70l-86 361q-18 73 -24 129h-6q-6 -56 -24 -129l-86 -361h-70l-80 710h53zM388 776l-79 80l-78 -80h-54l105 108h56l105 -108h-55z" />
    <glyph glyph-name="Wdieresis" unicode="&#x1e84;" 
d="M100 710l57 -553q6 -72 8 -108h6q5 46 21 114l92 380h52l92 -380q16 -68 21 -114h6q2 36 8 108l57 553h53l-80 -710h-70l-86 361q-18 73 -24 129h-6q-6 -56 -24 -129l-86 -361h-70l-80 710h53zM239 775h-72v109h72v-109zM452 775h-72v109h72v-109z" />
    <glyph glyph-name="Wgrave" unicode="&#x1e80;" 
d="M100 710l57 -553q6 -72 8 -108h6q5 46 21 114l92 380h52l92 -380q16 -68 21 -114h6q2 36 8 108l57 553h53l-80 -710h-70l-86 361q-18 73 -24 129h-6q-6 -56 -24 -129l-86 -361h-70l-80 710h53zM285 776l-98 108h67l81 -108h-50z" />
    <glyph glyph-name="Yacute" unicode="&#xdd;" 
d="M338 0h-54v288l-236 422h60l203 -374l201 374h60l-234 -422v-288zM366 884h67l-98 -108h-50z" />
    <glyph glyph-name="Ycircumflex" unicode="&#x176;" 
d="M338 0h-54v288l-236 422h60l203 -374l201 374h60l-234 -422v-288zM388 776l-79 80l-78 -80h-54l105 108h56l105 -108h-55z" />
    <glyph glyph-name="Ydieresis" unicode="&#x178;" 
d="M338 0h-54v288l-236 422h60l203 -374l201 374h60l-234 -422v-288zM239 775h-72v109h72v-109zM452 775h-72v109h72v-109z" />
    <glyph glyph-name="Ygrave" unicode="&#x1ef2;" 
d="M338 0h-54v288l-236 422h60l203 -374l201 374h60l-234 -422v-288zM285 776l-98 108h67l81 -108h-50z" />
    <glyph glyph-name="Zacute" unicode="&#x179;" 
d="M465 663h-371v47h429v-50l-389 -613h403v-47h-460v50zM366 884h67l-98 -108h-50z" />
    <glyph glyph-name="Zcaron" unicode="&#x17d;" 
d="M465 663h-371v47h429v-50l-389 -613h403v-47h-460v50zM232 884l79 -80l78 80h54l-105 -108h-56l-105 108h55z" />
    <glyph glyph-name="Zdotaccent" unicode="&#x17b;" 
d="M465 663h-371v47h429v-50l-389 -613h403v-47h-460v50zM349 775h-78v109h78v-109z" />
    <glyph glyph-name="a" unicode="a" 
d="M497 0h-53q-6 63 -7 113q-52 -125 -182 -125q-73 0 -118.5 39.5t-45.5 104.5q0 66 52 103q44 33 151 45l140 17v9q0 86 -31.5 125t-100.5 39q-67 0 -103 -33t-39 -91h-53q5 79 57 122.5t141 43.5q92 0 135.5 -50.5t43.5 -156.5v-123q0 -120 13 -182zM177 205.5
q-34 -25.5 -34 -71.5q0 -48 32.5 -76t86.5 -28q78 0 125.5 52.5t47.5 135.5v40l-149 -18q-75 -9 -109 -34.5z" />
    <glyph glyph-name="b" unicode="b" 
d="M233 476.5q47 35.5 107 35.5q64 0 110.5 -33t71 -92.5t24.5 -135.5q0 -119 -55.5 -191t-153.5 -72q-59 0 -106.5 35t-64.5 95l-9 -118h-39v725h50v-346q18 62 65 97.5zM210 90.5q44 -58.5 119 -58.5q77 0 121 59.5t44 159.5q0 99 -43 158t-120 59q-75 0 -120 -59
t-45 -149v-21q0 -90 44 -148.5z" />
    <glyph glyph-name="c" unicode="c" 
d="M145 60.5q-57 72.5 -57 191.5q0 117 57 188.5t166 71.5q82 0 135.5 -47t61.5 -130l-51 -5q-9 67 -47.5 102.5t-103.5 35.5q-80 0 -123 -58.5t-43 -156.5q0 -101 44 -161t125 -60q65 0 103.5 37t47.5 103l48 -6q-12 -80 -62 -129t-137 -49q-107 0 -164 72.5z" />
    <glyph glyph-name="d" unicode="d" 
d="M500 0h-48v122q-19 -62 -65 -98t-108 -36q-64 0 -111 33t-72 92.5t-25 137.5q0 77 26.5 136t75 92t113.5 33q60 0 103 -33t61 -93v339h50v-725zM407.5 409.5q-43.5 58.5 -117.5 58.5q-78 0 -122 -58.5t-44 -158.5t43.5 -159.5t119.5 -59.5q75 0 119.5 59t44.5 150v19
q0 91 -43.5 149.5z" />
    <glyph glyph-name="e" unicode="e" 
d="M143 243v-2q0 -97 45.5 -153t126.5 -56q62 1 99.5 35t52.5 87l44 -18q-22 -69 -72.5 -108.5t-123.5 -39.5q-109 0 -166 71t-57 199q0 76 26.5 133.5t75.5 89t115 31.5q107 0 156 -68.5t49 -178.5l-1 -22h-370zM218.5 445.5q-36.5 -26.5 -55.5 -69t-20 -91.5h319
q1 81 -36.5 134t-118.5 53q-52 0 -88.5 -26.5z" />
    <glyph glyph-name="f" unicode="f" 
d="M308 459v-459h-50v459h-160v41h160v68q0 160 172 160q41 0 76 -7v-45q-40 6 -76 6q-65 0 -93.5 -27t-28.5 -91v-64h198v-41h-198z" />
    <glyph glyph-name="g" unicode="g" 
d="M508 42.5q40 -33.5 40 -95.5q0 -74 -59.5 -114t-169.5 -40q-105 0 -165 36.5t-60 100.5q0 41 23.5 69.5t65.5 42.5q-31 11 -47.5 33t-16.5 52q0 31 19 55.5t52 35.5q-26 22 -40.5 54.5t-14.5 71.5q0 75 49 121.5t128 46.5q53 0 98 -24q12 40 42.5 62t73.5 22q9 0 21 -2
v-44q-18 2 -22 2q-68 0 -89 -58q26 -22 40 -54t14 -70q0 -74 -50 -120.5t-130 -46.5q-55 0 -96 23q-22 -8 -35.5 -25.5t-13.5 -38.5q0 -29 23 -45.5t63 -16.5h144q73 0 113 -33.5zM218 436.5q-36 -35.5 -36 -92.5q0 -56 35.5 -91t92.5 -35q58 0 95 36t37 92q0 55 -36.5 90.5
t-93.5 35.5q-58 0 -94 -35.5zM498 -56q0 87 -111 87h-137q-18 0 -35 3q-34 -12 -52.5 -36t-18.5 -56q0 -52 46 -79.5t133 -27.5q175 0 175 109z" />
    <glyph glyph-name="h" unicode="h" 
d="M225 477.5q45 34.5 107 34.5q81 0 126 -44q51 -51 51 -163v-305h-50v305q0 93 -38 128t-101 35q-53 0 -88.5 -29.5t-53 -76t-17.5 -96.5v-266h-50v725h50v-345q19 63 64 97.5z" />
    <glyph glyph-name="i" unicode="i" 
d="M136 42h169v416h-157v42h207v-458h179v-42h-398v42zM363 600h-77v123h77v-123z" />
    <glyph glyph-name="j" unicode="j" 
d="M113 -182v44q65 -18 113 -18q58 0 88 29.5t30 96.5v488h-190v42h240v-534q0 -79 -41 -123.5t-120 -44.5q-68 0 -120 20zM402 600h-77v123h77v-123z" />
    <glyph glyph-name="k" unicode="k" 
d="M473 0l-178 278l-122 -117v-161h-50v725h50v-505l281 280h66l-189 -185l203 -315h-61z" />
    <glyph glyph-name="l" unicode="l" 
d="M136 42h166v641h-156v42h207v-683h181v-42h-398v42z" />
    <glyph glyph-name="m" unicode="m" 
d="M149 483.5q31 28.5 71 28.5q41 0 68.5 -28.5t36.5 -75.5q16 49 47.5 76.5t73.5 27.5q54 0 85 -40t31 -121v-351h-50v345q0 123 -79 123q-49 0 -74 -38t-25 -89v-341h-49v342q0 126 -79 126q-51 0 -75 -49t-24 -110v-309h-50v500h47v-104q14 59 45 87.5z" />
    <glyph glyph-name="n" unicode="n" 
d="M225 477q45 35 111 35q77 0 122 -44q51 -49 51 -163v-305h-50v305q0 163 -134 163q-54 0 -91 -29.5t-55 -75.5t-18 -97v-266h-50v500h48v-123q21 65 66 100z" />
    <glyph glyph-name="o" unicode="o" 
d="M192.5 20q-50.5 32 -78.5 91.5t-28 138.5q0 80 28 139t78.5 91t117.5 32t117.5 -32t78.5 -91t28 -139t-28 -139t-78.5 -91t-117.5 -32t-117.5 32zM435.5 90.5q46.5 58.5 46.5 159.5t-46.5 159.5t-125.5 58.5t-125.5 -58.5t-46.5 -159.5t46.5 -159.5t125.5 -58.5
t125.5 58.5z" />
    <glyph glyph-name="p" unicode="p" 
d="M232 473.5q48 38.5 107 38.5q64 0 111 -33t71.5 -92.5t24.5 -135.5q0 -78 -25 -137.5t-73 -92.5t-113 -33q-57 0 -104 35t-63 92v-310h-50v695h48v-124q18 59 66 97.5zM210 91q44 -59 119 -59q77 0 121 59t44 160q0 100 -42.5 158.5t-120.5 58.5q-49 0 -87 -28t-58 -76
t-20 -104v-19q0 -91 44 -150z" />
    <glyph glyph-name="q" unicode="q" 
d="M502 -195h-50v313q-18 -59 -65.5 -94.5t-107.5 -35.5q-96 0 -150.5 72t-54.5 191q0 76 25.5 135t73 92.5t112.5 33.5q58 0 104 -33.5t64 -90.5l9 112h40v-695zM409 410.5q-45 57.5 -121 57.5t-118.5 -59t-42.5 -158q0 -101 42 -160t116 -59q51 0 89.5 27t59 74t20.5 106
v22q0 92 -45 149.5z" />
    <glyph glyph-name="r" unicode="r" 
d="M302 466q64 46 136 46q47 0 81 -12v-47q-35 13 -82 13q-62 0 -114.5 -35t-83.5 -98t-31 -144v-189h-50v500h50v-171q30 91 94 137z" />
    <glyph glyph-name="s" unicode="s" 
d="M181 28.5q-53 40.5 -63 116.5l50 7q9 -60 48.5 -91t106.5 -31q60 0 93.5 27t33.5 72q0 40 -22 60.5t-71 30.5l-97 21q-125 25 -125 132q0 62 48.5 100.5t128.5 38.5q81 0 129.5 -36t55.5 -107l-49 -9q-8 57 -42.5 84t-96.5 27q-56 0 -90.5 -26t-34.5 -70q0 -38 23 -60
t67 -31l100 -20q65 -14 95 -45t30 -85q0 -67 -47 -106.5t-130 -39.5q-88 0 -141 40.5z" />
    <glyph glyph-name="t" unicode="t" 
d="M240 500v134l50 22v-156h200v-41h-200v-307q0 -57 30.5 -85t85.5 -28q37 0 84 7v-44q-42 -10 -86 -10q-77 0 -120.5 40.5t-43.5 112.5v314h-147v41h147z" />
    <glyph glyph-name="u" unicode="u" 
d="M387 24.5q-46 -36.5 -107 -36.5q-79 0 -126 44q-24 24 -36 62t-12 96v310h51v-310q0 -159 134 -159q52 0 87 29.5t52 74t17 91.5v274h50v-500h-47v115q-17 -54 -63 -90.5z" />
    <glyph glyph-name="v" unicode="v" 
d="M126 500l156 -380q13 -30 27 -69h3q17 49 25 69l157 380h52l-208 -500h-56l-209 500h53z" />
    <glyph glyph-name="w" unicode="w" 
d="M165 122q8 -36 12 -65h5q8 46 14 71l89 372h48l89 -372q11 -48 14 -71h5q5 27 7 37l5 28l79 378h52l-114 -500h-59l-89 374q-3 11 -4.5 22t-3.5 21l-3 21h-4l-3 -21q-2 -10 -3.5 -21t-4.5 -22l-89 -374h-59l-113 500h51z" />
    <glyph glyph-name="x" unicode="x" 
d="M149 0h-59l190 261l-177 239h59l149 -206l144 206h61l-174 -243l187 -257h-59l-160 226z" />
    <glyph glyph-name="y" unicode="y" 
d="M478 500h52l-197 -532q-33 -91 -74.5 -130.5t-105.5 -39.5q-23 0 -41 5v45q16 -4 39 -4q50 0 79 30.5t50 89.5l13 37l-199 499h55l170 -443z" />
    <glyph glyph-name="z" unicode="z" 
d="M423 457h-299v43h359v-38l-310 -419h322v-43h-383v40z" />
    <glyph glyph-name="aacute" unicode="&#xe1;" 
d="M497 0h-53q-6 63 -7 113q-52 -125 -182 -125q-73 0 -118.5 39.5t-45.5 104.5q0 66 52 103q44 33 151 45l140 17v9q0 86 -31.5 125t-100.5 39q-67 0 -103 -33t-39 -91h-53q5 79 57 122.5t141 43.5q92 0 135.5 -50.5t43.5 -156.5v-123q0 -120 13 -182zM177 205.5
q-34 -25.5 -34 -71.5q0 -48 32.5 -76t86.5 -28q78 0 125.5 52.5t47.5 135.5v40l-149 -18q-75 -9 -109 -34.5zM385 720h62l-120 -141h-47z" />
    <glyph glyph-name="abreve" unicode="&#x103;" 
d="M497 0h-53q-6 63 -7 113q-52 -125 -182 -125q-73 0 -118.5 39.5t-45.5 104.5q0 66 52 103q44 33 151 45l140 17v9q0 86 -31.5 125t-100.5 39q-67 0 -103 -33t-39 -91h-53q5 79 57 122.5t141 43.5q92 0 135.5 -50.5t43.5 -156.5v-123q0 -120 13 -182zM177 205.5
q-34 -25.5 -34 -71.5q0 -48 32.5 -76t86.5 -28q78 0 125.5 52.5t47.5 135.5v40l-149 -18q-75 -9 -109 -34.5zM232 640.5q28 -30.5 72 -30.5t72.5 30.5t31.5 79.5h43q-5 -74 -46 -110t-101 -36t-101.5 36.5t-45.5 109.5h44q3 -49 31 -79.5z" />
    <glyph glyph-name="acircumflex" unicode="&#xe2;" 
d="M497 0h-53q-6 63 -7 113q-52 -125 -182 -125q-73 0 -118.5 39.5t-45.5 104.5q0 66 52 103q44 33 151 45l140 17v9q0 86 -31.5 125t-100.5 39q-67 0 -103 -33t-39 -91h-53q5 79 57 122.5t141 43.5q92 0 135.5 -50.5t43.5 -156.5v-123q0 -120 13 -182zM177 205.5
q-34 -25.5 -34 -71.5q0 -48 32.5 -76t86.5 -28q78 0 125.5 52.5t47.5 135.5v40l-149 -18q-75 -9 -109 -34.5zM388 579l-84 107l-84 -107h-51l110 141h50l110 -141h-51z" />
    <glyph glyph-name="adieresis" unicode="&#xe4;" 
d="M497 0h-53q-6 63 -7 113q-52 -125 -182 -125q-73 0 -118.5 39.5t-45.5 104.5q0 66 52 103q44 33 151 45l140 17v9q0 86 -31.5 125t-100.5 39q-67 0 -103 -33t-39 -91h-53q5 79 57 122.5t141 43.5q92 0 135.5 -50.5t43.5 -156.5v-123q0 -120 13 -182zM177 205.5
q-34 -25.5 -34 -71.5q0 -48 32.5 -76t86.5 -28q78 0 125.5 52.5t47.5 135.5v40l-149 -18q-75 -9 -109 -34.5zM259 607h-77v116h77v-116zM425 607h-76v116h76v-116z" />
    <glyph glyph-name="ae" unicode="&#xe6;" 
d="M579 162v-4q0 -76 -40 -122t-108 -46q-45 0 -79 22.5t-51 62.5q-16 -40 -50.5 -62.5t-78.5 -22.5q-56 0 -93.5 35.5t-37.5 101.5q0 65 31.5 98.5t102.5 45.5l110 20v54q0 60 -21.5 93.5t-71.5 33.5q-46 0 -69 -32.5t-23 -83.5v-12h-50v3q0 78 39.5 121.5t103.5 43.5
q88 0 120 -69q38 69 119 69q71 0 108.5 -51t37.5 -143v-63h-244v-99q0 -58 27.5 -91t70.5 -33t70.5 34.5t27.5 92.5v10zM360.5 434.5q-26.5 -35.5 -26.5 -107.5v-37h194v35q0 71 -24.5 108t-72.5 37q-44 0 -70.5 -35.5zM256 67q30 38 30 110v79l-95 -17q-52 -9 -76 -33.5
t-24 -72.5q0 -52 25 -78t65 -26q45 0 75 38z" />
    <glyph glyph-name="aeacute" unicode="&#x1fd;" 
d="M579 162v-4q0 -76 -40 -122t-108 -46q-45 0 -79 22.5t-51 62.5q-16 -40 -50.5 -62.5t-78.5 -22.5q-56 0 -93.5 35.5t-37.5 101.5q0 65 31.5 98.5t102.5 45.5l110 20v54q0 60 -21.5 93.5t-71.5 33.5q-46 0 -69 -32.5t-23 -83.5v-12h-50v3q0 78 39.5 121.5t103.5 43.5
q88 0 120 -69q38 69 119 69q71 0 108.5 -51t37.5 -143v-63h-244v-99q0 -58 27.5 -91t70.5 -33t70.5 34.5t27.5 92.5v10zM360.5 434.5q-26.5 -35.5 -26.5 -107.5v-37h194v35q0 71 -24.5 108t-72.5 37q-44 0 -70.5 -35.5zM256 67q30 38 30 110v79l-95 -17q-52 -9 -76 -33.5
t-24 -72.5q0 -52 25 -78t65 -26q45 0 75 38zM391 720h62l-120 -141h-47z" />
    <glyph glyph-name="agrave" unicode="&#xe0;" 
d="M497 0h-53q-6 63 -7 113q-52 -125 -182 -125q-73 0 -118.5 39.5t-45.5 104.5q0 66 52 103q44 33 151 45l140 17v9q0 86 -31.5 125t-100.5 39q-67 0 -103 -33t-39 -91h-53q5 79 57 122.5t141 43.5q92 0 135.5 -50.5t43.5 -156.5v-123q0 -120 13 -182zM177 205.5
q-34 -25.5 -34 -71.5q0 -48 32.5 -76t86.5 -28q78 0 125.5 52.5t47.5 135.5v40l-149 -18q-75 -9 -109 -34.5zM280 579l-121 141h63l105 -141h-47z" />
    <glyph glyph-name="amacron" unicode="&#x101;" 
d="M497 0h-53q-6 63 -7 113q-52 -125 -182 -125q-73 0 -118.5 39.5t-45.5 104.5q0 66 52 103q44 33 151 45l140 17v9q0 86 -31.5 125t-100.5 39q-67 0 -103 -33t-39 -91h-53q5 79 57 122.5t141 43.5q92 0 135.5 -50.5t43.5 -156.5v-123q0 -120 13 -182zM177 205.5
q-34 -25.5 -34 -71.5q0 -48 32.5 -76t86.5 -28q78 0 125.5 52.5t47.5 135.5v40l-149 -18q-75 -9 -109 -34.5zM160 646h288v-41h-288v41z" />
    <glyph glyph-name="aogonek" unicode="&#x105;" 
d="M521 -119q-6 -42 -32 -63t-64 -21q-35 0 -61 22.5t-26 61.5q0 37 25 68.5t81 52.5q-6 63 -7 111q-52 -125 -182 -125q-73 0 -118.5 39.5t-45.5 104.5q0 66 52 103q44 33 151 45l140 17v9q0 86 -31.5 125t-100.5 39q-67 0 -103 -33t-39 -91h-53q5 79 57 122.5t141 43.5
q92 0 135.5 -50.5t43.5 -156.5v-123q0 -120 13 -182h-1q-64 -20 -91 -50t-27 -63q0 -25 14.5 -41t36.5 -16q23 0 38.5 17t18.5 43zM435 258l-149 -18q-75 -9 -109 -34.5t-34 -71.5q0 -48 32.5 -76t86.5 -28q78 0 125.5 52.5t47.5 135.5v40z" />
    <glyph glyph-name="aring" unicode="&#xe5;" 
d="M497 0h-53q-6 63 -7 113q-52 -125 -182 -125q-73 0 -118.5 39.5t-45.5 104.5q0 66 52 103q44 33 151 45l140 17v9q0 86 -31.5 125t-100.5 39q-67 0 -103 -33t-39 -91h-53q5 79 57 122.5t141 43.5q92 0 135.5 -50.5t43.5 -156.5v-123q0 -120 13 -182zM177 205.5
q-34 -25.5 -34 -71.5q0 -48 32.5 -76t86.5 -28q78 0 125.5 52.5t47.5 135.5v40l-149 -18q-75 -9 -109 -34.5zM232 586.5q-27 27.5 -27 69.5t27.5 69t71.5 27t71.5 -27t27.5 -69t-27.5 -69.5t-71.5 -27.5q-45 0 -72 27.5zM349.5 609.5q16.5 18.5 16.5 46.5t-16.5 46t-45.5 18
t-45.5 -18t-16.5 -46t16.5 -46.5t45.5 -18.5t45.5 18.5z" />
    <glyph glyph-name="atilde" unicode="&#xe3;" 
d="M497 0h-53q-6 63 -7 113q-52 -125 -182 -125q-73 0 -118.5 39.5t-45.5 104.5q0 66 52 103q44 33 151 45l140 17v9q0 86 -31.5 125t-100.5 39q-67 0 -103 -33t-39 -91h-53q5 79 57 122.5t141 43.5q92 0 135.5 -50.5t43.5 -156.5v-123q0 -120 13 -182zM177 205.5
q-34 -25.5 -34 -71.5q0 -48 32.5 -76t86.5 -28q78 0 125.5 52.5t47.5 135.5v40l-149 -18q-75 -9 -109 -34.5zM274 699q19 -10 44 -30q20 -16 34 -24t31 -8q22 0 39 17.5t20 51.5l38 -4q-8 -55 -36 -81t-65 -26q-24 0 -42 10t-39 28q-21 17 -36 25.5t-34 8.5q-25 0 -42.5 -17
t-21.5 -49l-38 5q7 51 36.5 77t66.5 26q26 0 45 -10z" />
    <glyph glyph-name="cacute" unicode="&#x107;" 
d="M145 60.5q-57 72.5 -57 191.5q0 117 57 188.5t166 71.5q82 0 135.5 -47t61.5 -130l-51 -5q-9 67 -47.5 102.5t-103.5 35.5q-80 0 -123 -58.5t-43 -156.5q0 -101 44 -161t125 -60q65 0 103.5 37t47.5 103l48 -6q-12 -80 -62 -129t-137 -49q-107 0 -164 72.5zM391 720h62
l-120 -141h-47z" />
    <glyph glyph-name="ccaron" unicode="&#x10d;" 
d="M145 60.5q-57 72.5 -57 191.5q0 117 57 188.5t166 71.5q82 0 135.5 -47t61.5 -130l-51 -5q-9 67 -47.5 102.5t-103.5 35.5q-80 0 -123 -58.5t-43 -156.5q0 -101 44 -161t125 -60q65 0 103.5 37t47.5 103l48 -6q-12 -80 -62 -129t-137 -49q-107 0 -164 72.5zM310 613
l84 107h51l-110 -141h-50l-110 141h51z" />
    <glyph glyph-name="ccedilla" unicode="&#xe7;" 
d="M412.5 69q38.5 37 47.5 103l48 -6q-12 -77 -59 -125.5t-129 -52.5l-32 -54q8 7 19.5 10.5t22.5 3.5q30 0 49.5 -19t19.5 -50q0 -35 -26 -57.5t-61 -22.5q-28 0 -51 13.5t-33 43.5l38 8q5 -18 17.5 -26.5t28.5 -8.5q19 0 32.5 12t13.5 36q0 22 -13 33.5t-31 11.5
q-25 0 -41 -16l-27 9l40 74q-96 8 -147 79.5t-51 183.5q0 117 57 188.5t166 71.5q82 0 135.5 -47t61.5 -130l-51 -5q-9 67 -47.5 102.5t-103.5 35.5q-80 0 -123 -58.5t-43 -156.5q0 -101 44 -161t125 -60q65 0 103.5 37z" />
    <glyph glyph-name="ccircumflex" unicode="&#x109;" 
d="M145 60.5q-57 72.5 -57 191.5q0 117 57 188.5t166 71.5q82 0 135.5 -47t61.5 -130l-51 -5q-9 67 -47.5 102.5t-103.5 35.5q-80 0 -123 -58.5t-43 -156.5q0 -101 44 -161t125 -60q65 0 103.5 37t47.5 103l48 -6q-12 -80 -62 -129t-137 -49q-107 0 -164 72.5zM394 579
l-84 107l-84 -107h-51l110 141h50l110 -141h-51z" />
    <glyph glyph-name="cdotaccent" unicode="&#x10b;" 
d="M145 60.5q-57 72.5 -57 191.5q0 117 57 188.5t166 71.5q82 0 135.5 -47t61.5 -130l-51 -5q-9 67 -47.5 102.5t-103.5 35.5q-80 0 -123 -58.5t-43 -156.5q0 -101 44 -161t125 -60q65 0 103.5 37t47.5 103l48 -6q-12 -80 -62 -129t-137 -49q-107 0 -164 72.5zM348 600h-77
v123h77v-123z" />
    <glyph glyph-name="dcaron" unicode="&#x10f;" 
d="M128 23q-45 33 -69 92.5t-24 137.5q0 77 25.5 136t72.5 92t110 33q59 0 101.5 -33t59.5 -93v339h50v-725h-48v122q-18 -62 -63.5 -98t-107.5 -36t-107 33zM570 560l18 167h54l-37 -167h-35zM361 93q44 59 44 150v19q0 91 -43 149.5t-116 58.5q-74 0 -116 -58.5
t-42 -158.5q0 -101 41 -160t114 -59q74 0 118 59z" />
    <glyph glyph-name="dcroat" unicode="&#x111;" 
d="M566 584h-66v-584h-48v122q-19 -62 -65 -98t-108 -36q-64 0 -111 33t-72 92.5t-25 137.5q0 77 26.5 136t75 92t113.5 33q60 0 103 -33t61 -93v198h-297v33h297v108h50v-108h66v-33zM451 260q0 91 -43.5 149.5t-117.5 58.5q-78 0 -122 -58.5t-44 -158.5t43.5 -159.5
t119.5 -59.5q75 0 119.5 59t44.5 150v19z" />
    <glyph glyph-name="eacute" unicode="&#xe9;" 
d="M143 243v-2q0 -97 45.5 -153t126.5 -56q62 1 99.5 35t52.5 87l44 -18q-22 -69 -72.5 -108.5t-123.5 -39.5q-109 0 -166 71t-57 199q0 76 26.5 133.5t75.5 89t115 31.5q107 0 156 -68.5t49 -178.5l-1 -22h-370zM218.5 445.5q-36.5 -26.5 -55.5 -69t-20 -91.5h319
q1 81 -36.5 134t-118.5 53q-52 0 -88.5 -26.5zM391 720h62l-120 -141h-47z" />
    <glyph glyph-name="ebreve" unicode="&#x115;" 
d="M143 243v-2q0 -97 45.5 -153t126.5 -56q62 1 99.5 35t52.5 87l44 -18q-22 -69 -72.5 -108.5t-123.5 -39.5q-109 0 -166 71t-57 199q0 76 26.5 133.5t75.5 89t115 31.5q107 0 156 -68.5t49 -178.5l-1 -22h-370zM218.5 445.5q-36.5 -26.5 -55.5 -69t-20 -91.5h319
q1 81 -36.5 134t-118.5 53q-52 0 -88.5 -26.5zM238 640.5q28 -30.5 72 -30.5t72.5 30.5t31.5 79.5h43q-5 -74 -46 -110t-101 -36t-101.5 36.5t-45.5 109.5h44q3 -49 31 -79.5z" />
    <glyph glyph-name="ecaron" unicode="&#x11b;" 
d="M143 243v-2q0 -97 45.5 -153t126.5 -56q62 1 99.5 35t52.5 87l44 -18q-22 -69 -72.5 -108.5t-123.5 -39.5q-109 0 -166 71t-57 199q0 76 26.5 133.5t75.5 89t115 31.5q107 0 156 -68.5t49 -178.5l-1 -22h-370zM218.5 445.5q-36.5 -26.5 -55.5 -69t-20 -91.5h319
q1 81 -36.5 134t-118.5 53q-52 0 -88.5 -26.5zM310 613l84 107h51l-110 -141h-50l-110 141h51z" />
    <glyph glyph-name="ecircumflex" unicode="&#xea;" 
d="M143 243v-2q0 -97 45.5 -153t126.5 -56q62 1 99.5 35t52.5 87l44 -18q-22 -69 -72.5 -108.5t-123.5 -39.5q-109 0 -166 71t-57 199q0 76 26.5 133.5t75.5 89t115 31.5q107 0 156 -68.5t49 -178.5l-1 -22h-370zM218.5 445.5q-36.5 -26.5 -55.5 -69t-20 -91.5h319
q1 81 -36.5 134t-118.5 53q-52 0 -88.5 -26.5zM394 579l-84 107l-84 -107h-51l110 141h50l110 -141h-51z" />
    <glyph glyph-name="edieresis" unicode="&#xeb;" 
d="M143 243v-2q0 -97 45.5 -153t126.5 -56q62 1 99.5 35t52.5 87l44 -18q-22 -69 -72.5 -108.5t-123.5 -39.5q-109 0 -166 71t-57 199q0 76 26.5 133.5t75.5 89t115 31.5q107 0 156 -68.5t49 -178.5l-1 -22h-370zM218.5 445.5q-36.5 -26.5 -55.5 -69t-20 -91.5h319
q1 81 -36.5 134t-118.5 53q-52 0 -88.5 -26.5zM265 607h-77v116h77v-116zM431 607h-76v116h76v-116z" />
    <glyph glyph-name="edotaccent" unicode="&#x117;" 
d="M143 243v-2q0 -97 45.5 -153t126.5 -56q62 1 99.5 35t52.5 87l44 -18q-22 -69 -72.5 -108.5t-123.5 -39.5q-109 0 -166 71t-57 199q0 76 26.5 133.5t75.5 89t115 31.5q107 0 156 -68.5t49 -178.5l-1 -22h-370zM218.5 445.5q-36.5 -26.5 -55.5 -69t-20 -91.5h319
q1 81 -36.5 134t-118.5 53q-52 0 -88.5 -26.5zM348 600h-77v123h77v-123z" />
    <glyph glyph-name="egrave" unicode="&#xe8;" 
d="M143 243v-2q0 -97 45.5 -153t126.5 -56q62 1 99.5 35t52.5 87l44 -18q-22 -69 -72.5 -108.5t-123.5 -39.5q-109 0 -166 71t-57 199q0 76 26.5 133.5t75.5 89t115 31.5q107 0 156 -68.5t49 -178.5l-1 -22h-370zM218.5 445.5q-36.5 -26.5 -55.5 -69t-20 -91.5h319
q1 81 -36.5 134t-118.5 53q-52 0 -88.5 -26.5zM287 579l-121 141h63l105 -141h-47z" />
    <glyph glyph-name="emacron" unicode="&#x113;" 
d="M143 243v-2q0 -97 45.5 -153t126.5 -56q62 1 99.5 35t52.5 87l44 -18q-22 -69 -72.5 -108.5t-123.5 -39.5q-109 0 -166 71t-57 199q0 76 26.5 133.5t75.5 89t115 31.5q107 0 156 -68.5t49 -178.5l-1 -22h-370zM218.5 445.5q-36.5 -26.5 -55.5 -69t-20 -91.5h319
q1 81 -36.5 134t-118.5 53q-52 0 -88.5 -26.5zM166 646h288v-41h-288v41z" />
    <glyph glyph-name="eogonek" unicode="&#x119;" 
d="M143 243v-2q0 -97 45.5 -153t126.5 -56q62 1 99.5 35t52.5 87l44 -18q-17 -53 -51 -89.5t-83 -50.5q-58 -20 -82.5 -49t-24.5 -60q0 -25 14.5 -41t36.5 -16q23 0 38.5 17t18.5 43l35 -9q-6 -42 -32 -63t-64 -21q-35 0 -61 22.5t-26 61.5q0 67 75 107q-104 4 -158.5 75
t-54.5 195q0 76 26.5 133.5t75.5 89t115 31.5q107 0 156 -68.5t49 -178.5l-1 -22h-370zM218.5 445.5q-36.5 -26.5 -55.5 -69t-20 -91.5h319q1 81 -36.5 134t-118.5 53q-52 0 -88.5 -26.5z" />
    <glyph glyph-name="gbreve" unicode="&#x11f;" 
d="M508 42.5q40 -33.5 40 -95.5q0 -74 -59.5 -114t-169.5 -40q-105 0 -165 36.5t-60 100.5q0 41 23.5 69.5t65.5 42.5q-31 11 -47.5 33t-16.5 52q0 31 19 55.5t52 35.5q-26 22 -40.5 54.5t-14.5 71.5q0 75 49 121.5t128 46.5q53 0 98 -24q12 40 42.5 62t73.5 22q9 0 21 -2
v-44q-18 2 -22 2q-68 0 -89 -58q26 -22 40 -54t14 -70q0 -74 -50 -120.5t-130 -46.5q-55 0 -96 23q-22 -8 -35.5 -25.5t-13.5 -38.5q0 -29 23 -45.5t63 -16.5h144q73 0 113 -33.5zM218 436.5q-36 -35.5 -36 -92.5q0 -56 35.5 -91t92.5 -35q58 0 95 36t37 92q0 55 -36.5 90.5
t-93.5 35.5q-58 0 -94 -35.5zM498 -56q0 87 -111 87h-137q-18 0 -35 3q-34 -12 -52.5 -36t-18.5 -56q0 -52 46 -79.5t133 -27.5q175 0 175 109zM238 640.5q28 -30.5 72 -30.5t72.5 30.5t31.5 79.5h43q-5 -74 -46 -110t-101 -36t-101.5 36.5t-45.5 109.5h44q3 -49 31 -79.5z
" />
    <glyph glyph-name="gcircumflex" unicode="&#x11d;" 
d="M310 690l-83 -97h-52l110 127h50l110 -127h-52zM508 42.5q40 -33.5 40 -95.5q0 -74 -59.5 -114t-169.5 -40q-105 0 -165 36.5t-60 100.5q0 41 23.5 69.5t65.5 42.5q-31 11 -47.5 33t-16.5 52q0 31 19 55.5t52 35.5q-26 22 -40.5 54.5t-14.5 71.5q0 75 49 121.5t128 46.5
q53 0 98 -24q12 40 42.5 62t73.5 22q9 0 21 -2v-44q-18 2 -22 2q-68 0 -89 -58q26 -22 40 -54t14 -70q0 -74 -50 -120.5t-130 -46.5q-55 0 -96 23q-22 -8 -35.5 -25.5t-13.5 -38.5q0 -29 23 -45.5t63 -16.5h144q73 0 113 -33.5zM218 436.5q-36 -35.5 -36 -92.5
q0 -56 35.5 -91t92.5 -35q58 0 95 36t37 92q0 55 -36.5 90.5t-93.5 35.5q-58 0 -94 -35.5zM498 -56q0 87 -111 87h-137q-18 0 -35 3q-34 -12 -52.5 -36t-18.5 -56q0 -52 46 -79.5t133 -27.5q175 0 175 109z" />
    <glyph glyph-name="uni0123" unicode="&#x123;" 
d="M508 42.5q40 -33.5 40 -95.5q0 -74 -59.5 -114t-169.5 -40q-105 0 -165 36.5t-60 100.5q0 41 23.5 69.5t65.5 42.5q-31 11 -47.5 33t-16.5 52q0 31 19 55.5t52 35.5q-26 22 -40.5 54.5t-14.5 71.5q0 75 49 121.5t128 46.5q53 0 98 -24q12 40 42.5 62t73.5 22q9 0 21 -2
v-44q-18 2 -22 2q-68 0 -89 -58q26 -22 40 -54t14 -70q0 -74 -50 -120.5t-130 -46.5q-55 0 -96 23q-22 -8 -35.5 -25.5t-13.5 -38.5q0 -29 23 -45.5t63 -16.5h144q73 0 113 -33.5zM218 436.5q-36 -35.5 -36 -92.5q0 -56 35.5 -91t92.5 -35q58 0 95 36t37 92q0 55 -36.5 90.5
t-93.5 35.5q-58 0 -94 -35.5zM498 -56q0 87 -111 87h-137q-18 0 -35 3q-34 -12 -52.5 -36t-18.5 -56q0 -52 46 -79.5t133 -27.5q175 0 175 109zM315 706q-6 -17 -6 -47h30v-64h-59v62q0 38 9.5 62.5t33.5 40.5l16 -24q-18 -13 -24 -30z" />
    <glyph glyph-name="gdotaccent" unicode="&#x121;" 
d="M508 42.5q40 -33.5 40 -95.5q0 -74 -59.5 -114t-169.5 -40q-105 0 -165 36.5t-60 100.5q0 41 23.5 69.5t65.5 42.5q-31 11 -47.5 33t-16.5 52q0 31 19 55.5t52 35.5q-26 22 -40.5 54.5t-14.5 71.5q0 75 49 121.5t128 46.5q53 0 98 -24q12 40 42.5 62t73.5 22q9 0 21 -2
v-44q-18 2 -22 2q-68 0 -89 -58q26 -22 40 -54t14 -70q0 -74 -50 -120.5t-130 -46.5q-55 0 -96 23q-22 -8 -35.5 -25.5t-13.5 -38.5q0 -29 23 -45.5t63 -16.5h144q73 0 113 -33.5zM218 436.5q-36 -35.5 -36 -92.5q0 -56 35.5 -91t92.5 -35q58 0 95 36t37 92q0 55 -36.5 90.5
t-93.5 35.5q-58 0 -94 -35.5zM498 -56q0 87 -111 87h-137q-18 0 -35 3q-34 -12 -52.5 -36t-18.5 -56q0 -52 46 -79.5t133 -27.5q175 0 175 109zM348 600h-77v123h77v-123z" />
    <glyph glyph-name="hbar" unicode="&#x127;" 
d="M509 305v-305h-50v305q0 93 -38 128t-101 35q-53 0 -88.5 -29.5t-53 -76t-17.5 -96.5v-266h-50v584h-111v33h111v108h50v-108h256v-33h-256v-204q19 63 64 97.5t107 34.5q81 0 126 -44q51 -51 51 -163z" />
    <glyph glyph-name="hcircumflex" unicode="&#x125;" 
d="M225 477.5q45 34.5 107 34.5q81 0 126 -44q51 -51 51 -163v-305h-50v305q0 93 -38 128t-101 35q-53 0 -88.5 -29.5t-53 -76t-17.5 -96.5v-266h-50v725h50v-345q19 63 64 97.5zM214 776l-79 80l-78 -80h-54l105 108h56l105 -108h-55z" />
    <glyph glyph-name="iacute" unicode="&#xed;" 
d="M136 42h169v416h-157v42h207v-458h179v-42h-398v42zM406 720h62l-120 -141h-47z" />
    <glyph glyph-name="ibreve" unicode="&#x12d;" 
d="M136 42h169v416h-157v42h207v-458h179v-42h-398v42zM253 640.5q28 -30.5 72 -30.5t72.5 30.5t31.5 79.5h43q-5 -74 -46 -110t-101 -36t-101.5 36.5t-45.5 109.5h44q3 -49 31 -79.5z" />
    <glyph glyph-name="icircumflex" unicode="&#xee;" 
d="M136 42h169v416h-157v42h207v-458h179v-42h-398v42zM409 579l-84 107l-84 -107h-51l110 141h50l110 -141h-51z" />
    <glyph glyph-name="idieresis" unicode="&#xef;" 
d="M136 42h169v416h-157v42h207v-458h179v-42h-398v42zM280 607h-77v116h77v-116zM446 607h-76v116h76v-116z" />
    <glyph glyph-name="i.loclTRK" 
d="M136 42h169v416h-157v42h207v-458h179v-42h-398v42zM363 600h-77v123h77v-123z" />
    <glyph glyph-name="dotlessi" unicode="&#x131;" 
d="M136 42h169v416h-157v42h207v-458h179v-42h-398v42z" />
    <glyph glyph-name="igrave" unicode="&#xec;" 
d="M136 42h169v416h-157v42h207v-458h179v-42h-398v42zM302 579l-121 141h63l105 -141h-47z" />
    <glyph glyph-name="ij" unicode="&#x133;" 
d="M128 725h77v-123h-77v123zM421 725h76v-123h-76v123zM142 500h50v-500h-50v500zM293.5 -200q-20.5 2 -42.5 8v44q57 -8 86 -8q47 0 72.5 28t25.5 93v535h50v-539q0 -77 -36.5 -120t-104.5 -43q-30 0 -50.5 2z" />
    <glyph glyph-name="uni006A0301" 
d="M113 -182v44q65 -18 113 -18q58 0 88 29.5t30 96.5v488h-190v42h240v-534q0 -79 -41 -123.5t-120 -44.5q-68 0 -120 20zM445 720h62l-120 -141h-47z" />
    <glyph glyph-name="imacron" unicode="&#x12b;" 
d="M136 42h169v416h-157v42h207v-458h179v-42h-398v42zM181 646h288v-41h-288v41z" />
    <glyph glyph-name="iogonek" unicode="&#x12f;" 
d="M363 723v-123h-77v123h77zM558 -119q-6 -42 -32 -63t-64 -21q-35 0 -61 22.5t-26 61.5q0 36 24 67t77 52h-340v42h169v416h-157v42h207v-458h179v-42h-1q-64 -20 -91 -50t-27 -63q0 -25 14.5 -41t36.5 -16q23 0 38.5 17t18.5 43z" />
    <glyph glyph-name="itilde" unicode="&#x129;" 
d="M136 42h169v416h-157v42h207v-458h179v-42h-398v42zM295 699q19 -10 44 -30q20 -16 34 -24t31 -8q22 0 39 17.5t20 51.5l38 -4q-8 -55 -36 -81t-65 -26q-24 0 -42 10t-39 28q-21 17 -36 25.5t-34 8.5q-25 0 -42.5 -17t-21.5 -49l-38 5q7 51 36.5 77t66.5 26q26 0 45 -10z
" />
    <glyph glyph-name="jcircumflex" unicode="&#x135;" 
d="M451 579l-84 107l-84 -107h-51l110 141h50l110 -141h-51zM113 -182v44q65 -18 113 -18q58 0 88 29.5t30 96.5v488h-190v42h240v-534q0 -79 -41 -123.5t-120 -44.5q-68 0 -120 20z" />
    <glyph glyph-name="uni0237" unicode="&#x237;" 
d="M113 -182v44q65 -18 113 -18q58 0 88 29.5t30 96.5v488h-190v42h240v-534q0 -79 -41 -123.5t-120 -44.5q-68 0 -120 20z" />
    <glyph glyph-name="uni0137" unicode="&#x137;" 
d="M473 0l-178 278l-122 -117v-161h-50v725h50v-505l281 280h66l-189 -185l203 -315h-61zM304.5 -165.5q5.5 16.5 5.5 46.5h-30v65h59v-62q0 -38 -9.5 -62.5t-33.5 -40.5l-16 24q19 13 24.5 29.5z" />
    <glyph glyph-name="kgreenlandic" unicode="&#x138;" 
d="M473 0l-181 284l-119 -112v-172h-50v500h50v-268l280 268h67l-192 -180l206 -320h-61z" />
    <glyph glyph-name="lacute" unicode="&#x13a;" 
d="M136 42h166v641h-156v42h207v-683h181v-42h-398v42zM384 884h67l-98 -108h-50z" />
    <glyph glyph-name="lcaron" unicode="&#x13e;" 
d="M136 42h166v641h-156v42h207v-683h181v-42h-398v42zM522 560l18 167h54l-37 -167h-35z" />
    <glyph glyph-name="uni013C" unicode="&#x13c;" 
d="M136 42h166v641h-156v42h207v-683h181v-42h-398v42zM322.5 -165.5q5.5 16.5 5.5 46.5h-30v65h59v-62q0 -38 -9.5 -62.5t-33.5 -40.5l-16 24q19 13 24.5 29.5z" />
    <glyph glyph-name="ldot" unicode="&#x140;" 
d="M302 42v641h-156v42h207v-683h181v-42h-398v42h166zM491 301h-66v114h66v-114z" />
    <glyph glyph-name="lslash" unicode="&#x142;" 
d="M353 42h181v-42h-398v42h166v311l-122 -81v46l122 81v284h-156v42h207v-292l122 81v-47l-122 -81v-344z" />
    <glyph glyph-name="nacute" unicode="&#x144;" 
d="M225 477q45 35 111 35q77 0 122 -44q51 -49 51 -163v-305h-50v305q0 163 -134 163q-54 0 -91 -29.5t-55 -75.5t-18 -97v-266h-50v500h48v-123q21 65 66 100zM391 720h62l-120 -141h-47z" />
    <glyph glyph-name="napostrophe" unicode="&#x149;" horiz-adv-x="1240" 
d="M305.5 519.5q16.5 29.5 16.5 76.5h-72v114h110v-113q0 -115 -94 -157l-16 30q39 20 55.5 49.5zM845 477q45 35 111 35q77 0 122 -44q51 -49 51 -163v-305h-50v305q0 163 -134 163q-54 0 -91 -29.5t-55 -75.5t-18 -97v-266h-50v500h48v-123q21 65 66 100z" />
    <glyph glyph-name="ncaron" unicode="&#x148;" 
d="M225 477q45 35 111 35q77 0 122 -44q51 -49 51 -163v-305h-50v305q0 163 -134 163q-54 0 -91 -29.5t-55 -75.5t-18 -97v-266h-50v500h48v-123q21 65 66 100zM310 613l84 107h51l-110 -141h-50l-110 141h51z" />
    <glyph glyph-name="uni0146" unicode="&#x146;" 
d="M225 477q45 35 111 35q77 0 122 -44q51 -49 51 -163v-305h-50v305q0 163 -134 163q-54 0 -91 -29.5t-55 -75.5t-18 -97v-266h-50v500h48v-123q21 65 66 100zM304.5 -165.5q5.5 16.5 5.5 46.5h-30v65h59v-62q0 -38 -9.5 -62.5t-33.5 -40.5l-16 24q19 13 24.5 29.5z" />
    <glyph glyph-name="ntilde" unicode="&#xf1;" 
d="M225 477q45 35 111 35q77 0 122 -44q51 -49 51 -163v-305h-50v305q0 163 -134 163q-54 0 -91 -29.5t-55 -75.5t-18 -97v-266h-50v500h48v-123q21 65 66 100zM281 699q19 -10 44 -30q20 -16 34 -24t31 -8q22 0 39 17.5t20 51.5l38 -4q-8 -55 -36 -81t-65 -26q-24 0 -42 10
t-39 28q-21 17 -36 25.5t-34 8.5q-25 0 -42.5 -17t-21.5 -49l-38 5q7 51 36.5 77t66.5 26q26 0 45 -10z" />
    <glyph glyph-name="eng" unicode="&#x14b;" 
d="M509 305v-365q0 -68 -29.5 -105t-86.5 -37q-34 0 -53 6v43q24 -4 41 -4q78 0 78 92v370q0 163 -134 163q-54 0 -91 -29.5t-55 -75.5t-18 -97v-266h-50v500h48v-123q21 65 66 100t111 35q77 0 122 -44q51 -49 51 -163z" />
    <glyph glyph-name="oacute" unicode="&#xf3;" 
d="M192.5 20q-50.5 32 -78.5 91.5t-28 138.5q0 80 28 139t78.5 91t117.5 32t117.5 -32t78.5 -91t28 -139t-28 -139t-78.5 -91t-117.5 -32t-117.5 32zM435.5 90.5q46.5 58.5 46.5 159.5t-46.5 159.5t-125.5 58.5t-125.5 -58.5t-46.5 -159.5t46.5 -159.5t125.5 -58.5
t125.5 58.5zM391 720h62l-120 -141h-47z" />
    <glyph glyph-name="obreve" unicode="&#x14f;" 
d="M192.5 20q-50.5 32 -78.5 91.5t-28 138.5q0 80 28 139t78.5 91t117.5 32t117.5 -32t78.5 -91t28 -139t-28 -139t-78.5 -91t-117.5 -32t-117.5 32zM435.5 90.5q46.5 58.5 46.5 159.5t-46.5 159.5t-125.5 58.5t-125.5 -58.5t-46.5 -159.5t46.5 -159.5t125.5 -58.5
t125.5 58.5zM238 640.5q28 -30.5 72 -30.5t72.5 30.5t31.5 79.5h43q-5 -74 -46 -110t-101 -36t-101.5 36.5t-45.5 109.5h44q3 -49 31 -79.5z" />
    <glyph glyph-name="ocircumflex" unicode="&#xf4;" 
d="M192.5 20q-50.5 32 -78.5 91.5t-28 138.5q0 80 28 139t78.5 91t117.5 32t117.5 -32t78.5 -91t28 -139t-28 -139t-78.5 -91t-117.5 -32t-117.5 32zM435.5 90.5q46.5 58.5 46.5 159.5t-46.5 159.5t-125.5 58.5t-125.5 -58.5t-46.5 -159.5t46.5 -159.5t125.5 -58.5
t125.5 58.5zM394 579l-84 107l-84 -107h-51l110 141h50l110 -141h-51z" />
    <glyph glyph-name="odieresis" unicode="&#xf6;" 
d="M192.5 20q-50.5 32 -78.5 91.5t-28 138.5q0 80 28 139t78.5 91t117.5 32t117.5 -32t78.5 -91t28 -139t-28 -139t-78.5 -91t-117.5 -32t-117.5 32zM435.5 90.5q46.5 58.5 46.5 159.5t-46.5 159.5t-125.5 58.5t-125.5 -58.5t-46.5 -159.5t46.5 -159.5t125.5 -58.5
t125.5 58.5zM265 607h-77v116h77v-116zM431 607h-76v116h76v-116z" />
    <glyph glyph-name="oe" unicode="&#x153;" 
d="M576 162v-8q0 -76 -39.5 -121t-107.5 -45q-40 0 -71.5 18t-49.5 50q-37 -68 -119 -68q-67 0 -106 46t-39 140v144q0 194 145 194q85 0 119 -70q19 34 49.5 52t71.5 18q71 0 108.5 -48.5t37.5 -139.5v-69h-243v-96q0 -59 26.5 -93.5t70.5 -34.5q46 0 72.5 33t26.5 95v10z
M358.5 434.5q-26.5 -35.5 -26.5 -107.5v-37h193v40q0 140 -96 140q-44 0 -70.5 -35.5zM254.5 58.5q24.5 27.5 28.5 89.5v9l1 170q0 75 -24.5 108.5t-70.5 33.5q-95 0 -95 -146v-148q0 -144 95 -144q41 0 65.5 27.5z" />
    <glyph glyph-name="ograve" unicode="&#xf2;" 
d="M192.5 20q-50.5 32 -78.5 91.5t-28 138.5q0 80 28 139t78.5 91t117.5 32t117.5 -32t78.5 -91t28 -139t-28 -139t-78.5 -91t-117.5 -32t-117.5 32zM435.5 90.5q46.5 58.5 46.5 159.5t-46.5 159.5t-125.5 58.5t-125.5 -58.5t-46.5 -159.5t46.5 -159.5t125.5 -58.5
t125.5 58.5zM287 579l-121 141h63l105 -141h-47z" />
    <glyph glyph-name="ohungarumlaut" unicode="&#x151;" 
d="M192.5 20q-50.5 32 -78.5 91.5t-28 138.5q0 80 28 139t78.5 91t117.5 32t117.5 -32t78.5 -91t28 -139t-28 -139t-78.5 -91t-117.5 -32t-117.5 32zM435.5 90.5q46.5 58.5 46.5 159.5t-46.5 159.5t-125.5 58.5t-125.5 -58.5t-46.5 -159.5t46.5 -159.5t125.5 -58.5
t125.5 58.5zM302 720h54l-88 -141h-49zM435 720h53l-87 -141h-50z" />
    <glyph glyph-name="omacron" unicode="&#x14d;" 
d="M192.5 20q-50.5 32 -78.5 91.5t-28 138.5q0 80 28 139t78.5 91t117.5 32t117.5 -32t78.5 -91t28 -139t-28 -139t-78.5 -91t-117.5 -32t-117.5 32zM435.5 90.5q46.5 58.5 46.5 159.5t-46.5 159.5t-125.5 58.5t-125.5 -58.5t-46.5 -159.5t46.5 -159.5t125.5 -58.5
t125.5 58.5zM166 646h288v-41h-288v41z" />
    <glyph glyph-name="ordfeminine" unicode="&#xaa;" 
d="M466 310h-46q-4 45 -5 79q-18 -43 -53 -65.5t-85 -22.5q-55 0 -89 28.5t-34 75.5q0 51 37 75.5t106 32.5l115 13q-1 67 -22.5 96t-73.5 29q-49 0 -75.5 -23.5t-28.5 -65.5h-47q5 58 44.5 90t107.5 32q72 0 106 -37t34 -114v-93q0 -83 9 -130zM225 460.5
q-25 -18.5 -25 -51.5q0 -34 24 -54.5t64 -20.5q56 0 90.5 37t34.5 93v34l-107 -13q-56 -6 -81 -24.5z" />
    <glyph glyph-name="ordmasculine" unicode="&#xba;" 
d="M185.5 353q-47.5 52 -47.5 140t47.5 139.5t124.5 51.5t124.5 -51.5t47.5 -139.5q0 -89 -47 -140.5t-125 -51.5q-77 0 -124.5 52zM401 378.5q34 41.5 34 114.5q0 72 -34 113.5t-91 41.5q-58 0 -92 -41.5t-34 -113.5q0 -73 34 -114.5t92 -41.5q57 0 91 41.5z" />
    <glyph glyph-name="oslash" unicode="&#xf8;" 
d="M534 250q0 -80 -28 -139t-78.5 -91t-117.5 -32q-85 0 -145 52l-39 -49l-28 21l43 54q-55 71 -55 184q0 80 28 139t78.5 91t117.5 32q85 0 145 -52l39 49l29 -20l-44 -55q55 -71 55 -184zM173 106l252 316q-44 46 -115 46q-79 0 -125.5 -58.5t-46.5 -159.5q0 -88 35 -144z
M435.5 90.5q46.5 58.5 46.5 159.5q0 86 -35 143l-252 -315q44 -46 115 -46q79 0 125.5 58.5z" />
    <glyph glyph-name="oslashacute" unicode="&#x1ff;" 
d="M534 250q0 -80 -28 -139t-78.5 -91t-117.5 -32q-85 0 -145 52l-39 -49l-28 21l43 54q-55 71 -55 184q0 80 28 139t78.5 91t117.5 32q85 0 145 -52l39 49l29 -20l-44 -55q55 -71 55 -184zM173 106l252 316q-44 46 -115 46q-79 0 -125.5 -58.5t-46.5 -159.5q0 -88 35 -144z
M435.5 90.5q46.5 58.5 46.5 159.5q0 86 -35 143l-252 -315q44 -46 115 -46q79 0 125.5 58.5zM391 720h62l-120 -141h-47z" />
    <glyph glyph-name="otilde" unicode="&#xf5;" 
d="M192.5 20q-50.5 32 -78.5 91.5t-28 138.5q0 80 28 139t78.5 91t117.5 32t117.5 -32t78.5 -91t28 -139t-28 -139t-78.5 -91t-117.5 -32t-117.5 32zM435.5 90.5q46.5 58.5 46.5 159.5t-46.5 159.5t-125.5 58.5t-125.5 -58.5t-46.5 -159.5t46.5 -159.5t125.5 -58.5
t125.5 58.5zM281 699q19 -10 44 -30q20 -16 34 -24t31 -8q22 0 39 17.5t20 51.5l38 -4q-8 -55 -36 -81t-65 -26q-24 0 -42 10t-39 28q-21 17 -36 25.5t-34 8.5q-25 0 -42.5 -17t-21.5 -49l-38 5q7 51 36.5 77t66.5 26q26 0 45 -10z" />
    <glyph glyph-name="racute" unicode="&#x155;" 
d="M302 466q64 46 136 46q47 0 81 -12v-47q-35 13 -82 13q-62 0 -114.5 -35t-83.5 -98t-31 -144v-189h-50v500h50v-171q30 91 94 137zM391 720h62l-120 -141h-47z" />
    <glyph glyph-name="rcaron" unicode="&#x159;" 
d="M302 466q64 46 136 46q47 0 81 -12v-47q-35 13 -82 13q-62 0 -114.5 -35t-83.5 -98t-31 -144v-189h-50v500h50v-171q30 91 94 137zM310 613l84 107h51l-110 -141h-50l-110 141h51z" />
    <glyph glyph-name="uni0157" unicode="&#x157;" 
d="M302 466q64 46 136 46q47 0 81 -12v-47q-35 13 -82 13q-62 0 -114.5 -35t-83.5 -98t-31 -144v-189h-50v500h50v-171q30 91 94 137zM178.5 -165.5q5.5 16.5 5.5 46.5h-30v65h59v-62q0 -38 -9.5 -62.5t-33.5 -40.5l-16 24q19 13 24.5 29.5z" />
    <glyph glyph-name="sacute" unicode="&#x15b;" 
d="M181 28.5q-53 40.5 -63 116.5l50 7q9 -60 48.5 -91t106.5 -31q60 0 93.5 27t33.5 72q0 40 -22 60.5t-71 30.5l-97 21q-125 25 -125 132q0 62 48.5 100.5t128.5 38.5q81 0 129.5 -36t55.5 -107l-49 -9q-8 57 -42.5 84t-96.5 27q-56 0 -90.5 -26t-34.5 -70q0 -38 23 -60
t67 -31l100 -20q65 -14 95 -45t30 -85q0 -67 -47 -106.5t-130 -39.5q-88 0 -141 40.5zM392 720h62l-120 -141h-47z" />
    <glyph glyph-name="scaron" unicode="&#x161;" 
d="M181 28.5q-53 40.5 -63 116.5l50 7q9 -60 48.5 -91t106.5 -31q60 0 93.5 27t33.5 72q0 40 -22 60.5t-71 30.5l-97 21q-125 25 -125 132q0 62 48.5 100.5t128.5 38.5q81 0 129.5 -36t55.5 -107l-49 -9q-8 57 -42.5 84t-96.5 27q-56 0 -90.5 -26t-34.5 -70q0 -38 23 -60
t67 -31l100 -20q65 -14 95 -45t30 -85q0 -67 -47 -106.5t-130 -39.5q-88 0 -141 40.5zM311 613l84 107h51l-110 -141h-50l-110 141h51z" />
    <glyph glyph-name="scedilla" unicode="&#x15f;" 
d="M459 34q-40 -39 -111 -45l-33 -55q8 7 19.5 10.5t22.5 3.5q30 0 49.5 -19t19.5 -50q0 -35 -26 -57.5t-61 -22.5q-28 0 -51 13.5t-33 43.5l38 8q5 -18 17.5 -26.5t28.5 -8.5q19 0 32.5 12t13.5 36q0 22 -13 33.5t-31 11.5q-25 0 -41 -16l-27 9l40 73q-84 2 -134.5 42.5
t-60.5 114.5l50 7q9 -60 48.5 -91t106.5 -31q60 0 93.5 27t33.5 72q0 40 -22 60.5t-71 30.5l-97 21q-125 25 -125 132q0 62 48.5 100.5t128.5 38.5q81 0 129.5 -36t55.5 -107l-49 -9q-8 57 -42.5 84t-96.5 27q-56 0 -90.5 -26t-34.5 -70q0 -38 23 -60t67 -31l100 -20
q65 -14 95 -45t30 -85q0 -61 -40 -100z" />
    <glyph glyph-name="scircumflex" unicode="&#x15d;" 
d="M181 28.5q-53 40.5 -63 116.5l50 7q9 -60 48.5 -91t106.5 -31q60 0 93.5 27t33.5 72q0 40 -22 60.5t-71 30.5l-97 21q-125 25 -125 132q0 62 48.5 100.5t128.5 38.5q81 0 129.5 -36t55.5 -107l-49 -9q-8 57 -42.5 84t-96.5 27q-56 0 -90.5 -26t-34.5 -70q0 -38 23 -60
t67 -31l100 -20q65 -14 95 -45t30 -85q0 -67 -47 -106.5t-130 -39.5q-88 0 -141 40.5zM395 579l-84 107l-84 -107h-51l110 141h50l110 -141h-51z" />
    <glyph glyph-name="uni0219" unicode="&#x219;" 
d="M181 28.5q-53 40.5 -63 116.5l50 7q9 -60 48.5 -91t106.5 -31q60 0 93.5 27t33.5 72q0 40 -22 60.5t-71 30.5l-97 21q-125 25 -125 132q0 62 48.5 100.5t128.5 38.5q81 0 129.5 -36t55.5 -107l-49 -9q-8 57 -42.5 84t-96.5 27q-56 0 -90.5 -26t-34.5 -70q0 -38 23 -60
t67 -31l100 -20q65 -14 95 -45t30 -85q0 -67 -47 -106.5t-130 -39.5q-88 0 -141 40.5zM332.5 -165.5q5.5 16.5 5.5 46.5h-30v65h59v-62q0 -38 -9.5 -62.5t-33.5 -40.5l-16 24q19 13 24.5 29.5z" />
    <glyph glyph-name="tbar" unicode="&#x167;" 
d="M290 459v-161h200v-43h-200v-103q0 -57 30.5 -85t85.5 -28q37 0 84 7v-44q-42 -10 -86 -10q-77 0 -120.5 40.5t-43.5 112.5v110h-147v43h147v161h-147v41h147v134l50 22v-156h200v-41h-200z" />
    <glyph glyph-name="tcaron" unicode="&#x165;" 
d="M240 500v134l50 22v-156h200v-41h-200v-307q0 -57 30.5 -85t85.5 -28q37 0 84 7v-44q-42 -10 -86 -10q-77 0 -120.5 40.5t-43.5 112.5v314h-147v41h147zM455 560l18 167h54l-37 -167h-35z" />
    <glyph glyph-name="uni0163" unicode="&#x163;" 
d="M290 459v-307q0 -57 30.5 -85t85.5 -28q37 0 84 7v-44q-42 -10 -86 -10l-34 -58q8 7 19.5 10.5t22.5 3.5q30 0 49.5 -19t19.5 -50q0 -35 -26 -57.5t-61 -22.5q-28 0 -51 13.5t-33 43.5l38 8q5 -18 17.5 -26.5t28.5 -8.5q19 0 32.5 12t13.5 36q0 22 -13 33.5t-31 11.5
q-25 0 -41 -16l-27 9l43 79q-62 8 -96.5 47.5t-34.5 103.5v314h-147v41h147v134l50 22v-156h200v-41h-200z" />
    <glyph glyph-name="uni021B" unicode="&#x21b;" 
d="M240 500v134l50 22v-156h200v-41h-200v-307q0 -57 30.5 -85t85.5 -28q37 0 84 7v-44q-42 -10 -86 -10q-77 0 -120.5 40.5t-43.5 112.5v314h-147v41h147zM386.5 -165.5q5.5 16.5 5.5 46.5h-30v65h59v-62q0 -38 -9.5 -62.5t-33.5 -40.5l-16 24q19 13 24.5 29.5z" />
    <glyph glyph-name="thorn" unicode="&#xfe;" 
d="M234.5 475.5q45.5 35.5 104.5 35.5q64 0 111 -33.5t71.5 -93t24.5 -133.5q0 -76 -25 -136t-72 -94.5t-111 -34.5q-59 0 -104.5 34t-65.5 94v-309h-50v920h50v-347q21 62 66.5 97.5zM210 90q43 -59 117 -59q77 0 122 61t45 159q0 96 -44 156t-122 60q-49 0 -85.5 -28
t-56 -75t-19.5 -103v-21q0 -91 43 -150z" />
    <glyph glyph-name="uacute" unicode="&#xfa;" 
d="M387 24.5q-46 -36.5 -107 -36.5q-79 0 -126 44q-24 24 -36 62t-12 96v310h51v-310q0 -159 134 -159q52 0 87 29.5t52 74t17 91.5v274h50v-500h-47v115q-17 -54 -63 -90.5zM383 720h62l-120 -141h-47z" />
    <glyph glyph-name="ubreve" unicode="&#x16d;" 
d="M387 24.5q-46 -36.5 -107 -36.5q-79 0 -126 44q-24 24 -36 62t-12 96v310h51v-310q0 -159 134 -159q52 0 87 29.5t52 74t17 91.5v274h50v-500h-47v115q-17 -54 -63 -90.5zM230 640.5q28 -30.5 72 -30.5t72.5 30.5t31.5 79.5h43q-5 -74 -46 -110t-101 -36t-101.5 36.5
t-45.5 109.5h44q3 -49 31 -79.5z" />
    <glyph glyph-name="ucircumflex" unicode="&#xfb;" 
d="M387 24.5q-46 -36.5 -107 -36.5q-79 0 -126 44q-24 24 -36 62t-12 96v310h51v-310q0 -159 134 -159q52 0 87 29.5t52 74t17 91.5v274h50v-500h-47v115q-17 -54 -63 -90.5zM386 579l-84 107l-84 -107h-51l110 141h50l110 -141h-51z" />
    <glyph glyph-name="udieresis" unicode="&#xfc;" 
d="M387 24.5q-46 -36.5 -107 -36.5q-79 0 -126 44q-24 24 -36 62t-12 96v310h51v-310q0 -159 134 -159q52 0 87 29.5t52 74t17 91.5v274h50v-500h-47v115q-17 -54 -63 -90.5zM257 607h-77v116h77v-116zM423 607h-76v116h76v-116z" />
    <glyph glyph-name="ugrave" unicode="&#xf9;" 
d="M387 24.5q-46 -36.5 -107 -36.5q-79 0 -126 44q-24 24 -36 62t-12 96v310h51v-310q0 -159 134 -159q52 0 87 29.5t52 74t17 91.5v274h50v-500h-47v115q-17 -54 -63 -90.5zM279 579l-121 141h63l105 -141h-47z" />
    <glyph glyph-name="uhungarumlaut" unicode="&#x171;" 
d="M387 24.5q-46 -36.5 -107 -36.5q-79 0 -126 44q-24 24 -36 62t-12 96v310h51v-310q0 -159 134 -159q52 0 87 29.5t52 74t17 91.5v274h50v-500h-47v115q-17 -54 -63 -90.5zM294 720h54l-88 -141h-49zM427 720h53l-87 -141h-50z" />
    <glyph glyph-name="umacron" unicode="&#x16b;" 
d="M387 24.5q-46 -36.5 -107 -36.5q-79 0 -126 44q-24 24 -36 62t-12 96v310h51v-310q0 -159 134 -159q52 0 87 29.5t52 74t17 91.5v274h50v-500h-47v115q-17 -54 -63 -90.5zM158 646h288v-41h-288v41z" />
    <glyph glyph-name="uogonek" unicode="&#x173;" 
d="M522 -119q-6 -42 -32 -63t-64 -21q-35 0 -61 22.5t-26 61.5q0 38 26 70t85 53v111q-17 -54 -63 -90.5t-107 -36.5q-79 0 -126 44q-24 24 -36 62t-12 96v310h51v-310q0 -159 134 -159q52 0 87 29.5t52 74t17 91.5v274h50v-500q-64 -20 -91 -50t-27 -63q0 -25 14.5 -41
t36.5 -16q23 0 38.5 17t18.5 43z" />
    <glyph glyph-name="uring" unicode="&#x16f;" 
d="M387 24.5q-46 -36.5 -107 -36.5q-79 0 -126 44q-24 24 -36 62t-12 96v310h51v-310q0 -159 134 -159q52 0 87 29.5t52 74t17 91.5v274h50v-500h-47v115q-17 -54 -63 -90.5zM230 586.5q-27 27.5 -27 69.5t27.5 69t71.5 27t71.5 -27t27.5 -69t-27.5 -69.5t-71.5 -27.5
q-45 0 -72 27.5zM347.5 609.5q16.5 18.5 16.5 46.5t-16.5 46t-45.5 18t-45.5 -18t-16.5 -46t16.5 -46.5t45.5 -18.5t45.5 18.5z" />
    <glyph glyph-name="utilde" unicode="&#x169;" 
d="M387 24.5q-46 -36.5 -107 -36.5q-79 0 -126 44q-24 24 -36 62t-12 96v310h51v-310q0 -159 134 -159q52 0 87 29.5t52 74t17 91.5v274h50v-500h-47v115q-17 -54 -63 -90.5zM273 699q19 -10 44 -30q20 -16 34 -24t31 -8q22 0 39 17.5t20 51.5l38 -4q-8 -55 -36 -81t-65 -26
q-24 0 -42 10t-39 28q-21 17 -36 25.5t-34 8.5q-25 0 -42.5 -17t-21.5 -49l-38 5q7 51 36.5 77t66.5 26q26 0 45 -10z" />
    <glyph glyph-name="wacute" unicode="&#x1e83;" 
d="M165 122q8 -36 12 -65h5q8 46 14 71l89 372h48l89 -372q11 -48 14 -71h5q5 27 7 37l5 28l79 378h52l-114 -500h-59l-89 374q-3 11 -4.5 22t-3.5 21l-3 21h-4l-3 -21q-2 -10 -3.5 -21t-4.5 -22l-89 -374h-59l-113 500h51zM391 720h62l-120 -141h-47z" />
    <glyph glyph-name="wcircumflex" unicode="&#x175;" 
d="M165 122q8 -36 12 -65h5q8 46 14 71l89 372h48l89 -372q11 -48 14 -71h5q5 27 7 37l5 28l79 378h52l-114 -500h-59l-89 374q-3 11 -4.5 22t-3.5 21l-3 21h-4l-3 -21q-2 -10 -3.5 -21t-4.5 -22l-89 -374h-59l-113 500h51zM393 579l-84 107l-84 -107h-51l110 141h50
l110 -141h-51z" />
    <glyph glyph-name="wdieresis" unicode="&#x1e85;" 
d="M165 122q8 -36 12 -65h5q8 46 14 71l89 372h48l89 -372q11 -48 14 -71h5q5 27 7 37l5 28l79 378h52l-114 -500h-59l-89 374q-3 11 -4.5 22t-3.5 21l-3 21h-4l-3 -21q-2 -10 -3.5 -21t-4.5 -22l-89 -374h-59l-113 500h51zM264 607h-77v116h77v-116zM430 607h-76v116h76
v-116z" />
    <glyph glyph-name="wgrave" unicode="&#x1e81;" 
d="M165 122q8 -36 12 -65h5q8 46 14 71l89 372h48l89 -372q11 -48 14 -71h5q5 27 7 37l5 28l79 378h52l-114 -500h-59l-89 374q-3 11 -4.5 22t-3.5 21l-3 21h-4l-3 -21q-2 -10 -3.5 -21t-4.5 -22l-89 -374h-59l-113 500h51zM286 579l-121 141h63l105 -141h-47z" />
    <glyph glyph-name="yacute" unicode="&#xfd;" 
d="M478 500h52l-197 -532q-33 -91 -74.5 -130.5t-105.5 -39.5q-23 0 -41 5v45q16 -4 39 -4q50 0 79 30.5t50 89.5l13 37l-199 499h55l170 -443zM391 720h62l-120 -141h-47z" />
    <glyph glyph-name="ycircumflex" unicode="&#x177;" 
d="M478 500h52l-197 -532q-33 -91 -74.5 -130.5t-105.5 -39.5q-23 0 -41 5v45q16 -4 39 -4q50 0 79 30.5t50 89.5l13 37l-199 499h55l170 -443zM394 579l-84 107l-84 -107h-51l110 141h50l110 -141h-51z" />
    <glyph glyph-name="ydieresis" unicode="&#xff;" 
d="M478 500h52l-197 -532q-33 -91 -74.5 -130.5t-105.5 -39.5q-23 0 -41 5v45q16 -4 39 -4q50 0 79 30.5t50 89.5l13 37l-199 499h55l170 -443zM265 607h-77v116h77v-116zM431 607h-76v116h76v-116z" />
    <glyph glyph-name="ygrave" unicode="&#x1ef3;" 
d="M478 500h52l-197 -532q-33 -91 -74.5 -130.5t-105.5 -39.5q-23 0 -41 5v45q16 -4 39 -4q50 0 79 30.5t50 89.5l13 37l-199 499h55l170 -443zM287 579l-121 141h63l105 -141h-47z" />
    <glyph glyph-name="zacute" unicode="&#x17a;" 
d="M423 457h-299v43h359v-38l-310 -419h322v-43h-383v40zM391 720h62l-120 -141h-47z" />
    <glyph glyph-name="zcaron" unicode="&#x17e;" 
d="M423 457h-299v43h359v-38l-310 -419h322v-43h-383v40zM310 613l84 107h51l-110 -141h-50l-110 141h51z" />
    <glyph glyph-name="zdotaccent" unicode="&#x17c;" 
d="M423 457h-299v43h359v-38l-310 -419h322v-43h-383v40zM348 600h-77v123h77v-123z" />
    <glyph glyph-name="germandbls" unicode="&#xdf;" 
d="M296 37q94 0 143 44.5t49 124.5t-50 127.5t-148 49.5h-20v40h23q81 2 115.5 41t34.5 94q0 59 -34 96.5t-98 37.5q-136 0 -136 -176v-516h-50v516q0 98 45.5 157t140.5 59q58 0 100 -22.5t63.5 -61t21.5 -85.5q0 -62 -35.5 -104.5t-93.5 -51.5q77 -9 125.5 -61t48.5 -139
q0 -100 -65.5 -156t-179.5 -56h-38v42h38z" />
    <glyph glyph-name="eth" unicode="&#xf0;" 
d="M492 452.5q28 -92.5 28 -194.5q0 -77 -26.5 -139t-76 -97.5t-115.5 -35.5q-102 0 -159.5 71.5t-57.5 192.5q0 77 25.5 135.5t73.5 91.5t114 33q64 0 98 -28t54 -69q-24 113 -87 183l-194 -60l-12 34l177 55q-55 47 -127 62l26 34q86 -21 150 -81l81 25l11 -34l-65 -20
q54 -66 82 -158.5zM425 93q42 62 42 157q0 97 -40 157t-125 60q-81 0 -122.5 -61t-41.5 -156q0 -94 40 -156.5t124 -62.5q81 0 123 62z" />
    <glyph glyph-name="grave" unicode="`" 
d="M347 579l-121 141h63l105 -141h-47z" />
    <glyph glyph-name="acute" unicode="&#xb4;" 
d="M331 720h62l-120 -141h-47z" />
    <glyph glyph-name="circumflex" unicode="&#x2c6;" 
d="M394 579l-84 107l-84 -107h-51l110 141h50l110 -141h-51z" />
    <glyph glyph-name="tilde" unicode="&#x2dc;" 
d="M281 699q19 -10 44 -30q20 -16 34 -24t31 -8q22 0 39 17.5t20 51.5l38 -4q-8 -55 -36 -81t-65 -26q-24 0 -42 10t-39 28q-21 17 -36 25.5t-34 8.5q-25 0 -42.5 -17t-21.5 -49l-38 5q7 51 36.5 77t66.5 26q26 0 45 -10z" />
    <glyph glyph-name="caron" unicode="&#x2c7;" 
d="M310 613l84 107h51l-110 -141h-50l-110 141h51z" />
    <glyph glyph-name="dieresis" unicode="&#xa8;" 
d="M265 607h-77v116h77v-116zM431 607h-76v116h76v-116z" />
    <glyph glyph-name="macron" unicode="&#xaf;" 
d="M166 646h288v-41h-288v41z" />
    <glyph glyph-name="breve" unicode="&#x2d8;" 
d="M238 640.5q28 -30.5 72 -30.5t72.5 30.5t31.5 79.5h43q-5 -74 -46 -110t-101 -36t-101.5 36.5t-45.5 109.5h44q3 -49 31 -79.5z" />
    <glyph glyph-name="ring" unicode="&#x2da;" 
d="M238 586.5q-27 27.5 -27 69.5t27.5 69t71.5 27t71.5 -27t27.5 -69t-27.5 -69.5t-71.5 -27.5q-45 0 -72 27.5zM355.5 609.5q16.5 18.5 16.5 46.5t-16.5 46t-45.5 18t-45.5 -18t-16.5 -46t16.5 -46.5t45.5 -18.5t45.5 18.5z" />
    <glyph glyph-name="hungarumlaut" unicode="&#x2dd;" 
d="M258 720h54l-88 -141h-49zM391 720h53l-87 -141h-50z" />
    <glyph glyph-name="dotaccent" unicode="&#x2d9;" 
d="M348 600h-77v123h77v-123z" />
    <glyph glyph-name="cedilla" unicode="&#xb8;" 
d="M284 -66q8 7 19.5 10.5t22.5 3.5q30 0 49.5 -19t19.5 -50q0 -35 -26 -57.5t-61 -22.5q-28 0 -51 13.5t-33 43.5l38 8q5 -18 17.5 -26.5t28.5 -8.5q19 0 32.5 12t13.5 36q0 22 -13 33.5t-31 11.5q-25 0 -41 -16l-27 9l48 88h35z" />
    <glyph glyph-name="ogonek" unicode="&#x2db;" 
d="M369 -182q-26 -21 -64 -21q-35 0 -61 22.5t-26 61.5q0 38 26 70t85 53l47 -4q-64 -20 -91 -50t-27 -63q0 -25 14.5 -41t36.5 -16q23 0 38.5 17t18.5 43l35 -9q-6 -42 -32 -63z" />
    <glyph glyph-name="comma" unicode="," 
d="M312.5 -76.5q16.5 29.5 16.5 76.5h-72v114h110v-113q0 -115 -94 -157l-16 30q39 20 55.5 49.5z" />
    <glyph glyph-name="semicolon" unicode=";" 
d="M364 386h-109v114h109v-114zM312.5 -76.5q16.5 29.5 16.5 76.5h-72v114h110v-113q0 -115 -94 -157l-16 30q39 20 55.5 49.5z" />
    <glyph glyph-name="colon" unicode=":" 
d="M364 386h-109v114h109v-114zM364 0h-109v114h109v-114z" />
    <glyph glyph-name="period" unicode="." 
d="M364 0h-109v114h109v-114z" />
    <glyph glyph-name="ellipsis" unicode="&#x2026;" 
d="M160 0h-110v112h110v-112zM364 0h-109v112h109v-112zM569 0h-110v112h110v-112z" />
    <glyph glyph-name="hyphen" unicode="-" 
d="M454 302v-47h-289v47h289z" />
    <glyph glyph-name="exclam" unicode="!" 
d="M281 710h58l-8 -487h-42zM360 0h-100v114h100v-114z" />
    <glyph glyph-name="exclamdown" unicode="&#xa1;" 
d="M359 401h-99v114h99v-114zM289 292h41l9 -487h-59z" />
    <glyph glyph-name="question" unicode="?" 
d="M106 524q0 95 54.5 148.5t152.5 53.5q95 0 148 -46.5t53 -128.5q0 -88 -87 -166l-47 -42q-29 -26 -41 -51t-12 -59v-11h-51v25q0 33 14.5 61.5t50.5 60.5l46 41q36 33 53.5 65.5t17.5 74.5q0 60 -39 95.5t-106 35.5q-72 0 -113 -40t-41 -121q0 -13 2 -25l-53 5zM354 0
h-99v114h99v-114z" />
    <glyph glyph-name="questiondown" unicode="&#xbf;" 
d="M365 517v-113h-99v113h99zM514 -7q0 -95 -54.5 -148.5t-153.5 -53.5q-94 0 -147 47t-53 128q0 89 87 167l47 41q28 25 40.5 51t12.5 59v11h50v-24q0 -33 -14.5 -62t-49.5 -60l-46 -42q-35 -32 -53 -65t-18 -75q0 -60 38.5 -95.5t105.5 -35.5q73 0 114 40t41 122
q0 15 -3 24l54 -5z" />
    <glyph glyph-name="quoteleft" unicode="&#x2018;" 
d="M308.5 644q-16.5 -29 -16.5 -76h72v-114h-110v113q0 115 94 157l16 -31q-39 -20 -55.5 -49z" />
    <glyph glyph-name="quoteright" unicode="&#x2019;" 
d="M305.5 519.5q16.5 29.5 16.5 76.5h-72v114h110v-113q0 -115 -94 -157l-16 30q39 20 55.5 49.5z" />
    <glyph glyph-name="quotedblleft" unicode="&#x201c;" 
d="M205.5 644.5q-16.5 -29.5 -16.5 -76.5h71v-114h-110v114q0 113 94 156l16 -30q-38 -20 -54.5 -49.5zM420.5 644.5q-16.5 -29.5 -16.5 -76.5h71v-114h-110v114q0 113 94 156l16 -30q-38 -20 -54.5 -49.5z" />
    <glyph glyph-name="quotedblright" unicode="&#x201d;" 
d="M415.5 519.5q16.5 29.5 16.5 76.5h-72v114h110v-113q0 -115 -94 -157l-16 30q39 20 55.5 49.5zM200.5 519.5q16.5 29.5 16.5 76.5h-72v114h110v-113q0 -115 -94 -157l-16 30q39 20 55.5 49.5z" />
    <glyph glyph-name="quotesinglbase" unicode="&#x201a;" 
d="M311.5 -76.5q16.5 29.5 16.5 76.5h-72v114h110v-113q0 -115 -94 -157l-16 30q39 20 55.5 49.5z" />
    <glyph glyph-name="quotedblbase" unicode="&#x201e;" 
d="M418.5 -77.5q16.5 29.5 16.5 76.5h-72v114h110v-113q0 -115 -94 -157l-16 30q39 20 55.5 49.5zM203.5 -77.5q16.5 29.5 16.5 76.5h-72v114h110v-113q0 -115 -94 -157l-16 30q39 20 55.5 49.5z" />
    <glyph glyph-name="guilsinglleft" unicode="&#x2039;" 
d="M187 275l173 207h52l-169 -206l166 -209h-54z" />
    <glyph glyph-name="guilsinglright" unicode="&#x203a;" 
d="M265 67h-54l166 209l-169 206h52l173 -207z" />
    <glyph glyph-name="periodcentered" unicode="&#xb7;" 
d="M473 301h-109v114h109v-114z" />
    <glyph glyph-name="slash" unicode="/" 
d="M145 -117l282 877h47l-282 -877h-47z" />
    <glyph glyph-name="bar" unicode="|" 
d="M288 760h44v-877h-44v877z" />
    <glyph glyph-name="endash" unicode="&#x2013;" 
d="M516 298v-39h-412v39h412z" />
    <glyph glyph-name="emdash" unicode="&#x2014;" 
d="M582 298v-39h-545v39h545z" />
    <glyph glyph-name="bullet" unicode="&#x2022;" 
d="M358 394q18 -18 18 -48t-18 -48t-48 -18t-48.5 18t-18.5 48t18.5 48t48.5 18t48 -18z" />
    <glyph glyph-name="parenleft" unicode="(" 
d="M276.5 74.5q-58.5 121.5 -58.5 252.5q0 128 58.5 246t168.5 198l35 -23q-110 -91 -159.5 -192.5t-49.5 -228.5q0 -128 49.5 -232t159.5 -202l-35 -22q-110 82 -168.5 203.5z" />
    <glyph glyph-name="parenright" unicode=")" 
d="M140 -107q110 98 159.5 202t49.5 232q0 127 -49.5 228.5t-159.5 192.5l35 23q110 -80 168.5 -198t58.5 -246q0 -131 -58.5 -252.5t-168.5 -203.5z" />
    <glyph glyph-name="bracketleft" unicode="[" 
d="M222 757h246v-41h-200v-789h200v-41h-246v871z" />
    <glyph glyph-name="bracketright" unicode="]" 
d="M398 -114h-246v41h200v789h-200v41h246v-871z" />
    <glyph glyph-name="braceleft" unicode="{" 
d="M286 -77.5q-48 36.5 -48 107.5v181q0 30 -5 48t-22 28.5t-52 10.5v48q36 0 52.5 9.5t21 26t4.5 48.5v183q0 71 48 107.5t122 36.5h67v-41h-67q-54 0 -89 -27.5t-35 -88.5v-170q0 -44 -12 -70.5t-46 -36.5q34 -12 46 -40.5t12 -72.5v-167q0 -61 35.5 -88.5t89.5 -27.5h67
v-41h-67q-74 0 -122 36.5z" />
    <glyph glyph-name="braceright" unicode="}" 
d="M145 -114v41h67q55 0 90 27.5t35 88.5v167q0 44 12 72.5t46 40.5q-34 10 -46 36.5t-12 70.5v170q0 61 -35 88.5t-89 27.5h-67v41h67q74 0 122 -36.5t48 -107.5v-183q0 -32 4.5 -48.5t21 -26t52.5 -9.5v-48q-35 0 -52 -10.5t-22 -28.5t-5 -48v-181q0 -71 -48 -107.5
t-122 -36.5h-67z" />
    <glyph glyph-name="guillemotleft" unicode="&#xab;" 
d="M81 275l173 207h53l-169 -206l166 -209h-55zM302 275l173 207h53l-169 -206l166 -209h-55z" />
    <glyph glyph-name="guillemotright" unicode="&#xbb;" 
d="M314 275l-173 207h-53l169 -206l-166 -209h55zM539 275l-173 207h-53l169 -206l-166 -209h55z" />
    <glyph glyph-name="zero" unicode="0" 
d="M486.5 620q60.5 -90 60.5 -272q0 -184 -60.5 -273.5t-176.5 -89.5t-176.5 90t-60.5 272q0 184 60.5 273.5t176.5 89.5t176.5 -90zM172 588q-47 -77 -47 -240q0 -119 26 -194l303 422q-45 89 -144 89q-91 0 -138 -77zM447.5 107q47.5 77 47.5 240q0 118 -24 190l-304 -421
q45 -86 140 -86q93 0 140.5 77z" />
    <glyph glyph-name="one" unicode="1" 
d="M537 47v-47h-434v47h200v550q-22 -33 -66.5 -53.5t-98.5 -20.5h-26v47h20q70 0 117.5 34.5t62.5 90.5h41v-648h184z" />
    <glyph glyph-name="two" unicode="2" 
d="M354 281q54 55 80.5 109t26.5 115q0 75 -42 117t-117 42q-77 0 -117.5 -41t-40.5 -109q0 -28 8 -64l-53 5q-7 28 -7 59q0 89 55.5 142.5t156.5 53.5q100 0 155.5 -54t55.5 -150q0 -68 -30.5 -129.5t-94.5 -124.5q-46 -46 -118.5 -108.5t-122.5 -96.5h382v-47h-450v45
q152 115 273 236z" />
    <glyph glyph-name="three" unicode="3" 
d="M191.5 11.5q-50.5 26.5 -79 74.5t-30.5 110l51 6q3 -79 50.5 -126t126.5 -47q85 0 130 42t45 121q0 68 -44 108t-122 40h-53v44h46q70 0 109.5 38.5t39.5 100.5q0 69 -39.5 106t-114.5 37q-78 0 -121.5 -47.5t-43.5 -132.5l-50 9q0 100 59 157.5t160 57.5
q96 0 149.5 -49.5t53.5 -137.5q0 -59 -36 -102t-93 -53q70 -8 111.5 -55.5t41.5 -119.5q0 -97 -61 -152.5t-168 -55.5q-67 0 -117.5 26.5z" />
    <glyph glyph-name="four" unicode="4" 
d="M394 189h-340v38l336 468h54v-464h125v-42h-125v-189h-50v189zM394 553q0 46 2 84h-1q-16 -32 -55 -88l-180 -247q-35 -49 -53 -71h287v322z" />
    <glyph glyph-name="five" unicode="5" 
d="M159 34q-59 49 -72 134l53 5q12 -65 55 -104t112 -39q81 0 127.5 51.5t46.5 145.5q0 87 -42 142t-125 55q-68 0 -110.5 -38.5t-54.5 -95.5l-51 6l39 399h364v-46h-324l-30 -290q51 110 180 110q95 0 151 -65.5t56 -174.5q0 -72 -27.5 -127.5t-79.5 -86t-122 -30.5
q-87 0 -146 49z" />
    <glyph glyph-name="six" unicode="6" 
d="M435.5 434.5q47.5 -29.5 74 -84t26.5 -126.5q0 -68 -26.5 -122.5t-75.5 -85.5t-115 -31q-117 0 -180.5 86.5t-63.5 265.5q0 175 62.5 274t182.5 99q85 0 137 -45t67 -132l-52 -9q-26 142 -153 142q-96 0 -145.5 -88.5t-47.5 -243.5v-20q20 72 74.5 111t124.5 39
q63 0 110.5 -29.5zM439.5 83q44.5 54 44.5 141q0 90 -45.5 143t-121.5 53q-72 0 -121.5 -48.5t-63.5 -136.5q14 -95 61.5 -150.5t126.5 -55.5q75 0 119.5 54z" />
    <glyph glyph-name="seven" unicode="7" 
d="M288 343.5q64 163.5 184 303.5h-382v48h440v-43q-121 -133 -184 -298t-64 -342v-12h-57v8q-1 172 63 335.5z" />
    <glyph glyph-name="eight" unicode="8" 
d="M496.5 301.5q41.5 -44.5 41.5 -125.5q0 -89 -60.5 -140t-165.5 -51q-108 0 -169 50.5t-61 140.5q0 73 40.5 121t117.5 68q-68 23 -102 63t-34 109q0 78 56.5 125.5t148.5 47.5q94 0 149.5 -46.5t55.5 -125.5q0 -66 -35 -107.5t-107 -59.5q83 -25 124.5 -69.5zM188 447.5
q32 -32.5 96 -51.5l37 -10q80 25 110.5 57.5t30.5 91.5q0 62 -41.5 98t-112.5 36q-69 0 -110.5 -36t-41.5 -96q0 -57 32 -89.5zM440.5 67q45.5 39 45.5 110q0 66 -35 101.5t-104 55.5l-55 16q-81 -24 -119.5 -64.5t-38.5 -102.5q0 -72 47 -113.5t131 -41.5q83 0 128.5 39z
" />
    <glyph glyph-name="nine" unicode="9" 
d="M478 623.5q63 -86.5 63 -266.5q0 -169 -59.5 -270.5t-180.5 -101.5q-89 0 -142 46.5t-68 134.5l52 10q26 -147 159 -147q94 0 140.5 88.5t46.5 238.5v29v18q-22 -70 -74.5 -106.5t-120.5 -36.5q-63 0 -111.5 27t-76 77.5t-27.5 120.5q0 63 26 114.5t75.5 81t115.5 29.5
q119 0 182 -86.5zM418 351q51 47 64 126q-15 86 -60 137.5t-127 51.5q-75 0 -119.5 -50.5t-44.5 -129.5q0 -84 46 -133t121 -49q69 0 120 47z" />
    <glyph glyph-name="asterisk" unicode="*" 
d="M205 320l-49 34l116 143l-170 44l19 56l165 -68l-14 181h62l-13 -181l168 69l20 -57l-176 -46l118 -141l-47 -33l-100 157z" />
    <glyph glyph-name="asciitilde" unicode="~" 
d="M270 353q23 -12 56 -36q25 -20 43 -29.5t39 -9.5q29 0 50.5 21t29.5 63l41 -7q-11 -62 -45 -92t-77 -30q-31 0 -54 12t-53 36q-27 20 -44.5 30t-40.5 10q-69 0 -80 -77l-44 4q7 58 42.5 87.5t81.5 29.5q32 0 55 -12z" />
    <glyph glyph-name="brokenbar" unicode="&#xa6;" 
d="M331 382h-43v378h43v-378zM331 -117h-43v378h43v-378z" />
    <glyph glyph-name="backslash" unicode="\" 
d="M427 -117l-282 877h47l282 -877h-47z" />
    <glyph glyph-name="underscore" unicode="_" 
d="M620 -118v-42h-620v42h620z" />
    <glyph glyph-name="quotesingle" unicode="'" 
d="M257 710h105l-35 -308h-35z" />
    <glyph glyph-name="quotedbl" unicode="&#x22;" 
d="M355 710h105l-35 -308h-35zM161 710h105l-35 -308h-35z" />
    <glyph glyph-name="ampersand" unicode="&#x26;" 
d="M603 48v-48q-20 -5 -35 -5q-53 0 -113 73l-5 7q-75 -92 -197 -92q-102 0 -155 52.5t-53 138.5q0 78 39 125.5t110 91.5q-45 55 -70.5 98.5t-25.5 93.5q0 65 44.5 104.5t111.5 39.5q66 0 109 -37t43 -103q0 -61 -34.5 -107t-94.5 -85l-17 -10l188 -231q40 86 46 226l46 -5
q-6 -159 -62 -257l8 -10q28 -35 49.5 -49.5t40.5 -14.5q16 0 27 4zM176 660q-29 -26 -29 -75q0 -38 22 -76.5t66 -93.5l20 13q54 38 78 74t24 81q0 49 -27 76t-77 27q-48 0 -77 -26zM422 109l-202 250q-65 -44 -94.5 -82t-29.5 -98q0 -77 45.5 -114.5t117.5 -37.5
q103 0 163 82z" />
    <glyph glyph-name="at" unicode="@" 
d="M135 -19.5q-70 74.5 -70 205.5v185q0 87 31 152.5t88.5 101t132.5 35.5q73 0 126.5 -32.5t82 -93t28.5 -141.5v-118q0 -164 -91 -164q-31 0 -49.5 19t-21.5 51q-12 -33 -41.5 -53.5t-66.5 -20.5q-43 0 -71 26t-28 71q0 42 27 66.5t83 33.5l91 14v12q0 53 -16.5 76
t-54.5 23q-72 0 -77 -75h-41q2 52 34 82t87 30q56 0 82.5 -35t26.5 -110v-103q0 -72 40 -72q25 0 37 29t12 90v122q0 112 -53 175t-147 63q-98 0 -155 -67t-57 -184v-190q0 -112 61.5 -177t166.5 -65q77 0 148 39l10 -32q-77 -43 -161 -43q-124 0 -194 74.5zM360 173.5
q26 30.5 26 76.5v37l-81 -15q-39 -6 -58.5 -22.5t-19.5 -44.5t18.5 -45t48.5 -17q40 0 66 30.5z" />
    <glyph glyph-name="copyright" unicode="&#xa9;" 
d="M137 57.5q-64 74.5 -64 211.5v171q0 137 64 212t173 75t173 -75t64 -212v-171q0 -137 -64 -211.5t-173 -74.5t-173 74.5zM458 79.5q55 65.5 55 189.5v171q0 124 -55 190t-148 66t-148 -66t-55 -190v-171q0 -124 55 -189.5t148 -65.5t148 65.5zM192 303v104q0 161 123 161
q54 0 81 -37.5t29 -95.5v-7l-43 -2v8q-1 41 -17 68.5t-52 27.5q-37 0 -57 -27.5t-20 -95.5v-104q0 -67 20 -95t57 -28q35 0 52.5 28t18.5 66v5l42 -5v-4q-3 -52 -30 -90t-82 -38q-122 0 -122 161z" />
    <glyph glyph-name="registered" unicode="&#xae;" 
d="M483 652q64 -75 64 -212v-171q0 -137 -64 -211.5t-173 -74.5t-173 74.5t-64 211.5v171q0 137 64 212t173 75t173 -75zM513 440q0 124 -55 190t-148 66t-148 -66t-55 -190v-171q0 -124 55 -189.5t148 -65.5t148 65.5t55 189.5v171zM410.5 383q-18.5 -30 -63.5 -43l91 -184
h-46l-87 179h-58v-179h-42v406h101q65 0 94 -31.5t29 -82.5q0 -35 -18.5 -65zM296 371q92 0 92 78q0 77 -84 77h-57v-155h49z" />
    <glyph glyph-name="trademark" unicode="&#x2122;" 
d="M129 675h-90v35h221v-35h-91v-362h-40v362zM362 710l64 -289l14 -71h2q6 37 13 71l64 289h61v-397h-37v314v45h-1l-8 -36l-74 -323h-39l-74 323l-8 36h-1v-45v-314h-37v397h61z" />
    <glyph glyph-name="paragraph" unicode="&#xb6;" 
d="M113.5 401q-64.5 40 -64.5 138q0 95 66.5 138t169.5 43h286v-33h-104v-787h-39v787h-109v-787h-39v461q-102 0 -166.5 40z" />
    <glyph glyph-name="section" unicode="&#xa7;" 
d="M484 78q0 -69 -51.5 -108.5t-131.5 -39.5q-81 0 -130.5 41.5t-57.5 114.5l50 8q10 -56 46.5 -88t97.5 -32q55 0 90.5 27t35.5 72q0 28 -10 47t-33.5 35t-69.5 37l-86 39q-61 28 -88.5 62.5t-27.5 87.5q0 81 74 119q-46 40 -46 106q0 67 48.5 103.5t125.5 36.5
q78 0 122.5 -37t53.5 -104l-49 -9q-10 55 -42 82.5t-90 27.5q-53 0 -84.5 -25t-31.5 -70q0 -41 19.5 -65.5t72.5 -48.5l82 -37q70 -32 103.5 -67t33.5 -90q0 -39 -19.5 -71.5t-56.5 -50.5q50 -41 50 -103zM348 232q28 -13 58 -31q51 37 51 93q0 34 -15 56.5t-42.5 39
t-81.5 41.5l-75 36q-16 8 -24 13q-48 -34 -48 -90q0 -42 21.5 -68.5t76.5 -52.5z" />
    <glyph glyph-name="asciicircum" unicode="^" 
d="M328 709l148 -262h-48l-118 207l-119 -207h-47l148 262h36z" />
    <glyph glyph-name="dagger" unicode="&#x2020;" 
d="M335 -100h-51v558h-141v42h141v220h51v-220h142v-42h-142v-558z" />
    <glyph glyph-name="daggerdbl" unicode="&#x2021;" 
d="M477 458h-142v-289h141v-42h-141v-227h-51v227h-141v42h141v289h-141v42h141v220h51v-220h142v-42z" />
    <glyph glyph-name="emptyset" unicode="&#x2205;" 
d="M480 455q52 -61 52 -152q0 -66 -28.5 -117.5t-79 -80t-114.5 -28.5q-86 0 -145 50l-54 -56l-26 24l55 57q-52 61 -52 151q0 66 28.5 117.5t79 80t114.5 28.5q85 0 145 -49l54 56l26 -24zM172 185l252 262q-46 40 -114 40q-50 0 -90 -23t-62.5 -64.5t-22.5 -96.5
q0 -70 37 -118zM448 422l-252 -262q46 -40 114 -40q50 0 90 23t62.5 64.5t22.5 95.5q0 71 -37 119z" />
    <glyph glyph-name="uni2126" unicode="&#x2126;" 
d="M348 204q76 18 112 81.5t36 156.5q0 103 -47.5 171.5t-136.5 68.5q-58 0 -100.5 -32.5t-64.5 -87.5t-22 -121q0 -88 40 -153t108 -84l-10 -204h-179v47h134l5 125q-68 25 -110 99.5t-42 169.5q0 83 30.5 148t85 101.5t125.5 36.5q72 0 125.5 -35.5t82.5 -100t29 -148.5
q0 -102 -37 -173.5t-115 -96.5l7 -126h133v-47h-179z" />
    <glyph glyph-name="uni2206" unicode="&#x2206;" 
d="M281 710h60l204 -710h-471zM140 45h336l-165 607z" />
    <glyph glyph-name="uni00B5" unicode="&#xb5;" 
d="M497 500v-500h-47v115q-17 -54 -63 -90.5t-107 -36.5q-76 0 -124 42v-225h-50v695h51v-310q0 -159 134 -159q52 0 87 29.5t52 74t17 91.5v274h50z" />
    <glyph glyph-name="uniF8FF" unicode="&#xf8ff;" 
d="M436 663v-47h174v-48h-174v-47h174v-48h-174v-47h174v-47h-174v-48h174v-47h-600v426h600v-47h-174zM70 676h-16l-5 15l-4 -15h-16l13 -9l-5 -15l12 9l13 -9l-5 15zM116 676l13 -9l-5 -15l12 10l13 -10l-5 15l12 9h-15l-5 15l-4 -15h-16zM203 676l13 -9l-5 -15l12 10
l13 -10l-5 15l12 9h-15l-5 15l-4 -15h-16zM290 676l13 -9l-5 -15l12 10l13 -10l-5 15l12 9h-15l-5 15l-5 -15h-15zM417 676h-15l-5 15l-5 -15h-15l12 -9l-4 -15l12 10l13 -10l-5 15zM73 632l12 -9l-4 -14l12 9l12 -9l-4 14l12 9h-15l-5 15l-5 -15h-15zM374 632h-16l-4 15
l-5 -15h-15l12 -9l-5 -14l13 9l12 -9l-5 14zM263 457h94v80h-94v94h-80v-94h-93v-80h93v-93h80v93zM70 589h-16l-5 14l-4 -14h-16l13 -9l-5 -15l12 9l13 -9l-5 15zM116 589l13 -9l-5 -15l12 9l13 -9l-5 15l12 9h-15l-5 14l-4 -14h-16zM290 589l13 -9l-5 -15l12 9l13 -9
l-5 15l12 9h-15l-5 14l-5 -14h-15zM417 589h-15l-5 14l-5 -14h-15l12 -9l-4 -15l12 9l13 -9l-5 15zM70 502h-16l-5 14l-4 -14h-16l13 -10l-5 -14l12 9l13 -9l-5 14zM417 502h-15l-5 14l-5 -14h-15l12 -10l-4 -14l12 9l13 -9l-5 14zM70 414h-16l-5 15l-4 -15h-16l13 -9
l-5 -14l12 9l13 -9l-5 14zM156 414h-15l-5 15l-4 -15h-16l13 -9l-5 -14l12 9l13 -9l-5 14zM330 414h-15l-5 15l-5 -15h-15l13 -9l-5 -14l12 9l13 -9l-5 14zM417 414h-15l-5 15l-5 -15h-15l12 -9l-4 -14l12 9l13 -9l-5 14zM101 362l12 9h-15l-5 14l-5 -14h-15l12 -9l-4 -15
l12 9l12 -9zM361 362l13 9h-16l-4 14l-5 -14h-15l12 -9l-5 -15l13 9l12 -9zM57 318l13 9h-16l-5 15l-4 -15h-16l13 -9l-5 -15l12 9l13 -9zM144 318l12 9h-15l-5 15l-4 -15h-16l13 -9l-5 -15l12 9l13 -9zM231 318l12 9h-15l-5 15l-4 -15h-16l13 -9l-5 -15l12 9l13 -9z
M318 318l12 9h-15l-5 15l-5 -15h-15l13 -9l-5 -15l12 9l13 -9zM405 318l12 9h-15l-5 15l-5 -15h-15l12 -9l-4 -15l12 9l13 -9zM10 237h599v-48h-599v48zM10 142h600v-47h-600v47zM10 47h600v-47h-600v47z" />
    <glyph glyph-name="uni2113" unicode="&#x2113;" 
d="M312.5 60.5q20.5 -22.5 62.5 -22.5q27 0 60 7v-45q-31 -9 -71 -9q-67 0 -94.5 37.5t-27.5 106.5v87q-37 -21 -88 -42l-18 37q65 29 106 53v309q0 78 35 113.5t87 35.5q58 0 88.5 -41t30.5 -111q0 -106 -49 -185.5t-142 -139.5v-121q0 -47 20.5 -69.5zM292 302
q67 48 104 112.5t37 154.5q0 63 -18 91t-53 28q-33 0 -51.5 -25t-18.5 -73v-288z" />
    <glyph glyph-name="estimated" unicode="&#x212e;" 
d="M433 53q50 34 74 106l35 -15q-27 -79 -86 -120t-138 -41q-122 0 -186 103t-64 271q0 167 65.5 264t188.5 97q118 0 173.5 -84.5t55.5 -270.5h-365v-278q55 -66 137 -66q60 0 110 34zM186 626v-228h256v240q-44 44 -120 44q-85 0 -136 -56z" />
    <glyph glyph-name="dollar" unicode="$" 
d="M487.5 40.5q-57.5 -52.5 -159.5 -55.5v-92h-31v93q-103 6 -159 67t-64 157l53 9q6 -80 48.5 -132t121.5 -58v308l-40 10q-75 20 -118 65t-43 117q0 78 54.5 128t146.5 53v90h31v-91q90 -5 144 -55t60 -152l-52 -12q-8 166 -152 176v-286l43 -11q82 -21 128 -62.5
t46 -125.5q0 -88 -57.5 -140.5zM297 388v279q-74 -3 -112 -40.5t-38 -95.5q0 -53 33.5 -87.5t96.5 -50.5zM450 66.5q45 36.5 45 106.5q0 48 -18.5 77.5t-50 45.5t-80.5 28l-18 5v-301q77 2 122 38.5z" />
    <glyph glyph-name="cent" unicode="&#xa2;" 
d="M461 41q-47 -49 -127 -53v-77h-33v78q-98 7 -149.5 78.5t-51.5 185.5q0 111 51 181t150 77v83h33v-82q78 -4 127.5 -50.5t56.5 -125.5l-50 -5q-8 62 -42 97t-92 39v-435q59 4 94 41.5t43 99.5l48 -6q-11 -77 -58 -126zM189.5 99q38.5 -59 111.5 -66v434
q-73 -6 -111.5 -63t-38.5 -150q0 -96 38.5 -155z" />
    <glyph glyph-name="sterling" unicode="&#xa3;" 
d="M554 147q-6 -86 -47.5 -124t-102.5 -38q-22 0 -45.5 4.5t-45.5 9.5q-34 8 -58.5 12.5t-54.5 4.5q-37 0 -71.5 -5.5t-79.5 -16.5l-12 38q61 18 104.5 64t43.5 133q0 49 -12 115h-113v39h104q-9 40 -13.5 68.5t-4.5 63.5q0 95 51 145t135 50q79 0 124 -44t56 -125l-51 -11
q-7 67 -40 102t-89 35q-59 0 -95 -35.5t-36 -113.5q0 -35 4.5 -63.5t13.5 -71.5h173v-39h-165q10 -62 10 -106q0 -139 -108 -190q45 12 93 12q25 0 46 -3.5t50 -10.5q50 -13 87 -13q44 0 71 30t31 92z" />
    <glyph glyph-name="florin" unicode="&#x192;" 
d="M369.5 654q-20.5 -15 -29.5 -41t-15 -69l-16 -125h132v-41h-137l-68 -528h-50l67 528h-105v41h110l13 105q8 64 21 102.5t44.5 62.5t90.5 24q30 0 45 -6v-43q-18 5 -45 5q-37 0 -57.5 -15z" />
    <glyph glyph-name="yen" unicode="&#xa5;" 
d="M558 695l-221 -379h190v-38h-192v-93h192v-38h-192v-147h-53v147h-194v38h194v93h-194v38h192l-219 379h59l188 -332l191 332h59z" />
    <glyph glyph-name="Euro" unicode="&#x20ac;" 
d="M590 154q-27 -83 -83 -126t-134 -43q-109 0 -174 77.5t-81 208.5h-88v37h84q-1 15 -1 46q0 19 2 51h-85v37h89q17 128 84 198t175 70q77 0 130 -40t76 -121l-47 -14q-16 60 -57.5 94.5t-103.5 34.5q-85 0 -137.5 -57.5t-66.5 -164.5h276v-37h-280q-2 -32 -2 -50
q0 -17 2 -47h280v-37h-277q15 -113 68.5 -176.5t135.5 -63.5q57 0 103.5 34.5t67.5 103.5z" />
    <glyph glyph-name="currency" unicode="&#xa4;" 
d="M475 150l51 -55l-25 -24l-52 53q-27 -23 -62.5 -35t-74.5 -12q-83 0 -140 49l-53 -55l-25 23l54 57q-50 59 -50 152q0 91 49 151l-54 57l25 24l54 -55q57 49 140 49q39 0 74.5 -12t62.5 -35l52 53l26 -24l-52 -55q50 -61 50 -153t-50 -153zM396.5 142q37.5 22 59.5 63.5
t22 97.5t-22 97.5t-59.5 63.5t-84.5 22t-85 -22t-60 -63.5t-22 -97.5t22 -97.5t60 -63.5t85 -22t84.5 22z" />
    <glyph glyph-name="fraction" unicode="&#x2044;" horiz-adv-x="0" 
d="M281 727l-515 -744h-47l516 744h46z" />
    <glyph glyph-name="onequarter" unicode="&#xbc;" horiz-adv-x="1240" 
d="M442 366v-31h-264v31h114v289q-12 -15 -43.5 -27t-54.5 -12h-11v36h8q31 0 65 17t43 40h35v-343h108zM901 727l-515 -744h-47l516 744h46zM1016 97v-97h-40v97h-202v31l196 246h46v-245h70v-32h-70zM976 337l-168 -208h168v208z" />
    <glyph glyph-name="onehalf" unicode="&#xbd;" horiz-adv-x="1240" 
d="M442 366v-31h-264v31h114v289q-12 -15 -43.5 -27t-54.5 -12h-11v36h8q31 0 65 17t43 40h35v-343h108zM901 727l-515 -744h-47l516 744h46zM912 123q42 35 69.5 72t27.5 73q0 39 -21.5 59.5t-61.5 20.5q-41 0 -63.5 -20t-22.5 -57q0 -13 3 -28l-42 3q-3 17 -3 26
q0 50 35 80.5t93 30.5q60 0 93 -29.5t33 -82.5q0 -57 -53 -113t-149 -125h216v-33h-272v32q76 56 118 91z" />
    <glyph glyph-name="threequarters" unicode="&#xbe;" horiz-adv-x="1240" 
d="M365 559.5q24 17.5 24 52.5t-22.5 53.5t-59.5 18.5q-41 0 -63.5 -24.5t-21.5 -65.5l-43 4q-1 55 33.5 87.5t96.5 32.5q56 0 89.5 -27t33.5 -75q0 -35 -21 -58.5t-57 -28.5q41 -2 65.5 -27.5t24.5 -65.5q0 -50 -36.5 -79.5t-97.5 -29.5t-97 32t-38 85l44 3q1 -38 25.5 -63
t65.5 -25q40 0 65 20t25 59q0 31 -20.5 53t-67.5 22h-31v29h27q33 0 57 17.5zM901 727l-515 -744h-47l516 744h46zM1016 97v-97h-40v97h-202v31l196 246h46v-245h70v-32h-70zM976 337l-168 -208h168v208z" />
    <glyph glyph-name="uni2153" unicode="&#x2153;" horiz-adv-x="1240" 
d="M442 366v-31h-264v31h114v289q-12 -15 -43.5 -27t-54.5 -12h-11v36h8q31 0 65 17t43 40h35v-343h108zM901 727l-515 -744h-47l516 744h46zM985 224.5q24 17.5 24 52.5t-22.5 53.5t-59.5 18.5q-41 0 -63.5 -24.5t-21.5 -65.5l-43 4q-1 55 33.5 87.5t96.5 32.5
q56 0 89.5 -27t33.5 -75q0 -35 -21 -58.5t-57 -28.5q41 -2 65.5 -27.5t24.5 -65.5q0 -50 -36.5 -79.5t-97.5 -29.5t-97 32t-38 85l44 3q1 -38 25.5 -63t65.5 -25q40 0 65 20t25 59q0 31 -20.5 53t-67.5 22h-31v29h27q33 0 57 17.5z" />
    <glyph glyph-name="uni2154" unicode="&#x2154;" horiz-adv-x="1240" 
d="M292 458q42 35 69.5 72t27.5 73q0 39 -21.5 59.5t-61.5 20.5q-41 0 -63.5 -20t-22.5 -57q0 -13 3 -28l-42 3q-3 17 -3 26q0 50 35 80.5t93 30.5q60 0 93 -29.5t33 -82.5q0 -57 -53 -113t-149 -125h216v-33h-272v32q76 56 118 91zM901 727l-515 -744h-47l516 744h46z
M985 224.5q24 17.5 24 52.5t-22.5 53.5t-59.5 18.5q-41 0 -63.5 -24.5t-21.5 -65.5l-43 4q-1 55 33.5 87.5t96.5 32.5q56 0 89.5 -27t33.5 -75q0 -35 -21 -58.5t-57 -28.5q41 -2 65.5 -27.5t24.5 -65.5q0 -50 -36.5 -79.5t-97.5 -29.5t-97 32t-38 85l44 3q1 -38 25.5 -63
t65.5 -25q40 0 65 20t25 59q0 31 -20.5 53t-67.5 22h-31v29h27q33 0 57 17.5z" />
    <glyph glyph-name="oneeighth" unicode="&#x215b;" horiz-adv-x="1240" 
d="M442 366v-31h-264v31h114v289q-12 -15 -43.5 -27t-54.5 -12h-11v36h8q31 0 65 17t43 40h35v-343h108zM901 727l-515 -744h-47l516 744h46zM1043.5 168.5q26.5 -23.5 26.5 -72.5t-37.5 -76.5t-103.5 -27.5q-67 0 -103.5 27t-36.5 75q0 75 95 97q-40 10 -62 32t-22 63
q0 43 35 70t92 27q58 0 93 -25t35 -67q0 -35 -21 -56t-67 -31q50 -12 76.5 -35.5zM860.5 239.5q19.5 -15.5 57.5 -24.5l23 -5q41 10 57.5 27t16.5 47q0 32 -23.5 50.5t-64.5 18.5q-39 0 -62.5 -18.5t-23.5 -49.5q0 -30 19.5 -45.5zM1001.5 43.5q25.5 19.5 25.5 53.5
q0 36 -21 53.5t-62 26.5l-29 7q-84 -24 -84 -84q0 -36 25.5 -56t73.5 -20q46 0 71.5 19.5z" />
    <glyph glyph-name="threeeighths" unicode="&#x215c;" horiz-adv-x="1240" 
d="M365 559.5q24 17.5 24 52.5t-22.5 53.5t-59.5 18.5q-41 0 -63.5 -24.5t-21.5 -65.5l-43 4q-1 55 33.5 87.5t96.5 32.5q56 0 89.5 -27t33.5 -75q0 -35 -21 -58.5t-57 -28.5q41 -2 65.5 -27.5t24.5 -65.5q0 -50 -36.5 -79.5t-97.5 -29.5t-97 32t-38 85l44 3q1 -38 25.5 -63
t65.5 -25q40 0 65 20t25 59q0 31 -20.5 53t-67.5 22h-31v29h27q33 0 57 17.5zM901 727l-515 -744h-47l516 744h46zM1043.5 168.5q26.5 -23.5 26.5 -72.5t-37.5 -76.5t-103.5 -27.5q-67 0 -103.5 27t-36.5 75q0 75 95 97q-40 10 -62 32t-22 63q0 43 35 70t92 27q58 0 93 -25
t35 -67q0 -35 -21 -56t-67 -31q50 -12 76.5 -35.5zM860.5 239.5q19.5 -15.5 57.5 -24.5l23 -5q41 10 57.5 27t16.5 47q0 32 -23.5 50.5t-64.5 18.5q-39 0 -62.5 -18.5t-23.5 -49.5q0 -30 19.5 -45.5zM1001.5 43.5q25.5 19.5 25.5 53.5q0 36 -21 53.5t-62 26.5l-29 7
q-84 -24 -84 -84q0 -36 25.5 -56t73.5 -20q46 0 71.5 19.5z" />
    <glyph glyph-name="fiveeighths" unicode="&#x215d;" horiz-adv-x="1240" 
d="M234 675l-16 -152q32 63 107 63q56 0 88.5 -33.5t32.5 -91.5q0 -63 -37.5 -98.5t-100.5 -35.5q-55 0 -91.5 27t-43.5 72l40 4q7 -32 32.5 -51.5t62.5 -19.5q45 0 71.5 27t26.5 74q0 44 -24.5 69t-67.5 25q-36 0 -61.5 -18.5t-33.5 -50.5l-37 4l22 220h223v-34h-193z
M901 727l-515 -744h-47l516 744h46zM1043.5 168.5q26.5 -23.5 26.5 -72.5t-37.5 -76.5t-103.5 -27.5q-67 0 -103.5 27t-36.5 75q0 75 95 97q-40 10 -62 32t-22 63q0 43 35 70t92 27q58 0 93 -25t35 -67q0 -35 -21 -56t-67 -31q50 -12 76.5 -35.5zM860.5 239.5
q19.5 -15.5 57.5 -24.5l23 -5q41 10 57.5 27t16.5 47q0 32 -23.5 50.5t-64.5 18.5q-39 0 -62.5 -18.5t-23.5 -49.5q0 -30 19.5 -45.5zM1001.5 43.5q25.5 19.5 25.5 53.5q0 36 -21 53.5t-62 26.5l-29 7q-84 -24 -84 -84q0 -36 25.5 -56t73.5 -20q46 0 71.5 19.5z" />
    <glyph glyph-name="seveneighths" unicode="&#x215e;" horiz-adv-x="1240" 
d="M440 709v-35q-61 -60 -98 -148t-38 -191h-46v2q-1 94 37.5 183t104.5 154h-220v35h260zM901 727l-515 -744h-47l516 744h46zM1043.5 168.5q26.5 -23.5 26.5 -72.5t-37.5 -76.5t-103.5 -27.5q-67 0 -103.5 27t-36.5 75q0 75 95 97q-40 10 -62 32t-22 63q0 43 35 70t92 27
q58 0 93 -25t35 -67q0 -35 -21 -56t-67 -31q50 -12 76.5 -35.5zM860.5 239.5q19.5 -15.5 57.5 -24.5l23 -5q41 10 57.5 27t16.5 47q0 32 -23.5 50.5t-64.5 18.5q-39 0 -62.5 -18.5t-23.5 -49.5q0 -30 19.5 -45.5zM1001.5 43.5q25.5 19.5 25.5 53.5q0 36 -21 53.5t-62 26.5
l-29 7q-84 -24 -84 -84q0 -36 25.5 -56t73.5 -20q46 0 71.5 19.5z" />
    <glyph glyph-name="percent" unicode="%" 
d="M473 730h44l-383 -744h-44zM70 426.5q-35 44.5 -35 121.5q0 74 35 118.5t93 44.5q57 0 93 -45.5t36 -120.5q0 -74 -35.5 -118.5t-92.5 -44.5q-59 0 -94 44.5zM226.5 452q23.5 34 23.5 93q0 60 -23.5 95t-63.5 35t-63.5 -34t-23.5 -93q0 -62 23.5 -96t64.5 -34
q39 0 62.5 34zM363 44.5q-35 44.5 -35 121.5q0 74 35 118.5t94 44.5q57 0 92.5 -45.5t35.5 -120.5q0 -74 -35.5 -118.5t-91.5 -44.5q-60 0 -95 44.5zM520 70q23 34 23 93q0 60 -23.5 95t-62.5 35q-41 0 -64.5 -34t-23.5 -92q0 -62 23.5 -96.5t65.5 -34.5q39 0 62 34z" />
    <glyph glyph-name="perthousand" unicode="&#x2030;" 
d="M71 468.5q-31 37.5 -31 102.5q0 64 31 101.5t82 37.5t82 -37.5t31 -101.5q0 -65 -31 -102.5t-82 -37.5t-82 37.5zM99.5 648q-19.5 -28 -19.5 -77t19.5 -77.5t53.5 -28.5t53.5 28.5t19.5 77.5t-19.5 77t-53.5 28t-53.5 -28zM526 631v-48l-483 -377v45zM550 241.5
q31 -37.5 31 -102.5q0 -64 -31 -101.5t-82 -37.5q-30 0 -54.5 14t-39.5 40q-14 -26 -38.5 -40t-54.5 -14q-51 0 -82 37.5t-31 101.5q0 65 31 102.5t82 37.5q31 0 55 -14.5t38 -40.5q15 26 39 40.5t55 14.5q51 0 82 -37.5zM335 62q20 28 20 77t-20 77.5t-54 28.5t-53.5 -28.5
t-19.5 -77.5t19.5 -77t53.5 -28t54 28zM521.5 62q19.5 28 19.5 77t-19.5 77.5t-53.5 28.5t-54 -28.5t-20 -77.5t20 -77t54 -28t53.5 28z" />
    <glyph glyph-name="uni03BC" unicode="&#x3bc;" 
d="M497 500v-500h-47v115q-17 -54 -63 -90.5t-107 -36.5q-76 0 -124 42v-225h-50v695h51v-310q0 -159 134 -159q52 0 87 29.5t52 74t17 91.5v274h50z" />
    <glyph glyph-name="numbersign" unicode="#" 
d="M565 436h-124l-33 -177h123v-41h-130l-41 -218h-47l41 218h-141l-41 -218h-48l41 218h-115v41h122l33 177h-115v41h123l40 214h48l-40 -214h141l40 214h47l-40 -214h116v-41zM361 259l33 177h-141l-33 -177h141z" />
    <glyph glyph-name="uni2116" unicode="&#x2116;" 
d="M272 82h2q-7 103 -7 168v460h43v-710h-52l-170 532q-14 43 -26 89l-5 20h-2q8 -102 8 -176v-465h-43v710h56l164 -512zM412 630.5q28 35.5 80 35.5t79.5 -35.5t27.5 -105.5v-75q0 -69 -29 -105.5t-78 -36.5q-50 0 -79 37t-29 106v72q0 72 28 107.5zM539.5 604.5
q-17.5 23.5 -47.5 23.5t-48 -24t-18 -77v-79q0 -51 18 -76.5t48 -25.5t47.5 25.5t17.5 78.5v80q0 51 -17.5 74.5z" />
    <glyph glyph-name="uni0394" unicode="&#x394;" 
d="M281 710h60l204 -710h-471zM140 45h336l-165 607z" />
    <glyph glyph-name="uni03A9" unicode="&#x3a9;" 
d="M348 204q76 18 112 81.5t36 156.5q0 103 -47.5 171.5t-136.5 68.5q-58 0 -100.5 -32.5t-64.5 -87.5t-22 -121q0 -88 40 -153t108 -84l-10 -204h-179v47h134l5 125q-68 25 -110 99.5t-42 169.5q0 83 30.5 148t85 101.5t125.5 36.5q72 0 125.5 -35.5t82.5 -100t29 -148.5
q0 -102 -37 -173.5t-115 -96.5l7 -126h133v-47h-179z" />
    <glyph glyph-name="pi" unicode="&#x3c0;" 
d="M515 -7q-54 0 -74.5 32t-20.5 85v349h-219v-459h-50v459h-86v41h490v-41h-85v-352q0 -69 52 -69q20 0 32 4v-43q-18 -6 -39 -6z" />
    <glyph glyph-name="plus" unicode="+" 
d="M545 351v-43h-211v-217h-50v217h-209v43h209v205h50v-205h211z" />
    <glyph glyph-name="minus" unicode="&#x2212;" 
d="M75 352h470v-47h-470v47z" />
    <glyph glyph-name="plusminus" unicode="&#xb1;" 
d="M335 355h210v-42h-210v-182h-50v182h-210v42h210v187h50v-187zM75 0v46h470v-46h-470z" />
    <glyph glyph-name="multiply" unicode="&#xd7;" 
d="M541 525l-198 -198l198 -197l-33 -34l-198 198l-198 -198l-33 33l198 198l-198 198l33 33l198 -197l197 197z" />
    <glyph glyph-name="divide" unicode="&#xf7;" 
d="M281.5 489q-11.5 11 -11.5 29t11.5 29t28.5 11t28.5 -11t11.5 -29t-11.5 -29t-28.5 -11t-28.5 11zM75 350h470v-45h-470v45zM281 108.5q-11 10.5 -11 28.5t11 29t29 11t29 -11t11 -29t-11 -28.5t-29 -10.5t-29 10.5z" />
    <glyph glyph-name="equal" unicode="=" 
d="M75 441h470v-46h-470v46zM75 263h470v-46h-470v46z" />
    <glyph glyph-name="less" unicode="&#x3c;" 
d="M77 306v40l465 221v-47l-409 -193l409 -193v-49z" />
    <glyph glyph-name="greater" unicode="&#x3e;" 
d="M77 85v49l409 193l-409 193v47l465 -221v-40z" />
    <glyph glyph-name="degree" unicode="&#xb0;" 
d="M444.5 478.5q-20.5 -36.5 -56 -58t-78.5 -21.5q-42 0 -78 21t-56.5 57.5t-20.5 80.5q0 45 21 81.5t56.5 57t77.5 20.5t78 -21t56.5 -57.5t20.5 -80.5q0 -43 -20.5 -79.5zM230.5 474q32.5 -34 79.5 -34q48 0 80 34t32 84q0 51 -32.5 85t-79.5 34t-79.5 -34t-32.5 -85
q0 -50 32.5 -84z" />
    <glyph glyph-name="approxequal" unicode="&#x2248;" 
d="M374.5 381q-22.5 6 -60.5 19q-33 12 -57.5 18.5t-50.5 6.5q-36 0 -73 -11.5t-58 -28.5v47q20 17 55.5 28.5t69.5 11.5q31 0 57 -6.5t59 -19.5q33 -12 54 -18t46 -6q36 0 72.5 11.5t56.5 28.5v-47q-19 -17 -53.5 -28.5t-69.5 -11.5q-25 0 -47.5 6zM374.5 202
q-22.5 6 -60.5 19q-33 12 -57.5 18.5t-50.5 6.5q-36 0 -73 -11.5t-58 -28.5v47q20 17 55.5 28.5t69.5 11.5q31 0 57 -6.5t59 -19.5q33 -12 54 -18t46 -6q36 0 72.5 11.5t56.5 28.5v-47q-19 -17 -53.5 -28.5t-69.5 -11.5q-25 0 -47.5 6z" />
    <glyph glyph-name="greaterequal" unicode="&#x2265;" 
d="M78 136v49l409 193l-409 193v47l465 -221v-40zM557 0h-460v44h460v-44z" />
    <glyph glyph-name="infinity" unicode="&#x221e;" 
d="M523 421.5q33 -34.5 33 -91.5q0 -55 -34 -91.5t-84 -36.5q-40 0 -74 27.5t-55 64.5q-25 -42 -56 -67t-75 -25q-47 0 -80.5 34.5t-33.5 92.5q0 55 33.5 90.5t84.5 35.5q38 0 71.5 -22.5t55.5 -62.5q25 39 55.5 62.5t73.5 23.5q52 0 85 -34.5zM490.5 267.5
q22.5 22.5 22.5 61.5q0 41 -21.5 62t-55.5 21q-35 0 -59 -21t-47 -60q21 -38 48.5 -62t58.5 -24t53.5 22.5zM241.5 267.5q23.5 22.5 45.5 63.5q-19 34 -43.5 57t-61.5 23q-31 0 -53.5 -20t-22.5 -62q0 -39 23.5 -61.5t53.5 -22.5q35 0 58.5 22.5z" />
    <glyph glyph-name="lessequal" unicode="&#x2264;" 
d="M88 397l465 221v-47l-410 -193l410 -193v-49l-465 221v40zM533 44v-44h-460v44h460z" />
    <glyph glyph-name="logicalnot" unicode="&#xac;" 
d="M534 358v-227h-48v179h-401v48h449z" />
    <glyph glyph-name="notequal" unicode="&#x2260;" 
d="M545 395h-192l-49 -132h241v-46h-258l-49 -133h-36l49 133h-176v46h193l49 132h-242v46h259l48 129h36l-48 -129h175v-46z" />
    <glyph glyph-name="integral" unicode="&#x222b;" 
d="M144 -73q79 0 110 36t31 124v429q0 93 42 144.5t138 51.5q5 0 35 -2v-43q-14 2 -35 2q-72 0 -100.5 -38.5t-28.5 -122.5v-429q0 -96 -44.5 -145.5t-146.5 -49.5q-15 0 -26 1v43q11 -1 25 -1z" />
    <glyph glyph-name="partialdiff" unicode="&#x2202;" 
d="M481 618q68 -103 68 -285q0 -113 -31.5 -192t-88 -118.5t-130.5 -39.5q-66 0 -118 31t-81.5 86t-29.5 124q0 67 28 120t78.5 83t114.5 30q131 0 207 -107q0 153 -56 240t-166 87q-43 0 -88 -16l-14 41q45 19 102 19q137 0 205 -103zM398.5 54.5q43.5 27.5 70.5 87
t29 149.5q-36 60 -83.5 91t-115.5 31q-84 0 -131 -52t-47 -137q0 -56 23 -101t64 -70.5t94 -25.5t96.5 27.5z" />
    <glyph glyph-name="product" unicode="&#x220f;" 
d="M478 658h-336v-746h-50v793h436v-793h-50v746z" />
    <glyph glyph-name="radical" unicode="&#x221a;" 
d="M170 288l107 -313l253 759h50l-279 -828h-47l-121 341h-93v41h130z" />
    <glyph glyph-name="summation" unicode="&#x2211;" 
d="M67 -50l297 377l-284 341v37h460v-45h-394l280 -333l-295 -370h421v-45h-485v38z" />
    <glyph glyph-name="lozenge" unicode="&#x25ca;" 
d="M288 -17l-203 372l202 372h44l204 -372l-203 -372h-44zM137 355l173 -321l174 321l-175 321z" />
    <glyph glyph-name="uni0308" unicode="&#x308;" horiz-adv-x="0" 
d="M-355 607h-77v116h77v-116zM-189 607h-76v116h76v-116z" />
    <glyph glyph-name="uni0307" unicode="&#x307;" horiz-adv-x="0" 
d="M-272 600h-77v123h77v-123z" />
    <glyph glyph-name="gravecomb" unicode="&#x300;" horiz-adv-x="0" 
d="M-278 579l-121 141h63l105 -141h-47z" />
    <glyph glyph-name="acutecomb" unicode="&#x301;" horiz-adv-x="0" 
d="M-289 720h62l-120 -141h-47z" />
    <glyph glyph-name="uni030B" unicode="&#x30b;" horiz-adv-x="0" 
d="M-346 720h54l-88 -141h-49zM-213 720h53l-87 -141h-50z" />
    <glyph glyph-name="uni0302" unicode="&#x302;" horiz-adv-x="0" 
d="M-226 579l-84 107l-84 -107h-51l110 141h50l110 -141h-51z" />
    <glyph glyph-name="uni030C" unicode="&#x30c;" horiz-adv-x="0" 
d="M-310 613l84 107h51l-110 -141h-50l-110 141h51z" />
    <glyph glyph-name="uni0306" unicode="&#x306;" horiz-adv-x="0" 
d="M-382 640.5q28 -30.5 72 -30.5t72.5 30.5t31.5 79.5h43q-5 -74 -46 -110t-101 -36t-101.5 36.5t-45.5 109.5h44q3 -49 31 -79.5z" />
    <glyph glyph-name="uni030A" unicode="&#x30a;" horiz-adv-x="0" 
d="M-382 586.5q-27 27.5 -27 69.5t27.5 69t71.5 27t71.5 -27t27.5 -69t-27.5 -69.5t-71.5 -27.5q-45 0 -72 27.5zM-264.5 609.5q16.5 18.5 16.5 46.5t-16.5 46t-45.5 18t-45.5 -18t-16.5 -46t16.5 -46.5t45.5 -18.5t45.5 18.5z" />
    <glyph glyph-name="tildecomb" unicode="&#x303;" horiz-adv-x="0" 
d="M-339 699q19 -10 44 -30q20 -16 34 -24t31 -8q22 0 39 17.5t20 51.5l38 -4q-8 -55 -36 -81t-65 -26q-24 0 -42 10t-39 28q-21 17 -36 25.5t-34 8.5q-25 0 -42.5 -17t-21.5 -49l-38 5q7 51 36.5 77t66.5 26q26 0 45 -10z" />
    <glyph glyph-name="uni0304" unicode="&#x304;" horiz-adv-x="0" 
d="M-454 646h288v-41h-288v41z" />
    <glyph glyph-name="uni0312" unicode="&#x312;" horiz-adv-x="0" 
d="M-305 706q-6 -17 -6 -47h30v-64h-59v62q0 38 9.5 62.5t33.5 40.5l16 -24q-18 -13 -24 -30z" />
    <glyph glyph-name="uni0326" unicode="&#x326;" horiz-adv-x="0" 
d="M-313.5 -165.5q5.5 16.5 5.5 46.5h-30v65h59v-62q0 -38 -9.5 -62.5t-33.5 -40.5l-16 24q19 13 24.5 29.5z" />
    <glyph glyph-name="uni0327" unicode="&#x327;" horiz-adv-x="0" 
d="M-336 -66q8 7 19.5 10.5t22.5 3.5q30 0 49.5 -19t19.5 -50q0 -35 -26 -57.5t-61 -22.5q-28 0 -51 13.5t-33 43.5l38 8q5 -18 17.5 -26.5t28.5 -8.5q19 0 32.5 12t13.5 36q0 22 -13 33.5t-31 11.5q-25 0 -41 -16l-27 9l48 88h35z" />
    <glyph glyph-name="uni0328" unicode="&#x328;" horiz-adv-x="0" 
d="M-251 -182q-26 -21 -64 -21q-35 0 -61 22.5t-26 61.5q0 38 26 70t85 53l47 -4q-64 -20 -91 -50t-27 -63q0 -25 14.5 -41t36.5 -16q23 0 38.5 17t18.5 43l35 -9q-6 -42 -32 -63z" />
    <glyph glyph-name="uni00A0" unicode="&#xa0;" 
 />
    <glyph glyph-name="uni1E9E" unicode="&#x1e9e;" 
d="M521 344.5q51 -50.5 51 -147.5q0 -106 -53 -160t-154 -54q-52 0 -105 18v46q54 -19 101 -19q78 0 117 41t39 127q0 80 -39 117t-116 37h-45v47l175 231q-28 27 -64.5 39.5t-84.5 12.5q-88 0 -131.5 -50t-43.5 -165v-465h-54v467q0 132 59 196t170 64q69 0 124 -25t88 -70
l-179 -235q94 -2 145 -52.5z" />
    <glyph glyph-name="g.ss01" 
d="M154 -171q-52 36 -62 107h51q11 -52 49 -76t102 -24q81 0 121 42t40 129v116q-18 -63 -64 -98.5t-110 -35.5q-61 0 -109 33t-74.5 93t-26.5 138q0 77 27 136t75.5 91t110.5 32q63 0 108 -33.5t64 -93.5l11 115h38v-489q0 -109 -53.5 -163.5t-157.5 -54.5q-88 0 -140 36z
M376 59q38 27 59 75t21 108v22q0 92 -45 148t-120 56q-77 0 -122 -58t-45 -157q0 -100 45.5 -160.5t120.5 -60.5q48 0 86 27z" />
    <glyph glyph-name="gbreve.ss01" 
d="M154 -171q-52 36 -62 107h51q11 -52 49 -76t102 -24q81 0 121 42t40 129v116q-18 -63 -64 -98.5t-110 -35.5q-61 0 -109 33t-74.5 93t-26.5 138q0 77 27 136t75.5 91t110.5 32q63 0 108 -33.5t64 -93.5l11 115h38v-489q0 -109 -53.5 -163.5t-157.5 -54.5q-88 0 -140 36z
M376 59q38 27 59 75t21 108v22q0 92 -45 148t-120 56q-77 0 -122 -58t-45 -157q0 -100 45.5 -160.5t120.5 -60.5q48 0 86 27zM238 640.5q28 -30.5 72 -30.5t72.5 30.5t31.5 79.5h43q-5 -74 -46 -110t-101 -36t-101.5 36.5t-45.5 109.5h44q3 -49 31 -79.5z" />
    <glyph glyph-name="gcircumflex.ss01" 
d="M154 -171q-52 36 -62 107h51q11 -52 49 -76t102 -24q81 0 121 42t40 129v116q-18 -63 -64 -98.5t-110 -35.5q-61 0 -109 33t-74.5 93t-26.5 138q0 77 27 136t75.5 91t110.5 32q63 0 108 -33.5t64 -93.5l11 115h38v-489q0 -109 -53.5 -163.5t-157.5 -54.5q-88 0 -140 36z
M376 59q38 27 59 75t21 108v22q0 92 -45 148t-120 56q-77 0 -122 -58t-45 -157q0 -100 45.5 -160.5t120.5 -60.5q48 0 86 27zM394 579l-84 107l-84 -107h-51l110 141h50l110 -141h-51z" />
    <glyph glyph-name="uni0123.ss01" 
d="M154 -171q-52 36 -62 107h51q11 -52 49 -76t102 -24q81 0 121 42t40 129v116q-18 -63 -64 -98.5t-110 -35.5q-61 0 -109 33t-74.5 93t-26.5 138q0 77 27 136t75.5 91t110.5 32q63 0 108 -33.5t64 -93.5l11 115h38v-489q0 -109 -53.5 -163.5t-157.5 -54.5q-88 0 -140 36z
M376 59q38 27 59 75t21 108v22q0 92 -45 148t-120 56q-77 0 -122 -58t-45 -157q0 -100 45.5 -160.5t120.5 -60.5q48 0 86 27zM315 706q-6 -17 -6 -47h30v-64h-59v62q0 38 9.5 62.5t33.5 40.5l16 -24q-18 -13 -24 -30z" />
    <glyph glyph-name="gdotaccent.ss01" 
d="M154 -171q-52 36 -62 107h51q11 -52 49 -76t102 -24q81 0 121 42t40 129v116q-18 -63 -64 -98.5t-110 -35.5q-61 0 -109 33t-74.5 93t-26.5 138q0 77 27 136t75.5 91t110.5 32q63 0 108 -33.5t64 -93.5l11 115h38v-489q0 -109 -53.5 -163.5t-157.5 -54.5q-88 0 -140 36z
M376 59q38 27 59 75t21 108v22q0 92 -45 148t-120 56q-77 0 -122 -58t-45 -157q0 -100 45.5 -160.5t120.5 -60.5q48 0 86 27zM348 600h-77v123h77v-123z" />
    <glyph glyph-name="g.sups.ss01" 
d="M157 264h44q16 -73 112 -73q120 0 120 122v85q-14 -44 -48.5 -69t-84.5 -25q-71 0 -114.5 52.5t-43.5 138.5q0 85 44 137t116 52q50 0 84.5 -24t47.5 -68l7 83h36v-354q0 -162 -164 -162q-140 0 -156 105zM399.5 378.5q34.5 41.5 34.5 106.5v18q0 65 -33.5 105.5
t-88.5 40.5q-58 0 -90.5 -41.5t-32.5 -113.5t33 -114.5t89 -42.5q54 0 88.5 41.5z" />
    <glyph glyph-name="a.sups" 
d="M466 310h-46q-4 45 -5 79q-18 -43 -53 -65.5t-85 -22.5q-55 0 -89 28.5t-34 75.5q0 51 37 75.5t106 32.5l115 13q-1 67 -22.5 96t-73.5 29q-49 0 -75.5 -23.5t-28.5 -65.5h-47q5 58 44.5 90t107.5 32q72 0 106 -37t34 -114v-93q0 -83 9 -130zM225 460.5
q-25 -18.5 -25 -51.5q0 -34 24 -54.5t64 -20.5q56 0 90.5 37t34.5 93v34l-107 -13q-56 -6 -81 -24.5z" />
    <glyph glyph-name="b.sups" 
d="M238.5 659q35.5 25 82.5 25q72 0 113 -53t41 -138q0 -87 -41.5 -139.5t-115.5 -52.5q-46 0 -81.5 25t-48.5 67l-5 -83h-38v529h45v-249q13 44 48.5 69zM220.5 378.5q32.5 -42.5 87.5 -42.5q56 0 88 42.5t32 114.5q0 71 -31 113.5t-88 42.5q-55 0 -88 -43t-33 -106v-16
q0 -63 32.5 -105.5z" />
    <glyph glyph-name="c.sups" 
d="M191 354q-44 53 -44 139q0 85 44 138t128 53q63 0 104 -34.5t48 -94.5l-44 -6q-6 48 -35 73.5t-77 25.5q-59 0 -90.5 -41.5t-31.5 -111.5q0 -72 32.5 -114.5t91.5 -42.5q48 0 76.5 26.5t35.5 73.5l44 -8q-10 -57 -49.5 -93t-106.5 -36q-82 0 -126 53z" />
    <glyph glyph-name="d.sups" 
d="M475 310h-43v87q-13 -44 -48.5 -70t-83.5 -26q-72 0 -114 52.5t-42 139.5q0 85 43.5 138t117.5 53q46 0 79 -23.5t46 -67.5v246h45v-529zM399 607q-32 42 -86 42q-58 0 -89.5 -42t-31.5 -114t31.5 -114.5t87.5 -42.5q54 0 87 42.5t33 106.5v15q0 65 -32 107z" />
    <glyph glyph-name="e.sups" 
d="M472 488h-279v-3q0 -69 33.5 -108.5t91.5 -39.5q47 1 75 25.5t39 62.5l38 -13q-15 -51 -54.5 -81t-96.5 -30q-84 0 -128 51.5t-44 144.5q0 85 45 136t121 51q82 0 120.5 -50t38.5 -132v-14zM426 517q0 59 -27 97t-86 38q-56 0 -88 -39.5t-33 -95.5h234z" />
    <glyph glyph-name="f.sups" 
d="M319 641v-331h-45v331h-121v34h121v49q0 117 135 117q37 0 58 -4v-36q-21 3 -54 3q-50 0 -72 -19t-22 -64v-46h148v-34h-148z" />
    <glyph glyph-name="g.sups" 
d="M455 343q30 -25 30 -69q0 -56 -47 -85.5t-132 -29.5q-82 0 -127 26.5t-45 73.5q0 29 18.5 49.5t53.5 28.5q-25 7 -39 24t-14 40t14.5 40.5t40.5 26.5q-47 34 -47 94q0 55 39.5 88.5t100.5 33.5q42 0 76 -17q10 28 34 43.5t58 15.5q5 0 11 -2v-35q-10 2 -16 2
q-24 0 -41.5 -9.5t-25.5 -26.5q21 -16 33 -39.5t12 -52.5q0 -55 -40 -88t-102 -33q-43 0 -74 15q-15 -6 -24.5 -18t-9.5 -26q0 -20 17 -32.5t47 -12.5h111q58 0 88 -25zM231.5 628.5q-26.5 -25.5 -26.5 -66.5t26.5 -65.5t68.5 -24.5q43 0 70.5 25t27.5 65q0 41 -27 66.5
t-70 25.5t-69.5 -25.5zM441 268q0 62 -82 62l-111 1q-12 0 -18 1q-26 -8 -40 -24.5t-14 -40.5q0 -37 34.5 -57t99.5 -20q131 0 131 78z" />
    <glyph glyph-name="h.sups" 
d="M249 659.5q34 24.5 82 24.5q58 0 93 -32q40 -35 40 -120v-222h-45v220q0 66 -28 91t-75 25q-54 0 -84.5 -41t-30.5 -97v-198h-45v529h45v-250q14 46 48 70.5z" />
    <glyph glyph-name="i.sups" 
d="M334 742h-63v96h63v-96zM156 345h128v295h-119v35h163v-330h135v-35h-307v35z" />
    <glyph glyph-name="j.sups" 
d="M423 742h-62v96h62v-96zM279 201q93 0 93 91v348h-145v35h190v-388q0 -58 -33.5 -90.5t-95.5 -32.5q-54 0 -91 14v36q52 -13 82 -13z" />
    <glyph glyph-name="k.sups" 
d="M417 310l-132 203l-90 -86v-117h-44v529h44v-366l209 202h55l-141 -137l151 -228h-52z" />
    <glyph glyph-name="l.sups" 
d="M156 345h125v459h-117v35h163v-494h136v-35h-307v35z" />
    <glyph glyph-name="m.sups" 
d="M190 664q23 20 53 20q33 0 53.5 -19.5t25.5 -52.5q11 34 35 53t57 19q40 0 63.5 -29.5t23.5 -90.5v-254h-41v249q0 90 -59 90q-35 0 -53.5 -27t-18.5 -61v-251h-39v246q0 93 -59 93q-37 0 -54.5 -36t-17.5 -79v-224h-41v365h39v-74q10 43 33 63z" />
    <glyph glyph-name="n.sups" 
d="M249 659q34 25 84 25q57 0 91 -31q40 -38 40 -121v-222h-45v220q0 65 -27.5 90.5t-72.5 25.5q-56 0 -87 -41t-31 -97v-198h-45v365h43v-87q16 46 50 71z" />
    <glyph glyph-name="o.sups" 
d="M185.5 353q-47.5 52 -47.5 140t47.5 139.5t124.5 51.5t124.5 -51.5t47.5 -139.5q0 -89 -47 -140.5t-125 -51.5q-77 0 -124.5 52zM401 378.5q34 41.5 34 114.5q0 72 -34 113.5t-91 41.5q-58 0 -92 -41.5t-34 -113.5q0 -73 34 -114.5t92 -41.5q57 0 91 41.5z" />
    <glyph glyph-name="p.sups" 
d="M238.5 657q36.5 27 81.5 27q73 0 114 -53t41 -138q0 -87 -42 -139.5t-116 -52.5q-44 0 -79.5 24.5t-47.5 64.5v-222h-45v507h43v-87q14 42 50.5 69zM220.5 378.5q32.5 -42.5 87.5 -42.5q56 0 88 42.5t32 114.5t-30.5 114t-87.5 42q-55 0 -88.5 -44t-33.5 -106v-13
q0 -65 32.5 -107.5z" />
    <glyph glyph-name="q.sups" 
d="M475 168h-45v227q-13 -43 -49.5 -68.5t-82.5 -25.5q-72 0 -113 52.5t-41 139.5q0 85 42.5 138t115.5 53q46 0 81 -24t47 -65l6 80h39v-507zM398 607q-33 42 -87 42q-57 0 -88 -42.5t-31 -113.5q0 -72 30.5 -114.5t85.5 -42.5q56 0 89.5 42t33.5 105v18q0 64 -33 106z" />
    <glyph glyph-name="r.sups" 
d="M286 648q49 34 103 34q38 0 60 -10v-39q-28 10 -63 10q-46 0 -85 -24.5t-62 -69.5t-23 -103v-136h-45v365h44v-132q22 71 71 105z" />
    <glyph glyph-name="s.sups" 
d="M213 330.5q-41 29.5 -52 86.5l36 14q8 -48 40 -72t84 -24q46 0 70.5 18.5t24.5 52.5q0 31 -18.5 47t-60.5 22l-57 9q-104 15 -104 98q0 48 36.5 75t100.5 27q60 0 97.5 -26.5t45.5 -79.5l-34 -15q-16 88 -111 88q-44 0 -68.5 -18t-24.5 -49q0 -28 18 -43t57 -22l62 -9
q53 -8 78 -32.5t25 -67.5q0 -52 -37 -80.5t-102 -28.5t-106 29.5z" />
    <glyph glyph-name="t.sups" 
d="M268 675v97l43 18v-115h150v-33h-150v-219q0 -41 25 -61t67 -20q31 0 58 4v-35q-33 -7 -67 -7q-58 0 -92 29.5t-34 83.5v225h-110v33h110z" />
    <glyph glyph-name="u.sups" 
d="M370 326q-35 -25 -82 -25q-59 0 -92 32q-39 36 -39 114v228h46v-225q0 -113 99 -113q36 0 62.5 19.5t39.5 50t13 62.5v206h45v-365h-44v79q-13 -38 -48 -63z" />
    <glyph glyph-name="v.sups" 
d="M177 675l114 -275q7 -16 19 -49h2l19 49l114 275h46l-154 -365h-52l-157 365h49z" />
    <glyph glyph-name="w.sups" 
d="M203 402l8 -48h3q7 38 10 49l66 272h40l66 -272q5 -21 9 -49h3l9 48l59 273h43l-86 -365h-47l-67 274q-2 10 -8 44h-2q-2 -6 -3 -12t-2 -11q-1 -7 -2 -12t-2 -9l-67 -274h-46l-86 365h42z" />
    <glyph glyph-name="x.sups" 
d="M189 310h-49l143 192l-134 173h52l110 -146l108 146h50l-132 -175l143 -190h-52l-119 161z" />
    <glyph glyph-name="y.sups" 
d="M432 675h46l-146 -387q-26 -67 -59 -96t-85 -29q-20 0 -34 5v36q14 -5 33 -5q37 0 59.5 22t37.5 64l9 24l-151 366h50l124 -322z" />
    <glyph glyph-name="z.sups" 
d="M394 640h-221v35h274v-30l-230 -300h239v-35h-293v31z" />
    <glyph glyph-name="uni24FF" unicode="&#x24ff;" 
d="M162.5 20.5q-64.5 37.5 -100 108t-35.5 165.5v122q0 95 35.5 165.5t100 108t147.5 37.5t147 -37.5t99.5 -108t35.5 -165.5v-122q0 -95 -35.5 -165.5t-99.5 -108t-147 -37.5t-147.5 37.5zM361 189q20 15 31 55t11 112t-11 111.5t-31 54.5t-51 15t-51 -15t-31 -54.5
t-11 -111.5t11 -112t31 -55t51 -15t51 15zM281 215q-11 11 -17.5 44t-6.5 97q0 63 6.5 96t17.5 44t29 11t29 -11t17.5 -44t6.5 -96q0 -64 -6.5 -97t-17.5 -44t-29 -11t-29 11z" />
    <glyph glyph-name="uni2776" unicode="&#x2776;" 
d="M162.5 20.5q-64.5 37.5 -100 108t-35.5 165.5v122q0 95 35.5 165.5t100 108t147.5 37.5t147 -37.5t99.5 -108t35.5 -165.5v-122q0 -95 -35.5 -165.5t-99.5 -108t-147 -37.5t-147.5 37.5zM405 217h-74v312h-32q-7 -24 -24 -37.5t-41 -13.5h-5v-37h7q17 0 33 7.5t23 19.5
v-251h-77v-35h190v35z" />
    <glyph glyph-name="uni2777" unicode="&#x2777;" 
d="M162.5 20.5q-64.5 37.5 -100 108t-35.5 165.5v122q0 95 35.5 165.5t100 108t147.5 37.5t147 -37.5t99.5 -108t35.5 -165.5v-122q0 -95 -35.5 -165.5t-99.5 -108t-147 -37.5t-147.5 37.5zM401 207h-139q51 60 77.5 96.5t42 72t15.5 72.5q0 83 -86 83q-43 0 -66 -22
t-23 -61q0 -18 1 -27l40 -3q-1 10 -1 31q0 25 12.5 38.5t35.5 13.5q46 0 46 -52t-32 -104.5t-106 -139.5v-28h183v30z" />
    <glyph glyph-name="uni2778" unicode="&#x2778;" 
d="M162.5 20.5q-64.5 37.5 -100 108t-35.5 165.5v122q0 95 35.5 165.5t100 108t147.5 37.5t147 -37.5t99.5 -108t35.5 -165.5v-122q0 -95 -35.5 -165.5t-99.5 -108t-147 -37.5t-147.5 37.5zM399 278q0 40 -14 60t-42 25q52 13 52 85q0 47 -21.5 67.5t-63.5 20.5
q-43 0 -65.5 -23.5t-22.5 -80.5l40 -5q0 45 12 62.5t36 17.5q22 0 33.5 -13.5t11.5 -45.5q0 -39 -13 -55.5t-38 -16.5h-15v-29h16q26 0 39.5 -15.5t13.5 -53.5q0 -41 -12.5 -57.5t-36.5 -16.5t-36 18t-12 64l-40 -3q0 -60 21.5 -84.5t66.5 -24.5q90 0 90 104z" />
    <glyph glyph-name="uni2779" unicode="&#x2779;" 
d="M162.5 20.5q-64.5 37.5 -100 108t-35.5 165.5v122q0 95 35.5 165.5t100 108t147.5 37.5t147 -37.5t99.5 -108t35.5 -165.5v-122q0 -95 -35.5 -165.5t-99.5 -108t-147 -37.5t-147.5 37.5zM362 182v83h42v30h-42v234h-47l-115 -236v-28h124v-83h38zM324 488v-193h-92z" />
    <glyph glyph-name="uni277A" unicode="&#x277a;" 
d="M162.5 20.5q-64.5 37.5 -100 108t-35.5 165.5v122q0 95 35.5 165.5t100 108t147.5 37.5t147 -37.5t99.5 -108t35.5 -165.5v-122q0 -95 -35.5 -165.5t-99.5 -108t-147 -37.5t-147.5 37.5zM374.5 207.5q21.5 29.5 21.5 95.5q0 60 -19 87t-57 27q-47 0 -63 -36l6 120h121v31
h-153l-10 -191l37 -3q2 23 15 36.5t35 13.5q25 0 36.5 -19.5t11.5 -65.5q0 -53 -11.5 -74.5t-38.5 -21.5q-24 0 -36.5 17.5t-12.5 59.5l-39 -4q0 -54 22.5 -78t65.5 -24q47 0 68.5 29.5z" />
    <glyph glyph-name="uni277B" unicode="&#x277b;" 
d="M162.5 20.5q-64.5 37.5 -100 108t-35.5 165.5v122q0 95 35.5 165.5t100 108t147.5 37.5t147 -37.5t99.5 -108t35.5 -165.5v-122q0 -95 -35.5 -165.5t-99.5 -108t-147 -37.5t-147.5 37.5zM378 203.5q22 29.5 22 93.5q0 63 -19 90t-58 27q-22 0 -38.5 -9t-24.5 -26
q1 53 7 81t16.5 38t27.5 10q23 0 34.5 -15.5t11.5 -50.5l39 4q0 48 -21 69t-64 21q-32 0 -51.5 -15.5t-29.5 -56t-10 -114.5q0 -70 9 -108t28.5 -53t52.5 -15q46 0 68 29.5zM282 213.5q-11 10.5 -17 40.5t-6 86q14 44 53 44q25 0 36.5 -20t11.5 -67q0 -50 -12.5 -72
t-37.5 -22q-17 0 -28 10.5z" />
    <glyph glyph-name="uni277C" unicode="&#x277c;" 
d="M162.5 20.5q-64.5 37.5 -100 108t-35.5 165.5v122q0 95 35.5 165.5t100 108t147.5 37.5t147 -37.5t99.5 -108t35.5 -165.5v-122q0 -95 -35.5 -165.5t-99.5 -108t-147 -37.5t-147.5 37.5zM332.5 357.5q18.5 74.5 65.5 144.5v27h-177v-32h139q-48 -73 -67.5 -148
t-19.5 -167h41q0 101 18.5 175.5z" />
    <glyph glyph-name="uni277D" unicode="&#x277d;" 
d="M162.5 20.5q-64.5 37.5 -100 108t-35.5 165.5v122q0 95 35.5 165.5t100 108t147.5 37.5t147 -37.5t99.5 -108t35.5 -165.5v-122q0 -95 -35.5 -165.5t-99.5 -108t-147 -37.5t-147.5 37.5zM400 273q0 44 -13.5 64t-41.5 30q25 10 37 28.5t12 55.5q0 85 -85 85
q-40 0 -62.5 -20.5t-22.5 -64.5q0 -41 12.5 -60.5t37.5 -29.5q-27 -9 -41 -29t-14 -59q0 -51 23.5 -74.5t67.5 -23.5q90 0 90 98zM273 400.5q-10 13.5 -10 50.5q0 32 12 45.5t34 13.5t34 -13.5t12 -45.5q0 -36 -9.5 -51.5t-31.5 -22.5l-8 3q-23 7 -33 20.5zM272 218.5
q-13 15.5 -13 54.5q0 37 11 54t34 24l10 -4q24 -8 34.5 -21.5t10.5 -52.5t-12.5 -54.5t-36.5 -15.5q-25 0 -38 15.5z" />
    <glyph glyph-name="uni277E" unicode="&#x277e;" 
d="M162.5 20.5q-64.5 37.5 -100 108t-35.5 165.5v122q0 95 35.5 165.5t100 108t147.5 37.5t147 -37.5t99.5 -108t35.5 -165.5v-122q0 -95 -35.5 -165.5t-99.5 -108t-147 -37.5t-147.5 37.5zM361 189q19 15 28.5 54.5t9.5 112.5q0 72 -9 111t-28.5 54t-52.5 15
q-45 0 -67 -27.5t-22 -88.5q0 -59 19 -85t59 -26q20 0 36 8t25 22q0 -57 -5.5 -86.5t-15.5 -40t-27 -10.5q-24 0 -36 16.5t-12 54.5l-39 -5q1 -49 22.5 -71.5t63.5 -22.5q32 0 51 15zM272 357q-12 19 -12 63q0 49 11.5 68.5t37.5 19.5q17 0 27.5 -10t16 -38.5t6.5 -82.5
q-12 -39 -50 -39q-25 0 -37 19z" />
    <glyph glyph-name="zero.case" 
d="M552 355q0 -370 -242 -370t-242 370q0 372 242 372t242 -372zM169 604q-49 -77 -49 -249q0 -117 25 -194l313 431q-47 89 -148 89q-92 0 -141 -77zM451 107.5q49 76.5 49 247.5q0 117 -24 195l-313 -431q47 -88 147 -88q92 0 141 76.5z" />
    <glyph glyph-name="one.case" 
d="M533 47v-47h-430v47h196v572q-18 -27 -72.5 -49.5t-91.5 -22.5h-27v47h19q33 0 72.5 16.5t69.5 43t38 56.5h42v-663h184z" />
    <glyph glyph-name="two.case" 
d="M239.5 188.5q64.5 60.5 111.5 114.5q59 66 82.5 114.5t23.5 110.5q0 68 -38.5 111.5t-116.5 43.5q-64 0 -111.5 -39.5t-48.5 -121.5q0 -24 6 -56l-51 3q-7 27 -7 54q0 65 29 111t77.5 69.5t105.5 23.5q98 0 152.5 -53.5t54.5 -142.5q0 -68 -25 -122t-95 -134
q-60 -73 -238 -228h379v-47h-449v45z" />
    <glyph glyph-name="three.case" 
d="M378 406.5q34 14.5 56.5 46.5t22.5 81q0 71 -42.5 109.5t-112.5 38.5q-76 0 -118.5 -51t-42.5 -137l-49 9q0 101 56.5 162.5t157.5 61.5q90 0 146.5 -50.5t56.5 -142.5q0 -60 -36.5 -103.5t-91.5 -54.5q69 -8 110.5 -56.5t41.5 -121.5q0 -66 -29 -114t-81 -73.5
t-118 -25.5t-116 28t-77.5 77.5t-29.5 111.5l51 5q2 -78 48.5 -127.5t123.5 -49.5q78 0 127 41.5t49 125.5q0 57 -37 103.5t-127 46.5h-53v45h45q35 0 69 14.5z" />
    <glyph glyph-name="four.case" 
d="M444 194v-194h-50v194h-340v38l336 478h54v-474h125v-42h-125zM363 596q-10 -14 -21 -32l-183 -256l-17 -25q-27 -40 -33 -47h285v408q-14 -23 -31 -48z" />
    <glyph glyph-name="five.case" 
d="M174 664l-31 -311q25 60 72.5 90.5t111.5 30.5t111.5 -29.5t73 -83.5t25.5 -125q0 -73 -27.5 -130t-78.5 -89t-120 -32q-88 0 -149.5 47.5t-74.5 131.5l53 5q12 -63 58 -101t114 -38q78 0 125.5 54.5t47.5 151.5q0 83 -41.5 138t-124.5 55q-74 0 -116.5 -42.5
t-54.5 -98.5l-53 6l38 416h373v-46h-332z" />
    <glyph glyph-name="six.case" 
d="M445 444q50 -30 77 -85t27 -127t-28.5 -128.5t-80 -87.5t-117.5 -31q-123 0 -185.5 91.5t-62.5 270.5q0 182 65.5 281t184.5 99q87 0 141 -47t70 -137l-53 -9q-27 149 -159 149q-97 0 -148.5 -88t-49.5 -251v-22q20 71 74.5 111.5t129.5 40.5q65 0 115 -30zM449 84.5
q47 55.5 47 147.5q0 91 -47 144.5t-127 53.5q-75 0 -125.5 -50.5t-64.5 -137.5q14 -102 64 -157.5t128 -55.5t125 55.5z" />
    <glyph glyph-name="seven.case" 
d="M530 710v-44q-110 -121 -176.5 -294t-69.5 -372h-57q4 182 70.5 358t177.5 305h-385v47h440z" />
    <glyph glyph-name="eight.case" 
d="M507 305q41 -49 41 -129q0 -89 -63.5 -140t-172.5 -51q-113 0 -176.5 50.5t-63.5 140.5q0 76 42.5 126.5t123.5 71.5q-76 25 -110 68t-34 112q0 51 27 90.5t75.5 61t112.5 21.5q98 0 156.5 -46.5t58.5 -125.5q0 -137 -149 -174q91 -27 132 -76zM178.5 460.5
q32.5 -35.5 105.5 -54.5l37 -10q58 18 90.5 38t46.5 48t14 70q0 62 -44 98t-120 36q-74 0 -118 -36t-44 -96q0 -58 32.5 -93.5zM448 66.5q48 38.5 48 109.5q0 66 -35.5 106t-113.5 61l-55 16q-86 -25 -127 -68t-41 -109q0 -72 50 -113t138 -41t136 38.5z" />
    <glyph glyph-name="nine.case" 
d="M553 367q0 -176 -60 -279.5t-188 -103.5q-90 0 -145 49.5t-69 142.5l53 10q10 -73 49.5 -115.5t112.5 -42.5q195 0 195 338v29v13q-22 -69 -76 -104t-125 -35q-64 0 -114 27.5t-78.5 79.5t-28.5 123q0 64 27.5 116t78.5 82t120 30q248 0 248 -360zM430 360.5
q53 47.5 65 125.5q-29 197 -191 197q-79 0 -126 -51t-47 -132q0 -86 48 -136.5t126 -50.5q72 0 125 47.5z" />
    <glyph glyph-name="uni24EA" unicode="&#x24ea;" 
d="M162.5 20.5q-64.5 37.5 -100 108t-35.5 165.5v122q0 95 35.5 165.5t100 108t147.5 37.5t147 -37.5t99.5 -108t35.5 -165.5v-122q0 -95 -35.5 -165.5t-99.5 -108t-147 -37.5t-147.5 37.5zM438.5 48.5q55.5 33.5 86.5 96.5t31 149v122q0 86 -31 149t-86.5 96.5t-128.5 33.5
t-128.5 -33.5t-86.5 -96.5t-31 -149v-122q0 -86 31 -149t86.5 -96.5t128.5 -33.5t128.5 33.5zM259 189q-20 15 -31 55t-11 112t11 111.5t31 54.5t51 15t51 -15t31 -54.5t11 -111.5t-11 -112t-31 -55t-51 -15t-51 15zM339 215q11 11 17.5 44t6.5 97q0 63 -6.5 96t-17.5 44
t-29 11t-29 -11t-17.5 -44t-6.5 -96q0 -64 6.5 -97t17.5 -44t29 -11t29 11z" />
    <glyph glyph-name="uni2460" unicode="&#x2460;" 
d="M162.5 20.5q-64.5 37.5 -100 108t-35.5 165.5v122q0 95 35.5 165.5t100 108t147.5 37.5t147 -37.5t99.5 -108t35.5 -165.5v-122q0 -95 -35.5 -165.5t-99.5 -108t-147 -37.5t-147.5 37.5zM438.5 48.5q55.5 33.5 86.5 96.5t31 149v122q0 86 -31 149t-86.5 96.5t-128.5 33.5
t-128.5 -33.5t-86.5 -96.5t-31 -149v-122q0 -86 31 -149t86.5 -96.5t128.5 -33.5t128.5 33.5zM405 217h-74v312h-32q-7 -24 -24 -37.5t-41 -13.5h-5v-37h7q17 0 33 7.5t23 19.5v-251h-77v-35h190v35z" />
    <glyph glyph-name="uni2461" unicode="&#x2461;" 
d="M162.5 20.5q-64.5 37.5 -100 108t-35.5 165.5v122q0 95 35.5 165.5t100 108t147.5 37.5t147 -37.5t99.5 -108t35.5 -165.5v-122q0 -95 -35.5 -165.5t-99.5 -108t-147 -37.5t-147.5 37.5zM438.5 48.5q55.5 33.5 86.5 96.5t31 149v122q0 86 -31 149t-86.5 96.5t-128.5 33.5
t-128.5 -33.5t-86.5 -96.5t-31 -149v-122q0 -86 31 -149t86.5 -96.5t128.5 -33.5t128.5 33.5zM324 344.5q32 52.5 32 104.5t-46 52q-23 0 -35.5 -13.5t-12.5 -38.5q0 -21 1 -31l-40 3q-1 9 -1 27q0 39 23 61t66 22q86 0 86 -83q0 -37 -15.5 -72.5t-42 -72t-77.5 -96.5h139
v-30h-183v28q74 87 106 139.5z" />
    <glyph glyph-name="uni2462" unicode="&#x2462;" 
d="M162.5 20.5q-64.5 37.5 -100 108t-35.5 165.5v122q0 95 35.5 165.5t100 108t147.5 37.5t147 -37.5t99.5 -108t35.5 -165.5v-122q0 -95 -35.5 -165.5t-99.5 -108t-147 -37.5t-147.5 37.5zM438.5 48.5q55.5 33.5 86.5 96.5t31 149v122q0 86 -31 149t-86.5 96.5t-128.5 33.5
t-128.5 -33.5t-86.5 -96.5t-31 -149v-122q0 -86 31 -149t86.5 -96.5t128.5 -33.5t128.5 33.5zM242.5 198.5q-21.5 24.5 -21.5 84.5l40 3q0 -46 12 -64t36 -18t36.5 16.5t12.5 57.5q0 38 -13.5 53.5t-39.5 15.5h-16v29h15q25 0 38 16.5t13 55.5q0 32 -11.5 45.5t-33.5 13.5
q-24 0 -36 -17.5t-12 -62.5l-40 5q0 57 22.5 80.5t65.5 23.5q42 0 63.5 -20.5t21.5 -67.5q0 -72 -52 -85q28 -5 42 -25t14 -60q0 -104 -90 -104q-45 0 -66.5 24.5z" />
    <glyph glyph-name="uni2463" unicode="&#x2463;" 
d="M162.5 20.5q-64.5 37.5 -100 108t-35.5 165.5v122q0 95 35.5 165.5t100 108t147.5 37.5t147 -37.5t99.5 -108t35.5 -165.5v-122q0 -95 -35.5 -165.5t-99.5 -108t-147 -37.5t-147.5 37.5zM438.5 48.5q55.5 33.5 86.5 96.5t31 149v122q0 86 -31 149t-86.5 96.5t-128.5 33.5
t-128.5 -33.5t-86.5 -96.5t-31 -149v-122q0 -86 31 -149t86.5 -96.5t128.5 -33.5t128.5 33.5zM362 265v-83h-38v83h-124v28l115 236h47v-234h42v-30h-42zM232 295h92v193z" />
    <glyph glyph-name="uni2464" unicode="&#x2464;" 
d="M162.5 20.5q-64.5 37.5 -100 108t-35.5 165.5v122q0 95 35.5 165.5t100 108t147.5 37.5t147 -37.5t99.5 -108t35.5 -165.5v-122q0 -95 -35.5 -165.5t-99.5 -108t-147 -37.5t-147.5 37.5zM438.5 48.5q55.5 33.5 86.5 96.5t31 149v122q0 86 -31 149t-86.5 96.5t-128.5 33.5
t-128.5 -33.5t-86.5 -96.5t-31 -149v-122q0 -86 31 -149t86.5 -96.5t128.5 -33.5t128.5 33.5zM240.5 202q-22.5 24 -22.5 78l39 4q0 -42 12.5 -59.5t36.5 -17.5q27 0 38.5 21.5t11.5 74.5q0 46 -11.5 65.5t-36.5 19.5q-22 0 -35 -13.5t-15 -36.5l-37 3l10 191h153v-31h-121
l-6 -120q16 36 63 36q38 0 57 -27t19 -87q0 -66 -21.5 -95.5t-68.5 -29.5q-43 0 -65.5 24z" />
    <glyph glyph-name="uni2465" unicode="&#x2465;" 
d="M457 689.5q64 -37.5 99.5 -108t35.5 -165.5v-122q0 -95 -35.5 -165.5t-99.5 -108t-147 -37.5t-147.5 37.5t-100 108t-35.5 165.5v122q0 95 35.5 165.5t100 108t147.5 37.5t147 -37.5zM556 416q0 86 -31 149t-86.5 96.5t-128.5 33.5t-128.5 -33.5t-86.5 -96.5t-31 -149
v-122q0 -86 31 -149t86.5 -96.5t128.5 -33.5t128.5 33.5t86.5 96.5t31 149v122zM381 387q19 -27 19 -90q0 -64 -22 -93.5t-68 -29.5q-33 0 -52.5 15t-28.5 53t-9 108q0 74 10 114.5t29.5 56t51.5 15.5q43 0 64 -21t21 -69l-39 -4q0 35 -11.5 50.5t-34.5 15.5
q-17 0 -27.5 -10t-17 -37.5t-7.5 -80.5q9 16 25.5 25t38.5 9q39 0 58 -27zM347.5 225q12.5 22 12.5 72q0 47 -11.5 67t-36.5 20q-41 0 -53 -44q0 -56 6 -86t17 -40.5t28 -10.5q25 0 37.5 22z" />
    <glyph glyph-name="uni2466" unicode="&#x2466;" 
d="M162.5 20.5q-64.5 37.5 -100 108t-35.5 165.5v122q0 95 35.5 165.5t100 108t147.5 37.5t147 -37.5t99.5 -108t35.5 -165.5v-122q0 -95 -35.5 -165.5t-99.5 -108t-147 -37.5t-147.5 37.5zM438.5 48.5q55.5 33.5 86.5 96.5t31 149v122q0 86 -31 149t-86.5 96.5t-128.5 33.5
t-128.5 -33.5t-86.5 -96.5t-31 -149v-122q0 -86 31 -149t86.5 -96.5t128.5 -33.5t128.5 33.5zM398 529v-27q-47 -70 -65.5 -141.5t-18.5 -157.5v-21h-41v10q0 85 20 159t67 146h-139v32h177z" />
    <glyph glyph-name="uni2467" unicode="&#x2467;" 
d="M457 689.5q64 -37.5 99.5 -108t35.5 -165.5v-122q0 -95 -35.5 -165.5t-99.5 -108t-147 -37.5t-147.5 37.5t-100 108t-35.5 165.5v122q0 95 35.5 165.5t100 108t147.5 37.5t147 -37.5zM556 416q0 86 -31 149t-86.5 96.5t-128.5 33.5t-128.5 -33.5t-86.5 -96.5t-31 -149
v-122q0 -86 31 -149t86.5 -96.5t128.5 -33.5t128.5 33.5t86.5 96.5t31 149v122zM386.5 336.5q13.5 -20.5 13.5 -63.5q0 -98 -90 -98q-44 0 -67.5 23.5t-23.5 74.5q0 38 13.5 58.5t40.5 29.5q-24 10 -36.5 30t-12.5 60q0 44 22.5 64.5t62.5 20.5q85 0 85 -85q0 -37 -12 -56
t-37 -28q28 -10 41.5 -30.5zM275 496.5q-12 -13.5 -12 -45.5q0 -37 10 -50.5t33 -20.5l10 -3q20 6 29.5 22t9.5 52q0 32 -12 45.5t-34 13.5t-34 -13.5zM346.5 218.5q12.5 15.5 12.5 54.5t-10.5 52.5t-34.5 21.5l-11 4q-23 -7 -33.5 -24t-10.5 -54q0 -39 13 -54.5t38 -15.5
q24 0 36.5 15.5z" />
    <glyph glyph-name="uni2468" unicode="&#x2468;" 
d="M457 689.5q64 -37.5 99.5 -108t35.5 -165.5v-122q0 -95 -35.5 -165.5t-99.5 -108t-147 -37.5t-147.5 37.5t-100 108t-35.5 165.5v122q0 95 35.5 165.5t100 108t147.5 37.5t147 -37.5zM556 416q0 86 -31 149t-86.5 96.5t-128.5 33.5t-128.5 -33.5t-86.5 -96.5t-31 -149
v-122q0 -86 31 -149t86.5 -96.5t128.5 -33.5t128.5 33.5t86.5 96.5t31 149v122zM361.5 521q19.5 -15 28.5 -54t9 -111q0 -73 -9.5 -112.5t-28.5 -54.5t-51 -15q-42 0 -63.5 22.5t-22.5 71.5l39 5q0 -38 12 -54.5t36 -16.5q17 0 27 10.5t15.5 40t5.5 86.5q-9 -14 -25 -22
t-36 -8q-40 0 -59 26t-19 85q0 61 22 88.5t67 27.5q33 0 52.5 -15zM359 376q-1 55 -6.5 83.5t-16 38.5t-27.5 10q-26 0 -37.5 -19.5t-11.5 -68.5q0 -44 12 -63t37 -19q36 0 50 38z" />
    <glyph glyph-name="zero.osf" 
d="M446 514.5q57 -35.5 87 -100t30 -148.5q0 -83 -30 -146.5t-87 -99t-136 -35.5t-136 35.5t-87 99.5t-30 148t30 147.5t87 99t136 35.5t136 -35.5zM161.5 440q-53.5 -65 -53.5 -172q0 -93 40 -155l301 337q-53 55 -139 55q-95 0 -148.5 -65zM458.5 93.5
q53.5 64.5 53.5 171.5q0 92 -39 154l-301 -336q52 -54 138 -54q95 0 148.5 64.5z" />
    <glyph glyph-name="one.osf" 
d="M546 45v-45h-430v45h196v400q-17 -28 -63.5 -49t-83.5 -21h-32v47h24q32 0 67.5 15.5t62 42t34.5 55.5h41v-490h184z" />
    <glyph glyph-name="two.osf" 
d="M320 187q69 50 99.5 93.5t30.5 97.5q0 58 -37.5 93t-100.5 35q-71 0 -112.5 -41.5t-41.5 -113.5q0 -18 2 -24l-53 5q-1 7 -1 19q0 91 56 145t149 54q88 0 139.5 -46t51.5 -123q0 -50 -22 -92.5t-71 -85.5q-71 -64 -239 -158h365v-45h-453v35q137 78 238 152z" />
    <glyph glyph-name="three.osf" 
d="M146 -110q-62 55 -65 148l52 6q3 -77 50.5 -121t128.5 -44q79 0 126 43.5t47 113.5q0 69 -45 110t-123 41h-54v44h46q69 0 110.5 38t41.5 98q0 64 -40.5 101.5t-110.5 37.5q-79 0 -124 -47.5t-45 -130.5l-50 8q0 98 60.5 156t161.5 58q93 0 146.5 -49.5t53.5 -133.5
q0 -57 -36.5 -99.5t-92.5 -52.5q70 -8 111.5 -56t41.5 -122q0 -58 -28 -104t-79.5 -72t-119.5 -26q-102 0 -164 55z" />
    <glyph glyph-name="four.osf" 
d="M399 44h-345v38l339 453h56v-449h125v-42h-125v-194h-50v194zM399 348q0 86 1 131h-2q-50 -75 -85 -120l-122 -167l-33 -41q-26 -36 -51 -65h292v262z" />
    <glyph glyph-name="five.osf" 
d="M159 -116q-59 49 -72 134l53 6q11 -66 55 -105t112 -39q81 0 127.5 53.5t46.5 145.5q0 84 -42.5 139t-118.5 55q-67 1 -113 -38.5t-59 -96.5l-51 6l39 391h378v-46h-337l-30 -282q27 55 73.5 82.5t107.5 27.5q96 0 151 -64t55 -171q0 -71 -27.5 -127t-79 -88t-121.5 -32
q-88 0 -147 49z" />
    <glyph glyph-name="six.osf" 
d="M435.5 434.5q47.5 -29.5 74 -84t26.5 -126.5q0 -68 -26.5 -122.5t-75.5 -85.5t-115 -31q-117 0 -180.5 86.5t-63.5 265.5q0 175 62.5 274t182.5 99q85 0 137 -45t67 -132l-52 -9q-26 142 -153 142q-96 0 -145.5 -88.5t-47.5 -243.5v-20q20 72 74.5 111t124.5 39
q63 0 110.5 -29.5zM439.5 83q44.5 54 44.5 141q0 90 -45.5 143t-121.5 53q-72 0 -121.5 -48.5t-63.5 -136.5q14 -95 61.5 -150.5t126.5 -55.5q75 0 119.5 54z" />
    <glyph glyph-name="seven.osf" 
d="M290 189.5q63 160.5 182 297.5h-382v48h440v-43q-120 -131 -183 -293t-63 -337v-12h-57v8q0 171 63 331.5z" />
    <glyph glyph-name="eight.osf" 
d="M496.5 301.5q41.5 -44.5 41.5 -125.5q0 -89 -60.5 -140t-165.5 -51q-108 0 -169 50.5t-61 140.5q0 73 40.5 121t117.5 68q-68 23 -102 63t-34 109q0 78 56.5 125.5t148.5 47.5q94 0 149.5 -46.5t55.5 -125.5q0 -66 -35 -107.5t-107 -59.5q83 -25 124.5 -69.5zM188 447.5
q32 -32.5 96 -51.5l37 -10q80 25 110.5 57.5t30.5 91.5q0 62 -41.5 98t-112.5 36q-69 0 -110.5 -36t-41.5 -96q0 -57 32 -89.5zM440.5 67q45.5 39 45.5 110q0 66 -35 101.5t-104 55.5l-55 16q-81 -24 -119.5 -64.5t-38.5 -102.5q0 -72 47 -113.5t131 -41.5q83 0 128.5 39z
" />
    <glyph glyph-name="nine.osf" 
d="M540 197q0 -165 -59 -263.5t-180 -98.5q-89 0 -142 46.5t-68 134.5l52 10q26 -147 159 -147q94 0 140 85.5t46 231.5v29v16q-22 -70 -74.5 -105.5t-120.5 -35.5q-62 0 -111 27t-76.5 78t-27.5 120q0 63 26.5 114.5t76 81t116.5 29.5q243 0 243 -353zM417 190
q51 46 64 124q-13 87 -58 139.5t-127 52.5q-75 0 -120 -50.5t-45 -129.5q0 -84 46 -133t121 -49q68 0 119 46z" />
    <glyph glyph-name="zero.subs" 
d="M448 311q47 -67 47 -198q0 -136 -45 -200t-140 -64q-92 0 -139 67.5t-47 197.5q0 264 186 264q91 0 138 -67zM206 284.5q-34 -55.5 -34 -170.5q0 -86 19 -137l227 298q-33 65 -108 65q-70 0 -104 -55.5zM414 -59q33 54 33 172q0 80 -17 134l-228 -297q35 -63 108 -63
q71 0 104 54z" />
    <glyph glyph-name="one.subs" 
d="M477 -102v-38h-334v38h148v400q-14 -19 -55 -35.5t-70 -16.5h-18v41h13q39 0 83 24t54 56h39v-469h140z" />
    <glyph glyph-name="two.subs" 
d="M346 82q40 42 56.5 76t16.5 72q0 52 -30 81t-84 29t-85 -29t-31 -81q0 -20 5 -40l-47 4q-5 25 -5 38q0 67 44.5 106.5t118.5 39.5q76 0 118.5 -38t42.5 -107q0 -43 -18.5 -81.5t-62.5 -85.5q-30 -32 -84 -79.5t-104 -86.5h286v-40h-347v38q144 113 210 184z" />
    <glyph glyph-name="three.subs" 
d="M385.5 165.5q32.5 25.5 32.5 72.5q0 50 -30 76.5t-80 26.5q-57 0 -88 -35t-30 -93l-46 5q-1 73 43 116.5t123 43.5q70 0 112.5 -35.5t42.5 -100.5q0 -45 -27 -76.5t-72 -38.5q52 -5 84 -39.5t32 -88.5q0 -69 -46.5 -109.5t-125.5 -40.5q-78 0 -124.5 43t-48.5 114l48 4
q1 -54 34.5 -88.5t90.5 -34.5t90.5 28.5t33.5 84.5q0 44 -28 74.5t-91 30.5h-41v35h35q44 0 76.5 25.5z" />
    <glyph glyph-name="four.subs" 
d="M415 -4v-136h-44v136h-259v33l253 338h50v-335h93v-36h-93zM336 267l-147 -192q-27 -33 -36 -43h218v286q-13 -23 -35 -51z" />
    <glyph glyph-name="five.subs" 
d="M207 329l-22 -215q41 85 140 85q73 0 116 -46t43 -123q0 -83 -47.5 -132t-129.5 -49q-70 0 -116 35t-56 95l47 6q8 -46 41.5 -72t84.5 -26q61 0 95.5 38t34.5 103q0 62 -32.5 97.5t-90.5 35.5q-47 0 -82 -26.5t-45 -69.5l-44 4l29 298h286v-38h-252z" />
    <glyph glyph-name="six.subs" 
d="M443.5 152.5q43.5 -47.5 43.5 -127.5q0 -76 -45 -126t-121 -50q-90 0 -139.5 63.5t-49.5 194.5q0 126 48.5 198.5t139.5 72.5q67 0 106.5 -33.5t50.5 -97.5l-46 -7q-19 101 -112 101q-69 0 -105 -62t-36 -167v-19v-8q14 56 55.5 85.5t95.5 29.5q71 0 114.5 -47.5z
M408.5 -75q32.5 38 32.5 99q0 64 -33.5 101t-88.5 37q-53 0 -90 -34t-47 -96q11 -68 45.5 -106.5t93.5 -38.5q55 0 87.5 38z" />
    <glyph glyph-name="seven.subs" 
d="M478 367v-39q-82 -85 -131.5 -206t-50.5 -262h-52v2q1 130 50.5 252t136.5 214h-289v39h336z" />
    <glyph glyph-name="eight.subs" 
d="M454.5 84q32.5 -32 32.5 -95q0 -65 -47 -102.5t-129 -37.5q-85 0 -131.5 37t-46.5 103q0 104 121 134q-52 16 -79 45.5t-27 81.5q0 58 44 93t116 35q73 0 116.5 -33.5t43.5 -91.5q0 -48 -26.5 -77.5t-82.5 -42.5q63 -17 95.5 -49zM219 186q25 -23 73 -36l28 -7
q58 16 80.5 39.5t22.5 65.5q0 44 -31 70t-84 26q-52 0 -83 -26t-31 -69q0 -40 25 -63zM406 -86.5q34 27.5 34 77.5q0 48 -27 73.5t-79 38.5l-39 10q-116 -32 -116 -118q0 -51 35 -80t97 -29q61 0 95 27.5z" />
    <glyph glyph-name="nine.subs" 
d="M438.5 315q49.5 -63 49.5 -195q0 -125 -46 -198t-139 -73q-68 0 -109 34t-52 99l46 7q19 -102 116 -102q68 0 103 61t35 164v28v18q-14 -54 -54 -82t-92 -28q-73 0 -118.5 44.5t-45.5 120.5q0 72 45 118.5t122 46.5q90 0 139.5 -63zM389 117q37 32 48 88q-10 63 -44 99.5
t-94 36.5q-55 0 -88 -35.5t-33 -91.5q0 -59 34.5 -94t89.5 -35q50 0 87 32z" />
    <glyph glyph-name="zero.dnom" 
d="M417.5 333q36.5 -50 36.5 -147q0 -100 -35 -147t-109 -47q-71 0 -108 49.5t-37 145.5q0 196 145 196q71 0 107.5 -50zM233 310.5q-25 -40.5 -25 -123.5q0 -61 13 -97l169 211q-24 50 -80 50q-52 0 -77 -40.5zM386 61.5q24 38.5 24 124.5q0 58 -12 94l-168 -211
q25 -46 80 -46q52 0 76 38.5z" />
    <glyph glyph-name="one.dnom" 
d="M442 31v-31h-264v31h114v289q-12 -15 -43.5 -27t-54.5 -12h-11v36h8q31 0 65 17t43 40h35v-343h108z" />
    <glyph glyph-name="two.dnom" 
d="M292 123q42 35 69.5 72t27.5 73q0 39 -21.5 59.5t-61.5 20.5q-41 0 -63.5 -20t-22.5 -57q0 -13 3 -28l-42 3q-3 17 -3 26q0 50 35 80.5t93 30.5q60 0 93 -29.5t33 -82.5q0 -57 -53 -113t-149 -125h216v-33h-272v32q76 56 118 91z" />
    <glyph glyph-name="three.dnom" 
d="M365 224.5q24 17.5 24 52.5t-22.5 53.5t-59.5 18.5q-41 0 -63.5 -24.5t-21.5 -65.5l-43 4q-1 55 33.5 87.5t96.5 32.5q56 0 89.5 -27t33.5 -75q0 -35 -21 -58.5t-57 -28.5q41 -2 65.5 -27.5t24.5 -65.5q0 -50 -36.5 -79.5t-97.5 -29.5t-97 32t-38 85l44 3q1 -38 25.5 -63
t65.5 -25q40 0 65 20t25 59q0 31 -20.5 53t-67.5 22h-31v29h27q33 0 57 17.5z" />
    <glyph glyph-name="four.dnom" 
d="M396 97v-97h-40v97h-202v31l196 246h46v-245h70v-32h-70zM356 337l-168 -208h168v208z" />
    <glyph glyph-name="five.dnom" 
d="M234 340l-16 -152q32 63 107 63q56 0 88.5 -33.5t32.5 -91.5q0 -63 -37.5 -98.5t-100.5 -35.5q-55 0 -91.5 27t-43.5 72l40 4q7 -32 32.5 -51.5t62.5 -19.5q45 0 71.5 27t26.5 74q0 44 -24.5 69t-67.5 25q-36 0 -61.5 -18.5t-33.5 -50.5l-37 4l22 220h223v-34h-193z" />
    <glyph glyph-name="six.dnom" 
d="M415 217q33 -35 33 -94q0 -57 -34.5 -94t-94.5 -37q-70 0 -109 47t-39 144q0 92 37.5 146t108.5 54q53 0 84 -26t39 -74l-40 -4q-14 71 -84 71q-51 0 -78 -43t-27 -114v-17v-13q9 43 41.5 66t74.5 23q55 0 88 -35zM384 51.5q24 27.5 24 69.5q0 46 -24.5 73t-65.5 27
q-39 0 -67.5 -25t-35.5 -69q8 -48 33.5 -75.5t69.5 -27.5q42 0 66 27.5z" />
    <glyph glyph-name="seven.dnom" 
d="M440 374v-35q-61 -60 -98 -148t-38 -191h-46v2q-1 94 37.5 183t104.5 154h-220v35h260z" />
    <glyph glyph-name="eight.dnom" 
d="M423.5 168.5q26.5 -23.5 26.5 -72.5t-37.5 -76.5t-103.5 -27.5q-67 0 -103.5 27t-36.5 75q0 75 95 97q-40 10 -62 32t-22 63q0 43 35 70t92 27q58 0 93 -25t35 -67q0 -35 -21 -56t-67 -31q50 -12 76.5 -35.5zM240.5 239.5q19.5 -15.5 57.5 -24.5l23 -5q41 10 57.5 27
t16.5 47q0 32 -23.5 50.5t-64.5 18.5q-39 0 -62.5 -18.5t-23.5 -49.5q0 -30 19.5 -45.5zM381.5 43.5q25.5 19.5 25.5 53.5q0 36 -21 53.5t-62 26.5l-29 7q-84 -24 -84 -84q0 -36 25.5 -56t73.5 -20q46 0 71.5 19.5z" />
    <glyph glyph-name="nine.dnom" 
d="M410 336q39 -47 39 -145q0 -93 -37 -146t-109 -53q-53 0 -84.5 25t-38.5 73l40 7q6 -33 27 -52.5t58 -19.5q50 0 77 42t27 113v26v17q-10 -42 -41 -64.5t-71 -22.5q-57 0 -91.5 34t-34.5 89q0 54 34.5 89t96.5 35q69 0 108 -47zM369.5 191q27.5 23 35.5 65
q-9 44 -34 69.5t-68 25.5q-42 0 -66.5 -25.5t-24.5 -65.5q0 -42 25.5 -67t66.5 -25q38 0 65.5 23z" />
    <glyph glyph-name="zero.numr" 
d="M417.5 668q36.5 -50 36.5 -147q0 -100 -35 -147t-109 -47q-71 0 -108 49.5t-37 145.5q0 196 145 196q71 0 107.5 -50zM233 645.5q-25 -40.5 -25 -123.5q0 -61 13 -97l169 211q-24 50 -80 50q-52 0 -77 -40.5zM386 396.5q24 38.5 24 124.5q0 58 -12 94l-168 -211
q25 -46 80 -46q52 0 76 38.5z" />
    <glyph glyph-name="one.numr" 
d="M442 366v-31h-264v31h114v289q-12 -15 -43.5 -27t-54.5 -12h-11v36h8q31 0 65 17t43 40h35v-343h108z" />
    <glyph glyph-name="two.numr" 
d="M292 458q42 35 69.5 72t27.5 73q0 39 -21.5 59.5t-61.5 20.5q-41 0 -63.5 -20t-22.5 -57q0 -13 3 -28l-42 3q-3 17 -3 26q0 50 35 80.5t93 30.5q60 0 93 -29.5t33 -82.5q0 -57 -53 -113t-149 -125h216v-33h-272v32q76 56 118 91z" />
    <glyph glyph-name="three.numr" 
d="M365 559.5q24 17.5 24 52.5t-22.5 53.5t-59.5 18.5q-41 0 -63.5 -24.5t-21.5 -65.5l-43 4q-1 55 33.5 87.5t96.5 32.5q56 0 89.5 -27t33.5 -75q0 -35 -21 -58.5t-57 -28.5q41 -2 65.5 -27.5t24.5 -65.5q0 -50 -36.5 -79.5t-97.5 -29.5t-97 32t-38 85l44 3q1 -38 25.5 -63
t65.5 -25q40 0 65 20t25 59q0 31 -20.5 53t-67.5 22h-31v29h27q33 0 57 17.5z" />
    <glyph glyph-name="four.numr" 
d="M396 432v-97h-40v97h-202v31l196 246h46v-245h70v-32h-70zM356 672l-168 -208h168v208z" />
    <glyph glyph-name="five.numr" 
d="M234 675l-16 -152q32 63 107 63q56 0 88.5 -33.5t32.5 -91.5q0 -63 -37.5 -98.5t-100.5 -35.5q-55 0 -91.5 27t-43.5 72l40 4q7 -32 32.5 -51.5t62.5 -19.5q45 0 71.5 27t26.5 74q0 44 -24.5 69t-67.5 25q-36 0 -61.5 -18.5t-33.5 -50.5l-37 4l22 220h223v-34h-193z" />
    <glyph glyph-name="six.numr" 
d="M415 552q33 -35 33 -94q0 -57 -34.5 -94t-94.5 -37q-70 0 -109 47t-39 144q0 92 37.5 146t108.5 54q53 0 84 -26t39 -74l-40 -4q-14 71 -84 71q-51 0 -78 -43t-27 -114v-17v-13q9 43 41.5 66t74.5 23q55 0 88 -35zM384 386.5q24 27.5 24 69.5q0 46 -24.5 73t-65.5 27
q-39 0 -67.5 -25t-35.5 -69q8 -48 33.5 -75.5t69.5 -27.5q42 0 66 27.5z" />
    <glyph glyph-name="seven.numr" 
d="M440 709v-35q-61 -60 -98 -148t-38 -191h-46v2q-1 94 37.5 183t104.5 154h-220v35h260z" />
    <glyph glyph-name="eight.numr" 
d="M423.5 503.5q26.5 -23.5 26.5 -72.5t-37.5 -76.5t-103.5 -27.5q-67 0 -103.5 27t-36.5 75q0 75 95 97q-40 10 -62 32t-22 63q0 43 35 70t92 27q58 0 93 -25t35 -67q0 -35 -21 -56t-67 -31q50 -12 76.5 -35.5zM240.5 574.5q19.5 -15.5 57.5 -24.5l23 -5q41 10 57.5 27
t16.5 47q0 32 -23.5 50.5t-64.5 18.5q-39 0 -62.5 -18.5t-23.5 -49.5q0 -30 19.5 -45.5zM381.5 378.5q25.5 19.5 25.5 53.5q0 36 -21 53.5t-62 26.5l-29 7q-84 -24 -84 -84q0 -36 25.5 -56t73.5 -20q46 0 71.5 19.5z" />
    <glyph glyph-name="nine.numr" 
d="M410 671q39 -47 39 -145q0 -93 -37 -146t-109 -53q-53 0 -84.5 25t-38.5 73l40 7q6 -33 27 -52.5t58 -19.5q50 0 77 42t27 113v26v17q-10 -42 -41 -64.5t-71 -22.5q-57 0 -91.5 34t-34.5 89q0 54 34.5 89t96.5 35q69 0 108 -47zM369.5 526q27.5 23 35.5 65
q-9 44 -34 69.5t-68 25.5q-42 0 -66.5 -25.5t-24.5 -65.5q0 -42 25.5 -67t66.5 -25q38 0 65.5 23z" />
    <glyph glyph-name="zero.sups" 
d="M448 761q47 -67 47 -198q0 -136 -45 -200t-140 -64q-92 0 -139 67.5t-47 197.5q0 264 186 264q91 0 138 -67zM206 734.5q-34 -55.5 -34 -170.5q0 -86 19 -137l227 298q-33 65 -108 65q-70 0 -104 -55.5zM414 391q33 54 33 172q0 80 -17 134l-228 -297q35 -63 108 -63
q71 0 104 54z" />
    <glyph glyph-name="one.sups" unicode="&#xb9;" 
d="M477 348v-38h-334v38h148v400q-14 -19 -55 -35.5t-70 -16.5h-18v41h13q39 0 83 24t54 56h39v-469h140z" />
    <glyph glyph-name="two.sups" unicode="&#xb2;" 
d="M346 532q40 42 56.5 76t16.5 72q0 52 -30 81t-84 29t-85 -29t-31 -81q0 -20 5 -40l-47 4q-5 25 -5 38q0 67 44.5 106.5t118.5 39.5q76 0 118.5 -38t42.5 -107q0 -43 -18.5 -81.5t-62.5 -85.5q-30 -32 -84 -79.5t-104 -86.5h286v-40h-347v38q144 113 210 184z" />
    <glyph glyph-name="three.sups" unicode="&#xb3;" 
d="M385.5 615.5q32.5 25.5 32.5 72.5q0 50 -30 76.5t-80 26.5q-57 0 -88 -35t-30 -93l-46 5q-1 73 43 116.5t123 43.5q70 0 112.5 -35.5t42.5 -100.5q0 -45 -27 -76.5t-72 -38.5q52 -5 84 -39.5t32 -88.5q0 -69 -46.5 -109.5t-125.5 -40.5q-78 0 -124.5 43t-48.5 114l48 4
q1 -54 34.5 -88.5t90.5 -34.5t90.5 28.5t33.5 84.5q0 44 -28 74.5t-91 30.5h-41v35h35q44 0 76.5 25.5z" />
    <glyph glyph-name="four.sups" 
d="M415 446v-136h-44v136h-259v33l253 338h50v-335h93v-36h-93zM336 717l-147 -192q-27 -33 -36 -43h218v286q-13 -23 -35 -51z" />
    <glyph glyph-name="five.sups" 
d="M207 779l-22 -215q41 85 140 85q73 0 116 -46t43 -123q0 -83 -47.5 -132t-129.5 -49q-70 0 -116 35t-56 95l47 6q8 -46 41.5 -72t84.5 -26q61 0 95.5 38t34.5 103q0 62 -32.5 97.5t-90.5 35.5q-47 0 -82 -26.5t-45 -69.5l-44 4l29 298h286v-38h-252z" />
    <glyph glyph-name="six.sups" 
d="M443.5 602.5q43.5 -47.5 43.5 -127.5q0 -76 -45 -126t-121 -50q-90 0 -139.5 63.5t-49.5 194.5q0 126 48.5 198.5t139.5 72.5q67 0 106.5 -33.5t50.5 -97.5l-46 -7q-19 101 -112 101q-69 0 -105 -62t-36 -167v-19v-8q14 56 55.5 85.5t95.5 29.5q71 0 114.5 -47.5z
M408.5 375q32.5 38 32.5 99q0 64 -33.5 101t-88.5 37q-53 0 -90 -34t-47 -96q11 -68 45.5 -106.5t93.5 -38.5q55 0 87.5 38z" />
    <glyph glyph-name="seven.sups" 
d="M478 817v-39q-82 -85 -131.5 -206t-50.5 -262h-52v2q1 130 50.5 252t136.5 214h-289v39h336z" />
    <glyph glyph-name="eight.sups" 
d="M454.5 534q32.5 -32 32.5 -95q0 -65 -47 -102.5t-129 -37.5q-85 0 -131.5 37t-46.5 103q0 104 121 134q-52 16 -79 45.5t-27 81.5q0 58 44 93t116 35q73 0 116.5 -33.5t43.5 -91.5q0 -48 -26.5 -77.5t-82.5 -42.5q63 -17 95.5 -49zM219 636q25 -23 73 -36l28 -7
q58 16 80.5 39.5t22.5 65.5q0 44 -31 70t-84 26q-52 0 -83 -26t-31 -69q0 -40 25 -63zM406 363.5q34 27.5 34 77.5q0 48 -27 73.5t-79 38.5l-39 10q-116 -32 -116 -118q0 -51 35 -80t97 -29q61 0 95 27.5z" />
    <glyph glyph-name="nine.sups" 
d="M438.5 765q49.5 -63 49.5 -195q0 -125 -46 -198t-139 -73q-68 0 -109 34t-52 99l46 7q19 -102 116 -102q68 0 103 61t35 164v28v18q-14 -54 -54 -82t-92 -28q-73 0 -118.5 44.5t-45.5 120.5q0 72 45 118.5t122 46.5q90 0 139.5 -63zM389 567q37 32 48 88q-10 63 -44 99.5
t-94 36.5q-55 0 -88 -35.5t-33 -91.5q0 -59 34.5 -94t89.5 -35q50 0 87 32z" />
    <glyph glyph-name="colon.case" 
d="M364 431h-109v114h109v-114zM364 0h-109v114h109v-114z" />
    <glyph glyph-name="semicolon.case" 
d="M364 431h-109v114h109v-114zM312.5 -76.5q16.5 29.5 16.5 76.5h-72v114h110v-113q0 -115 -94 -157l-16 30q39 20 55.5 49.5z" />
    <glyph glyph-name="exclamdown.case" 
d="M359 596h-99v114h99v-114zM289 487h41l9 -487h-59z" />
    <glyph glyph-name="questiondown.case" 
d="M365 710v-114h-99v114h99zM514 186q0 -95 -54.5 -148.5t-153.5 -53.5q-95 0 -147.5 46.5t-52.5 128.5q0 88 87 166l47 42q29 26 41 51t12 59v11h50v-25q0 -33 -14.5 -61.5t-49.5 -60.5l-46 -41q-36 -33 -53.5 -65.5t-17.5 -74.5q0 -60 38.5 -95.5t105.5 -35.5
q73 0 114 40t41 121q0 16 -3 25l54 -5z" />
    <glyph glyph-name="bullet.case" 
d="M358 404q18 -18 18 -48t-18 -48t-48 -18t-48.5 18t-18.5 48t18.5 48t48.5 18t48 -18z" />
    <glyph glyph-name="periodcentered.loclCAT.case" horiz-adv-x="0" 
d="M-92 311h-109v114h109v-114z" />
    <glyph glyph-name="slash.case" 
d="M164 -25l244 760h47l-244 -760h-47z" />
    <glyph glyph-name="backslash.case" 
d="M408 -25l-244 760h47l244 -760h-47z" />
    <glyph glyph-name="periodcentered.loclCAT" horiz-adv-x="0" 
d="M54 306h-109v114h109v-114z" />
    <glyph glyph-name="asterisk.ss04" 
d="M279 617h-97l79 -57l-30 -93l79 57l79 -57l-31 93l79 57h-97l-30 93z" />
    <glyph glyph-name="parenleft.case" 
d="M269.5 124q-60.5 112 -60.5 228q0 114 61 222.5t165 182.5l35 -21q-105 -86 -156.5 -179t-51.5 -205q0 -113 51 -208.5t157 -187.5l-35 -21q-105 77 -165.5 189z" />
    <glyph glyph-name="parenright.case" 
d="M150 -44q106 92 157 187t51 209q0 112 -51.5 205t-156.5 179l35 21q104 -74 165 -182.5t61 -222.5q0 -116 -60.5 -228t-165.5 -189z" />
    <glyph glyph-name="braceleft.case" 
d="M286 -29q-48 36 -48 107v162q0 30 -5 48t-22 28.5t-52 10.5v48q36 0 52.5 9.5t21 26t4.5 48.5v163q0 71 48 107t122 36h67v-41h-67q-55 0 -89.5 -27t-34.5 -88v-150q0 -44 -12 -70.5t-46 -36.5q34 -12 46 -40.5t12 -71.5v-148q0 -61 35 -88t90 -27h67v-42h-67
q-74 0 -122 36z" />
    <glyph glyph-name="braceright.case" 
d="M145 -65v42h67q55 0 90 27t35 88v148q0 43 12 71.5t46 40.5q-34 10 -46 36.5t-12 70.5v150q0 61 -34.5 88t-89.5 27h-67v41h67q74 0 122 -36t48 -107v-163q0 -32 4.5 -48.5t21 -26t52.5 -9.5v-48q-35 0 -52 -10.5t-22 -28.5t-5 -48v-162q0 -71 -48 -107t-122 -36h-67z
" />
    <glyph glyph-name="bracketleft.case" 
d="M222 765h246v-41h-200v-747h200v-42h-246v830z" />
    <glyph glyph-name="bracketright.case" 
d="M398 -65h-246v42h200v747h-200v41h246v-830z" />
    <glyph glyph-name="hyphen.case" 
d="M454 384v-47h-289v47h289z" />
    <glyph glyph-name="endash.case" 
d="M516 380v-39h-412v39h412z" />
    <glyph glyph-name="emdash.case" 
d="M582 380v-39h-545v39h545z" />
    <glyph glyph-name="underscore.case" 
d="M620 -18v-42h-620v42h620z" />
    <glyph glyph-name="guillemotleft.case" 
d="M81 345l173 207h53l-169 -206l166 -209h-55zM288 345l173 207h53l-169 -206l166 -209h-55z" />
    <glyph glyph-name="guillemotright.case" 
d="M318 344l-173 207h-53l169 -206l-166 -209h55zM524 344l-173 207h-52l169 -206l-166 -209h54z" />
    <glyph glyph-name="guilsinglleft.case" 
d="M187 344l173 207h52l-169 -206l166 -209h-54z" />
    <glyph glyph-name="guilsinglright.case" 
d="M265 136h-54l166 209l-169 206h52l173 -207z" />
    <glyph glyph-name="parenleft.subs" 
d="M356 -84.5q-43 89.5 -43 184.5q0 94 43 179t126 143l34 -18q-81 -65 -117.5 -139t-36.5 -165q0 -93 36.5 -169t117.5 -146l-35 -19q-82 60 -125 149.5z" />
    <glyph glyph-name="parenright.subs" 
d="M224.5 -69q36.5 76 36.5 169q0 91 -36.5 165t-117.5 140l32 17q82 -58 125 -143t43 -179q0 -95 -42.5 -183.5t-124.5 -150.5l-33 18q81 71 117.5 147z" />
    <glyph glyph-name="parenleft.sups" 
d="M355.5 366.5q-42.5 88.5 -42.5 183.5q0 94 43 179t125 143l32 -17q-81 -66 -117.5 -140t-36.5 -165q0 -93 36.5 -169t117.5 -147l-33 -18q-82 62 -124.5 150.5z" />
    <glyph glyph-name="parenright.sups" 
d="M107 234q81 71 117.5 147t36.5 169q0 91 -36.5 165t-117.5 140l32 17q82 -58 125 -143t43 -179q0 -95 -42.5 -183.5t-124.5 -150.5z" />
    <glyph glyph-name="uni0E3F" unicode="&#xe3f;" 
d="M494.5 303q38.5 -45 38.5 -115q0 -79 -52 -133.5t-172 -54.5h-9v-107h-35v107h-179v695h179v91h35v-91q116 -2 166 -53t50 -122q0 -62 -32.5 -106t-101.5 -57q74 -9 112.5 -54zM136 650v-274h129v274h-129zM300 650v-274q94 0 128.5 41t34.5 99q0 130 -163 134zM136 45
h129v286h-129v-286zM480 191q0 63 -39.5 101.5t-129.5 38.5h-11v-286h3q177 0 177 146z" />
    <glyph glyph-name="uni0243" unicode="&#x243;" 
d="M495.5 70q-38.5 -51 -125.5 -65v-112h-35v108q-9 -1 -28 -1h-61v-107h-35v107h-125v695h125v90h35v-90h45q16 0 44 -2v92h35v-97q78 -17 112.5 -63t34.5 -104q0 -62 -32.5 -106t-101.5 -57q74 -9 112.5 -54t38.5 -114t-38.5 -120zM137 377h160q95 0 130 40.5t35 98.5
q0 133 -171 133h-154v-272zM479 193q0 63 -39.5 101t-129.5 38h-173v-286h165q177 0 177 147z" />
    <glyph glyph-name="uni20BA" unicode="&#x20ba;" 
d="M549 225q-19 -98 -80 -161.5t-185 -63.5h-126v288l-87 -26v41l87 26v104l-87 -26v41l87 26v221h53v-204l238 72v-41l-238 -72v-104l238 72v-41l-238 -72v-258h67q183 0 222 187z" />
    <glyph glyph-name="uni20BD" unicode="&#x20bd;" 
d="M189 301v-115h180v-38h-180v-148h-53v148h-71v38h71v115h-71v40h71v354h193q83 0 133.5 -28.5t71.5 -72t21 -91.5q0 -82 -52.5 -142t-173.5 -60h-140zM189 341h141q89 0 129.5 48t40.5 112q0 59 -40.5 103t-129.5 44h-141v-307z" />
    <glyph glyph-name="uni20B9" unicode="&#x20b9;" 
d="M558 655h-253q86 -40 93 -139h160v-38h-160q-5 -77 -58 -128t-175 -51h-35l266 -299h-65l-270 309v32h102q90 0 133.5 36.5t48.5 100.5h-284v38h284q-5 63 -48.5 101t-130.5 38h-105v40h497v-40z" />
    <glyph glyph-name="uni20A9" unicode="&#x20a9;" 
d="M580 411h-51l-11 -95h62v-36h-67l-35 -280h-69l-44 280h-111l-43 -280h-69l-35 280h-67v36h62l-12 95h-50v35h46l-32 249h47l29 -249h111l40 249h58l40 -249h110l30 249h46l-31 -249h46v-35zM280 446h60l-21 132l-8 59h-3q-1 -13 -8 -59zM134 411l11 -95h76l15 95h-102z
M260 316h100l-15 95h-71zM474 316l11 95h-101l15 -95h75zM215 280h-65l18 -157q4 -27 8 -69h3q8 54 11 69zM470 280h-65l25 -157l11 -69h3l7 69z" />
    <glyph glyph-name="uni0E3F.case" 
d="M494.5 309q38.5 -46 38.5 -117q0 -81 -52 -136.5t-172 -55.5h-9v-109h-35v109h-179v711h179v92h35v-92q116 -2 166 -54.5t50 -124.5q0 -63 -32.5 -108.5t-101.5 -59.5q74 -9 112.5 -55zM136 665v-281h129v281h-129zM300 665v-281q163 0 163 143q0 134 -163 138zM136 46
h129v292h-129v-292zM480 195q0 65 -39.5 104t-129.5 39h-11v-292h3q177 0 177 149z" />
    <glyph glyph-name="uni20BF.case" 
d="M495.5 72q-38.5 -52 -125.5 -67v-114h-35v110q-9 -1 -28 -1h-61v-109h-35v109h-125v710h125v92h35v-92h45q16 0 44 -2v94h35v-100q78 -17 112.5 -64t34.5 -106q0 -63 -32.5 -108t-101.5 -59q74 -8 112.5 -54t38.5 -117q0 -70 -38.5 -122zM137 385h160q165 0 165 142
q0 136 -171 136h-154v-278zM438.5 88.5q40.5 41.5 40.5 108.5q0 64 -39.5 103t-129.5 39h-173v-292h165q96 0 136.5 41.5z" />
    <glyph glyph-name="currency.case" 
d="M475 200l51 -55l-25 -24l-52 53q-27 -23 -62.5 -35t-74.5 -12q-83 0 -140 49l-53 -55l-25 23l54 57q-50 61 -50 152t49 151l-54 57l25 24l54 -55q57 49 140 49q39 0 74.5 -12t62.5 -35l52 53l26 -24l-52 -55q50 -61 50 -153t-50 -153zM396.5 192q37.5 22 59.5 63.5
t22 97.5t-22 97.5t-59.5 63.5t-84.5 22t-85 -22t-60 -63.5t-22 -97.5t22 -97.5t60 -63.5t85 -22t84.5 22z" />
    <glyph glyph-name="dollar.case" 
d="M487.5 41.5q-57.5 -53.5 -159.5 -56.5v-94h-31v95q-103 6 -159 68.5t-64 160.5l53 9q6 -81 48.5 -134t121.5 -60v314l-40 11q-74 20 -117.5 66t-43.5 119q0 81 54.5 132t146.5 54v91h31v-92q90 -5 144 -56.5t60 -155.5l-52 -12q-8 169 -152 179v-292l43 -11
q83 -22 128.5 -64t45.5 -128q0 -90 -57.5 -143.5zM297 396v285q-74 -3 -112 -41t-38 -97q0 -107 130 -142zM450 68q45 37 45 109q0 49 -18.5 79t-50 46t-80.5 29l-18 5v-307q77 2 122 39z" />
    <glyph glyph-name="Euro.case" 
d="M588 150q-25 -79 -81.5 -122t-132.5 -43q-109 0 -174.5 78.5t-80.5 212.5h-88v39h84q-1 15 -1 47q0 18 2 52h-85v38h89q17 131 84.5 203t177.5 72q74 0 126.5 -39t77.5 -114l-43 -27q-18 61 -61.5 97t-103.5 36q-85 0 -137.5 -59t-66.5 -169h275v-38h-279q-2 -32 -2 -51
q0 -18 2 -48h279v-39h-276q15 -116 68 -180.5t134 -64.5q55 0 102 35.5t71 105.5z" />
    <glyph glyph-name="florin.case" 
d="M369.5 668.5q-20.5 -15.5 -29.5 -42t-15 -70.5l-16 -128h132v-41h-137l-68 -540h-50l67 540h-105v41h110l13 108q8 66 21 105t44.5 63.5t90.5 24.5q27 0 45 -7v-43q-18 5 -45 5q-37 0 -57.5 -15.5z" />
    <glyph glyph-name="uni20BA.case" 
d="M549 230q-19 -100 -80 -165t-185 -65h-126v294l-87 -27v43l87 27v105l-87 -27v43l87 27v225h53v-209l238 74v-42l-238 -74v-106l238 74v-42l-238 -74v-263h67q183 0 222 191z" />
    <glyph glyph-name="uni20BD.case" 
d="M189 307v-117h180v-39h-180v-151h-53v151h-71v39h71v117h-71v41h71v362h193q83 0 133.5 -29t71.5 -73.5t21 -93.5q0 -84 -52.5 -145.5t-173.5 -61.5h-140zM189 348h141q89 0 129.5 49t40.5 115q0 60 -40.5 105t-129.5 45h-141v-314z" />
    <glyph glyph-name="uni20B9.case" 
d="M558 669h-254q87 -40 94 -142h160v-39h-160q-5 -78 -58 -130t-175 -52h-35l266 -306h-65l-270 316v32h102q91 0 134 37.5t48 102.5h-284v39h284q-5 64 -48.5 103t-130.5 39h-105v41h497v-41z" />
    <glyph glyph-name="sterling.case" 
d="M568 150q-6 -87 -47.5 -126t-102.5 -39q-22 0 -40.5 3.5t-48.5 10.5q-35 9 -59.5 13t-55.5 4q-36 0 -70.5 -5.5t-80.5 -16.5l-12 38q62 19 105 66t43 136q0 60 -12 118h-112v39h104q-9 41 -13.5 70.5t-4.5 64.5q0 97 51.5 149t134.5 52q79 0 124 -45.5t55 -129.5l-51 -10
q-6 68 -39 104.5t-89 36.5q-59 0 -95.5 -37.5t-36.5 -116.5q0 -36 4.5 -65t13.5 -73h174v-39h-166q10 -64 10 -109q0 -143 -107 -194q39 12 92 12q42 0 96 -15q6 -1 32.5 -7t54.5 -6q44 0 71.5 31t31.5 94z" />
    <glyph glyph-name="uni20A9.case" 
d="M580 415h-51l-12 -96h63v-36h-67l-35 -283h-69l-43 283h-112l-43 -283h-69l-35 283h-67v36h62l-11 96h-51v35h46l-32 260h47l30 -260h110l40 260h58l40 -260h110l30 260h46l-32 -260h47v-35zM279 450h61l-21 141l-8 61h-3q-1 -17 -8 -61zM135 415l11 -96h74l15 96h-100z
M259 319h101l-14 96h-73zM474 319l11 96h-100l15 -96h74zM215 283h-65l18 -159q3 -18 8 -69h3l3 21l8 48zM469 283h-64l25 -159l4 -26q4 -30 7 -43h3l7 69z" />
    <glyph glyph-name="yen.case" 
d="M558 710l-221 -387h190v-39h-192v-95h192v-39h-192v-150h-53v150h-194v39h194v95h-194v39h192l-219 387h59l188 -340l191 340h59z" />
    <glyph glyph-name="plus.case" 
d="M545 394v-43h-211v-217h-50v217h-209v43h209v205h50v-205h211z" />
    <glyph glyph-name="minus.case" 
d="M75 397h470v-47h-470v47z" />
    <glyph glyph-name="multiply.case" 
d="M541 568l-198 -198l198 -197l-33 -34l-198 198l-198 -198l-33 33l198 198l-198 198l33 33l198 -197l197 197z" />
    <glyph glyph-name="divide.case" 
d="M281.5 536q-11.5 11 -11.5 29t11.5 29t28.5 11t28.5 -11t11.5 -29t-11.5 -29t-28.5 -11t-28.5 11zM75 397h470v-45h-470v45zM281 155.5q-11 10.5 -11 28.5t11 29t29 11t29 -11t11 -29t-11 -28.5t-29 -10.5t-29 10.5z" />
    <glyph glyph-name="equal.case" 
d="M75 485h470v-46h-470v46zM75 307h470v-46h-470v46z" />
    <glyph glyph-name="notequal.case" 
d="M545 439h-192l-49 -132h241v-46h-258l-49 -133h-36l49 133h-176v46h193l49 132h-242v46h259l48 129h36l-48 -129h175v-46z" />
    <glyph glyph-name="greater.case" 
d="M49 132v49l409 193l-409 193v47l465 -221v-40z" />
    <glyph glyph-name="less.case" 
d="M94 353v40l465 221v-47l-409 -193l409 -193v-49z" />
    <glyph glyph-name="plusminus.case" 
d="M335 455h210v-42h-210v-182h-50v182h-210v42h210v187h50v-187zM75 100v46h470v-46h-470z" />
    <glyph glyph-name="approxequal.case" 
d="M374.5 431q-22.5 6 -60.5 19q-33 12 -57.5 18.5t-50.5 6.5q-36 0 -73 -11.5t-58 -28.5v47q20 17 55.5 28.5t69.5 11.5q31 0 57 -6.5t59 -19.5q33 -12 54 -18t46 -6q36 0 72.5 11.5t56.5 28.5v-47q-19 -17 -53.5 -28.5t-69.5 -11.5q-25 0 -47.5 6zM374.5 252
q-22.5 6 -60.5 19q-33 12 -57.5 18.5t-50.5 6.5q-36 0 -73 -11.5t-58 -28.5v47q20 17 55.5 28.5t69.5 11.5q31 0 57 -6.5t59 -19.5q33 -12 54 -18t46 -6q36 0 72.5 11.5t56.5 28.5v-47q-19 -17 -53.5 -28.5t-69.5 -11.5q-25 0 -47.5 6z" />
    <glyph glyph-name="logicalnot.case" 
d="M544 402v-227h-48v179h-401v48h449z" />
    <glyph glyph-name="infinity.case" 
d="M523 466.5q33 -34.5 33 -91.5q0 -54 -34 -90.5t-84 -36.5q-40 0 -74 27.5t-56 63.5q-51 -92 -130 -92q-47 0 -80.5 34.5t-33.5 92.5q0 55 33.5 90.5t84.5 35.5q38 0 71.5 -22.5t55.5 -61.5q24 39 55 62t74 23q52 0 85 -34.5zM490.5 312.5q22.5 22.5 22.5 61.5
q0 41 -21.5 62.5t-55.5 21.5q-35 0 -59.5 -21t-46.5 -60q22 -38 49 -62.5t58 -24.5t53.5 22.5zM241.5 312.5q23.5 22.5 45.5 64.5q-19 34 -43.5 57t-61.5 23q-31 0 -53.5 -20.5t-22.5 -62.5q0 -39 23.5 -61.5t53.5 -22.5q35 0 58.5 22.5z" />
    <glyph glyph-name="integral.case" 
d="M144 26q79 0 110 36t31 124v339q0 93 42 144.5t138 51.5q5 0 35 -2v-43q-14 2 -35 2q-72 0 -100.5 -38.5t-28.5 -122.5v-339q0 -96 -44.5 -146t-146.5 -49q-15 0 -26 1v43q11 -1 25 -1z" />
    <glyph glyph-name="arrowup" unicode="&#x2191;" 
d="M292 617h-81l99 133l99 -133h-81v-652h-36v652z" />
    <glyph glyph-name="uni2197" unicode="&#x2197;" 
d="M105 250l-26 26l366 366l-69 69h163v-163l-68 68z" />
    <glyph glyph-name="arrowright" unicode="&#x2192;" 
d="M435 347v82l132 -99l-132 -99v82h-369v34h369z" />
    <glyph glyph-name="uni2198" unicode="&#x2198;" 
d="M471 107l68 67v-163h-163l69 69l-366 366l26 26z" />
    <glyph glyph-name="arrowdown" unicode="&#x2193;" 
d="M328 93h81l-99 -133l-99 133h81v652h36v-652z" />
    <glyph glyph-name="uni2199" unicode="&#x2199;" 
d="M514 472l27 -26l-366 -366l69 -69h-163v163l67 -67z" />
    <glyph glyph-name="arrowleft" unicode="&#x2190;" 
d="M185 313v-82l-132 99l132 99v-82h369v-34h-369z" />
    <glyph glyph-name="uni2196" unicode="&#x2196;" 
d="M147 615l-67 -68v163h163l-69 -69l366 -366l-27 -26z" />
    <glyph glyph-name="arrowboth" unicode="&#x2194;" 
d="M185 313v-82l-132 99l132 99v-82h244v82l132 -99l-132 -99v82h-244z" />
    <glyph glyph-name="arrowupdn" unicode="&#x2195;" 
d="M211 93h81v524h-81l99 133l99 -133h-81v-524h81l-99 -133z" />
    <glyph glyph-name="uni21A9" unicode="&#x21a9;" 
d="M186 429v-82h148q85 0 127.5 38.5t42.5 111.5q0 70 -44 106t-129 36h-86v35h95q98 0 150.5 -45.5t52.5 -131.5q0 -87 -51 -135.5t-149 -48.5h-157v-82l-132 99z" />
    <glyph glyph-name="uni21AA" unicode="&#x21aa;" 
d="M434 313h-157q-98 0 -149 48.5t-51 135.5q0 86 52.5 131.5t150.5 45.5h95v-35h-86q-85 0 -129 -36t-44 -106q0 -73 42.5 -111.5t127.5 -38.5h148v82l132 -99l-132 -99v82z" />
    <glyph glyph-name="uni21B0" unicode="&#x21b0;" 
d="M479 583h-293v-82l-133 99l133 99v-82h329v-617h-36v583z" />
    <glyph glyph-name="uni21B1" unicode="&#x21b1;" 
d="M141 0h-37v617h330v82l132 -99l-132 -99v82h-293v-583z" />
    <glyph glyph-name="uni21B2" unicode="&#x21b2;" 
d="M504 710h37v-617h-330v-82l-132 99l132 99v-82h293v583z" />
    <glyph glyph-name="uni21B3" unicode="&#x21b3;" 
d="M434 127v82l132 -99l-132 -99v82h-330v617h37v-583h293z" />
    <glyph glyph-name="uni21B4" unicode="&#x21b4;" 
d="M452 120v555h-386v35h422v-590h81l-99 -133l-99 133h81z" />
    <glyph glyph-name="uni21B5" unicode="&#x21b5;" 
d="M605 352l-99 -133l-100 133h79v54q0 150 -46 215t-132 65q-113 0 -153 -110l-35 15q25 63 72.5 97t115.5 34q104 0 161 -76t57 -238v-56h80zM465 132l35 -15q-26 -66 -75 -98.5t-116 -32.5q-103 0 -159 76.5t-56 232.5v59h-79l99 132l99 -132h-79v-57q0 -275 175 -275
q116 0 156 110z" />
    <glyph glyph-name="uni21C4" unicode="&#x21c4;" 
d="M185 429v-82l-132 99l132 99v-82h297v-34h-297zM435 231v82l132 -99l-132 -99v82h-297v34h297z" />
    <glyph glyph-name="uni21C5" unicode="&#x21c5;" 
d="M444 617v-531h-36v531h-81l99 133l99 -133h-81zM176 93v541h36v-541h81l-99 -133l-99 133h81z" />
    <glyph glyph-name="carriagereturn.alt" 
d="M445 352v59q0 275 -175 275q-176 0 -176 -275v-109q0 -150 46 -215t131 -65q114 0 154 110l35 -15q-25 -63 -72.5 -97t-116.5 -34q-103 0 -160 76t-57 238v111q0 156 57.5 233.5t158.5 77.5q103 0 159 -76.5t56 -232.5v-61h80l-99 -133l-99 133h78z" />
    <glyph glyph-name="arrowright.case" 
d="M435 376v82l132 -99l-132 -99v82h-369v34h369z" />
    <glyph glyph-name="arrowleft.case" 
d="M185 342v-82l-132 99l132 99v-82h369v-34h-369z" />
    <glyph glyph-name="arrowright.ss03.case" 
d="M268 101l31 -30l288 288l-288 287l-30 -30l240 -236h-464v-42h464z" />
    <glyph glyph-name="arrowleft.ss03.case" 
d="M351 101l-30 -30l-288 288l288 287l30 -30l-241 -236h465v-42h-465z" />
    <glyph glyph-name="arrowup.ss03" 
d="M51 432l-29 30l288 288l287 -288l-29 -30l-236 241v-708h-44v708z" />
    <glyph glyph-name="uni2197.ss03" 
d="M111 249l-31 30l393 392l-337 -2v41h406v-407h-42l2 338z" />
    <glyph glyph-name="arrowright.ss03" 
d="M45 309v42h464l-240 236l30 30l288 -287l-288 -288l-31 30l241 237h-464z" />
    <glyph glyph-name="uni2198.ss03" 
d="M500 395h42v-407h-406v41l337 -2l-393 392l31 31l391 -393z" />
    <glyph glyph-name="arrowdown.ss03" 
d="M289 37v708h44v-708l236 241l29 -30l-286 -288l-288 288l29 30z" />
    <glyph glyph-name="uni2199.ss03" 
d="M509 450l31 -31l-393 -392l337 2v-41h-406v407h42l-2 -338z" />
    <glyph glyph-name="arrowleft.ss03" 
d="M351 72l-30 -30l-288 288l288 287l30 -30l-241 -236h465v-42h-465z" />
    <glyph glyph-name="uni2196.ss03" 
d="M120 303h-42v407h406v-41l-337 2l393 -392l-31 -30l-391 392z" />
    <glyph glyph-name="uni25CF" unicode="&#x25cf;" 
d="M136 58q-63 75 -63 212v170q0 139 64.5 213t171.5 74q109 0 173 -74t64 -213v-170q0 -137 -63.5 -212t-173.5 -75t-173 75z" />
    <glyph glyph-name="circle" unicode="&#x25cb;" 
d="M137 57.5q-64 74.5 -64 211.5v171q0 137 64 212t173 75t173 -75t64 -212v-171q0 -137 -64 -211.5t-173 -74.5t-173 74.5zM458 79.5q55 65.5 55 189.5v171q0 124 -55 190t-148 66t-148 -66t-55 -190v-171q0 -124 55 -189.5t148 -65.5t148 65.5z" />
    <glyph glyph-name="uni2105" unicode="&#x2105;" 
d="M219 668.5q-21 23.5 -58 23.5q-44 0 -67.5 -33t-23.5 -94q0 -64 23.5 -97t68.5 -33q37 0 58 23t24 60l41 -5q-8 -53 -40 -83.5t-83 -30.5q-62 0 -97.5 44t-35.5 122q0 76 35.5 119.5t96.5 43.5q53 0 86.5 -32.5t37.5 -87.5l-42 -4q-3 41 -24 64.5zM543 728l-433 -742h-44
l433 742h44zM556 30.5q-35 -43.5 -95 -43.5q-63 0 -98 44t-35 123q0 76 35.5 119.5t96.5 43.5q60 0 95.5 -44.5t35.5 -121.5t-35 -120.5zM393.5 57q23.5 -33 67.5 -33q42 0 65 32.5t23 94.5t-23 95.5t-66 33.5t-66.5 -32.5t-23.5 -93.5q0 -64 23.5 -97z" />
    <glyph glyph-name="at.case" 
d="M135 57.5q-70 74.5 -70 205.5v185q0 87 31 152.5t88.5 101t132.5 35.5q73 0 126.5 -32.5t82 -93t28.5 -141.5v-118q0 -164 -91 -164q-31 0 -49.5 19t-21.5 51q-12 -33 -41.5 -53.5t-66.5 -20.5q-43 0 -71 26t-28 71q0 42 27 66.5t83 33.5l91 14v12q0 53 -16.5 76
t-54.5 23q-72 0 -77 -75h-41q2 52 34 82t87 30q56 0 82.5 -35t26.5 -110v-103q0 -72 40 -72q25 0 37 29t12 90v122q0 112 -53 175t-147 63q-98 0 -155 -67t-57 -184v-190q0 -112 61.5 -177t166.5 -65q77 0 148 39l10 -32q-77 -43 -161 -43q-124 0 -194 74.5zM360 250.5
q26 30.5 26 76.5v37l-81 -15q-39 -6 -58.5 -22.5t-19.5 -44.5t18.5 -45t48.5 -17q40 0 66 30.5z" />
    <glyph glyph-name="section.case" 
d="M471.5 171q12.5 -22 12.5 -52q0 -63 -51.5 -99.5t-131.5 -36.5q-81 0 -130.5 37.5t-57.5 103.5l50 8q10 -50 46.5 -78.5t97.5 -28.5q56 0 91 24t35 64q0 25 -10 42.5t-33.5 32t-69.5 33.5l-86 35q-61 24 -88.5 55t-27.5 80q0 75 73 110q-45 36 -45 98q0 61 48.5 94.5
t125.5 33.5q78 0 122.5 -33.5t53.5 -94.5l-49 -10q-10 49 -42 74t-90 25q-53 0 -84.5 -22t-31.5 -63q0 -37 19.5 -59.5t72.5 -43.5l82 -33q71 -28 104 -60t33 -82q0 -38 -19 -67t-56 -46q24 -19 36.5 -41zM348 259q27 -11 58 -28q51 32 51 85q0 30 -15 50t-42.5 34.5
t-81.5 37.5l-75 32q-11 4 -23 11q-49 -28 -49 -81q0 -37 21.5 -60.5t76.5 -46.5z" />
    <glyph glyph-name="bar.case" 
d="M333 -18h-47v743h47v-743z" />
    <glyph glyph-name="brokenbar.case" 
d="M333 432h-47v293h47v-293zM333 -18h-47v329h47v-329z" />
    <glyph glyph-name="plus.subs" 
d="M488 118v-36h-158v-156h-41v156h-157v36h157v149h41v-149h158z" />
    <glyph glyph-name="minus.subs" 
d="M131 119h357v-38h-357v38z" />
    <glyph glyph-name="multiply.subs" 
d="M486 242l-148 -143l148 -143l-28 -28l-148 143l-149 -143l-27 27l148 143l-149 144l28 27l149 -143l148 143z" />
    <glyph glyph-name="divide.subs" 
d="M286.5 213q-9.5 9 -9.5 23t9.5 23t23.5 9t23 -8.5t9 -23.5q0 -14 -9 -23t-23 -9t-23.5 9zM131 118h357v-37h-357v37zM286.5 -61q-9.5 9 -9.5 23q0 15 9 23.5t24 8.5q14 0 23 -8.5t9 -23.5q0 -14 -9 -23t-23 -9t-23.5 9z" />
    <glyph glyph-name="plus.sups" 
d="M488 567v-34h-159v-157h-39v157h-158v34h158v150h39v-150h159z" />
    <glyph glyph-name="minus.sups" 
d="M131 568h357v-35h-357v35z" />
    <glyph glyph-name="multiply.sups" 
d="M486 693l-149 -144l149 -143l-27 -27l-149 144l-150 -144l-26 26l149 144l-149 144l26 25l150 -144l149 144z" />
    <glyph glyph-name="divide.sups" 
d="M287 664.5q-9 8.5 -9 21.5q0 14 9 23t23 9t22.5 -8.5t8.5 -23.5q0 -13 -8.5 -21.5t-22.5 -8.5t-23 8.5zM131 567h357v-34h-357v34zM287 389.5q-9 8.5 -9 22.5t9 22.5t23 8.5t22.5 -8.5t8.5 -22.5q0 -13 -8.5 -22t-22.5 -9t-23 8.5z" />
    <glyph glyph-name="uni0308.case" horiz-adv-x="0" 
d="M-380 775h-72v109h72v-109zM-167 775h-72v109h72v-109z" />
    <glyph glyph-name="uni0307.case" horiz-adv-x="0" 
d="M-271 775h-78v109h78v-109z" />
    <glyph glyph-name="gravecomb.case" horiz-adv-x="0" 
d="M-286 776l-98 108h67l81 -108h-50z" />
    <glyph glyph-name="acutecomb.case" horiz-adv-x="0" 
d="M-303 884h67l-98 -108h-50z" />
    <glyph glyph-name="uni030B.case" horiz-adv-x="0" 
d="M-372 884h54l-62 -108h-50zM-237 884h55l-62 -108h-50z" />
    <glyph glyph-name="uni0302.case" horiz-adv-x="0" 
d="M-232 776l-79 80l-78 -80h-54l105 108h56l105 -108h-55z" />
    <glyph glyph-name="uni030C.case" horiz-adv-x="0" 
d="M-388 884l79 -80l78 80h54l-105 -108h-56l-105 108h55z" />
    <glyph glyph-name="uni0306.case" horiz-adv-x="0" 
d="M-378.5 828q27.5 -21 68.5 -21t68.5 21.5t35.5 55.5h45q-9 -56 -50.5 -85t-98.5 -29q-58 0 -99.5 29t-50.5 85h47q7 -35 34.5 -56z" />
    <glyph glyph-name="uni030A.case" horiz-adv-x="0" 
d="M-379 759.5q-27 26.5 -27 64.5q0 39 27 65t69 26t69 -26t27 -65q0 -38 -27 -64.5t-69 -26.5t-69 26.5zM-266.5 781q15.5 17 15.5 43t-15.5 43.5t-43.5 17.5t-43.5 -17.5t-15.5 -43.5t15.5 -43t43.5 -17t43.5 17z" />
    <glyph glyph-name="tildecomb.case" horiz-adv-x="0" 
d="M-341 874q18 -9 44 -27q21 -16 36.5 -23.5t33.5 -7.5q21 0 37 15.5t19 49.5l37 -5q-4 -49 -30.5 -74.5t-65.5 -25.5q-25 0 -44 9.5t-41 26.5q-20 15 -36 23t-35 8q-55 0 -63 -62l-38 6q6 49 35.5 72.5t68.5 23.5q24 0 42 -9z" />
    <glyph glyph-name="uni0304.case" horiz-adv-x="0" 
d="M-465 829h310v-41h-310v41z" />
    <glyph glyph-name="uniE000" unicode="&#xe000;" 
d="M275 120l-99 -133l-99 133h81v590h422v-35h-386v-555h81z" />
    <glyph glyph-name="caronaccentcomb" 
d="M258 560l18 167h54l-37 -167h-35z" />
  </font>
</defs>
</svg>
