<svg xmlns="http://www.w3.org/2000/svg">
<defs>
<font id="GTAmericaMono-Regular" horiz-adv-x="620" >
  <font-face 
    font-family="GT America Mono"
    font-weight="400"
    font-stretch="normal"
    units-per-em="1000"
    panose-1="0 0 5 0 0 0 0 0 0 0"
    ascent="785"
    descent="-215"
    x-height="500"
    cap-height="710"
    bbox="-500 -241 1159 916"
    underline-thickness="50"
    underline-position="-50"
    unicode-range="U+000D-U+FB02"
  />
<missing-glyph 
d="M436 663v-47h174v-48h-174v-47h174v-48h-174v-47h174v-47h-174v-48h174v-47h-600v426h600v-47h-174zM70 676h-16l-5 15l-4 -15h-16l13 -9l-5 -15l12 9l13 -9l-5 15zM116 676l13 -9l-5 -15l12 10l13 -10l-5 15l12 9h-15l-5 15l-4 -15h-16zM203 676l13 -9l-5 -15l12 10
l13 -10l-5 15l12 9h-15l-5 15l-4 -15h-16zM290 676l13 -9l-5 -15l12 10l13 -10l-5 15l12 9h-15l-5 15l-5 -15h-15zM417 676h-15l-5 15l-5 -15h-15l12 -9l-4 -15l12 10l13 -10l-5 15zM73 632l12 -9l-4 -14l12 9l12 -9l-4 14l12 9h-15l-5 15l-5 -15h-15zM374 632h-16l-4 15
l-5 -15h-15l12 -9l-5 -14l13 9l12 -9l-5 14zM263 457h94v80h-94v94h-80v-94h-93v-80h93v-93h80v93zM70 589h-16l-5 14l-4 -14h-16l13 -9l-5 -15l12 9l13 -9l-5 15zM116 589l13 -9l-5 -15l12 9l13 -9l-5 15l12 9h-15l-5 14l-4 -14h-16zM290 589l13 -9l-5 -15l12 9l13 -9
l-5 15l12 9h-15l-5 14l-5 -14h-15zM417 589h-15l-5 14l-5 -14h-15l12 -9l-4 -15l12 9l13 -9l-5 15zM70 502h-16l-5 14l-4 -14h-16l13 -10l-5 -14l12 9l13 -9l-5 14zM417 502h-15l-5 14l-5 -14h-15l12 -10l-4 -14l12 9l13 -9l-5 14zM70 414h-16l-5 15l-4 -15h-16l13 -9
l-5 -14l12 9l13 -9l-5 14zM156 414h-15l-5 15l-4 -15h-16l13 -9l-5 -14l12 9l13 -9l-5 14zM330 414h-15l-5 15l-5 -15h-15l13 -9l-5 -14l12 9l13 -9l-5 14zM417 414h-15l-5 15l-5 -15h-15l12 -9l-4 -14l12 9l13 -9l-5 14zM101 362l12 9h-15l-5 14l-5 -14h-15l12 -9l-4 -15
l12 9l12 -9zM361 362l13 9h-16l-4 14l-5 -14h-15l12 -9l-5 -15l13 9l12 -9zM57 318l13 9h-16l-5 15l-4 -15h-16l13 -9l-5 -15l12 9l13 -9zM144 318l12 9h-15l-5 15l-4 -15h-16l13 -9l-5 -15l12 9l13 -9zM231 318l12 9h-15l-5 15l-4 -15h-16l13 -9l-5 -15l12 9l13 -9z

<glyph glyph-name="fi" unicode="fi" horiz-adv-x="1240" 
d="M329 431v-431h-85v431h-153v69h153v55q0 86 47.5 129.5t140.5 43.5q38 0 87 -10v-75q-5 1 -30 4.5t-57 3.5q-57 0 -80 -22.5t-23 -79.5v-49h190v-69h-190zM745 70h160v360h-145v70h230v-430h169v-70h-414v70zM999 600h-120v120h120v-120z" />
    <glyph glyph-name="fl" unicode="fl" horiz-adv-x="1240" 
d="M329 431v-431h-85v431h-153v69h153v55q0 86 47.5 129.5t140.5 43.5q38 0 87 -10v-75q-5 1 -30 4.5t-57 3.5q-57 0 -80 -22.5t-23 -79.5v-49h190v-69h-190zM745 70h160v585h-150v70h235v-655h169v-70h-414v70z" />
    <glyph glyph-name=".notdef" 
d="M436 663v-47h174v-48h-174v-47h174v-48h-174v-47h174v-47h-174v-48h174v-47h-600v426h600v-47h-174zM70 676h-16l-5 15l-4 -15h-16l13 -9l-5 -15l12 9l13 -9l-5 15zM116 676l13 -9l-5 -15l12 10l13 -10l-5 15l12 9h-15l-5 15l-4 -15h-16zM203 676l13 -9l-5 -15l12 10
l13 -10l-5 15l12 9h-15l-5 15l-4 -15h-16zM290 676l13 -9l-5 -15l12 10l13 -10l-5 15l12 9h-15l-5 15l-5 -15h-15zM417 676h-15l-5 15l-5 -15h-15l12 -9l-4 -15l12 10l13 -10l-5 15zM73 632l12 -9l-4 -14l12 9l12 -9l-4 14l12 9h-15l-5 15l-5 -15h-15zM374 632h-16l-4 15
l-5 -15h-15l12 -9l-5 -14l13 9l12 -9l-5 14zM263 457h94v80h-94v94h-80v-94h-93v-80h93v-93h80v93zM70 589h-16l-5 14l-4 -14h-16l13 -9l-5 -15l12 9l13 -9l-5 15zM116 589l13 -9l-5 -15l12 9l13 -9l-5 15l12 9h-15l-5 14l-4 -14h-16zM290 589l13 -9l-5 -15l12 9l13 -9
l-5 15l12 9h-15l-5 14l-5 -14h-15zM417 589h-15l-5 14l-5 -14h-15l12 -9l-4 -15l12 9l13 -9l-5 15zM70 502h-16l-5 14l-4 -14h-16l13 -10l-5 -14l12 9l13 -9l-5 14zM417 502h-15l-5 14l-5 -14h-15l12 -10l-4 -14l12 9l13 -9l-5 14zM70 414h-16l-5 15l-4 -15h-16l13 -9
l-5 -14l12 9l13 -9l-5 14zM156 414h-15l-5 15l-4 -15h-16l13 -9l-5 -14l12 9l13 -9l-5 14zM330 414h-15l-5 15l-5 -15h-15l13 -9l-5 -14l12 9l13 -9l-5 14zM417 414h-15l-5 15l-5 -15h-15l12 -9l-4 -14l12 9l13 -9l-5 14zM101 362l12 9h-15l-5 14l-5 -14h-15l12 -9l-4 -15
l12 9l12 -9zM361 362l13 9h-16l-4 14l-5 -14h-15l12 -9l-5 -15l13 9l12 -9zM57 318l13 9h-16l-5 15l-4 -15h-16l13 -9l-5 -15l12 9l13 -9zM144 318l12 9h-15l-5 15l-4 -15h-16l13 -9l-5 -15l12 9l13 -9zM231 318l12 9h-15l-5 15l-4 -15h-16l13 -9l-5 -15l12 9l13 -9z
M318 318l12 9h-15l-5 15l-5 -15h-15l13 -9l-5 -15l12 9l13 -9zM405 318l12 9h-15l-5 15l-5 -15h-15l12 -9l-4 -15l12 9l13 -9zM10 237h599v-48h-599v48zM10 142h600v-47h-600v47zM10 47h600v-47h-600v47z" />
    <glyph glyph-name=".null" horiz-adv-x="0" 
 />
    <glyph glyph-name=".null" horiz-adv-x="0" 
 />
    <glyph glyph-name="nonmarkingreturn" unicode="&#xd;" horiz-adv-x="0" 
 />
    <glyph glyph-name="space" unicode=" " 
 />
    <glyph glyph-name="A" unicode="A" 
d="M499 0l-66 205h-247l-65 -205h-92l228 710h106l228 -710h-92zM211 285h197q-67 209 -97 343h-2q-28 -123 -98 -343z" />
    <glyph glyph-name="B" unicode="B" 
d="M494.5 654q53.5 -56 53.5 -133q0 -53 -30.5 -94t-88.5 -58q65 -11 102 -56.5t37 -117.5q0 -50 -22 -94t-73.5 -72.5t-134.5 -28.5h-248v710h227q124 0 177.5 -56zM316 400q137 0 137 114q0 119 -137 119h-133v-233h133zM332 77q75 0 108 35.5t33 91.5q0 54 -32.5 87
t-98.5 33h-159v-247h149z" />
    <glyph glyph-name="C" unicode="C" 
d="M118 73.5q-64 90.5 -64 255.5v52q0 164 67.5 255t193.5 91q223 0 250 -250l-93 -15q-6 89 -46 137t-112 48q-84 0 -124 -63.5t-40 -197.5v-51q0 -135 41.5 -203.5t122.5 -68.5q73 0 112.5 48t45.5 138l92 -19q-12 -112 -76 -179.5t-181 -67.5q-125 0 -189 90.5z" />
    <glyph glyph-name="D" unicode="D" 
d="M284 710q95 0 163.5 -45t103.5 -125.5t35 -183.5q0 -102 -37.5 -183t-106 -127t-160.5 -46h-206v710h208zM393 116q47 38 72 101.5t25 138.5q0 77 -23.5 140t-70 99.5t-113.5 36.5h-114v-554h112q65 0 112 38z" />
    <glyph glyph-name="E" unicode="E" 
d="M520 630h-322v-227h305v-78h-305v-245h329v-80h-422v710h415v-80z" />
    <glyph glyph-name="F" unicode="F" 
d="M550 630h-342v-227h315v-80h-315v-323h-93v710h435v-80z" />
    <glyph glyph-name="G" unicode="G" 
d="M116.5 76.5q-62.5 93.5 -62.5 246.5v70q0 157 67.5 245.5t190.5 88.5q117 0 167.5 -65.5t62.5 -149.5l-91 -13q-7 58 -40.5 103t-101.5 45q-78 0 -118 -61t-40 -209v-39q0 -274 158 -274q59 0 93.5 32.5t48.5 76t14 81.5v42h-178v75h263v-371h-64l-14 104
q-49 -121 -177 -121q-116 0 -178.5 93.5z" />
    <glyph glyph-name="H" unicode="H" 
d="M539 0h-93v324h-272v-324h-93v710h93v-308h272v308h93v-710z" />
    <glyph glyph-name="I" unicode="I" 
d="M534 635h-178v-560h178v-75h-448v75h177v560h-177v75h448v-75z" />
    <glyph glyph-name="J" unicode="J" 
d="M459.5 47q-60.5 -64 -171.5 -64q-79 0 -132 36t-77.5 92.5t-24.5 117.5l92 31q0 -88 37.5 -142.5t108.5 -54.5q73 0 104 46t31 127v474h93v-495q0 -104 -60.5 -168z" />
    <glyph glyph-name="K" unicode="K" 
d="M469 0l-196 364l-96 -118v-246h-93v710h93v-350l268 350h109l-216 -280l239 -430h-108z" />
    <glyph glyph-name="L" unicode="L" 
d="M208 710v-630h340v-80h-433v710h93z" />
    <glyph glyph-name="M" unicode="M" 
d="M267 170l-62 278q-8 32 -18 89t-14 94h-6q2 -90 2 -190v-441h-88v710h135l80 -371l11 -63h6l11 63l80 371h135v-710h-88v441q0 100 2 190h-6q-4 -37 -14 -94t-18 -89l-62 -278h-86z" />
    <glyph glyph-name="N" unicode="N" 
d="M446 134h2q-2 24 -2 76v500h93v-710h-109l-223 511q-16 37 -32 84h-3q2 -19 2 -61v-534h-93v710h122l209 -483q25 -59 34 -93z" />
    <glyph glyph-name="O" unicode="O" 
d="M116.5 72.5q-65.5 89.5 -65.5 250.5v64q0 161 65.5 250.5t193.5 89.5t193.5 -89.5t65.5 -250.5v-64q0 -161 -65.5 -250.5t-193.5 -89.5t-193.5 89.5zM432.5 126q39.5 63 39.5 197v64q0 134 -39.5 197t-122.5 63t-122.5 -63t-39.5 -197v-64q0 -134 39.5 -197t122.5 -63
t122.5 63z" />
    <glyph glyph-name="P" unicode="P" 
d="M110 0v710h232q130 0 183 -62t53 -148q0 -53 -23.5 -100.5t-80 -78.5t-149.5 -31h-122v-290h-93zM446.5 405q33.5 39 33.5 94t-31.5 94t-111.5 39h-134v-266h124q86 0 119.5 39z" />
    <glyph glyph-name="Q" unicode="Q" 
d="M530.5 118q-38.5 -82 -113.5 -115q24 -31 49 -40t54 -9q20 0 46 7v-85q-44 -6 -63 -6q-56 0 -98 31t-63 84q-20 -2 -32 -2q-128 0 -193.5 89.5t-65.5 250.5v64q0 161 65.5 250.5t193.5 89.5t193.5 -89.5t65.5 -250.5v-64q0 -123 -38.5 -205zM472 387q0 134 -39.5 197
t-122.5 63t-122.5 -63t-39.5 -197v-64q0 -134 39.5 -197t122.5 -63t122.5 63t39.5 197v64z" />
    <glyph glyph-name="R" unicode="R" 
d="M308 297h-130v-297h-93v710h228q115 0 177.5 -54t62.5 -153q0 -72 -40 -122t-111 -69l173 -312h-103zM178 371h131q71 0 108.5 33.5t37.5 96.5q0 64 -37.5 97.5t-108.5 33.5h-131v-261z" />
    <glyph glyph-name="S" unicode="S" 
d="M133.5 45q-64.5 62 -78.5 159l90 18q13 -71 55 -116t117 -45q60 0 102.5 26t42.5 87q0 63 -30.5 89.5t-84.5 41.5l-95 25q-81 22 -128 70.5t-47 126.5q0 53 28 99t79.5 73.5t118.5 27.5q105 0 172 -48t77 -151l-89 -26q-6 78 -49.5 112.5t-107.5 34.5q-71 0 -102.5 -33.5
t-31.5 -80.5q0 -45 30.5 -75.5t78.5 -44.5l91 -24q86 -23 135.5 -67t49.5 -137q0 -53 -25.5 -99.5t-79.5 -75.5t-134 -29q-120 0 -184.5 62z" />
    <glyph glyph-name="T" unicode="T" 
d="M579 710v-80h-223v-630h-94v630h-223v80h540z" />
    <glyph glyph-name="U" unicode="U" 
d="M161 237q0 -81 39 -127.5t113 -46.5q75 0 110.5 46t35.5 128v473h93v-473q0 -116 -59.5 -185t-179.5 -69t-182.5 69.5t-62.5 184.5v473h93v-473z" />
    <glyph glyph-name="V" unicode="V" 
d="M308 82h4l13 55l157 573h99l-214 -710h-115l-213 710h97l159 -573z" />
    <glyph glyph-name="W" unicode="W" 
d="M139 710l24 -504q4 -75 4 -127h10q2 50 20 134l69 322h88l69 -322q18 -84 20 -134h10q0 52 4 127l24 504h93l-54 -710h-122l-64 305q-16 77 -19 142h-10q-3 -65 -19 -142l-64 -305h-122l-54 710h93z" />
    <glyph glyph-name="X" unicode="X" 
d="M57 710h105l118 -221q13 -25 19 -39.5t8 -31.5h4q2 17 7.5 31t18.5 38l116 223h106l-195 -343l224 -367h-111l-142 258q-15 27 -19.5 40.5t-6.5 26.5h-4q-2 -14 -7 -27.5t-21 -42.5l-139 -255h-106l223 375z" />
    <glyph glyph-name="Y" unicode="Y" 
d="M357 0h-93v283l-231 427h103l174 -350l174 350h103l-230 -427v-283z" />
    <glyph glyph-name="Z" unicode="Z" 
d="M440 630h-359v80h457v-86l-373 -544h387v-80h-484v86z" />
    <glyph glyph-name="Aacute" unicode="&#xc1;" 
d="M499 0l-66 205h-247l-65 -205h-92l228 710h106l228 -710h-92zM211 285h197q-67 209 -97 343h-2q-28 -123 -98 -343zM340 884h114l-104 -107h-80z" />
    <glyph glyph-name="Abreve" unicode="&#x102;" 
d="M499 0l-66 205h-247l-65 -205h-92l228 710h106l228 -710h-92zM211 285h197q-67 209 -97 343h-2q-28 -123 -98 -343zM252.5 845.5q22.5 -15.5 57.5 -15.5t57.5 15.5t27.5 38.5h77q-9 -56 -53.5 -85.5t-108.5 -29.5t-109 29.5t-53 85.5h78q4 -23 26.5 -38.5z" />
    <glyph glyph-name="Acircumflex" unicode="&#xc2;" 
d="M499 0l-66 205h-247l-65 -205h-92l228 710h106l228 -710h-92zM211 285h197q-67 209 -97 343h-2q-28 -123 -98 -343zM373 776l-65 69l-63 -69h-85l97 108h105l98 -108h-87z" />
    <glyph glyph-name="Adieresis" unicode="&#xc4;" 
d="M499 0l-66 205h-247l-65 -205h-92l228 710h106l228 -710h-92zM211 285h197q-67 209 -97 343h-2q-28 -123 -98 -343zM251 773h-109v111h109v-111zM478 773h-109v111h109v-111z" />
    <glyph glyph-name="AE" unicode="&#xc6;" 
d="M361 80h209v-80h-297v167h-120l-42 -167h-91l196 710h347v-80h-202v-227h185v-78h-185v-245zM171 241h102v405z" />
    <glyph glyph-name="AEacute" unicode="&#x1fc;" 
d="M361 80h209v-80h-297v167h-120l-42 -167h-91l196 710h347v-80h-202v-227h185v-78h-185v-245zM171 241h102v405zM438 884h114l-104 -107h-80z" />
    <glyph glyph-name="Agrave" unicode="&#xc0;" 
d="M499 0l-66 205h-247l-65 -205h-92l228 710h106l228 -710h-92zM211 285h197q-67 209 -97 343h-2q-28 -123 -98 -343zM270 777l-104 107h114l70 -107h-80z" />
    <glyph glyph-name="Amacron" unicode="&#x100;" 
d="M499 0l-66 205h-247l-65 -205h-92l228 710h106l228 -710h-92zM211 285h197q-67 209 -97 343h-2q-28 -123 -98 -343zM150 841h320v-68h-320v68z" />
    <glyph glyph-name="Aogonek" unicode="&#x104;" 
d="M499 0l-66 205h-247l-65 -205h-92l228 710h106l228 -710h-92zM211 285h197q-67 209 -97 343h-2q-28 -123 -98 -343zM587.5 -183.5q-29.5 -19.5 -72.5 -19.5q-38 0 -66.5 23.5t-28.5 64.5q0 72 89 115h82q-57 -20 -82 -49t-25 -56q0 -21 11 -34.5t29 -13.5q33 0 49 46
l54 -20q-10 -37 -39.5 -56.5z" />
    <glyph glyph-name="Aring" unicode="&#xc5;" 
d="M499 0l-66 205h-247l-65 -205h-92l228 710h106l228 -710h-92zM211 285h197q-67 209 -97 343h-2q-28 -123 -98 -343zM237.5 759.5q-27.5 25.5 -27.5 65.5t27.5 65.5t72.5 25.5t72.5 -25.5t27.5 -65.5t-27.5 -65.5t-72.5 -25.5t-72.5 25.5zM341.5 792q12.5 13 12.5 33
t-12.5 33t-31.5 13t-31.5 -13t-12.5 -33t12.5 -33t31.5 -13t31.5 13z" />
    <glyph glyph-name="Atilde" unicode="&#xc3;" 
d="M499 0l-66 205h-247l-65 -205h-92l228 710h106l228 -710h-92zM211 285h197q-67 209 -97 343h-2q-28 -123 -98 -343zM282 881.5q19 -7.5 42 -21.5q21 -13 34 -18.5t30 -5.5q43 0 52 45l59 -10q-8 -49 -39 -75t-80 -26q-27 0 -45 7.5t-41 21.5q-18 12 -31.5 18t-31.5 6
q-40 0 -51 -48l-60 11q10 52 43 77.5t75 25.5q25 0 44 -7.5z" />
    <glyph glyph-name="Cacute" unicode="&#x106;" 
d="M118 73.5q-64 90.5 -64 255.5v52q0 164 67.5 255t193.5 91q223 0 250 -250l-93 -15q-6 89 -46 137t-112 48q-84 0 -124 -63.5t-40 -197.5v-51q0 -135 41.5 -203.5t122.5 -68.5q73 0 112.5 48t45.5 138l92 -19q-12 -112 -76 -179.5t-181 -67.5q-125 0 -189 90.5zM340 884
h114l-104 -107h-80z" />
    <glyph glyph-name="Ccaron" unicode="&#x10c;" 
d="M118 73.5q-64 90.5 -64 255.5v52q0 164 67.5 255t193.5 91q223 0 250 -250l-93 -15q-6 89 -46 137t-112 48q-84 0 -124 -63.5t-40 -197.5v-51q0 -135 41.5 -203.5t122.5 -68.5q73 0 112.5 48t45.5 138l92 -19q-12 -112 -76 -179.5t-181 -67.5q-125 0 -189 90.5zM247 884
l65 -69l63 69h85l-97 -108h-105l-98 108h87z" />
    <glyph glyph-name="Ccedilla" unicode="&#xc7;" 
d="M426.5 111q39.5 48 45.5 138l92 -19q-11 -107 -70.5 -174t-168.5 -73l-20 -32q6 6 18.5 9t24.5 3q33 0 53.5 -19.5t20.5 -51.5q0 -40 -32 -65.5t-76 -25.5q-70 0 -98 54l57 19q13 -28 42 -28q18 0 30.5 11t12.5 30q0 20 -12 30.5t-28 10.5q-23 0 -35 -15l-39 12l31 60
q-109 11 -165 100t-56 244v52q0 164 67.5 255t193.5 91q223 0 250 -250l-93 -15q-6 89 -46 137t-112 48q-84 0 -124 -63.5t-40 -197.5v-51q0 -135 41.5 -203.5t122.5 -68.5q73 0 112.5 48z" />
    <glyph glyph-name="Ccircumflex" unicode="&#x108;" 
d="M118 73.5q-64 90.5 -64 255.5v52q0 164 67.5 255t193.5 91q223 0 250 -250l-93 -15q-6 89 -46 137t-112 48q-84 0 -124 -63.5t-40 -197.5v-51q0 -135 41.5 -203.5t122.5 -68.5q73 0 112.5 48t45.5 138l92 -19q-12 -112 -76 -179.5t-181 -67.5q-125 0 -189 90.5zM373 776
l-65 69l-63 -69h-85l97 108h105l98 -108h-87z" />
    <glyph glyph-name="Cdotaccent" unicode="&#x10a;" 
d="M118 73.5q-64 90.5 -64 255.5v52q0 164 67.5 255t193.5 91q223 0 250 -250l-93 -15q-6 89 -46 137t-112 48q-84 0 -124 -63.5t-40 -197.5v-51q0 -135 41.5 -203.5t122.5 -68.5q73 0 112.5 48t45.5 138l92 -19q-12 -112 -76 -179.5t-181 -67.5q-125 0 -189 90.5zM370 773
h-120v111h120v-111z" />
    <glyph glyph-name="Dcaron" unicode="&#x10e;" 
d="M284 710q95 0 163.5 -45t103.5 -125.5t35 -183.5q0 -102 -37.5 -183t-106 -127t-160.5 -46h-206v710h208zM393 116q47 38 72 101.5t25 138.5q0 77 -23.5 140t-70 99.5t-113.5 36.5h-114v-554h112q65 0 112 38zM247 884l65 -69l63 69h85l-97 -108h-105l-98 108h87z" />
    <glyph glyph-name="Dcroat" unicode="&#x110;" 
d="M447.5 665q68.5 -45 103.5 -125.5t35 -183.5q0 -102 -37.5 -183t-106 -127t-160.5 -46h-206v329h-76v72h76v309h208q95 0 163.5 -45zM393 116q47 38 72 101.5t25 138.5q0 77 -23.5 140t-70 99.5t-113.5 36.5h-114v-231h167v-72h-167v-251h112q65 0 112 38z" />
    <glyph glyph-name="Eacute" unicode="&#xc9;" 
d="M520 630h-322v-227h305v-78h-305v-245h329v-80h-422v710h415v-80zM340 884h114l-104 -107h-80z" />
    <glyph glyph-name="Ebreve" unicode="&#x114;" 
d="M520 630h-322v-227h305v-78h-305v-245h329v-80h-422v710h415v-80zM252.5 845.5q22.5 -15.5 57.5 -15.5t57.5 15.5t27.5 38.5h77q-9 -56 -53.5 -85.5t-108.5 -29.5t-109 29.5t-53 85.5h78q4 -23 26.5 -38.5z" />
    <glyph glyph-name="Ecaron" unicode="&#x11a;" 
d="M520 630h-322v-227h305v-78h-305v-245h329v-80h-422v710h415v-80zM247 884l65 -69l63 69h85l-97 -108h-105l-98 108h87z" />
    <glyph glyph-name="Ecircumflex" unicode="&#xca;" 
d="M520 630h-322v-227h305v-78h-305v-245h329v-80h-422v710h415v-80zM373 776l-65 69l-63 -69h-85l97 108h105l98 -108h-87z" />
    <glyph glyph-name="Edieresis" unicode="&#xcb;" 
d="M520 630h-322v-227h305v-78h-305v-245h329v-80h-422v710h415v-80zM251 773h-109v111h109v-111zM478 773h-109v111h109v-111z" />
    <glyph glyph-name="Edotaccent" unicode="&#x116;" 
d="M520 630h-322v-227h305v-78h-305v-245h329v-80h-422v710h415v-80zM370 773h-120v111h120v-111z" />
    <glyph glyph-name="Egrave" unicode="&#xc8;" 
d="M520 630h-322v-227h305v-78h-305v-245h329v-80h-422v710h415v-80zM270 777l-104 107h114l70 -107h-80z" />
    <glyph glyph-name="Emacron" unicode="&#x112;" 
d="M520 630h-322v-227h305v-78h-305v-245h329v-80h-422v710h415v-80zM150 841h320v-68h-320v68z" />
    <glyph glyph-name="Eogonek" unicode="&#x118;" 
d="M520 630h-322v-227h305v-78h-305v-245h329v-80h-422v710h415v-80zM523.5 -183.5q-29.5 -19.5 -72.5 -19.5q-38 0 -66.5 23.5t-28.5 64.5q0 72 89 115h82q-57 -20 -82 -49t-25 -56q0 -21 11 -34.5t29 -13.5q33 0 49 46l54 -20q-10 -37 -39.5 -56.5z" />
    <glyph glyph-name="Eth" unicode="&#xd0;" 
d="M447.5 665q68.5 -45 103.5 -125.5t35 -183.5q0 -102 -37.5 -183t-106 -127t-160.5 -46h-206v329h-76v72h76v309h208q95 0 163.5 -45zM393 116q47 38 72 101.5t25 138.5q0 77 -23.5 140t-70 99.5t-113.5 36.5h-114v-231h167v-72h-167v-251h112q65 0 112 38z" />
    <glyph glyph-name="Gbreve" unicode="&#x11e;" 
d="M116.5 76.5q-62.5 93.5 -62.5 246.5v70q0 157 67.5 245.5t190.5 88.5q117 0 167.5 -65.5t62.5 -149.5l-91 -13q-7 58 -40.5 103t-101.5 45q-78 0 -118 -61t-40 -209v-39q0 -274 158 -274q59 0 93.5 32.5t48.5 76t14 81.5v42h-178v75h263v-371h-64l-14 104
q-49 -121 -177 -121q-116 0 -178.5 93.5zM252.5 845.5q22.5 -15.5 57.5 -15.5t57.5 15.5t27.5 38.5h77q-9 -56 -53.5 -85.5t-108.5 -29.5t-109 29.5t-53 85.5h78q4 -23 26.5 -38.5z" />
    <glyph glyph-name="Gcircumflex" unicode="&#x11c;" 
d="M116.5 76.5q-62.5 93.5 -62.5 246.5v70q0 157 67.5 245.5t190.5 88.5q117 0 167.5 -65.5t62.5 -149.5l-91 -13q-7 58 -40.5 103t-101.5 45q-78 0 -118 -61t-40 -209v-39q0 -274 158 -274q59 0 93.5 32.5t48.5 76t14 81.5v42h-178v75h263v-371h-64l-14 104
q-49 -121 -177 -121q-116 0 -178.5 93.5zM373 776l-65 69l-63 -69h-85l97 108h105l98 -108h-87z" />
    <glyph glyph-name="uni0122" unicode="&#x122;" 
d="M116.5 76.5q-62.5 93.5 -62.5 246.5v70q0 157 67.5 245.5t190.5 88.5q117 0 167.5 -65.5t62.5 -149.5l-91 -13q-7 58 -40.5 103t-101.5 45q-78 0 -118 -61t-40 -209v-39q0 -274 158 -274q59 0 93.5 32.5t48.5 76t14 81.5v42h-178v75h263v-371h-64l-14 104
q-49 -121 -177 -121q-116 0 -178.5 93.5zM294.5 -176q8.5 13 8.5 40h-51v90h96v-80q0 -43 -15.5 -69.5t-56.5 -41.5l-20 38q30 10 38.5 23z" />
    <glyph glyph-name="Gdotaccent" unicode="&#x120;" 
d="M116.5 76.5q-62.5 93.5 -62.5 246.5v70q0 157 67.5 245.5t190.5 88.5q117 0 167.5 -65.5t62.5 -149.5l-91 -13q-7 58 -40.5 103t-101.5 45q-78 0 -118 -61t-40 -209v-39q0 -274 158 -274q59 0 93.5 32.5t48.5 76t14 81.5v42h-178v75h263v-371h-64l-14 104
q-49 -121 -177 -121q-116 0 -178.5 93.5zM370 773h-120v111h120v-111z" />
    <glyph glyph-name="Hbar" unicode="&#x126;" 
d="M599 582v-59h-60v-523h-93v324h-272v-324h-93v523h-60v59h60v128h93v-128h272v128h93v-128h60zM446 402v121h-272v-121h272z" />
    <glyph glyph-name="Hcircumflex" unicode="&#x124;" 
d="M539 0h-93v324h-272v-324h-93v710h93v-308h272v308h93v-710zM373 776l-65 69l-63 -69h-85l97 108h105l98 -108h-87z" />
    <glyph glyph-name="Iacute" unicode="&#xcd;" 
d="M534 635h-178v-560h178v-75h-448v75h177v560h-177v75h448v-75zM340 884h114l-104 -107h-80z" />
    <glyph glyph-name="Ibreve" unicode="&#x12c;" 
d="M534 635h-178v-560h178v-75h-448v75h177v560h-177v75h448v-75zM252.5 845.5q22.5 -15.5 57.5 -15.5t57.5 15.5t27.5 38.5h77q-9 -56 -53.5 -85.5t-108.5 -29.5t-109 29.5t-53 85.5h78q4 -23 26.5 -38.5z" />
    <glyph glyph-name="Icircumflex" unicode="&#xce;" 
d="M534 635h-178v-560h178v-75h-448v75h177v560h-177v75h448v-75zM373 776l-65 69l-63 -69h-85l97 108h105l98 -108h-87z" />
    <glyph glyph-name="Idieresis" unicode="&#xcf;" 
d="M534 635h-178v-560h178v-75h-448v75h177v560h-177v75h448v-75zM251 773h-109v111h109v-111zM478 773h-109v111h109v-111z" />
    <glyph glyph-name="Idotaccent" unicode="&#x130;" 
d="M534 635h-178v-560h178v-75h-448v75h177v560h-177v75h448v-75zM370 773h-120v111h120v-111z" />
    <glyph glyph-name="Igrave" unicode="&#xcc;" 
d="M534 635h-178v-560h178v-75h-448v75h177v560h-177v75h448v-75zM270 777l-104 107h114l70 -107h-80z" />
    <glyph glyph-name="IJ" unicode="&#x132;" 
d="M188 0h-93v710h93v-710zM295 74.5q18 -1.5 47 -1.5q52 0 75.5 23.5t23.5 87.5v526h93v-535q0 -80 -44.5 -131t-145.5 -51q-55 0 -91 14v76q24 -7 42 -8.5z" />
    <glyph glyph-name="uni00A40301" 
d="M459.5 47q-60.5 -64 -171.5 -64q-79 0 -132 36t-77.5 92.5t-24.5 117.5l92 31q0 -88 37.5 -142.5t108.5 -54.5q73 0 104 46t31 127v474h93v-495q0 -104 -60.5 -168zM504 884h114l-104 -107h-80z" />
    <glyph glyph-name="Imacron" unicode="&#x12a;" 
d="M534 635h-178v-560h178v-75h-448v75h177v560h-177v75h448v-75zM150 841h320v-68h-320v68z" />
    <glyph glyph-name="Iogonek" unicode="&#x12e;" 
d="M534 635h-178v-560h178v-75h-448v75h177v560h-177v75h448v-75zM530.5 -183.5q-29.5 -19.5 -72.5 -19.5q-38 0 -66.5 23.5t-28.5 64.5q0 72 89 115h82q-57 -20 -82 -49t-25 -56q0 -21 11 -34.5t29 -13.5q33 0 49 46l54 -20q-10 -37 -39.5 -56.5z" />
    <glyph glyph-name="Itilde" unicode="&#x128;" 
d="M178 775l-58 11q10 52 43.5 77.5t77.5 25.5q24 0 42 -8.5t38 -23.5q20 -13 32.5 -19.5t29.5 -6.5q49 0 59 50l57 -10q-9 -51 -40.5 -78.5t-82.5 -27.5q-25 0 -42 8t-37 24q-18 13 -30 19.5t-29 6.5q-44 0 -60 -48zM534 635h-178v-560h178v-75h-448v75h177v560h-177v75
h448v-75z" />
    <glyph glyph-name="Jcircumflex" unicode="&#x134;" 
d="M459.5 47q-60.5 -64 -171.5 -64q-79 0 -132 36t-77.5 92.5t-24.5 117.5l92 31q0 -88 37.5 -142.5t108.5 -54.5q73 0 104 46t31 127v474h93v-495q0 -104 -60.5 -168zM537 776l-65 69l-63 -69h-85l97 108h105l98 -108h-87z" />
    <glyph glyph-name="uni0136" unicode="&#x136;" 
d="M469 0l-196 364l-96 -118v-246h-93v710h93v-350l268 350h109l-216 -280l239 -430h-108zM304.5 -176q8.5 13 8.5 40h-51v90h96v-80q0 -43 -15.5 -69.5t-56.5 -41.5l-20 38q30 10 38.5 23z" />
    <glyph glyph-name="Lacute" unicode="&#x139;" 
d="M208 710v-630h340v-80h-433v710h93zM192 884h114l-104 -107h-80z" />
    <glyph glyph-name="Lcaron" unicode="&#x13d;" 
d="M208 710v-630h340v-80h-433v710h93zM277 560l16 167h85l-48 -167h-53z" />
    <glyph glyph-name="uni013B" unicode="&#x13b;" 
d="M208 710v-630h340v-80h-433v710h93zM304.5 -176q8.5 13 8.5 40h-51v90h96v-80q0 -43 -15.5 -69.5t-56.5 -41.5l-20 38q30 10 38.5 23z" />
    <glyph glyph-name="Ldot" unicode="&#x13f;" 
d="M208 710v-630h340v-80h-433v710h93zM462 372h-133v128h133v-128z" />
    <glyph glyph-name="Lslash" unicode="&#x141;" 
d="M208 80h340v-80h-433v285l-99 -61v77l99 61v348h93v-290l198 123v-77l-198 -123v-263z" />
    <glyph glyph-name="Nacute" unicode="&#x143;" 
d="M446 134h2q-2 24 -2 76v500h93v-710h-109l-223 511q-16 37 -32 84h-3q2 -19 2 -61v-534h-93v710h122l209 -483q25 -59 34 -93zM340 884h114l-104 -107h-80z" />
    <glyph glyph-name="Ncaron" unicode="&#x147;" 
d="M446 134h2q-2 24 -2 76v500h93v-710h-109l-223 511q-16 37 -32 84h-3q2 -19 2 -61v-534h-93v710h122l209 -483q25 -59 34 -93zM247 884l65 -69l63 69h85l-97 -108h-105l-98 108h87z" />
    <glyph glyph-name="uni0145" unicode="&#x145;" 
d="M446 134h2q-2 24 -2 76v500h93v-710h-109l-223 511q-16 37 -32 84h-3q2 -19 2 -61v-534h-93v710h122l209 -483q25 -59 34 -93zM304.5 -176q8.5 13 8.5 40h-51v90h96v-80q0 -43 -15.5 -69.5t-56.5 -41.5l-20 38q30 10 38.5 23z" />
    <glyph glyph-name="Ntilde" unicode="&#xd1;" 
d="M446 134h2q-2 24 -2 76v500h93v-710h-109l-223 511q-16 37 -32 84h-3q2 -19 2 -61v-534h-93v710h122l209 -483q25 -59 34 -93zM282 881.5q19 -7.5 42 -21.5q21 -13 34 -18.5t30 -5.5q43 0 52 45l59 -10q-8 -49 -39 -75t-80 -26q-27 0 -45 7.5t-41 21.5q-18 12 -31.5 18
t-31.5 6q-40 0 -51 -48l-60 11q10 52 43 77.5t75 25.5q25 0 44 -7.5z" />
    <glyph glyph-name="Eng" unicode="&#x14a;" 
d="M344 -133q43 0 71.5 23.5t28.5 82.5v27l-238 516q-17 37 -32 84h-3q2 -19 2 -61v-539h-87v710h122l205 -458q25 -59 34 -93h2q-2 24 -2 76v475h87v-724q0 -110 -53.5 -156.5t-137.5 -46.5q-58 0 -83 7v83q34 -6 84 -6z" />
    <glyph glyph-name="Oacute" unicode="&#xd3;" 
d="M116.5 72.5q-65.5 89.5 -65.5 250.5v64q0 161 65.5 250.5t193.5 89.5t193.5 -89.5t65.5 -250.5v-64q0 -161 -65.5 -250.5t-193.5 -89.5t-193.5 89.5zM432.5 126q39.5 63 39.5 197v64q0 134 -39.5 197t-122.5 63t-122.5 -63t-39.5 -197v-64q0 -134 39.5 -197t122.5 -63
t122.5 63zM340 884h114l-104 -107h-80z" />
    <glyph glyph-name="Obreve" unicode="&#x14e;" 
d="M116.5 72.5q-65.5 89.5 -65.5 250.5v64q0 161 65.5 250.5t193.5 89.5t193.5 -89.5t65.5 -250.5v-64q0 -161 -65.5 -250.5t-193.5 -89.5t-193.5 89.5zM432.5 126q39.5 63 39.5 197v64q0 134 -39.5 197t-122.5 63t-122.5 -63t-39.5 -197v-64q0 -134 39.5 -197t122.5 -63
t122.5 63zM252.5 845.5q22.5 -15.5 57.5 -15.5t57.5 15.5t27.5 38.5h77q-9 -56 -53.5 -85.5t-108.5 -29.5t-109 29.5t-53 85.5h78q4 -23 26.5 -38.5z" />
    <glyph glyph-name="Ocircumflex" unicode="&#xd4;" 
d="M116.5 72.5q-65.5 89.5 -65.5 250.5v64q0 161 65.5 250.5t193.5 89.5t193.5 -89.5t65.5 -250.5v-64q0 -161 -65.5 -250.5t-193.5 -89.5t-193.5 89.5zM432.5 126q39.5 63 39.5 197v64q0 134 -39.5 197t-122.5 63t-122.5 -63t-39.5 -197v-64q0 -134 39.5 -197t122.5 -63
t122.5 63zM373 776l-65 69l-63 -69h-85l97 108h105l98 -108h-87z" />
    <glyph glyph-name="Odieresis" unicode="&#xd6;" 
d="M116.5 72.5q-65.5 89.5 -65.5 250.5v64q0 161 65.5 250.5t193.5 89.5t193.5 -89.5t65.5 -250.5v-64q0 -161 -65.5 -250.5t-193.5 -89.5t-193.5 89.5zM432.5 126q39.5 63 39.5 197v64q0 134 -39.5 197t-122.5 63t-122.5 -63t-39.5 -197v-64q0 -134 39.5 -197t122.5 -63
t122.5 63zM251 773h-109v111h109v-111zM478 773h-109v111h109v-111z" />
    <glyph glyph-name="OE" unicode="&#x152;" 
d="M570 80v-80h-308q-105 0 -165 69q-59 70 -59 187v200q0 125 59 190q57 64 163 64h303v-80h-202v-227h185v-78h-185v-245h209zM273 78v554h-23q-61 0 -91 -44q-30 -43 -30 -132v-200q0 -87 32 -133q32 -45 91 -45h21z" />
    <glyph glyph-name="Ograve" unicode="&#xd2;" 
d="M116.5 72.5q-65.5 89.5 -65.5 250.5v64q0 161 65.5 250.5t193.5 89.5t193.5 -89.5t65.5 -250.5v-64q0 -161 -65.5 -250.5t-193.5 -89.5t-193.5 89.5zM432.5 126q39.5 63 39.5 197v64q0 134 -39.5 197t-122.5 63t-122.5 -63t-39.5 -197v-64q0 -134 39.5 -197t122.5 -63
t122.5 63zM270 777l-104 107h114l70 -107h-80z" />
    <glyph glyph-name="Ohungarumlaut" unicode="&#x150;" 
d="M116.5 72.5q-65.5 89.5 -65.5 250.5v64q0 161 65.5 250.5t193.5 89.5t193.5 -89.5t65.5 -250.5v-64q0 -161 -65.5 -250.5t-193.5 -89.5t-193.5 89.5zM432.5 126q39.5 63 39.5 197v64q0 134 -39.5 197t-122.5 63t-122.5 -63t-39.5 -197v-64q0 -134 39.5 -197t122.5 -63
t122.5 63zM252 884h91l-72 -107h-84zM414 884h91l-72 -107h-84z" />
    <glyph glyph-name="Omacron" unicode="&#x14c;" 
d="M116.5 72.5q-65.5 89.5 -65.5 250.5v64q0 161 65.5 250.5t193.5 89.5t193.5 -89.5t65.5 -250.5v-64q0 -161 -65.5 -250.5t-193.5 -89.5t-193.5 89.5zM432.5 126q39.5 63 39.5 197v64q0 134 -39.5 197t-122.5 63t-122.5 -63t-39.5 -197v-64q0 -134 39.5 -197t122.5 -63
t122.5 63zM150 841h320v-68h-320v68z" />
    <glyph glyph-name="Oslash" unicode="&#xd8;" 
d="M569 387v-64q0 -161 -65.5 -250.5t-193.5 -89.5q-104 0 -167 60l-48 -77l-52 26l61 99q-53 86 -53 232v64q0 161 65.5 250.5t193.5 89.5q95 0 157 -51l42 68l51 -28l-52 -84q61 -88 61 -245zM163 185l257 416q-39 46 -110 46q-83 0 -122.5 -63t-39.5 -197v-64
q0 -82 15 -138zM472 387q0 93 -20 155l-261 -421q40 -58 119 -58q83 0 122.5 63t39.5 197v64z" />
    <glyph glyph-name="Oslashacute" unicode="&#x1fe;" 
d="M569 387v-64q0 -161 -65.5 -250.5t-193.5 -89.5q-104 0 -167 60l-48 -77l-52 26l61 99q-53 86 -53 232v64q0 161 65.5 250.5t193.5 89.5q95 0 157 -51l42 68l51 -28l-52 -84q61 -88 61 -245zM163 185l257 416q-39 46 -110 46q-83 0 -122.5 -63t-39.5 -197v-64
q0 -82 15 -138zM472 387q0 93 -20 155l-261 -421q40 -58 119 -58q83 0 122.5 63t39.5 197v64zM340 884h114l-104 -107h-80z" />
    <glyph glyph-name="Otilde" unicode="&#xd5;" 
d="M116.5 72.5q-65.5 89.5 -65.5 250.5v64q0 161 65.5 250.5t193.5 89.5t193.5 -89.5t65.5 -250.5v-64q0 -161 -65.5 -250.5t-193.5 -89.5t-193.5 89.5zM432.5 126q39.5 63 39.5 197v64q0 134 -39.5 197t-122.5 63t-122.5 -63t-39.5 -197v-64q0 -134 39.5 -197t122.5 -63
t122.5 63zM282 881.5q19 -7.5 42 -21.5q21 -13 34 -18.5t30 -5.5q43 0 52 45l59 -10q-8 -49 -39 -75t-80 -26q-27 0 -45 7.5t-41 21.5q-18 12 -31.5 18t-31.5 6q-40 0 -51 -48l-60 11q10 52 43 77.5t75 25.5q25 0 44 -7.5z" />
    <glyph glyph-name="Racute" unicode="&#x154;" 
d="M308 297h-130v-297h-93v710h228q115 0 177.5 -54t62.5 -153q0 -72 -40 -122t-111 -69l173 -312h-103zM178 371h131q71 0 108.5 33.5t37.5 96.5q0 64 -37.5 97.5t-108.5 33.5h-131v-261zM339 884h114l-104 -107h-80z" />
    <glyph glyph-name="Rcaron" unicode="&#x158;" 
d="M308 297h-130v-297h-93v710h228q115 0 177.5 -54t62.5 -153q0 -72 -40 -122t-111 -69l173 -312h-103zM178 371h131q71 0 108.5 33.5t37.5 96.5q0 64 -37.5 97.5t-108.5 33.5h-131v-261zM246 884l65 -69l63 69h85l-97 -108h-105l-98 108h87z" />
    <glyph glyph-name="uni0156" unicode="&#x156;" 
d="M308 297h-130v-297h-93v710h228q115 0 177.5 -54t62.5 -153q0 -72 -40 -122t-111 -69l173 -312h-103zM178 371h131q71 0 108.5 33.5t37.5 96.5q0 64 -37.5 97.5t-108.5 33.5h-131v-261zM303.5 -176q8.5 13 8.5 40h-51v90h96v-80q0 -43 -15.5 -69.5t-56.5 -41.5l-20 38
q30 10 38.5 23z" />
    <glyph glyph-name="Sacute" unicode="&#x15a;" 
d="M133.5 45q-64.5 62 -78.5 159l90 18q13 -71 55 -116t117 -45q60 0 102.5 26t42.5 87q0 63 -30.5 89.5t-84.5 41.5l-95 25q-81 22 -128 70.5t-47 126.5q0 53 28 99t79.5 73.5t118.5 27.5q105 0 172 -48t77 -151l-89 -26q-6 78 -49.5 112.5t-107.5 34.5q-71 0 -102.5 -33.5
t-31.5 -80.5q0 -45 30.5 -75.5t78.5 -44.5l91 -24q86 -23 135.5 -67t49.5 -137q0 -53 -25.5 -99.5t-79.5 -75.5t-134 -29q-120 0 -184.5 62zM340 884h114l-104 -107h-80z" />
    <glyph glyph-name="Scaron" unicode="&#x160;" 
d="M133.5 45q-64.5 62 -78.5 159l90 18q13 -71 55 -116t117 -45q60 0 102.5 26t42.5 87q0 63 -30.5 89.5t-84.5 41.5l-95 25q-81 22 -128 70.5t-47 126.5q0 53 28 99t79.5 73.5t118.5 27.5q105 0 172 -48t77 -151l-89 -26q-6 78 -49.5 112.5t-107.5 34.5q-71 0 -102.5 -33.5
t-31.5 -80.5q0 -45 30.5 -75.5t78.5 -44.5l91 -24q86 -23 135.5 -67t49.5 -137q0 -53 -25.5 -99.5t-79.5 -75.5t-134 -29q-120 0 -184.5 62zM247 884l65 -69l63 69h85l-97 -108h-105l-98 108h87z" />
    <glyph glyph-name="Scedilla" unicode="&#x15e;" 
d="M535.5 95q-21.5 -44 -66.5 -73.5t-113 -36.5l-21 -34q6 6 18.5 9t24.5 3q33 0 53.5 -19.5t20.5 -51.5q0 -40 -32 -65.5t-76 -25.5q-70 0 -98 54l57 19q13 -28 42 -28q18 0 30.5 11t12.5 30q0 20 -12 30.5t-28 10.5q-23 0 -35 -15l-39 12l31 58q-114 4 -175 65.5
t-75 155.5l90 18q13 -71 55 -116t117 -45q60 0 102.5 26t42.5 87q0 63 -30.5 89.5t-84.5 41.5l-95 25q-81 22 -128 70.5t-47 126.5q0 53 28 99t79.5 73.5t118.5 27.5q105 0 172 -48t77 -151l-89 -26q-6 78 -49.5 112.5t-107.5 34.5q-71 0 -102.5 -33.5t-31.5 -80.5
q0 -45 30.5 -75.5t78.5 -44.5l91 -24q86 -23 135.5 -67t49.5 -137q0 -48 -21.5 -92z" />
    <glyph glyph-name="Scircumflex" unicode="&#x15c;" 
d="M133.5 45q-64.5 62 -78.5 159l90 18q13 -71 55 -116t117 -45q60 0 102.5 26t42.5 87q0 63 -30.5 89.5t-84.5 41.5l-95 25q-81 22 -128 70.5t-47 126.5q0 53 28 99t79.5 73.5t118.5 27.5q105 0 172 -48t77 -151l-89 -26q-6 78 -49.5 112.5t-107.5 34.5q-71 0 -102.5 -33.5
t-31.5 -80.5q0 -45 30.5 -75.5t78.5 -44.5l91 -24q86 -23 135.5 -67t49.5 -137q0 -53 -25.5 -99.5t-79.5 -75.5t-134 -29q-120 0 -184.5 62zM373 776l-65 69l-63 -69h-85l97 108h105l98 -108h-87z" />
    <glyph glyph-name="uni0218" unicode="&#x218;" 
d="M133.5 45q-64.5 62 -78.5 159l90 18q13 -71 55 -116t117 -45q60 0 102.5 26t42.5 87q0 63 -30.5 89.5t-84.5 41.5l-95 25q-81 22 -128 70.5t-47 126.5q0 53 28 99t79.5 73.5t118.5 27.5q105 0 172 -48t77 -151l-89 -26q-6 78 -49.5 112.5t-107.5 34.5q-71 0 -102.5 -33.5
t-31.5 -80.5q0 -45 30.5 -75.5t78.5 -44.5l91 -24q86 -23 135.5 -67t49.5 -137q0 -53 -25.5 -99.5t-79.5 -75.5t-134 -29q-120 0 -184.5 62zM334.5 -176q8.5 13 8.5 40h-51v90h96v-80q0 -43 -15.5 -69.5t-56.5 -41.5l-20 38q30 10 38.5 23z" />
    <glyph glyph-name="Tbar" unicode="&#x166;" 
d="M579 630h-223v-173h194v-59h-194v-398h-94v398h-193v59h193v173h-223v80h540v-80z" />
    <glyph glyph-name="Tcaron" unicode="&#x164;" 
d="M579 710v-80h-223v-630h-94v630h-223v80h540zM246 884l65 -69l63 69h85l-97 -108h-105l-98 108h87z" />
    <glyph glyph-name="uni0162" unicode="&#x162;" 
d="M335 0l-31 -49q6 6 18.5 9t24.5 3q33 0 53.5 -19.5t20.5 -51.5q0 -40 -32 -65.5t-76 -25.5q-70 0 -98 54l57 19q13 -28 42 -28q18 0 30.5 11t12.5 30q0 20 -12 30.5t-28 10.5q-23 0 -35 -15l-39 12l39 75h-20v630h-223v80h540v-80h-223v-630h-21z" />
    <glyph glyph-name="uni021A" unicode="&#x21a;" 
d="M579 710v-80h-223v-630h-94v630h-223v80h540zM303.5 -176q8.5 13 8.5 40h-51v90h96v-80q0 -43 -15.5 -69.5t-56.5 -41.5l-20 38q30 10 38.5 23z" />
    <glyph glyph-name="Thorn" unicode="&#xde;" 
d="M98 0v710h90v-122h143q114 0 167.5 -57t53.5 -138q0 -44 -21 -87.5t-70.5 -73.5t-129.5 -30h-143v-202h-90zM325 278q73 0 105 35.5t32 79.5q0 50 -33 84.5t-104 34.5h-137v-234h137z" />
    <glyph glyph-name="Uacute" unicode="&#xda;" 
d="M161 237q0 -81 39 -127.5t113 -46.5q75 0 110.5 46t35.5 128v473h93v-473q0 -116 -59.5 -185t-179.5 -69t-182.5 69.5t-62.5 184.5v473h93v-473zM340 884h114l-104 -107h-80z" />
    <glyph glyph-name="Ubreve" unicode="&#x16c;" 
d="M161 237q0 -81 39 -127.5t113 -46.5q75 0 110.5 46t35.5 128v473h93v-473q0 -116 -59.5 -185t-179.5 -69t-182.5 69.5t-62.5 184.5v473h93v-473zM252.5 845.5q22.5 -15.5 57.5 -15.5t57.5 15.5t27.5 38.5h77q-9 -56 -53.5 -85.5t-108.5 -29.5t-109 29.5t-53 85.5h78
q4 -23 26.5 -38.5z" />
    <glyph glyph-name="Ucircumflex" unicode="&#xdb;" 
d="M161 237q0 -81 39 -127.5t113 -46.5q75 0 110.5 46t35.5 128v473h93v-473q0 -116 -59.5 -185t-179.5 -69t-182.5 69.5t-62.5 184.5v473h93v-473zM373 776l-65 69l-63 -69h-85l97 108h105l98 -108h-87z" />
    <glyph glyph-name="Udieresis" unicode="&#xdc;" 
d="M161 237q0 -81 39 -127.5t113 -46.5q75 0 110.5 46t35.5 128v473h93v-473q0 -116 -59.5 -185t-179.5 -69t-182.5 69.5t-62.5 184.5v473h93v-473zM251 773h-109v111h109v-111zM478 773h-109v111h109v-111z" />
    <glyph glyph-name="Ugrave" unicode="&#xd9;" 
d="M161 237q0 -81 39 -127.5t113 -46.5q75 0 110.5 46t35.5 128v473h93v-473q0 -116 -59.5 -185t-179.5 -69t-182.5 69.5t-62.5 184.5v473h93v-473zM270 777l-104 107h114l70 -107h-80z" />
    <glyph glyph-name="Uhungarumlaut" unicode="&#x170;" 
d="M161 237q0 -81 39 -127.5t113 -46.5q75 0 110.5 46t35.5 128v473h93v-473q0 -116 -59.5 -185t-179.5 -69t-182.5 69.5t-62.5 184.5v473h93v-473zM252 884h91l-72 -107h-84zM414 884h91l-72 -107h-84z" />
    <glyph glyph-name="Umacron" unicode="&#x16a;" 
d="M161 237q0 -81 39 -127.5t113 -46.5q75 0 110.5 46t35.5 128v473h93v-473q0 -116 -59.5 -185t-179.5 -69t-182.5 69.5t-62.5 184.5v473h93v-473zM150 841h320v-68h-320v68z" />
    <glyph glyph-name="Uogonek" unicode="&#x172;" 
d="M552 710v-473q0 -93 -38 -157t-116 -86q-49 -21 -70.5 -47.5t-21.5 -51.5q0 -21 11 -34.5t29 -13.5q33 0 49 46l54 -20q-10 -37 -39.5 -56.5t-72.5 -19.5q-38 0 -66.5 23.5t-28.5 64.5q0 58 59 98q-114 4 -173.5 73t-59.5 181v473h93v-473q0 -81 39 -127.5t113 -46.5
q75 0 110.5 46t35.5 128v473h93z" />
    <glyph glyph-name="Uring" unicode="&#x16e;" 
d="M161 237q0 -81 39 -127.5t113 -46.5q75 0 110.5 46t35.5 128v473h93v-473q0 -116 -59.5 -185t-179.5 -69t-182.5 69.5t-62.5 184.5v473h93v-473zM237.5 759.5q-27.5 25.5 -27.5 65.5t27.5 65.5t72.5 25.5t72.5 -25.5t27.5 -65.5t-27.5 -65.5t-72.5 -25.5t-72.5 25.5z
M341.5 792q12.5 13 12.5 33t-12.5 33t-31.5 13t-31.5 -13t-12.5 -33t12.5 -33t31.5 -13t31.5 13z" />
    <glyph glyph-name="Utilde" unicode="&#x168;" 
d="M161 237q0 -81 39 -127.5t113 -46.5q75 0 110.5 46t35.5 128v473h93v-473q0 -116 -59.5 -185t-179.5 -69t-182.5 69.5t-62.5 184.5v473h93v-473zM282 881.5q19 -7.5 42 -21.5q21 -13 34 -18.5t30 -5.5q43 0 52 45l59 -10q-8 -49 -39 -75t-80 -26q-27 0 -45 7.5t-41 21.5
q-18 12 -31.5 18t-31.5 6q-40 0 -51 -48l-60 11q10 52 43 77.5t75 25.5q25 0 44 -7.5z" />
    <glyph glyph-name="Wacute" unicode="&#x1e82;" 
d="M139 710l24 -504q4 -75 4 -127h10q2 50 20 134l69 322h88l69 -322q18 -84 20 -134h10q0 52 4 127l24 504h93l-54 -710h-122l-64 305q-16 77 -19 142h-10q-3 -65 -19 -142l-64 -305h-122l-54 710h93zM340 884h114l-104 -107h-80z" />
    <glyph glyph-name="Wcircumflex" unicode="&#x174;" 
d="M139 710l24 -504q4 -75 4 -127h10q2 50 20 134l69 322h88l69 -322q18 -84 20 -134h10q0 52 4 127l24 504h93l-54 -710h-122l-64 305q-16 77 -19 142h-10q-3 -65 -19 -142l-64 -305h-122l-54 710h93zM373 776l-65 69l-63 -69h-85l97 108h105l98 -108h-87z" />
    <glyph glyph-name="Wdieresis" unicode="&#x1e84;" 
d="M139 710l24 -504q4 -75 4 -127h10q2 50 20 134l69 322h88l69 -322q18 -84 20 -134h10q0 52 4 127l24 504h93l-54 -710h-122l-64 305q-16 77 -19 142h-10q-3 -65 -19 -142l-64 -305h-122l-54 710h93zM251 773h-109v111h109v-111zM478 773h-109v111h109v-111z" />
    <glyph glyph-name="Wgrave" unicode="&#x1e80;" 
d="M139 710l24 -504q4 -75 4 -127h10q2 50 20 134l69 322h88l69 -322q18 -84 20 -134h10q0 52 4 127l24 504h93l-54 -710h-122l-64 305q-16 77 -19 142h-10q-3 -65 -19 -142l-64 -305h-122l-54 710h93zM270 777l-104 107h114l70 -107h-80z" />
    <glyph glyph-name="Yacute" unicode="&#xdd;" 
d="M357 0h-93v283l-231 427h103l174 -350l174 350h103l-230 -427v-283zM340 884h114l-104 -107h-80z" />
    <glyph glyph-name="Ycircumflex" unicode="&#x176;" 
d="M357 0h-93v283l-231 427h103l174 -350l174 350h103l-230 -427v-283zM373 776l-65 69l-63 -69h-85l97 108h105l98 -108h-87z" />
    <glyph glyph-name="Ydieresis" unicode="&#x178;" 
d="M357 0h-93v283l-231 427h103l174 -350l174 350h103l-230 -427v-283zM251 773h-109v111h109v-111zM478 773h-109v111h109v-111z" />
    <glyph glyph-name="Ygrave" unicode="&#x1ef2;" 
d="M357 0h-93v283l-231 427h103l174 -350l174 350h103l-230 -427v-283zM270 777l-104 107h114l70 -107h-80z" />
    <glyph glyph-name="Zacute" unicode="&#x179;" 
d="M440 630h-359v80h457v-86l-373 -544h387v-80h-484v86zM340 884h114l-104 -107h-80z" />
    <glyph glyph-name="Zcaron" unicode="&#x17d;" 
d="M440 630h-359v80h457v-86l-373 -544h387v-80h-484v86zM247 884l65 -69l63 69h85l-97 -108h-105l-98 108h87z" />
    <glyph glyph-name="Zdotaccent" unicode="&#x17b;" 
d="M440 630h-359v80h457v-86l-373 -544h387v-80h-484v86zM370 773h-120v111h120v-111z" />
    <glyph glyph-name="a" unicode="a" 
d="M516 0h-89q-6 45 -8 91q-25 -53 -66.5 -78t-102.5 -25q-74 0 -121 41t-47 106q0 78 70 118q48 26 170 41l91 11v9q0 67 -25.5 97.5t-81.5 30.5q-53 0 -83.5 -26t-33.5 -73h-91q7 80 63 124.5t151 44.5q97 0 142 -50t45 -158v-135q0 -117 17 -169zM201 197.5
q-29 -20.5 -29 -57.5q0 -38 25 -60t69 -22q68 0 108 43.5t40 116.5v25l-119 -16q-65 -9 -94 -29.5z" />
    <glyph glyph-name="b" unicode="b" 
d="M259.5 484.5q41.5 27.5 91.5 27.5q63 0 109.5 -33.5t71.5 -92.5t25 -135q0 -78 -25.5 -137.5t-72.5 -92.5t-111 -33q-51 0 -93.5 26.5t-62.5 71.5l-15 -86h-65v725h85v-312q21 44 62.5 71.5zM230.5 110q35.5 -47 97.5 -47q65 0 102 51t37 137q0 85 -36 135.5t-101 50.5
q-63 0 -99 -47t-36 -128v-26q0 -79 35.5 -126z" />
    <glyph glyph-name="c" unicode="c" 
d="M184.5 22.5q-51.5 34.5 -78 94.5t-26.5 136q0 117 59.5 188t173.5 71q85 0 139.5 -47t63.5 -132l-87 -10q-7 56 -38 85.5t-84 29.5q-67 0 -103 -49.5t-36 -134.5q0 -88 36.5 -139.5t105.5 -51.5q105 0 124 120l81 -13q-13 -81 -64.5 -131.5t-140.5 -50.5
q-74 0 -125.5 34.5z" />
    <glyph glyph-name="d" unicode="d" 
d="M503 0h-80v93q-24 -51 -62 -78t-97 -27q-62 0 -108.5 32.5t-72 92t-25.5 138.5q0 78 27 137t77 91.5t115 32.5q49 0 85 -23.5t56 -62.5v299h85v-725zM383.5 389.5q-36.5 47.5 -98.5 47.5q-65 0 -101 -49t-36 -137q0 -87 36 -137.5t98 -50.5q64 0 101 47.5t37 128.5v23
q0 80 -36.5 127.5z" />
    <glyph glyph-name="e" unicode="e" 
d="M518 228h-351q0 -72 39.5 -118.5t107.5 -46.5q86 0 132 89l72 -38q-64 -126 -204 -126q-115 0 -174.5 73t-59.5 199q0 76 28 133t79.5 88t120.5 31q109 0 160.5 -68t51.5 -178q0 -12 -2 -38zM401 404q-33 42 -97 42q-43 0 -74 -21t-47 -55t-16 -72h265q2 64 -31 106z" />
    <glyph glyph-name="f" unicode="f" 
d="M329 431v-431h-85v431h-153v69h153v55q0 86 47.5 129.5t140.5 43.5q38 0 87 -10v-75q-5 1 -30 4.5t-57 3.5q-57 0 -80 -22.5t-23 -79.5v-49h190v-69h-190z" />
    <glyph glyph-name="g" unicode="g" 
d="M477.5 496.5q-17.5 -11.5 -28.5 -36.5q45 -45 45 -116q0 -76 -52 -123.5t-136 -47.5q-53 0 -93 20q-35 -17 -35 -50q0 -24 20.5 -37t62.5 -13h129q78 0 120.5 -36t42.5 -100q0 -78 -65 -121t-182 -43q-106 0 -166.5 34t-60.5 93q0 40 23.5 69t63.5 43q-63 26 -63 89
q0 34 18.5 59t53.5 38q-50 45 -50 121q0 51 23.5 90t65.5 61t97 22q54 0 96 -22q14 45 44.5 68.5t76.5 23.5q20 0 32 -4v-74q-30 4 -37 4q-28 0 -45.5 -11.5zM383.5 268q30.5 30 30.5 76q0 45 -29 74t-75 29t-75.5 -29.5t-29.5 -76.5q0 -46 28.5 -74.5t73.5 -28.5
q46 0 76.5 30zM258 18q-16 0 -42 2q-25 -11 -39 -31t-14 -45q0 -81 152 -81q79 0 116 21.5t37 63.5q0 34 -24.5 52t-72.5 18h-113z" />
    <glyph glyph-name="h" unicode="h" 
d="M248.5 483.5q43.5 28.5 96.5 28.5q33 0 66 -10.5t57 -33.5q25 -24 37 -62t12 -97v-309h-85v304q0 133 -108 133q-73 0 -104.5 -54t-31.5 -122v-261h-85v725h85v-316q17 46 60.5 74.5z" />
    <glyph glyph-name="i" unicode="i" 
d="M125 70h160v360h-145v70h230v-430h169v-70h-414v70zM379 600h-120v120h120v-120z" />
    <glyph glyph-name="j" unicode="j" 
d="M110 -184v74q47 -10 67.5 -12t47.5 -2q61 0 87 27.5t26 99.5v427h-190v70h275v-502q0 -200 -187 -200q-69 0 -126 18zM431 600h-120v120h120v-120z" />
    <glyph glyph-name="k" unicode="k" 
d="M444 0l-151 245l-91 -92v-153h-85v725h85v-471l224 246h111l-183 -193l195 -307h-105z" />
    <glyph glyph-name="l" unicode="l" 
d="M125 70h160v585h-150v70h235v-655h169v-70h-414v70z" />
    <glyph glyph-name="m" unicode="m" 
d="M168.5 488q28.5 24 65.5 24t64 -24t40 -67q18 43 49.5 67t68.5 24q51 0 84.5 -37t33.5 -112v-363h-85v356q0 44 -17 62.5t-42 18.5q-80 0 -80 -106v-331h-83v356q0 43 -16.5 62t-42.5 19q-41 0 -59.5 -28.5t-18.5 -77.5v-331h-85v500h80v-77q15 41 43.5 65z" />
    <glyph glyph-name="n" unicode="n" 
d="M246 481.5q42 30.5 102 30.5q75 0 121 -43q25 -23 36.5 -61.5t11.5 -98.5v-309h-85v304q0 133 -104 133q-76 0 -108 -54t-32 -122v-261h-85v500h80v-99q21 50 63 80.5z" />
    <glyph glyph-name="o" unicode="o" 
d="M188 20.5q-53 32.5 -82 92t-29 137.5q0 79 29 138t82 91.5t122 32.5t122 -32.5t82 -91.5t29 -138t-29 -138t-82 -91.5t-122 -32.5t-122 32.5zM415 111.5q38 49.5 38 138.5q0 88 -38 138t-105 50t-105 -49.5t-38 -138.5t38 -138.5t105 -49.5t105 49.5z" />
    <glyph glyph-name="p" unicode="p" 
d="M255.5 481.5q42.5 30.5 93.5 30.5q64 0 111 -33t72 -92.5t25 -135.5q0 -78 -25.5 -137.5t-74 -92.5t-113.5 -33q-47 0 -88.5 25.5t-58.5 65.5v-274h-85v695h80v-93q21 44 63.5 74.5zM231 111q36 -48 99 -48q65 0 101 51t36 137q0 85 -34.5 135.5t-99.5 50.5
q-63 0 -100.5 -47t-37.5 -127v-24q0 -80 36 -128z" />
    <glyph glyph-name="q" unicode="q" 
d="M508 -195h-85v281q-21 -44 -62.5 -71t-93.5 -27q-62 0 -108 33t-71 92.5t-25 137.5q0 76 26.5 135t75.5 92.5t114 33.5q46 0 86 -25t59 -61l17 74h67v-695zM386.5 390q-38.5 47 -101.5 47q-62 0 -97 -50.5t-35 -135.5t35.5 -136.5t93.5 -51.5q67 0 105 47t38 126v28
q0 79 -38.5 126z" />
    <glyph glyph-name="r" unicode="r" 
d="M310 472q59 40 134 40q55 0 90 -10v-79q-40 10 -93 10q-61 0 -110 -28.5t-77.5 -84t-28.5 -134.5v-186h-85v500h84v-130q27 62 86 102z" />
    <glyph glyph-name="s" unicode="s" 
d="M175.5 28q-56.5 40 -69.5 114l86 15q9 -47 43 -73t89 -26q49 0 76.5 21.5t27.5 54.5q0 31 -18 47.5t-54 22.5l-98 18q-64 12 -98.5 47.5t-34.5 92.5q0 66 51.5 108t138.5 42q84 0 137.5 -36t60.5 -99l-84 -19q-9 39 -39 62t-79 23q-48 0 -75.5 -20t-27.5 -57
q0 -30 19.5 -47t57.5 -24l97 -18q67 -13 98.5 -46.5t31.5 -89.5q0 -69 -50.5 -111t-140.5 -42q-89 0 -145.5 40z" />
    <glyph glyph-name="t" unicode="t" 
d="M231 500v131l85 36v-167h195v-69h-195v-259q0 -99 96 -99q53 0 99 9v-78q-28 -7 -48.5 -10t-49.5 -3q-90 0 -136 46t-46 123v271h-143v69h143z" />
    <glyph glyph-name="u" unicode="u" 
d="M369 21q-42 -33 -94 -33q-81 0 -128 44q-24 23 -35 61t-11 98v309h87v-306q0 -133 104 -133q71 0 100.5 54t29.5 124v261h85v-500h-80v95q-16 -41 -58 -74z" />
    <glyph glyph-name="v" unicode="v" 
d="M152 500l131 -342q17 -41 25 -71h4q9 40 22 71l135 342h87l-201 -500h-92l-200 500h89z" />
    <glyph glyph-name="w" unicode="w" 
d="M168 157l10 -71h7l16 84l65 330h87l65 -330l16 -84h7l10 71l51 343h89l-97 -500h-107l-65 323q-7 33 -9 82h-7q-2 -49 -9 -82l-65 -323h-107l-97 500h89z" />
    <glyph glyph-name="x" unicode="x" 
d="M178 0h-101l181 258l-168 242h100l121 -187l114 187h104l-165 -248l178 -252h-101l-132 199z" />
    <glyph glyph-name="y" unicode="y" 
d="M457 500h91l-200 -532q-33 -92 -79 -131t-111 -39q-25 0 -46 4v75q26 -2 36 -2q45 0 71 22t44 72l13 37l-195 494h96l141 -401z" />
    <glyph glyph-name="z" unicode="z" 
d="M395 428h-283v72h385v-63l-290 -364h305v-73h-410v65z" />
    <glyph glyph-name="aacute" unicode="&#xe1;" 
d="M516 0h-89q-6 45 -8 91q-25 -53 -66.5 -78t-102.5 -25q-74 0 -121 41t-47 106q0 78 70 118q48 26 170 41l91 11v9q0 67 -25.5 97.5t-81.5 30.5q-53 0 -83.5 -26t-33.5 -73h-91q7 80 63 124.5t151 44.5q97 0 142 -50t45 -158v-135q0 -117 17 -169zM201 197.5
q-29 -20.5 -29 -57.5q0 -38 25 -60t69 -22q68 0 108 43.5t40 116.5v25l-119 -16q-65 -9 -94 -29.5zM358 720h106l-117 -143h-75z" />
    <glyph glyph-name="abreve" unicode="&#x103;" 
d="M516 0h-89q-6 45 -8 91q-25 -53 -66.5 -78t-102.5 -25q-74 0 -121 41t-47 106q0 78 70 118q48 26 170 41l91 11v9q0 67 -25.5 97.5t-81.5 30.5q-53 0 -83.5 -26t-33.5 -73h-91q7 80 63 124.5t151 44.5q97 0 142 -50t45 -158v-135q0 -117 17 -169zM201 197.5
q-29 -20.5 -29 -57.5q0 -38 25 -60t69 -22q68 0 108 43.5t40 116.5v25l-119 -16q-65 -9 -94 -29.5zM254.5 657.5q22.5 -24.5 55.5 -24.5t55.5 24.5t24.5 62.5h72q-4 -74 -47 -111t-105 -37t-105 37t-47 111h72q2 -38 24.5 -62.5z" />
    <glyph glyph-name="acircumflex" unicode="&#xe2;" 
d="M516 0h-89q-6 45 -8 91q-25 -53 -66.5 -78t-102.5 -25q-74 0 -121 41t-47 106q0 78 70 118q48 26 170 41l91 11v9q0 67 -25.5 97.5t-81.5 30.5q-53 0 -83.5 -26t-33.5 -73h-91q7 80 63 124.5t151 44.5q97 0 142 -50t45 -158v-135q0 -117 17 -169zM201 197.5
q-29 -20.5 -29 -57.5q0 -38 25 -60t69 -22q68 0 108 43.5t40 116.5v25l-119 -16q-65 -9 -94 -29.5zM376 577l-66 93l-66 -93h-84l103 143h94l103 -143h-84z" />
    <glyph glyph-name="adieresis" unicode="&#xe4;" 
d="M516 0h-89q-6 45 -8 91q-25 -53 -66.5 -78t-102.5 -25q-74 0 -121 41t-47 106q0 78 70 118q48 26 170 41l91 11v9q0 67 -25.5 97.5t-81.5 30.5q-53 0 -83.5 -26t-33.5 -73h-91q7 80 63 124.5t151 44.5q97 0 142 -50t45 -158v-135q0 -117 17 -169zM201 197.5
q-29 -20.5 -29 -57.5q0 -38 25 -60t69 -22q68 0 108 43.5t40 116.5v25l-119 -16q-65 -9 -94 -29.5zM269 600h-119v120h119v-120zM470 600h-119v120h119v-120z" />
    <glyph glyph-name="ae" unicode="&#xe6;" 
d="M595 163v-3q0 -77 -44.5 -124.5t-120.5 -47.5q-43 0 -78 18.5t-56 51.5q-19 -31 -53.5 -50t-76.5 -19q-62 0 -101.5 37t-39.5 102q0 67 34.5 102.5t113.5 49.5l95 17v57q0 46 -18 69.5t-57 23.5q-35 0 -55.5 -23.5t-20.5 -68.5v-21h-84v3q0 88 45 131.5t115 43.5
q83 0 121 -47q42 47 117 47t118.5 -49.5t43.5 -140.5v-83h-242v-73q0 -52 21.5 -79t58.5 -27t59.5 28t22.5 75v16zM371.5 414.5q-20.5 -27.5 -20.5 -84.5v-34h157v35q0 111 -78 111q-38 0 -58.5 -27.5zM269 242l-66 -13q-47 -9 -70 -28.5t-23 -62.5q0 -42 20 -63.5t53 -21.5
q34 0 60 27t26 70v92z" />
    <glyph glyph-name="aeacute" unicode="&#x1fd;" 
d="M595 163v-3q0 -77 -44.5 -124.5t-120.5 -47.5q-43 0 -78 18.5t-56 51.5q-19 -31 -53.5 -50t-76.5 -19q-62 0 -101.5 37t-39.5 102q0 67 34.5 102.5t113.5 49.5l95 17v57q0 46 -18 69.5t-57 23.5q-35 0 -55.5 -23.5t-20.5 -68.5v-21h-84v3q0 88 45 131.5t115 43.5
q83 0 121 -47q42 47 117 47t118.5 -49.5t43.5 -140.5v-83h-242v-73q0 -52 21.5 -79t58.5 -27t59.5 28t22.5 75v16zM371.5 414.5q-20.5 -27.5 -20.5 -84.5v-34h157v35q0 111 -78 111q-38 0 -58.5 -27.5zM269 242l-66 -13q-47 -9 -70 -28.5t-23 -62.5q0 -42 20 -63.5t53 -21.5
q34 0 60 27t26 70v92zM358 720h106l-117 -143h-75z" />
    <glyph glyph-name="agrave" unicode="&#xe0;" 
d="M516 0h-89q-6 45 -8 91q-25 -53 -66.5 -78t-102.5 -25q-74 0 -121 41t-47 106q0 78 70 118q48 26 170 41l91 11v9q0 67 -25.5 97.5t-81.5 30.5q-53 0 -83.5 -26t-33.5 -73h-91q7 80 63 124.5t151 44.5q97 0 142 -50t45 -158v-135q0 -117 17 -169zM201 197.5
q-29 -20.5 -29 -57.5q0 -38 25 -60t69 -22q68 0 108 43.5t40 116.5v25l-119 -16q-65 -9 -94 -29.5zM272 577l-117 143h106l86 -143h-75z" />
    <glyph glyph-name="amacron" unicode="&#x101;" 
d="M516 0h-89q-6 45 -8 91q-25 -53 -66.5 -78t-102.5 -25q-74 0 -121 41t-47 106q0 78 70 118q48 26 170 41l91 11v9q0 67 -25.5 97.5t-81.5 30.5q-53 0 -83.5 -26t-33.5 -73h-91q7 80 63 124.5t151 44.5q97 0 142 -50t45 -158v-135q0 -117 17 -169zM201 197.5
q-29 -20.5 -29 -57.5q0 -38 25 -60t69 -22q68 0 108 43.5t40 116.5v25l-119 -16q-65 -9 -94 -29.5zM166 668h288v-68h-288v68z" />
    <glyph glyph-name="aogonek" unicode="&#x105;" 
d="M552 -127q-10 -37 -39.5 -56.5t-72.5 -19.5q-38 0 -66.5 23.5t-28.5 64.5q0 72 89 115h-7q-6 45 -8 91q-25 -53 -66.5 -78t-102.5 -25q-74 0 -121 41t-47 106q0 78 70 118q48 26 170 41l91 11v9q0 67 -25.5 97.5t-81.5 30.5q-53 0 -83.5 -26t-33.5 -73h-91q7 80 63 124.5
t151 44.5q97 0 142 -50t45 -158v-135q0 -117 17 -169q-57 -20 -82 -49t-25 -56q0 -21 11 -34.5t29 -13.5q33 0 49 46zM414 243l-119 -16q-65 -9 -94 -29.5t-29 -57.5q0 -38 25 -60t69 -22q68 0 108 43.5t40 116.5v25z" />
    <glyph glyph-name="aring" unicode="&#xe5;" 
d="M516 0h-89q-6 45 -8 91q-25 -53 -66.5 -78t-102.5 -25q-74 0 -121 41t-47 106q0 78 70 118q48 26 170 41l91 11v9q0 67 -25.5 97.5t-81.5 30.5q-53 0 -83.5 -26t-33.5 -73h-91q7 80 63 124.5t151 44.5q97 0 142 -50t45 -158v-135q0 -117 17 -169zM201 197.5
q-29 -20.5 -29 -57.5q0 -38 25 -60t69 -22q68 0 108 43.5t40 116.5v25l-119 -16q-65 -9 -94 -29.5zM232.5 580q-29.5 29 -29.5 73t29.5 73t77.5 29t77.5 -29t29.5 -73t-29.5 -73t-77.5 -29t-77.5 29zM346.5 614.5q13.5 15.5 13.5 38.5t-13.5 38.5t-36.5 15.5t-36.5 -15.5
t-13.5 -38.5t13.5 -38.5t36.5 -15.5t36.5 15.5z" />
    <glyph glyph-name="atilde" unicode="&#xe3;" 
d="M516 0h-89q-6 45 -8 91q-25 -53 -66.5 -78t-102.5 -25q-74 0 -121 41t-47 106q0 78 70 118q48 26 170 41l91 11v9q0 67 -25.5 97.5t-81.5 30.5q-53 0 -83.5 -26t-33.5 -73h-91q7 80 63 124.5t151 44.5q97 0 142 -50t45 -158v-135q0 -117 17 -169zM201 197.5
q-29 -20.5 -29 -57.5q0 -38 25 -60t69 -22q68 0 108 43.5t40 116.5v25l-119 -16q-65 -9 -94 -29.5zM285.5 716q18.5 -9 43.5 -28q18 -14 30 -20.5t26 -6.5q16 0 29.5 14t19.5 42l59 -10q-15 -61 -45.5 -88.5t-69.5 -27.5q-25 0 -42 9t-38 26q-17 14 -30.5 21.5t-30.5 7.5
q-20 0 -33.5 -15t-18.5 -39l-60 11q11 58 43.5 85.5t70.5 27.5q28 0 46.5 -9z" />
    <glyph glyph-name="cacute" unicode="&#x107;" 
d="M184.5 22.5q-51.5 34.5 -78 94.5t-26.5 136q0 117 59.5 188t173.5 71q85 0 139.5 -47t63.5 -132l-87 -10q-7 56 -38 85.5t-84 29.5q-67 0 -103 -49.5t-36 -134.5q0 -88 36.5 -139.5t105.5 -51.5q105 0 124 120l81 -13q-13 -81 -64.5 -131.5t-140.5 -50.5
q-74 0 -125.5 34.5zM358 720h106l-117 -143h-75z" />
    <glyph glyph-name="ccaron" unicode="&#x10d;" 
d="M184.5 22.5q-51.5 34.5 -78 94.5t-26.5 136q0 117 59.5 188t173.5 71q85 0 139.5 -47t63.5 -132l-87 -10q-7 56 -38 85.5t-84 29.5q-67 0 -103 -49.5t-36 -134.5q0 -88 36.5 -139.5t105.5 -51.5q105 0 124 120l81 -13q-13 -81 -64.5 -131.5t-140.5 -50.5
q-74 0 -125.5 34.5zM310 627l66 93h84l-103 -143h-94l-103 143h84z" />
    <glyph glyph-name="ccedilla" unicode="&#xe7;" 
d="M434 183l81 -13q-12 -77 -59 -126.5t-127 -54.5l-24 -38q6 6 18.5 9t24.5 3q33 0 53.5 -19.5t20.5 -51.5q0 -40 -32 -65.5t-76 -25.5q-70 0 -98 54l57 19q13 -28 42 -28q18 0 30.5 11t12.5 30q0 20 -12 30.5t-28 10.5q-23 0 -35 -15l-39 12l34 65q-95 11 -146.5 83
t-51.5 180q0 117 59.5 188t173.5 71q85 0 139.5 -47t63.5 -132l-87 -10q-7 56 -38 85.5t-84 29.5q-67 0 -103 -49.5t-36 -134.5q0 -88 36.5 -139.5t105.5 -51.5q105 0 124 120z" />
    <glyph glyph-name="ccircumflex" unicode="&#x109;" 
d="M184.5 22.5q-51.5 34.5 -78 94.5t-26.5 136q0 117 59.5 188t173.5 71q85 0 139.5 -47t63.5 -132l-87 -10q-7 56 -38 85.5t-84 29.5q-67 0 -103 -49.5t-36 -134.5q0 -88 36.5 -139.5t105.5 -51.5q105 0 124 120l81 -13q-13 -81 -64.5 -131.5t-140.5 -50.5
q-74 0 -125.5 34.5zM376 577l-66 93l-66 -93h-84l103 143h94l103 -143h-84z" />
    <glyph glyph-name="cdotaccent" unicode="&#x10b;" 
d="M184.5 22.5q-51.5 34.5 -78 94.5t-26.5 136q0 117 59.5 188t173.5 71q85 0 139.5 -47t63.5 -132l-87 -10q-7 56 -38 85.5t-84 29.5q-67 0 -103 -49.5t-36 -134.5q0 -88 36.5 -139.5t105.5 -51.5q105 0 124 120l81 -13q-13 -81 -64.5 -131.5t-140.5 -50.5
q-74 0 -125.5 34.5zM370 600h-120v120h120v-120z" />
    <glyph glyph-name="dcaron" unicode="&#x10f;" 
d="M119.5 22.5q-43.5 32.5 -67 92t-23.5 138.5q0 78 25.5 137t71.5 91.5t107 32.5q47 0 82 -23.5t54 -62.5v299h85v-725h-80v93q-23 -51 -60 -78t-94 -27t-100.5 32.5zM554 560l16 167h85l-48 -167h-53zM335 112.5q36 47.5 36 128.5v23q0 80 -35 127.5t-95 47.5
q-58 0 -90 -49t-32 -137q0 -87 32 -137.5t87 -50.5q61 0 97 47.5z" />
    <glyph glyph-name="dcroat" unicode="&#x111;" 
d="M568 579h-65v-579h-80v93q-24 -51 -62 -78t-97 -27q-62 0 -108.5 32.5t-72 92t-25.5 138.5q0 78 27 137t77 91.5t115 32.5q49 0 85 -23.5t56 -62.5v153h-263v51h263v95h85v-95h65v-51zM420 262q0 80 -36.5 127.5t-98.5 47.5q-65 0 -101 -49t-36 -137q0 -87 36 -137.5
t98 -50.5q64 0 101 47.5t37 128.5v23z" />
    <glyph glyph-name="eacute" unicode="&#xe9;" 
d="M518 228h-351q0 -72 39.5 -118.5t107.5 -46.5q86 0 132 89l72 -38q-64 -126 -204 -126q-115 0 -174.5 73t-59.5 199q0 76 28 133t79.5 88t120.5 31q109 0 160.5 -68t51.5 -178q0 -12 -2 -38zM401 404q-33 42 -97 42q-43 0 -74 -21t-47 -55t-16 -72h265q2 64 -31 106z
M358 720h106l-117 -143h-75z" />
    <glyph glyph-name="ebreve" unicode="&#x115;" 
d="M518 228h-351q0 -72 39.5 -118.5t107.5 -46.5q86 0 132 89l72 -38q-64 -126 -204 -126q-115 0 -174.5 73t-59.5 199q0 76 28 133t79.5 88t120.5 31q109 0 160.5 -68t51.5 -178q0 -12 -2 -38zM401 404q-33 42 -97 42q-43 0 -74 -21t-47 -55t-16 -72h265q2 64 -31 106z
M254.5 657.5q22.5 -24.5 55.5 -24.5t55.5 24.5t24.5 62.5h72q-4 -74 -47 -111t-105 -37t-105 37t-47 111h72q2 -38 24.5 -62.5z" />
    <glyph glyph-name="ecaron" unicode="&#x11b;" 
d="M518 228h-351q0 -72 39.5 -118.5t107.5 -46.5q86 0 132 89l72 -38q-64 -126 -204 -126q-115 0 -174.5 73t-59.5 199q0 76 28 133t79.5 88t120.5 31q109 0 160.5 -68t51.5 -178q0 -12 -2 -38zM401 404q-33 42 -97 42q-43 0 -74 -21t-47 -55t-16 -72h265q2 64 -31 106z
M310 627l66 93h84l-103 -143h-94l-103 143h84z" />
    <glyph glyph-name="ecircumflex" unicode="&#xea;" 
d="M518 228h-351q0 -72 39.5 -118.5t107.5 -46.5q86 0 132 89l72 -38q-64 -126 -204 -126q-115 0 -174.5 73t-59.5 199q0 76 28 133t79.5 88t120.5 31q109 0 160.5 -68t51.5 -178q0 -12 -2 -38zM401 404q-33 42 -97 42q-43 0 -74 -21t-47 -55t-16 -72h265q2 64 -31 106z
M376 577l-66 93l-66 -93h-84l103 143h94l103 -143h-84z" />
    <glyph glyph-name="edieresis" unicode="&#xeb;" 
d="M518 228h-351q0 -72 39.5 -118.5t107.5 -46.5q86 0 132 89l72 -38q-64 -126 -204 -126q-115 0 -174.5 73t-59.5 199q0 76 28 133t79.5 88t120.5 31q109 0 160.5 -68t51.5 -178q0 -12 -2 -38zM401 404q-33 42 -97 42q-43 0 -74 -21t-47 -55t-16 -72h265q2 64 -31 106z
M269 600h-119v120h119v-120zM470 600h-119v120h119v-120z" />
    <glyph glyph-name="edotaccent" unicode="&#x117;" 
d="M518 228h-351q0 -72 39.5 -118.5t107.5 -46.5q86 0 132 89l72 -38q-64 -126 -204 -126q-115 0 -174.5 73t-59.5 199q0 76 28 133t79.5 88t120.5 31q109 0 160.5 -68t51.5 -178q0 -12 -2 -38zM401 404q-33 42 -97 42q-43 0 -74 -21t-47 -55t-16 -72h265q2 64 -31 106z
M370 600h-120v120h120v-120z" />
    <glyph glyph-name="egrave" unicode="&#xe8;" 
d="M518 228h-351q0 -72 39.5 -118.5t107.5 -46.5q86 0 132 89l72 -38q-64 -126 -204 -126q-115 0 -174.5 73t-59.5 199q0 76 28 133t79.5 88t120.5 31q109 0 160.5 -68t51.5 -178q0 -12 -2 -38zM401 404q-33 42 -97 42q-43 0 -74 -21t-47 -55t-16 -72h265q2 64 -31 106z
M272 577l-117 143h106l86 -143h-75z" />
    <glyph glyph-name="emacron" unicode="&#x113;" 
d="M518 228h-351q0 -72 39.5 -118.5t107.5 -46.5q86 0 132 89l72 -38q-64 -126 -204 -126q-115 0 -174.5 73t-59.5 199q0 76 28 133t79.5 88t120.5 31q109 0 160.5 -68t51.5 -178q0 -12 -2 -38zM401 404q-33 42 -97 42q-43 0 -74 -21t-47 -55t-16 -72h265q2 64 -31 106z
M166 668h288v-68h-288v68z" />
    <glyph glyph-name="eogonek" unicode="&#x119;" 
d="M518 228h-351q0 -72 39.5 -118.5t107.5 -46.5q86 0 132 89l72 -38q-45 -91 -132 -116q-53 -20 -77 -48.5t-24 -54.5q0 -21 11 -34.5t29 -13.5q33 0 49 46l54 -20q-10 -37 -39.5 -56.5t-72.5 -19.5q-38 0 -66.5 23.5t-28.5 64.5q0 63 68 104q-103 8 -156 80t-53 191
q0 76 28 133t79.5 88t120.5 31q109 0 160.5 -68t51.5 -178q0 -12 -2 -38zM401 404q-33 42 -97 42q-43 0 -74 -21t-47 -55t-16 -72h265q2 64 -31 106z" />
    <glyph glyph-name="gbreve" unicode="&#x11f;" 
d="M477.5 496.5q-17.5 -11.5 -28.5 -36.5q45 -45 45 -116q0 -76 -52 -123.5t-136 -47.5q-53 0 -93 20q-35 -17 -35 -50q0 -24 20.5 -37t62.5 -13h129q78 0 120.5 -36t42.5 -100q0 -78 -65 -121t-182 -43q-106 0 -166.5 34t-60.5 93q0 40 23.5 69t63.5 43q-63 26 -63 89
q0 34 18.5 59t53.5 38q-50 45 -50 121q0 51 23.5 90t65.5 61t97 22q54 0 96 -22q14 45 44.5 68.5t76.5 23.5q20 0 32 -4v-74q-30 4 -37 4q-28 0 -45.5 -11.5zM383.5 268q30.5 30 30.5 76q0 45 -29 74t-75 29t-75.5 -29.5t-29.5 -76.5q0 -46 28.5 -74.5t73.5 -28.5
q46 0 76.5 30zM258 18q-16 0 -42 2q-25 -11 -39 -31t-14 -45q0 -81 152 -81q79 0 116 21.5t37 63.5q0 34 -24.5 52t-72.5 18h-113zM254.5 657.5q22.5 -24.5 55.5 -24.5t55.5 24.5t24.5 62.5h72q-4 -74 -47 -111t-105 -37t-105 37t-47 111h72q2 -38 24.5 -62.5z" />
    <glyph glyph-name="gcircumflex" unicode="&#x11d;" 
d="M310 675l-63 -78h-87l103 123h94l103 -123h-87zM477.5 496.5q-17.5 -11.5 -28.5 -36.5q45 -45 45 -116q0 -76 -52 -123.5t-136 -47.5q-53 0 -93 20q-35 -17 -35 -50q0 -24 20.5 -37t62.5 -13h129q78 0 120.5 -36t42.5 -100q0 -78 -65 -121t-182 -43q-106 0 -166.5 34
t-60.5 93q0 40 23.5 69t63.5 43q-63 26 -63 89q0 34 18.5 59t53.5 38q-50 45 -50 121q0 51 23.5 90t65.5 61t97 22q54 0 96 -22q14 45 44.5 68.5t76.5 23.5q20 0 32 -4v-74q-30 4 -37 4q-28 0 -45.5 -11.5zM383.5 268q30.5 30 30.5 76q0 45 -29 74t-75 29t-75.5 -29.5
t-29.5 -76.5q0 -46 28.5 -74.5t73.5 -28.5q46 0 76.5 30zM258 18q-16 0 -42 2q-25 -11 -39 -31t-14 -45q0 -81 152 -81q79 0 116 21.5t37 63.5q0 34 -24.5 52t-72.5 18h-113z" />
    <glyph glyph-name="uni0123" unicode="&#x123;" 
d="M477.5 496.5q-17.5 -11.5 -28.5 -36.5q45 -45 45 -116q0 -76 -52 -123.5t-136 -47.5q-53 0 -93 20q-35 -17 -35 -50q0 -24 20.5 -37t62.5 -13h129q78 0 120.5 -36t42.5 -100q0 -78 -65 -121t-182 -43q-106 0 -166.5 34t-60.5 93q0 40 23.5 69t63.5 43q-63 26 -63 89
q0 34 18.5 59t53.5 38q-50 45 -50 121q0 51 23.5 90t65.5 61t97 22q54 0 96 -22q14 45 44.5 68.5t76.5 23.5q20 0 32 -4v-74q-30 4 -37 4q-28 0 -45.5 -11.5zM383.5 268q30.5 30 30.5 76q0 45 -29 74t-75 29t-75.5 -29.5t-29.5 -76.5q0 -46 28.5 -74.5t73.5 -28.5
q46 0 76.5 30zM258 18q-16 0 -42 2q-25 -11 -39 -31t-14 -45q0 -81 152 -81q79 0 116 21.5t37 63.5q0 34 -24.5 52t-72.5 18h-113zM315.5 710q-8.5 -13 -8.5 -40h51v-90h-96v80q0 43 15.5 69.5t56.5 41.5l20 -38q-30 -10 -38.5 -23z" />
    <glyph glyph-name="gdotaccent" unicode="&#x121;" 
d="M477.5 496.5q-17.5 -11.5 -28.5 -36.5q45 -45 45 -116q0 -76 -52 -123.5t-136 -47.5q-53 0 -93 20q-35 -17 -35 -50q0 -24 20.5 -37t62.5 -13h129q78 0 120.5 -36t42.5 -100q0 -78 -65 -121t-182 -43q-106 0 -166.5 34t-60.5 93q0 40 23.5 69t63.5 43q-63 26 -63 89
q0 34 18.5 59t53.5 38q-50 45 -50 121q0 51 23.5 90t65.5 61t97 22q54 0 96 -22q14 45 44.5 68.5t76.5 23.5q20 0 32 -4v-74q-30 4 -37 4q-28 0 -45.5 -11.5zM383.5 268q30.5 30 30.5 76q0 45 -29 74t-75 29t-75.5 -29.5t-29.5 -76.5q0 -46 28.5 -74.5t73.5 -28.5
q46 0 76.5 30zM258 18q-16 0 -42 2q-25 -11 -39 -31t-14 -45q0 -81 152 -81q79 0 116 21.5t37 63.5q0 34 -24.5 52t-72.5 18h-113zM370 600h-120v120h120v-120z" />
    <glyph glyph-name="hbar" unicode="&#x127;" 
d="M505 406q12 -38 12 -97v-309h-85v304q0 133 -108 133q-73 0 -104.5 -54t-31.5 -122v-261h-85v579h-103v51h103v95h85v-95h233v-51h-233v-170q17 46 60.5 74.5t96.5 28.5q33 0 66 -10.5t57 -33.5q25 -24 37 -62z" />
    <glyph glyph-name="hcircumflex" unicode="&#x125;" 
d="M248.5 483.5q43.5 28.5 96.5 28.5q33 0 66 -10.5t57 -33.5q25 -24 37 -62t12 -97v-309h-85v304q0 133 -108 133q-73 0 -104.5 -54t-31.5 -122v-261h-85v725h85v-316q17 46 60.5 74.5zM209 776l-65 69l-63 -69h-85l97 108h105l98 -108h-87z" />
    <glyph glyph-name="iacute" unicode="&#xed;" 
d="M125 70h160v360h-145v70h230v-430h169v-70h-414v70zM367 720h106l-117 -143h-75z" />
    <glyph glyph-name="ibreve" unicode="&#x12d;" 
d="M125 70h160v360h-145v70h230v-430h169v-70h-414v70zM263.5 657.5q22.5 -24.5 55.5 -24.5t55.5 24.5t24.5 62.5h72q-4 -74 -47 -111t-105 -37t-105 37t-47 111h72q2 -38 24.5 -62.5z" />
    <glyph glyph-name="icircumflex" unicode="&#xee;" 
d="M125 70h160v360h-145v70h230v-430h169v-70h-414v70zM385 577l-66 93l-66 -93h-84l103 143h94l103 -143h-84z" />
    <glyph glyph-name="idieresis" unicode="&#xef;" 
d="M125 70h160v360h-145v70h230v-430h169v-70h-414v70zM278 600h-119v120h119v-120zM479 600h-119v120h119v-120z" />
    <glyph glyph-name="i.loclTRK" 
d="M125 70h160v360h-145v70h230v-430h169v-70h-414v70zM379 600h-120v120h120v-120z" />
    <glyph glyph-name="dotlessi" unicode="&#x131;" 
d="M125 70h160v360h-145v70h230v-430h169v-70h-414v70z" />
    <glyph glyph-name="igrave" unicode="&#xec;" 
d="M125 70h160v360h-145v70h230v-430h169v-70h-414v70zM281 577l-117 143h106l86 -143h-75z" />
    <glyph glyph-name="ij" unicode="&#x133;" 
d="M111 725h119v-120h-119v120zM391 725h119v-120h-119v120zM129 500h85v-500h-85v500zM238 -194v74q57 -4 80 -4q47 0 70 24.5t23 92.5v507h85v-512q0 -88 -40 -139t-127 -51q-50 0 -91 8z" />
    <glyph glyph-name="uni006A0301" 
d="M110 -184v74q47 -10 67.5 -12t47.5 -2q61 0 87 27.5t26 99.5v427h-190v70h275v-502q0 -200 -187 -200q-69 0 -126 18zM419 720h106l-117 -143h-75z" />
    <glyph glyph-name="imacron" unicode="&#x12b;" 
d="M125 70h160v360h-145v70h230v-430h169v-70h-414v70zM175 668h288v-68h-288v68z" />
    <glyph glyph-name="iogonek" unicode="&#x12f;" 
d="M125 70h160v360h-145v70h230v-430h169v-70h-414v70zM379 600h-120v120h120v-120zM535.5 -183.5q-29.5 -19.5 -72.5 -19.5q-38 0 -66.5 23.5t-28.5 64.5q0 72 89 115h82q-57 -20 -82 -49t-25 -56q0 -21 11 -34.5t29 -13.5q33 0 49 46l54 -20q-10 -37 -39.5 -56.5z" />
    <glyph glyph-name="itilde" unicode="&#x129;" 
d="M125 70h160v360h-145v70h230v-430h169v-70h-414v70zM294.5 716q18.5 -9 43.5 -28q18 -14 30 -20.5t26 -6.5q16 0 29.5 14t19.5 42l59 -10q-15 -61 -45.5 -88.5t-69.5 -27.5q-25 0 -42 9t-38 26q-17 14 -30.5 21.5t-30.5 7.5q-20 0 -33.5 -15t-18.5 -39l-60 11
q11 58 43.5 85.5t70.5 27.5q28 0 46.5 -9z" />
    <glyph glyph-name="jcircumflex" unicode="&#x135;" 
d="M448 576l-66 93l-66 -93h-84l103 143h94l103 -143h-84zM110 -184v74q47 -10 67.5 -12t47.5 -2q61 0 87 27.5t26 99.5v427h-190v70h275v-502q0 -200 -187 -200q-69 0 -126 18z" />
    <glyph glyph-name="uni0237" unicode="&#x237;" 
d="M110 -184v74q47 -10 67.5 -12t47.5 -2q61 0 87 27.5t26 99.5v427h-190v70h275v-502q0 -200 -187 -200q-69 0 -126 18z" />
    <glyph glyph-name="uni0137" unicode="&#x137;" 
d="M444 0l-151 245l-91 -92v-153h-85v725h85v-471l224 246h111l-183 -193l195 -307h-105zM304.5 -176q8.5 13 8.5 40h-51v90h96v-80q0 -43 -15.5 -69.5t-56.5 -41.5l-20 38q30 10 38.5 23z" />
    <glyph glyph-name="kgreenlandic" unicode="&#x138;" 
d="M444 0l-158 257l-84 -82v-175h-85v500h85v-224l222 224h113l-189 -183l201 -317h-105z" />
    <glyph glyph-name="lacute" unicode="&#x13a;" 
d="M125 70h160v585h-150v70h235v-655h169v-70h-414v70zM358 884h114l-104 -107h-80z" />
    <glyph glyph-name="lcaron" unicode="&#x13e;" 
d="M125 70h160v585h-150v70h235v-655h169v-70h-414v70zM518 560l16 167h85l-48 -167h-53z" />
    <glyph glyph-name="uni013C" unicode="&#x13c;" 
d="M125 70h160v585h-150v70h235v-655h169v-70h-414v70zM324.5 -176q8.5 13 8.5 40h-51v90h96v-80q0 -43 -15.5 -69.5t-56.5 -41.5l-20 38q30 10 38.5 23z" />
    <glyph glyph-name="ldot" unicode="&#x140;" 
d="M285 70v585h-150v70h235v-655h169v-70h-414v70h160zM510 301h-98v128h98v-128z" />
    <glyph glyph-name="lslash" unicode="&#x142;" 
d="M370 70h169v-70h-414v70h160v268l-120 -79v72l120 79v245h-150v70h235v-259l120 79v-72l-120 -79v-324z" />
    <glyph glyph-name="nacute" unicode="&#x144;" 
d="M246 481.5q42 30.5 102 30.5q75 0 121 -43q25 -23 36.5 -61.5t11.5 -98.5v-309h-85v304q0 133 -104 133q-76 0 -108 -54t-32 -122v-261h-85v500h80v-99q21 50 63 80.5zM358 720h106l-117 -143h-75z" />
    <glyph glyph-name="napostrophe" unicode="&#x149;" horiz-adv-x="1240" 
d="M303 518.5q13 20.5 13 63.5h-73v128h133v-128q0 -59 -22 -92t-79 -56l-26 46q41 18 54 38.5zM866 481.5q42 30.5 102 30.5q75 0 121 -43q25 -23 36.5 -61.5t11.5 -98.5v-309h-85v304q0 133 -104 133q-76 0 -108 -54t-32 -122v-261h-85v500h80v-99q21 50 63 80.5z" />
    <glyph glyph-name="ncaron" unicode="&#x148;" 
d="M246 481.5q42 30.5 102 30.5q75 0 121 -43q25 -23 36.5 -61.5t11.5 -98.5v-309h-85v304q0 133 -104 133q-76 0 -108 -54t-32 -122v-261h-85v500h80v-99q21 50 63 80.5zM310 627l66 93h84l-103 -143h-94l-103 143h84z" />
    <glyph glyph-name="uni0146" unicode="&#x146;" 
d="M246 481.5q42 30.5 102 30.5q75 0 121 -43q25 -23 36.5 -61.5t11.5 -98.5v-309h-85v304q0 133 -104 133q-76 0 -108 -54t-32 -122v-261h-85v500h80v-99q21 50 63 80.5zM304.5 -176q8.5 13 8.5 40h-51v90h96v-80q0 -43 -15.5 -69.5t-56.5 -41.5l-20 38q30 10 38.5 23z" />
    <glyph glyph-name="ntilde" unicode="&#xf1;" 
d="M246 481.5q42 30.5 102 30.5q75 0 121 -43q25 -23 36.5 -61.5t11.5 -98.5v-309h-85v304q0 133 -104 133q-76 0 -108 -54t-32 -122v-261h-85v500h80v-99q21 50 63 80.5zM285.5 716q18.5 -9 43.5 -28q18 -14 30 -20.5t26 -6.5q16 0 29.5 14t19.5 42l59 -10
q-15 -61 -45.5 -88.5t-69.5 -27.5q-25 0 -42 9t-38 26q-17 14 -30.5 21.5t-30.5 7.5q-20 0 -33.5 -15t-18.5 -39l-60 11q11 58 43.5 85.5t70.5 27.5q28 0 46.5 -9z" />
    <glyph glyph-name="eng" unicode="&#x14b;" 
d="M505.5 407.5q11.5 -38.5 11.5 -98.5v-333q0 -85 -28 -131.5t-98 -46.5q-34 0 -61 6v73q22 -2 42 -2q35 0 47.5 20t12.5 68v341q0 133 -104 133q-76 0 -108 -54t-32 -122v-261h-85v500h80v-99q21 50 63 80.5t102 30.5q75 0 121 -43q25 -23 36.5 -61.5z" />
    <glyph glyph-name="oacute" unicode="&#xf3;" 
d="M188 20.5q-53 32.5 -82 92t-29 137.5q0 79 29 138t82 91.5t122 32.5t122 -32.5t82 -91.5t29 -138t-29 -138t-82 -91.5t-122 -32.5t-122 32.5zM415 111.5q38 49.5 38 138.5q0 88 -38 138t-105 50t-105 -49.5t-38 -138.5t38 -138.5t105 -49.5t105 49.5zM358 720h106
l-117 -143h-75z" />
    <glyph glyph-name="obreve" unicode="&#x14f;" 
d="M188 20.5q-53 32.5 -82 92t-29 137.5q0 79 29 138t82 91.5t122 32.5t122 -32.5t82 -91.5t29 -138t-29 -138t-82 -91.5t-122 -32.5t-122 32.5zM415 111.5q38 49.5 38 138.5q0 88 -38 138t-105 50t-105 -49.5t-38 -138.5t38 -138.5t105 -49.5t105 49.5zM254.5 657.5
q22.5 -24.5 55.5 -24.5t55.5 24.5t24.5 62.5h72q-4 -74 -47 -111t-105 -37t-105 37t-47 111h72q2 -38 24.5 -62.5z" />
    <glyph glyph-name="ocircumflex" unicode="&#xf4;" 
d="M188 20.5q-53 32.5 -82 92t-29 137.5q0 79 29 138t82 91.5t122 32.5t122 -32.5t82 -91.5t29 -138t-29 -138t-82 -91.5t-122 -32.5t-122 32.5zM415 111.5q38 49.5 38 138.5q0 88 -38 138t-105 50t-105 -49.5t-38 -138.5t38 -138.5t105 -49.5t105 49.5zM376 577l-66 93
l-66 -93h-84l103 143h94l103 -143h-84z" />
    <glyph glyph-name="odieresis" unicode="&#xf6;" 
d="M188 20.5q-53 32.5 -82 92t-29 137.5q0 79 29 138t82 91.5t122 32.5t122 -32.5t82 -91.5t29 -138t-29 -138t-82 -91.5t-122 -32.5t-122 32.5zM415 111.5q38 49.5 38 138.5q0 88 -38 138t-105 50t-105 -49.5t-38 -138.5t38 -138.5t105 -49.5t105 49.5zM269 600h-119v120
h119v-120zM470 600h-119v120h119v-120z" />
    <glyph glyph-name="oe" unicode="&#x153;" 
d="M590 163v-13q0 -74 -46.5 -118t-118.5 -44q-74 0 -119 50q-42 -50 -116 -50q-73 0 -116.5 46.5t-43.5 133.5v150q0 96 40 145t120 49q78 0 117 -50q42 50 119 50q75 0 118.5 -49.5t43.5 -140.5v-83h-242v-73q0 -52 21.5 -79t58.5 -27t59.5 28t22.5 75v16zM366.5 414.5
q-20.5 -27.5 -20.5 -84.5v-34h157v35q0 111 -78 111q-38 0 -58.5 -27.5zM245.5 86q18.5 25 18.5 84v162q0 57 -18.5 82t-55.5 25q-36 0 -55.5 -25.5t-19.5 -84.5v-158q0 -59 19.5 -84.5t55.5 -25.5q37 0 55.5 25z" />
    <glyph glyph-name="ograve" unicode="&#xf2;" 
d="M188 20.5q-53 32.5 -82 92t-29 137.5q0 79 29 138t82 91.5t122 32.5t122 -32.5t82 -91.5t29 -138t-29 -138t-82 -91.5t-122 -32.5t-122 32.5zM415 111.5q38 49.5 38 138.5q0 88 -38 138t-105 50t-105 -49.5t-38 -138.5t38 -138.5t105 -49.5t105 49.5zM272 577l-117 143
h106l86 -143h-75z" />
    <glyph glyph-name="ohungarumlaut" unicode="&#x151;" 
d="M188 20.5q-53 32.5 -82 92t-29 137.5q0 79 29 138t82 91.5t122 32.5t122 -32.5t82 -91.5t29 -138t-29 -138t-82 -91.5t-122 -32.5t-122 32.5zM415 111.5q38 49.5 38 138.5q0 88 -38 138t-105 50t-105 -49.5t-38 -138.5t38 -138.5t105 -49.5t105 49.5zM273 720h91
l-93 -143h-84zM435 720h91l-93 -143h-84z" />
    <glyph glyph-name="omacron" unicode="&#x14d;" 
d="M188 20.5q-53 32.5 -82 92t-29 137.5q0 79 29 138t82 91.5t122 32.5t122 -32.5t82 -91.5t29 -138t-29 -138t-82 -91.5t-122 -32.5t-122 32.5zM415 111.5q38 49.5 38 138.5q0 88 -38 138t-105 50t-105 -49.5t-38 -138.5t38 -138.5t105 -49.5t105 49.5zM166 668h288v-68
h-288v68z" />
    <glyph glyph-name="ordfeminine" unicode="&#xaa;" 
d="M478 310h-77q-4 30 -6 62q-36 -71 -130 -71q-55 0 -89 29.5t-34 76.5q0 53 41 78.5t117 34.5l90 11q-1 53 -17.5 75.5t-57.5 22.5q-38 0 -58.5 -18t-22.5 -52h-81q5 59 48.5 92t117.5 33q76 0 112 -36.5t36 -113.5v-107q0 -81 11 -117zM243 456q-21 -15 -21 -42t18.5 -43
t50.5 -16q45 0 72.5 29t27.5 75v28l-80 -10q-47 -6 -68 -21z" />
    <glyph glyph-name="ordmasculine" unicode="&#xba;" 
d="M180 352.5q-50 51.5 -50 140.5q0 88 50 139.5t130 51.5t130 -51.5t50 -139.5q0 -89 -50 -140.5t-130 -51.5t-130 51.5zM383.5 395q26.5 35 26.5 98t-26.5 97.5t-73.5 34.5t-74 -35t-27 -97q0 -63 27 -98t74 -35t73.5 35z" />
    <glyph glyph-name="oslash" unicode="&#xf8;" 
d="M543 250q0 -79 -29 -138t-82 -91.5t-122 -32.5q-81 0 -139 44l-37 -46l-43 31l42 53q-56 70 -56 180q0 79 29 138t82 91.5t122 32.5q81 0 139 -44l37 46l44 -31l-42 -53q55 -71 55 -180zM188 139l212 266q-36 33 -90 33q-67 0 -105 -49.5t-38 -138.5q0 -66 21 -111z
M415 111.5q38 49.5 38 138.5q0 65 -21 110l-212 -266q37 -32 90 -32q67 0 105 49.5z" />
    <glyph glyph-name="oslashacute" unicode="&#x1ff;" 
d="M543 250q0 -79 -29 -138t-82 -91.5t-122 -32.5q-81 0 -139 44l-37 -46l-43 31l42 53q-56 70 -56 180q0 79 29 138t82 91.5t122 32.5q81 0 139 -44l37 46l44 -31l-42 -53q55 -71 55 -180zM188 139l212 266q-36 33 -90 33q-67 0 -105 -49.5t-38 -138.5q0 -66 21 -111z
M415 111.5q38 49.5 38 138.5q0 65 -21 110l-212 -266q37 -32 90 -32q67 0 105 49.5zM358 720h106l-117 -143h-75z" />
    <glyph glyph-name="otilde" unicode="&#xf5;" 
d="M188 20.5q-53 32.5 -82 92t-29 137.5q0 79 29 138t82 91.5t122 32.5t122 -32.5t82 -91.5t29 -138t-29 -138t-82 -91.5t-122 -32.5t-122 32.5zM415 111.5q38 49.5 38 138.5q0 88 -38 138t-105 50t-105 -49.5t-38 -138.5t38 -138.5t105 -49.5t105 49.5zM285.5 716
q18.5 -9 43.5 -28q18 -14 30 -20.5t26 -6.5q16 0 29.5 14t19.5 42l59 -10q-15 -61 -45.5 -88.5t-69.5 -27.5q-25 0 -42 9t-38 26q-17 14 -30.5 21.5t-30.5 7.5q-20 0 -33.5 -15t-18.5 -39l-60 11q11 58 43.5 85.5t70.5 27.5q28 0 46.5 -9z" />
    <glyph glyph-name="racute" unicode="&#x155;" 
d="M310 472q59 40 134 40q55 0 90 -10v-79q-40 10 -93 10q-61 0 -110 -28.5t-77.5 -84t-28.5 -134.5v-186h-85v500h84v-130q27 62 86 102zM358 720h106l-117 -143h-75z" />
    <glyph glyph-name="rcaron" unicode="&#x159;" 
d="M310 472q59 40 134 40q55 0 90 -10v-79q-40 10 -93 10q-61 0 -110 -28.5t-77.5 -84t-28.5 -134.5v-186h-85v500h84v-130q27 62 86 102zM310 627l66 93h84l-103 -143h-94l-103 143h84z" />
    <glyph glyph-name="uni0157" unicode="&#x157;" 
d="M310 472q59 40 134 40q55 0 90 -10v-79q-40 10 -93 10q-61 0 -110 -28.5t-77.5 -84t-28.5 -134.5v-186h-85v500h84v-130q27 62 86 102zM177.5 -176q8.5 13 8.5 40h-51v90h96v-80q0 -43 -15.5 -69.5t-56.5 -41.5l-20 38q30 10 38.5 23z" />
    <glyph glyph-name="sacute" unicode="&#x15b;" 
d="M175.5 28q-56.5 40 -69.5 114l86 15q9 -47 43 -73t89 -26q49 0 76.5 21.5t27.5 54.5q0 31 -18 47.5t-54 22.5l-98 18q-64 12 -98.5 47.5t-34.5 92.5q0 66 51.5 108t138.5 42q84 0 137.5 -36t60.5 -99l-84 -19q-9 39 -39 62t-79 23q-48 0 -75.5 -20t-27.5 -57
q0 -30 19.5 -47t57.5 -24l97 -18q67 -13 98.5 -46.5t31.5 -89.5q0 -69 -50.5 -111t-140.5 -42q-89 0 -145.5 40zM360 720h106l-117 -143h-75z" />
    <glyph glyph-name="scaron" unicode="&#x161;" 
d="M175.5 28q-56.5 40 -69.5 114l86 15q9 -47 43 -73t89 -26q49 0 76.5 21.5t27.5 54.5q0 31 -18 47.5t-54 22.5l-98 18q-64 12 -98.5 47.5t-34.5 92.5q0 66 51.5 108t138.5 42q84 0 137.5 -36t60.5 -99l-84 -19q-9 39 -39 62t-79 23q-48 0 -75.5 -20t-27.5 -57
q0 -30 19.5 -47t57.5 -24l97 -18q67 -13 98.5 -46.5t31.5 -89.5q0 -69 -50.5 -111t-140.5 -42q-89 0 -145.5 40zM312 627l66 93h84l-103 -143h-94l-103 143h84z" />
    <glyph glyph-name="scedilla" unicode="&#x15f;" 
d="M480.5 230.5q31.5 -33.5 31.5 -89.5q0 -62 -42 -103t-117 -48l-24 -39q6 6 18.5 9t24.5 3q33 0 53.5 -19.5t20.5 -51.5q0 -40 -32 -65.5t-76 -25.5q-70 0 -98 54l57 19q13 -28 42 -28q18 0 30.5 11t12.5 30q0 20 -12 30.5t-28 10.5q-23 0 -35 -15l-39 12l33 64
q-81 4 -132 44t-63 109l86 15q9 -47 43 -73t89 -26q49 0 76.5 21.5t27.5 54.5q0 31 -18 47.5t-54 22.5l-98 18q-64 12 -98.5 47.5t-34.5 92.5q0 66 51.5 108t138.5 42q84 0 137.5 -36t60.5 -99l-84 -19q-9 39 -39 62t-79 23q-48 0 -75.5 -20t-27.5 -57q0 -30 19.5 -47
t57.5 -24l97 -18q67 -13 98.5 -46.5z" />
    <glyph glyph-name="scircumflex" unicode="&#x15d;" 
d="M175.5 28q-56.5 40 -69.5 114l86 15q9 -47 43 -73t89 -26q49 0 76.5 21.5t27.5 54.5q0 31 -18 47.5t-54 22.5l-98 18q-64 12 -98.5 47.5t-34.5 92.5q0 66 51.5 108t138.5 42q84 0 137.5 -36t60.5 -99l-84 -19q-9 39 -39 62t-79 23q-48 0 -75.5 -20t-27.5 -57
q0 -30 19.5 -47t57.5 -24l97 -18q67 -13 98.5 -46.5t31.5 -89.5q0 -69 -50.5 -111t-140.5 -42q-89 0 -145.5 40zM378 577l-66 93l-66 -93h-84l103 143h94l103 -143h-84z" />
    <glyph glyph-name="uni0219" unicode="&#x219;" 
d="M175.5 28q-56.5 40 -69.5 114l86 15q9 -47 43 -73t89 -26q49 0 76.5 21.5t27.5 54.5q0 31 -18 47.5t-54 22.5l-98 18q-64 12 -98.5 47.5t-34.5 92.5q0 66 51.5 108t138.5 42q84 0 137.5 -36t60.5 -99l-84 -19q-9 39 -39 62t-79 23q-48 0 -75.5 -20t-27.5 -57
q0 -30 19.5 -47t57.5 -24l97 -18q67 -13 98.5 -46.5t31.5 -89.5q0 -69 -50.5 -111t-140.5 -42q-89 0 -145.5 40zM328.5 -176q8.5 13 8.5 40h-51v90h96v-80q0 -43 -15.5 -69.5t-56.5 -41.5l-20 38q30 10 38.5 23z" />
    <glyph glyph-name="tbar" unicode="&#x167;" 
d="M316 431v-120h195v-71h-195v-68q0 -99 96 -99q53 0 99 9v-78q-28 -7 -48.5 -10t-49.5 -3q-90 0 -136 46t-46 123v80h-142v71h142v120h-143v69h143v131l85 36v-167h195v-69h-195z" />
    <glyph glyph-name="tcaron" unicode="&#x165;" 
d="M231 500v131l85 36v-167h195v-69h-195v-259q0 -99 96 -99q53 0 99 9v-78q-28 -7 -48.5 -10t-49.5 -3q-90 0 -136 46t-46 123v271h-143v69h143zM412 560l16 167h85l-48 -167h-53z" />
    <glyph glyph-name="uni0163" unicode="&#x163;" 
d="M491.5 -56.5q20.5 -19.5 20.5 -51.5q0 -40 -32 -65.5t-76 -25.5q-70 0 -98 54l57 19q13 -28 42 -28q18 0 30.5 11t12.5 30q0 20 -12 30.5t-28 10.5q-23 0 -35 -15l-39 12l36 69q-69 11 -104 55t-35 111v271h-143v69h143v131l85 36v-167h195v-69h-195v-259q0 -99 96 -99
q53 0 99 9v-78q-50 -12 -91 -13l-25 -40q6 6 18.5 9t24.5 3q33 0 53.5 -19.5z" />
    <glyph glyph-name="uni021B" unicode="&#x21b;" 
d="M231 500v131l85 36v-167h195v-69h-195v-259q0 -99 96 -99q53 0 99 9v-78q-28 -7 -48.5 -10t-49.5 -3q-90 0 -136 46t-46 123v271h-143v69h143zM394.5 -176q8.5 13 8.5 40h-51v90h96v-80q0 -43 -15.5 -69.5t-56.5 -41.5l-20 38q30 10 38.5 23z" />
    <glyph glyph-name="thorn" unicode="&#xfe;" 
d="M355 512q62 0 107.5 -35t70 -94.5t24.5 -132.5t-24.5 -132.5t-70 -94.5t-107.5 -35q-106 0 -158 90v-273h-85v920h85v-313q52 100 158 100zM231 109.5q36 -46.5 101 -46.5q62 0 98.5 53.5t36.5 133.5t-36.5 133.5t-98.5 53.5q-65 0 -101 -46t-36 -126v-28
q0 -81 36 -127.5z" />
    <glyph glyph-name="uacute" unicode="&#xfa;" 
d="M369 21q-42 -33 -94 -33q-81 0 -128 44q-24 23 -35 61t-11 98v309h87v-306q0 -133 104 -133q71 0 100.5 54t29.5 124v261h85v-500h-80v95q-16 -41 -58 -74zM353 720h106l-117 -143h-75z" />
    <glyph glyph-name="ubreve" unicode="&#x16d;" 
d="M369 21q-42 -33 -94 -33q-81 0 -128 44q-24 23 -35 61t-11 98v309h87v-306q0 -133 104 -133q71 0 100.5 54t29.5 124v261h85v-500h-80v95q-16 -41 -58 -74zM249.5 657.5q22.5 -24.5 55.5 -24.5t55.5 24.5t24.5 62.5h72q-4 -74 -47 -111t-105 -37t-105 37t-47 111h72
q2 -38 24.5 -62.5z" />
    <glyph glyph-name="ucircumflex" unicode="&#xfb;" 
d="M369 21q-42 -33 -94 -33q-81 0 -128 44q-24 23 -35 61t-11 98v309h87v-306q0 -133 104 -133q71 0 100.5 54t29.5 124v261h85v-500h-80v95q-16 -41 -58 -74zM371 577l-66 93l-66 -93h-84l103 143h94l103 -143h-84z" />
    <glyph glyph-name="udieresis" unicode="&#xfc;" 
d="M369 21q-42 -33 -94 -33q-81 0 -128 44q-24 23 -35 61t-11 98v309h87v-306q0 -133 104 -133q71 0 100.5 54t29.5 124v261h85v-500h-80v95q-16 -41 -58 -74zM264 600h-119v120h119v-120zM465 600h-119v120h119v-120z" />
    <glyph glyph-name="ugrave" unicode="&#xf9;" 
d="M369 21q-42 -33 -94 -33q-81 0 -128 44q-24 23 -35 61t-11 98v309h87v-306q0 -133 104 -133q71 0 100.5 54t29.5 124v261h85v-500h-80v95q-16 -41 -58 -74zM267 577l-117 143h106l86 -143h-75z" />
    <glyph glyph-name="uhungarumlaut" unicode="&#x171;" 
d="M369 21q-42 -33 -94 -33q-81 0 -128 44q-24 23 -35 61t-11 98v309h87v-306q0 -133 104 -133q71 0 100.5 54t29.5 124v261h85v-500h-80v95q-16 -41 -58 -74zM268 720h91l-93 -143h-84zM430 720h91l-93 -143h-84z" />
    <glyph glyph-name="umacron" unicode="&#x16b;" 
d="M369 21q-42 -33 -94 -33q-81 0 -128 44q-24 23 -35 61t-11 98v309h87v-306q0 -133 104 -133q71 0 100.5 54t29.5 124v261h85v-500h-80v95q-16 -41 -58 -74zM161 668h288v-68h-288v68z" />
    <glyph glyph-name="uogonek" unicode="&#x173;" 
d="M543 -127q-10 -37 -39.5 -56.5t-72.5 -19.5q-38 0 -66.5 23.5t-28.5 64.5q0 72 89 115h2v95q-16 -41 -58 -74t-94 -33q-81 0 -128 44q-24 23 -35 61t-11 98v309h87v-306q0 -133 104 -133q71 0 100.5 54t29.5 124v261h85v-500q-57 -20 -82 -49t-25 -56q0 -21 11 -34.5
t29 -13.5q33 0 49 46z" />
    <glyph glyph-name="uring" unicode="&#x16f;" 
d="M369 21q-42 -33 -94 -33q-81 0 -128 44q-24 23 -35 61t-11 98v309h87v-306q0 -133 104 -133q71 0 100.5 54t29.5 124v261h85v-500h-80v95q-16 -41 -58 -74zM227.5 580q-29.5 29 -29.5 73t29.5 73t77.5 29t77.5 -29t29.5 -73t-29.5 -73t-77.5 -29t-77.5 29zM341.5 614.5
q13.5 15.5 13.5 38.5t-13.5 38.5t-36.5 15.5t-36.5 -15.5t-13.5 -38.5t13.5 -38.5t36.5 -15.5t36.5 15.5z" />
    <glyph glyph-name="utilde" unicode="&#x169;" 
d="M369 21q-42 -33 -94 -33q-81 0 -128 44q-24 23 -35 61t-11 98v309h87v-306q0 -133 104 -133q71 0 100.5 54t29.5 124v261h85v-500h-80v95q-16 -41 -58 -74zM280.5 716q18.5 -9 43.5 -28q18 -14 30 -20.5t26 -6.5q16 0 29.5 14t19.5 42l59 -10q-15 -61 -45.5 -88.5
t-69.5 -27.5q-25 0 -42 9t-38 26q-17 14 -30.5 21.5t-30.5 7.5q-20 0 -33.5 -15t-18.5 -39l-60 11q11 58 43.5 85.5t70.5 27.5q28 0 46.5 -9z" />
    <glyph glyph-name="wacute" unicode="&#x1e83;" 
d="M168 157l10 -71h7l16 84l65 330h87l65 -330l16 -84h7l10 71l51 343h89l-97 -500h-107l-65 323q-7 33 -9 82h-7q-2 -49 -9 -82l-65 -323h-107l-97 500h89zM358 720h106l-117 -143h-75z" />
    <glyph glyph-name="wcircumflex" unicode="&#x175;" 
d="M168 157l10 -71h7l16 84l65 330h87l65 -330l16 -84h7l10 71l51 343h89l-97 -500h-107l-65 323q-7 33 -9 82h-7q-2 -49 -9 -82l-65 -323h-107l-97 500h89zM376 577l-66 93l-66 -93h-84l103 143h94l103 -143h-84z" />
    <glyph glyph-name="wdieresis" unicode="&#x1e85;" 
d="M168 157l10 -71h7l16 84l65 330h87l65 -330l16 -84h7l10 71l51 343h89l-97 -500h-107l-65 323q-7 33 -9 82h-7q-2 -49 -9 -82l-65 -323h-107l-97 500h89zM269 600h-119v120h119v-120zM470 600h-119v120h119v-120z" />
    <glyph glyph-name="wgrave" unicode="&#x1e81;" 
d="M168 157l10 -71h7l16 84l65 330h87l65 -330l16 -84h7l10 71l51 343h89l-97 -500h-107l-65 323q-7 33 -9 82h-7q-2 -49 -9 -82l-65 -323h-107l-97 500h89zM272 577l-117 143h106l86 -143h-75z" />
    <glyph glyph-name="yacute" unicode="&#xfd;" 
d="M457 500h91l-200 -532q-33 -92 -79 -131t-111 -39q-25 0 -46 4v75q26 -2 36 -2q45 0 71 22t44 72l13 37l-195 494h96l141 -401zM358 720h106l-117 -143h-75z" />
    <glyph glyph-name="ycircumflex" unicode="&#x177;" 
d="M457 500h91l-200 -532q-33 -92 -79 -131t-111 -39q-25 0 -46 4v75q26 -2 36 -2q45 0 71 22t44 72l13 37l-195 494h96l141 -401zM376 577l-66 93l-66 -93h-84l103 143h94l103 -143h-84z" />
    <glyph glyph-name="ydieresis" unicode="&#xff;" 
d="M457 500h91l-200 -532q-33 -92 -79 -131t-111 -39q-25 0 -46 4v75q26 -2 36 -2q45 0 71 22t44 72l13 37l-195 494h96l141 -401zM269 600h-119v120h119v-120zM470 600h-119v120h119v-120z" />
    <glyph glyph-name="ygrave" unicode="&#x1ef3;" 
d="M457 500h91l-200 -532q-33 -92 -79 -131t-111 -39q-25 0 -46 4v75q26 -2 36 -2q45 0 71 22t44 72l13 37l-195 494h96l141 -401zM272 577l-117 143h106l86 -143h-75z" />
    <glyph glyph-name="zacute" unicode="&#x17a;" 
d="M395 428h-283v72h385v-63l-290 -364h305v-73h-410v65zM358 720h106l-117 -143h-75z" />
    <glyph glyph-name="zcaron" unicode="&#x17e;" 
d="M395 428h-283v72h385v-63l-290 -364h305v-73h-410v65zM310 627l66 93h84l-103 -143h-94l-103 143h84z" />
    <glyph glyph-name="zdotaccent" unicode="&#x17c;" 
d="M395 428h-283v72h385v-63l-290 -364h305v-73h-410v65zM370 600h-120v120h120v-120z" />
    <glyph glyph-name="germandbls" unicode="&#xdf;" 
d="M294 66q83 0 124.5 39t41.5 105q0 65 -43 110.5t-143 50.5v66q72 3 103.5 34.5t31.5 79.5t-27.5 78.5t-80.5 30.5q-54 0 -81 -35.5t-27 -101.5v-523h-85v515q0 93 48 152.5t147 59.5q60 0 105 -22t69 -60t24 -85q0 -56 -34.5 -95.5t-86.5 -53.5q74 -15 123 -62.5
t49 -133.5q0 -67 -32 -117t-90.5 -76.5t-135.5 -26.5h-36v71h36z" />
    <glyph glyph-name="eth" unicode="&#xf0;" 
d="M497.5 444.5q30.5 -89.5 30.5 -188.5q0 -75 -28 -136t-79.5 -96.5t-120.5 -35.5q-102 0 -160 70.5t-58 191.5q0 117 56.5 187.5t154.5 70.5q49 0 75.5 -19.5t44.5 -47.5q-29 79 -81 137l-162 -50l-20 54l135 42q-37 30 -84 48l56 53q60 -27 112 -75l88 27l19 -54l-64 -20
q55 -69 85.5 -158.5zM406 114.5q32 51.5 32 135.5t-32.5 135.5t-102.5 51.5q-65 0 -97.5 -52t-32.5 -135q0 -81 31.5 -134t98.5 -53q71 0 103 51.5z" />
    <glyph glyph-name="grave" unicode="`" 
d="M331 577l-117 143h106l86 -143h-75z" />
    <glyph glyph-name="acute" unicode="&#xb4;" 
d="M300 720h106l-117 -143h-75z" />
    <glyph glyph-name="circumflex" unicode="&#x2c6;" 
d="M376 577l-66 93l-66 -93h-84l103 143h94l103 -143h-84z" />
    <glyph glyph-name="tilde" unicode="&#x2dc;" 
d="M286.5 716q18.5 -9 43.5 -28q18 -14 30 -20.5t26 -6.5q16 0 29.5 14t19.5 42l59 -10q-15 -61 -45.5 -88.5t-69.5 -27.5q-25 0 -42 9t-38 26q-17 14 -30.5 21.5t-30.5 7.5q-20 0 -33.5 -15t-18.5 -39l-60 11q11 58 43.5 85.5t70.5 27.5q28 0 46.5 -9z" />
    <glyph glyph-name="caron" unicode="&#x2c7;" 
d="M310 627l66 93h84l-103 -143h-94l-103 143h84z" />
    <glyph glyph-name="dieresis" unicode="&#xa8;" 
d="M269 600h-119v120h119v-120zM470 600h-119v120h119v-120z" />
    <glyph glyph-name="macron" unicode="&#xaf;" 
d="M166 668h288v-68h-288v68z" />
    <glyph glyph-name="breve" unicode="&#x2d8;" 
d="M254.5 657.5q22.5 -24.5 55.5 -24.5t55.5 24.5t24.5 62.5h72q-4 -74 -47 -111t-105 -37t-105 37t-47 111h72q2 -38 24.5 -62.5z" />
    <glyph glyph-name="ring" unicode="&#x2da;" 
d="M232.5 580q-29.5 29 -29.5 73t29.5 73t77.5 29t77.5 -29t29.5 -73t-29.5 -73t-77.5 -29t-77.5 29zM346.5 614.5q13.5 15.5 13.5 38.5t-13.5 38.5t-36.5 15.5t-36.5 -15.5t-13.5 -38.5t13.5 -38.5t36.5 -15.5t36.5 15.5z" />
    <glyph glyph-name="hungarumlaut" unicode="&#x2dd;" 
d="M226 720h91l-93 -143h-84zM388 720h91l-93 -143h-84z" />
    <glyph glyph-name="dotaccent" unicode="&#x2d9;" 
d="M370 600h-120v120h120v-120z" />
    <glyph glyph-name="cedilla" unicode="&#xb8;" 
d="M296 -49q6 6 18.5 9t24.5 3q33 0 53.5 -19.5t20.5 -51.5q0 -40 -32 -65.5t-76 -25.5q-70 0 -98 54l57 19q13 -28 42 -28q18 0 30.5 11t12.5 30q0 20 -12 30.5t-28 10.5q-23 0 -35 -15l-39 12l43 82h53z" />
    <glyph glyph-name="ogonek" unicode="&#x2db;" 
d="M373.5 -183.5q-29.5 -19.5 -72.5 -19.5q-38 0 -66.5 23.5t-28.5 64.5q0 72 89 115h82q-57 -20 -82 -49t-25 -56q0 -21 11 -34.5t29 -13.5q33 0 49 46l54 -20q-10 -37 -39.5 -56.5z" />
    <glyph glyph-name="comma" unicode="," 
d="M303 -63.5q13 20.5 13 63.5h-73v128h133v-128q0 -59 -22 -92t-79 -56l-26 46q41 18 54 38.5z" />
    <glyph glyph-name="semicolon" unicode=";" 
d="M376 372h-133v128h133v-128zM303 -63.5q13 20.5 13 63.5h-73v128h133v-128q0 -59 -22 -92t-79 -56l-26 46q41 18 54 38.5z" />
    <glyph glyph-name="colon" unicode=":" 
d="M376 372h-133v128h133v-128zM376 0h-133v128h133v-128z" />
    <glyph glyph-name="period" unicode="." 
d="M376 0h-133v128h133v-128z" />
    <glyph glyph-name="ellipsis" unicode="&#x2026;" 
d="M169 0h-133v125h133v-125zM376 0h-133v125h133v-125zM583 0h-133v125h133v-125z" />
    <glyph glyph-name="hyphen" unicode="-" 
d="M454 318v-80h-289v80h289z" />
    <glyph glyph-name="exclam" unicode="!" 
d="M259 710h101l-16 -484h-69zM376 0h-133v128h133v-128z" />
    <glyph glyph-name="exclamdown" unicode="&#xa1;" 
d="M376 387h-133v128h133v-128zM275 289h69l16 -484h-101z" />
    <glyph glyph-name="question" unicode="?" 
d="M88 525q0 92 59 147t162 55q111 0 166.5 -46.5t55.5 -130.5q0 -50 -25.5 -93.5t-64.5 -76.5l-54 -45q-23 -20 -32 -40.5t-9 -50.5v-18h-85v42q0 28 10 51.5t47 54.5l51 43q32 27 49.5 58t17.5 75q0 45 -32 73.5t-95 28.5q-60 0 -95.5 -34.5t-35.5 -102.5q0 -31 5 -53
l-91 11q-4 26 -4 52zM375 0h-133v128h133v-128z" />
    <glyph glyph-name="questiondown" unicode="&#xbf;" 
d="M377 520v-128h-133v128h133zM531 -5q0 -92 -59 -147t-162 -55q-111 0 -166.5 46.5t-55.5 130.5q0 50 25.5 93.5t64.5 76.5l54 45q23 20 32 40.5t9 50.5v18h85v-42q0 -28 -10 -51.5t-47 -54.5l-51 -43q-32 -27 -49.5 -58t-17.5 -75q0 -45 32 -73.5t95 -28.5
q60 0 95.5 34.5t35.5 102.5q0 31 -5 53l91 -11q4 -26 4 -52z" />
    <glyph glyph-name="quoteleft" unicode="&#x2018;" 
d="M316 655.5q-13 -20.5 -13 -63.5h73v-128h-133v128q0 59 22 92t79 56l26 -46q-41 -18 -54 -38.5z" />
    <glyph glyph-name="quoteright" unicode="&#x2019;" 
d="M303 518.5q13 20.5 13 63.5h-73v128h133v-128q0 -59 -22 -92t-79 -56l-26 46q41 18 54 38.5z" />
    <glyph glyph-name="quotedblleft" unicode="&#x201c;" 
d="M199 655.5q-13 -20.5 -13 -63.5h73v-128h-133v128q0 59 22 92t79 56l26 -46q-41 -18 -54 -38.5zM433 655.5q-13 -20.5 -13 -63.5h73v-128h-133v128q0 59 22 92t79 56l26 -46q-41 -18 -54 -38.5z" />
    <glyph glyph-name="quotedblright" unicode="&#x201d;" 
d="M421 518.5q13 20.5 13 63.5h-73v128h133v-128q0 -59 -22 -92t-79 -56l-26 46q41 18 54 38.5zM187 518.5q13 20.5 13 63.5h-73v128h133v-128q0 -59 -22 -92t-79 -56l-26 46q41 18 54 38.5z" />
    <glyph glyph-name="quotesinglbase" unicode="&#x201a;" 
d="M303 -63.5q13 20.5 13 63.5h-73v128h133v-128q0 -59 -22 -92t-79 -56l-26 46q41 18 54 38.5z" />
    <glyph glyph-name="quotedblbase" unicode="&#x201e;" 
d="M420 -64.5q13 20.5 13 63.5h-73v128h133v-128q0 -59 -22 -92t-79 -56l-26 46q41 18 54 38.5zM186 -64.5q13 20.5 13 63.5h-73v128h133v-128q0 -59 -22 -92t-79 -56l-26 46q41 18 54 38.5z" />
    <glyph glyph-name="guilsinglleft" unicode="&#x2039;" 
d="M168 275l173 207h90l-167 -206l164 -209h-92z" />
    <glyph glyph-name="guilsinglright" unicode="&#x203a;" 
d="M284 67h-92l164 209l-167 206h90l173 -207z" />
    <glyph glyph-name="periodcentered" unicode="&#xb7;" 
d="M474 301h-133v128h133v-128z" />
    <glyph glyph-name="slash" unicode="/" 
d="M129 -117l282 877h79l-282 -877h-79z" />
    <glyph glyph-name="bar" unicode="|" 
d="M274 760h72v-877h-72v877z" />
    <glyph glyph-name="endash" unicode="&#x2013;" 
d="M516 310v-64h-412v64h412z" />
    <glyph glyph-name="emdash" unicode="&#x2014;" 
d="M577 310v-64h-535v64h535z" />
    <glyph glyph-name="bullet" unicode="&#x2022;" 
d="M377.5 414q26.5 -26 26.5 -69q0 -41 -26.5 -66.5t-68.5 -25.5q-41 0 -67.5 25.5t-26.5 66.5q0 42 26.5 68.5t67.5 26.5q42 0 68.5 -26z" />
    <glyph glyph-name="parenleft" unicode="(" 
d="M277 57q-67 124 -67 264t67 264t186 197l50 -48q-109 -85 -160.5 -184t-51.5 -229t51.5 -229t160.5 -184l-50 -48q-119 73 -186 197z" />
    <glyph glyph-name="parenright" unicode=")" 
d="M107 -92q109 85 160.5 184t51.5 229t-51.5 229t-160.5 184l50 48q119 -73 186 -197t67 -264t-67 -264t-186 -197z" />
    <glyph glyph-name="bracketleft" unicode="[" 
d="M200 757h283v-70h-207v-731h207v-70h-283v871z" />
    <glyph glyph-name="bracketright" unicode="]" 
d="M420 -114h-283v70h207v731h-207v70h283v-871z" />
    <glyph glyph-name="braceleft" unicode="{" 
d="M274 -73q-48 41 -48 108v143q0 35 -5 57t-22.5 35t-52.5 13v78q36 0 53 11.5t21.5 31.5t4.5 58v146q0 67 48 108t131 41h79v-70h-79q-48 0 -74.5 -27t-26.5 -73v-115q0 -60 -13.5 -97.5t-51.5 -51.5q38 -17 51 -56.5t13 -99.5v-111q0 -46 27.5 -73t75.5 -27h78v-70h-78
q-83 0 -131 41z" />
    <glyph glyph-name="braceright" unicode="}" 
d="M137 -114v70h78q48 0 75.5 27t27.5 73v111q0 60 13 99.5t51 56.5q-38 14 -51.5 51.5t-13.5 97.5v115q0 46 -26.5 73t-74.5 27h-79v70h79q83 0 131 -41t48 -108v-146q0 -38 4.5 -58t21.5 -31.5t53 -11.5v-78q-35 0 -52.5 -13t-22.5 -35t-5 -57v-143q0 -67 -48 -108
t-131 -41h-78z" />
    <glyph glyph-name="guillemotleft" unicode="&#xab;" 
d="M65 275l173 207h90l-167 -206l164 -209h-92zM287 275l173 207h90l-167 -206l164 -209h-92z" />
    <glyph glyph-name="guillemotright" unicode="&#xbb;" 
d="M324 276l-173 207h-90l167 -206l-164 -209h92zM555 275l-173 207h-90l167 -206l-164 -209h92z" />
    <glyph glyph-name="zero" unicode="0" 
d="M564 347q-1 -362 -254 -362t-254 362q1 363 254 363t254 -363zM187.5 569.5q-42.5 -65.5 -43.5 -222.5q0 -88 15 -147l275 367q-39 68 -124 68q-80 0 -122.5 -65.5zM432.5 126q42.5 66 43.5 221q0 96 -17 159l-278 -369q40 -77 129 -77q80 0 122.5 66z" />
    <glyph glyph-name="one" unicode="1" 
d="M543 81v-81h-450v81h194v471q-43 -52 -151 -52h-34v81h29q72 0 113 31t57 83h71v-614h171z" />
    <glyph glyph-name="two" unicode="2" 
d="M313 273q66 64 92 114t26 112q0 64 -33.5 98.5t-93.5 34.5t-95 -34t-35 -91q0 -24 8 -64l-90 9q-7 28 -7 56q0 93 60 147.5t164 54.5q102 0 159 -54.5t57 -155.5q0 -73 -37.5 -140t-118.5 -142q-80 -74 -171 -137h335v-81h-456v74q121 89 236 199z" />
    <glyph glyph-name="three" unicode="3" 
d="M183 12q-54 27 -84 75.5t-32 110.5l88 11q3 -68 44 -108.5t114 -40.5q71 0 110 36t39 101q0 57 -39.5 92t-112.5 35h-43v74h40q65 0 98 34t33 88t-33 84.5t-95 30.5q-69 0 -107.5 -42.5t-38.5 -118.5l-84 18q0 100 64 159t171 59q100 0 156.5 -51.5t56.5 -138.5
q0 -52 -33 -93.5t-87 -55.5q68 -12 106 -58t38 -116q0 -63 -29.5 -111t-84.5 -74.5t-128 -26.5t-127 27z" />
    <glyph glyph-name="four" unicode="4" 
d="M363 176h-316v61l304 458h97v-449h114v-70h-114v-176h-85v176zM363 501q0 50 2 101h-1q-9 -24 -19 -42.5t-33 -53.5l-130 -195q-5 -7 -18.5 -28t-28.5 -37h228v255z" />
    <glyph glyph-name="five" unicode="5" 
d="M152.5 35q-61.5 50 -75.5 135l93 11q11 -54 47 -86.5t94 -32.5q69 0 107.5 43.5t38.5 120.5q0 80 -37 126.5t-107 46.5q-54 0 -89 -30t-50 -86l-86 9l41 403h384v-78h-316l-26 -236q25 46 66.5 69.5t97.5 23.5q99 0 155.5 -65t56.5 -178q0 -73 -29.5 -128.5t-84.5 -86.5
t-127 -31q-92 0 -153.5 50z" />
    <glyph glyph-name="six" unicode="6" 
d="M445.5 434.5q48.5 -29.5 75 -83t26.5 -124.5q0 -72 -29 -126.5t-81 -85t-119 -30.5q-124 0 -187 88t-63 259q0 182 67 280t192 98q87 0 141.5 -44t70.5 -128l-90 -20q-23 117 -123 117q-82 0 -124.5 -68.5t-45.5 -202.5q24 47 70.5 73.5t105.5 26.5q65 0 113.5 -29.5z
M419.5 105q37.5 45 37.5 121q0 75 -38 119t-104 44q-57 0 -97.5 -36t-58.5 -105q8 -86 50.5 -137t109.5 -51q63 0 100.5 45z" />
    <glyph glyph-name="seven" unicode="7" 
d="M441 612h-358v83h460v-70q-121 -135 -183.5 -292.5t-62.5 -315.5v-17h-99v10q0 299 243 602z" />
    <glyph glyph-name="eight" unicode="8" 
d="M516.5 301q32.5 -45 32.5 -115q0 -60 -29 -105.5t-82.5 -70.5t-124.5 -25q-72 0 -127 24t-85 68.5t-30 102.5q0 143 135 185q-57 27 -83 67t-26 99q0 53 27 93.5t75.5 63t111.5 22.5q97 0 154.5 -48t57.5 -129q0 -59 -28.5 -99.5t-83.5 -59.5q73 -28 105.5 -73z
M219.5 612.5q-32.5 -29.5 -32.5 -81.5q0 -45 25.5 -73.5t82.5 -47.5l34 -10q57 23 80.5 52t23.5 77q0 53 -33 83t-92 30q-56 0 -88.5 -29.5zM420.5 91q38.5 34 38.5 95q0 48 -27 79.5t-86 51.5l-64 20q-65 -23 -92.5 -56.5t-27.5 -87.5q0 -61 41.5 -98.5t109.5 -37.5
q69 0 107.5 34z" />
    <glyph glyph-name="nine" unicode="9" 
d="M550 361q0 -171 -60 -273.5t-187 -102.5q-95 0 -152 47t-74 135l90 20q11 -61 43.5 -94t93.5 -33q80 0 117 75t39 213q-26 -44 -69 -66.5t-99 -22.5q-64 0 -114.5 25.5t-79.5 76t-29 121.5q0 65 28.5 117t80.5 81.5t120 29.5q252 0 252 -349zM401.5 371.5
q44.5 37.5 56.5 93.5q-9 73 -46.5 121.5t-114.5 48.5q-62 0 -100 -42t-38 -110q0 -69 39.5 -109t102.5 -40q56 0 100.5 37.5z" />
    <glyph glyph-name="asterisk" unicode="*" 
d="M224 308l-86 59l115 127l-152 30l35 95l141 -74l-27 165h110l-25 -165l149 77l35 -98l-163 -35l119 -122l-82 -56l-85 153z" />
    <glyph glyph-name="asciitilde" unicode="~" 
d="M273.5 378q25.5 -11 58.5 -33q26 -17 43 -25t36 -8q28 0 46.5 17.5t29.5 55.5l67 -16q-18 -68 -57.5 -100t-88.5 -32q-34 0 -58.5 11t-56.5 33q-25 17 -41.5 25t-35.5 8q-60 0 -77 -59l-73 8q13 64 54 95t94 31q34 0 59.5 -11z" />
    <glyph glyph-name="brokenbar" unicode="&#xa6;" 
d="M345 382h-71v378h71v-378zM345 -117h-71v378h71v-378z" />
    <glyph glyph-name="backslash" unicode="\" 
d="M411 -117l-282 877h79l282 -877h-79z" />
    <glyph glyph-name="underscore" unicode="_" 
d="M620 -118v-70h-620v70h620z" />
    <glyph glyph-name="quotesingle" unicode="'" 
d="M244 710h131l-36 -316h-59z" />
    <glyph glyph-name="quotedbl" unicode="&#x22;" 
d="M349 710h131l-36 -316h-59zM140 710h131l-36 -316h-59z" />
    <glyph glyph-name="ampersand" unicode="&#x26;" 
d="M602 80v-79q-22 -4 -35 -4q-67 0 -109 51l-10 12q-75 -77 -197 -77q-105 0 -160.5 54t-55.5 142q0 139 145 213q-37 47 -59 88.5t-22 92.5q0 46 22.5 81t61.5 54t86 19q68 0 116 -38t48 -109q0 -61 -37 -108.5t-103 -87.5l-3 -2l160 -193q29 74 32 195l74 -11
q-5 -146 -57 -244l8 -10q30 -41 73 -41q10 0 22 2zM204 639.5q-24 -21.5 -24 -61.5q0 -34 17 -67t54 -80q53 38 77 70.5t24 73.5q0 42 -23 64t-62 22t-63 -21.5zM405 114l-183 226q-55 -36 -78.5 -70t-23.5 -83q0 -67 39 -99t105 -32q89 0 141 58z" />
    <glyph glyph-name="at" unicode="@" 
d="M130 -20q-73 74 -73 202v185q0 87 32.5 153.5t92 103t137.5 36.5q74 0 129.5 -33t85.5 -94t30 -142v-127q0 -81 -26 -122.5t-77 -41.5q-31 0 -51.5 15.5t-25.5 41.5q-16 -27 -44 -42.5t-60 -15.5q-47 0 -77 29t-30 75q0 42 27.5 68.5t79.5 35.5l98 17v7q0 43 -14.5 62
t-47.5 19q-34 0 -51.5 -17.5t-17.5 -51.5h-64q0 59 37 93.5t100 34.5q62 0 91.5 -37.5t29.5 -116.5v-104q0 -31 7 -45t22 -14q34 0 34 83v146q0 105 -50 163.5t-139 58.5q-92 0 -144.5 -61.5t-52.5 -170.5v-195q0 -64 26.5 -113t75.5 -76t113 -27q62 0 125 29l21 -48
q-68 -37 -149 -37q-127 0 -200 74zM355.5 179q22.5 25 22.5 64v32l-79 -17q-60 -12 -60 -54q0 -23 16 -36.5t43 -13.5q35 0 57.5 25z" />
    <glyph glyph-name="copyright" unicode="&#xa9;" 
d="M184.5 14.5q-56.5 31.5 -90 98t-33.5 166.5v149q0 100 33.5 167t90 99.5t125.5 32.5t125.5 -32.5t90 -99.5t33.5 -167v-149q0 -100 -33.5 -166.5t-90 -98t-125.5 -31.5t-125.5 31.5zM452.5 91q56.5 61 56.5 188v149q0 86 -27 142.5t-72 83t-100 26.5t-100 -26.5t-72 -83
t-27 -142.5v-149q0 -127 56.5 -188t142.5 -61t142.5 61zM176 313v88q0 167 139 167q59 0 92 -38t36 -103l-70 -4q-4 85 -60 85q-32 0 -49 -23t-17 -84v-88q0 -62 17 -86.5t50 -24.5q29 0 44 24t17 58l69 -10q-5 -57 -35.5 -94.5t-92.5 -37.5q-140 0 -140 171z" />
    <glyph glyph-name="registered" unicode="&#xae;" 
d="M435.5 694.5q56.5 -32.5 90 -99.5t33.5 -167v-149q0 -100 -33.5 -166.5t-90 -98t-125.5 -31.5t-125.5 31.5t-90 98t-33.5 166.5v149q0 100 33.5 167t90 99.5t125.5 32.5t125.5 -32.5zM509 428q0 86 -27 142.5t-72 83t-100 26.5t-100 -26.5t-72 -83t-27 -142.5v-149
q0 -127 56.5 -188t142.5 -61t142.5 61t56.5 188v149zM425.5 382.5q-16.5 -29.5 -56.5 -45.5l84 -181h-73l-72 171h-53v-171h-66v406h122q69 0 100 -32.5t31 -84.5q0 -33 -16.5 -62.5zM255 384h46q76 0 76 61q0 30 -17.5 45.5t-58.5 15.5h-46v-122z" />
    <glyph glyph-name="trademark" unicode="&#x2122;" 
d="M108 654h-75v56h221v-56h-80v-330h-66v330zM389 710l39 -253q9 -50 10 -77h3q1 27 10 77l39 253h96v-386h-58v271v61h-1q-1 -15 -6 -42l-50 -290h-63l-50 290q-5 26 -6 42h-1v-61v-271h-58v386h96z" />
    <glyph glyph-name="paragraph" unicode="&#xb6;" 
d="M108.5 401q-64.5 40 -64.5 138q0 95 66.5 138t169.5 43h296v-52h-104v-768h-60v768h-77v-768h-60v461q-102 0 -166.5 40z" />
    <glyph glyph-name="section" unicode="&#xa7;" 
d="M499 83q0 -73 -56.5 -112.5t-148.5 -39.5q-86 0 -140 44.5t-60 114.5l85 17q10 -47 43.5 -74.5t82.5 -27.5q46 0 76 18.5t30 50.5q0 21 -8 35.5t-29 28.5t-64 33l-80 35q-76 33 -109.5 71t-33.5 90q0 39 20 72.5t63 54.5q-44 41 -44 101q0 70 54.5 111t140.5 41
q82 0 130.5 -38.5t58.5 -106.5l-84 -20q-9 49 -37.5 73.5t-78.5 24.5q-41 0 -67.5 -21t-26.5 -55q0 -22 7 -36.5t27 -29t60 -31.5l80 -35q76 -33 109.5 -71.5t33.5 -90.5q0 -40 -20.5 -73t-63.5 -54q50 -42 50 -100zM372 231l30 -15q21 19 30.5 37.5t9.5 40.5q0 29 -14.5 49
t-37.5 34t-67 34l-37 17l-66 32l-3 1q-21 -19 -30 -37t-9 -40q0 -27 11 -45t33.5 -32.5t68.5 -36.5z" />
    <glyph glyph-name="asciicircum" unicode="^" 
d="M341 710l148 -262h-78l-101 170l-102 -170h-78l148 262h63z" />
    <glyph glyph-name="dagger" unicode="&#x2020;" 
d="M352 -100h-85v530h-131v70h131v220h85v-220h132v-70h-132v-530z" />
    <glyph glyph-name="daggerdbl" unicode="&#x2021;" 
d="M484 430h-132v-246h130v-70h-130v-214h-85v214h-131v70h131v246h-131v70h131v220h85v-220h132v-70z" />
    <glyph glyph-name="emptyset" unicode="&#x2205;" 
d="M483 453q49 -60 49 -149q0 -66 -27.5 -117t-78 -80t-116.5 -29q-77 0 -134 41l-55 -60l-40 36l56 61q-49 60 -49 148q0 65 28 116.5t78 80.5t116 29q76 0 134 -40l55 59l40 -36zM190 213l204 221q-36 25 -84 25q-65 0 -104.5 -43t-39.5 -112q0 -53 24 -91zM430 395
l-203 -221q34 -25 83 -25q65 0 104.5 43t39.5 112q0 54 -24 91z" />
    <glyph glyph-name="uni2126" unicode="&#x2126;" 
d="M342 212q64 16 94 76t30 147q0 95 -38.5 155.5t-116.5 60.5q-74 0 -114.5 -62t-40.5 -155q0 -83 33 -144.5t90 -77.5l-15 -212h-196v79h122l8 82q-58 29 -95.5 104t-37.5 170q0 85 31.5 151.5t87.5 103.5t128 37q74 0 129 -36t84.5 -101.5t29.5 -152.5q0 -105 -32 -177
t-100 -99l9 -82h121v-79h-196z" />
    <glyph glyph-name="uni2206" unicode="&#x2206;" 
d="M262 710h99l196 -710h-494zM173 75h269l-132 535z" />
    <glyph glyph-name="uni00B5" unicode="&#xb5;" 
d="M507 500v-500h-80v95q-16 -41 -58 -74t-94 -33q-50 0 -89 18v-201h-85v695h87v-306q0 -133 104 -133q71 0 100.5 54t29.5 124v261h85z" />
    <glyph glyph-name="uniF8FF" unicode="&#xf8ff;" 
d="M436 663v-47h174v-48h-174v-47h174v-48h-174v-47h174v-47h-174v-48h174v-47h-600v426h600v-47h-174zM70 676h-16l-5 15l-4 -15h-16l13 -9l-5 -15l12 9l13 -9l-5 15zM116 676l13 -9l-5 -15l12 10l13 -10l-5 15l12 9h-15l-5 15l-4 -15h-16zM203 676l13 -9l-5 -15l12 10
l13 -10l-5 15l12 9h-15l-5 15l-4 -15h-16zM290 676l13 -9l-5 -15l12 10l13 -10l-5 15l12 9h-15l-5 15l-5 -15h-15zM417 676h-15l-5 15l-5 -15h-15l12 -9l-4 -15l12 10l13 -10l-5 15zM73 632l12 -9l-4 -14l12 9l12 -9l-4 14l12 9h-15l-5 15l-5 -15h-15zM374 632h-16l-4 15
l-5 -15h-15l12 -9l-5 -14l13 9l12 -9l-5 14zM263 457h94v80h-94v94h-80v-94h-93v-80h93v-93h80v93zM70 589h-16l-5 14l-4 -14h-16l13 -9l-5 -15l12 9l13 -9l-5 15zM116 589l13 -9l-5 -15l12 9l13 -9l-5 15l12 9h-15l-5 14l-4 -14h-16zM290 589l13 -9l-5 -15l12 9l13 -9
l-5 15l12 9h-15l-5 14l-5 -14h-15zM417 589h-15l-5 14l-5 -14h-15l12 -9l-4 -15l12 9l13 -9l-5 15zM70 502h-16l-5 14l-4 -14h-16l13 -10l-5 -14l12 9l13 -9l-5 14zM417 502h-15l-5 14l-5 -14h-15l12 -10l-4 -14l12 9l13 -9l-5 14zM70 414h-16l-5 15l-4 -15h-16l13 -9
l-5 -14l12 9l13 -9l-5 14zM156 414h-15l-5 15l-4 -15h-16l13 -9l-5 -14l12 9l13 -9l-5 14zM330 414h-15l-5 15l-5 -15h-15l13 -9l-5 -14l12 9l13 -9l-5 14zM417 414h-15l-5 15l-5 -15h-15l12 -9l-4 -14l12 9l13 -9l-5 14zM101 362l12 9h-15l-5 14l-5 -14h-15l12 -9l-4 -15
l12 9l12 -9zM361 362l13 9h-16l-4 14l-5 -14h-15l12 -9l-5 -15l13 9l12 -9zM57 318l13 9h-16l-5 15l-4 -15h-16l13 -9l-5 -15l12 9l13 -9zM144 318l12 9h-15l-5 15l-4 -15h-16l13 -9l-5 -15l12 9l13 -9zM231 318l12 9h-15l-5 15l-4 -15h-16l13 -9l-5 -15l12 9l13 -9z
M318 318l12 9h-15l-5 15l-5 -15h-15l13 -9l-5 -15l12 9l13 -9zM405 318l12 9h-15l-5 15l-5 -15h-15l12 -9l-4 -15l12 9l13 -9zM10 237h599v-48h-599v48zM10 142h600v-47h-600v47zM10 47h600v-47h-600v47z" />
    <glyph glyph-name="uni2113" unicode="&#x2113;" 
d="M343.5 90.5q17.5 -19.5 55.5 -19.5q22 0 52 7v-78q-33 -9 -74 -9q-76 0 -106 41t-30 118v71q-35 -19 -88 -41l-29 64l19 8q64 28 98 48v279q0 77 37 113t90 36q63 0 95 -39t32 -105q0 -100 -43 -176.5t-126 -135.5v-119q0 -43 17.5 -62.5zM326 363q84 81 84 209
q0 49 -11 68.5t-33 19.5q-19 0 -29.5 -16.5t-10.5 -48.5v-232z" />
    <glyph glyph-name="estimated" unicode="&#x212e;" 
d="M431.5 72q44.5 31 67.5 98l56 -26q-29 -80 -90 -120.5t-144 -40.5q-126 0 -193.5 100.5t-67.5 273.5q0 167 67.5 264t194.5 97q84 0 136 -37.5t76.5 -118t24.5 -210.5h-354v-256q50 -55 126 -55q56 0 100.5 31zM322 660q-72 0 -117 -42v-209h215v223q-37 28 -98 28z" />
    <glyph glyph-name="dollar" unicode="$" 
d="M535 90q-23 -44 -72 -73t-123 -32v-92h-45v93q-106 8 -163.5 67t-70.5 149l90 18q12 -66 47 -109.5t97 -51.5v256l-34 8q-82 21 -129.5 71.5t-47.5 128.5q0 50 26 91.5t74 67t111 28.5v90h45v-91q90 -6 146.5 -54t65.5 -142l-89 -26q-6 71 -39 106.5t-84 42.5v-245l34 -9
q85 -21 134.5 -64t49.5 -133q0 -51 -23 -95zM295 402v236q-67 -4 -96.5 -37t-29.5 -76q0 -45 33 -77t88 -45zM435.5 87q37.5 26 37.5 85q0 60 -33.5 87.5t-90.5 41.5l-9 2v-246q58 4 95.5 30z" />
    <glyph glyph-name="cent" unicode="&#xa2;" 
d="M446 183l81 -13q-12 -76 -58.5 -125.5t-126.5 -55.5v-78h-49v78q-97 10 -149 82.5t-52 181.5q0 107 51.5 177t149.5 80v84h49v-83q78 -5 128 -51.5t58 -126.5l-87 -10q-6 50 -31 78.5t-68 34.5v-372q87 12 104 119zM208.5 126q28.5 -50 84.5 -60v370q-55 -10 -84 -58
t-29 -124q0 -78 28.5 -128z" />
    <glyph glyph-name="sterling" unicode="&#xa3;" 
d="M578 155q-12 -90 -62.5 -130t-114.5 -40q-25 0 -44 3t-48 9q-30 7 -53 10.5t-53 3.5q-75 0 -153 -19l-19 63q142 47 142 186q0 48 -8 91h-109v63h97q-13 63 -13 105q0 67 26.5 114t72.5 71.5t103 24.5q80 0 129 -39.5t67 -112.5l-88 -22q-23 99 -109 99q-48 0 -77 -32.5
t-29 -99.5q0 -43 13 -108h171v-63h-160q6 -34 6 -73q0 -70 -25.5 -112t-74.5 -68q28 7 74 7q36 0 81 -9q50 -8 80 -8q37 0 64 23.5t34 78.5z" />
    <glyph glyph-name="florin" unicode="&#x192;" 
d="M367 608.5q-17 -26.5 -24 -82.5l-12 -90h106v-66h-114l-67 -520h-86l66 520h-94v66h102l10 76q9 69 24 110t50.5 64.5t100.5 23.5q31 0 49 -6v-74q-22 5 -48 5q-46 0 -63 -26.5z" />
    <glyph glyph-name="yen" unicode="&#xa5;" 
d="M572 695l-217 -361h184v-60h-184v-71h184v-60h-184v-143h-90v143h-187v60h187v71h-187v60h187l-218 361h101l161 -280l162 280h101z" />
    <glyph glyph-name="Euro" unicode="&#x20ac;" 
d="M610 135q-70 -150 -234 -150q-114 0 -185 72t-91 201h-90v60h84q-1 12 -1 37q0 26 1 38h-84v60h91q20 125 93 191t186 66q81 0 135.5 -36t85.5 -114l-78 -30q-21 46 -56 73.5t-93 27.5q-70 0 -117 -44t-63 -134h271v-60h-278q-1 -12 -1 -37q0 -26 1 -38h278v-60h-271
q16 -97 65 -145.5t120 -48.5q52 0 92.5 26t66.5 76z" />
    <glyph glyph-name="currency" unicode="&#xa4;" 
d="M486 155l53 -59l-40 -36l-53 57q-57 -40 -132 -40q-79 0 -137 43l-56 -61l-40 36l58 63q-47 60 -47 145q0 86 47 146l-58 63l40 36l58 -61q58 42 135 42q74 0 130 -39l55 59l40 -36l-55 -60q24 -29 37.5 -67.5t13.5 -82.5q0 -88 -49 -148zM416 190.5q41 42.5 41 112.5
t-41 112.5t-102 42.5t-102.5 -42.5t-41.5 -112.5t41.5 -112.5t102.5 -42.5t102 42.5z" />
    <glyph glyph-name="fraction" unicode="&#x2044;" horiz-adv-x="0" 
d="M296 727l-515 -744h-77l516 744h76z" />
    <glyph glyph-name="onequarter" unicode="&#xbc;" horiz-adv-x="1240" 
d="M452 379v-51h-284v51h110v250q-13 -13 -44 -24t-56 -11h-5v61h4q32 0 66 15.5t46 38.5h59v-330h104zM916 727l-515 -744h-77l516 744h76zM1030 90v-90h-66v90h-197v50l184 241h79v-239h63v-52h-63zM964 325l-143 -183h143v183z" />
    <glyph glyph-name="onehalf" unicode="&#xbd;" horiz-adv-x="1240" 
d="M452 379v-51h-284v51h110v250q-13 -13 -44 -24t-56 -11h-5v61h4q32 0 66 15.5t46 38.5h59v-330h104zM916 727l-515 -744h-77l516 744h76zM938 170q51 50 51 96q0 32 -16.5 49.5t-47.5 17.5t-48 -16.5t-17 -47.5q0 -18 2 -24l-71 6q-2 18 -2 22q0 53 37.5 85t98.5 32
q65 0 100 -31.5t35 -88.5q0 -55 -48.5 -108t-130.5 -107h192v-55h-286v52q100 68 151 118z" />
    <glyph glyph-name="threequarters" unicode="&#xbe;" horiz-adv-x="1240" 
d="M351.5 558.5q19.5 14.5 19.5 44.5q0 29 -17 44.5t-46 15.5q-33 0 -50 -20.5t-15 -54.5l-74 6q-2 57 35 90.5t104 33.5q63 0 99 -28t36 -77q0 -36 -21.5 -60t-57.5 -30q41 -2 65 -27t24 -67q0 -49 -39 -79t-103 -30q-68 0 -105.5 32t-38.5 89l74 5q-1 -31 18.5 -52
t51.5 -21q30 0 49 16t19 46q0 63 -73 63h-29v46h26q29 0 48.5 14.5zM916 727l-515 -744h-77l516 744h76zM1030 90v-90h-66v90h-197v50l184 241h79v-239h63v-52h-63zM964 325l-143 -183h143v183z" />
    <glyph glyph-name="uni2153" unicode="&#x2153;" horiz-adv-x="1240" 
d="M452 379v-51h-284v51h110v250q-13 -13 -44 -24t-56 -11h-5v61h4q32 0 66 15.5t46 38.5h59v-330h104zM916 727l-515 -744h-77l516 744h76zM971.5 230.5q19.5 14.5 19.5 44.5q0 29 -17 44.5t-46 15.5q-33 0 -50 -20.5t-15 -54.5l-74 6q-2 57 35 90.5t104 33.5q63 0 99 -28
t36 -77q0 -36 -21.5 -60t-57.5 -30q41 -2 65 -27t24 -67q0 -49 -39 -79t-103 -30q-68 0 -105.5 32t-38.5 89l74 5q-1 -31 18.5 -52t51.5 -21q30 0 49 16t19 46q0 63 -73 63h-29v46h26q29 0 48.5 14.5z" />
    <glyph glyph-name="uni2154" unicode="&#x2154;" horiz-adv-x="1240" 
d="M318 498q51 50 51 96q0 32 -16.5 49.5t-47.5 17.5t-48 -16.5t-17 -47.5q0 -18 2 -24l-71 6q-2 18 -2 22q0 53 37.5 85t98.5 32q65 0 100 -31.5t35 -88.5q0 -55 -48.5 -108t-130.5 -107h192v-55h-286v52q100 68 151 118zM916 727l-515 -744h-77l516 744h76zM971.5 230.5
q19.5 14.5 19.5 44.5q0 29 -17 44.5t-46 15.5q-33 0 -50 -20.5t-15 -54.5l-74 6q-2 57 35 90.5t104 33.5q63 0 99 -28t36 -77q0 -36 -21.5 -60t-57.5 -30q41 -2 65 -27t24 -67q0 -49 -39 -79t-103 -30q-68 0 -105.5 32t-38.5 89l74 5q-1 -31 18.5 -52t51.5 -21q30 0 49 16
t19 46q0 63 -73 63h-29v46h26q29 0 48.5 14.5z" />
    <glyph glyph-name="oneeighth" unicode="&#x215b;" horiz-adv-x="1240" 
d="M452 379v-51h-284v51h110v250q-13 -13 -44 -24t-56 -11h-5v61h4q32 0 66 15.5t46 38.5h59v-330h104zM916 727l-515 -744h-77l516 744h76zM1057.5 176q25.5 -25 25.5 -75q0 -51 -42 -80t-114 -29q-70 0 -110.5 28t-40.5 77q0 72 88 90q-37 11 -58 34t-21 64q0 47 39 76
t102 29t101.5 -25.5t38.5 -69.5q0 -32 -19 -52.5t-60 -30.5q45 -11 70.5 -36zM873 326q-19 -15 -19 -42q0 -26 18.5 -39t51.5 -20l27 -5q27 9 38.5 23.5t11.5 38.5q0 28 -20.5 43.5t-55.5 15.5q-33 0 -52 -15zM990 60q22 16 22 44q0 31 -20 45.5t-58 22.5l-28 6
q-60 -22 -60 -71q0 -30 22 -46.5t62 -16.5q38 0 60 16z" />
    <glyph glyph-name="threeeighths" unicode="&#x215c;" horiz-adv-x="1240" 
d="M351.5 558.5q19.5 14.5 19.5 44.5q0 29 -17 44.5t-46 15.5q-33 0 -50 -20.5t-15 -54.5l-74 6q-2 57 35 90.5t104 33.5q63 0 99 -28t36 -77q0 -36 -21.5 -60t-57.5 -30q41 -2 65 -27t24 -67q0 -49 -39 -79t-103 -30q-68 0 -105.5 32t-38.5 89l74 5q-1 -31 18.5 -52
t51.5 -21q30 0 49 16t19 46q0 63 -73 63h-29v46h26q29 0 48.5 14.5zM916 727l-515 -744h-77l516 744h76zM1057.5 176q25.5 -25 25.5 -75q0 -51 -42 -80t-114 -29q-70 0 -110.5 28t-40.5 77q0 72 88 90q-37 11 -58 34t-21 64q0 47 39 76t102 29t101.5 -25.5t38.5 -69.5
q0 -32 -19 -52.5t-60 -30.5q45 -11 70.5 -36zM873 326q-19 -15 -19 -42q0 -26 18.5 -39t51.5 -20l27 -5q27 9 38.5 23.5t11.5 38.5q0 28 -20.5 43.5t-55.5 15.5q-33 0 -52 -15zM990 60q22 16 22 44q0 31 -20 45.5t-58 22.5l-28 6q-60 -22 -60 -71q0 -30 22 -46.5t62 -16.5
q38 0 60 16z" />
    <glyph glyph-name="fiveeighths" unicode="&#x215d;" horiz-adv-x="1240" 
d="M248 653l-13 -124q32 55 100 55q55 0 87 -34.5t32 -92.5q0 -66 -39 -101.5t-108 -35.5q-59 0 -98 29t-44 77l65 7q6 -28 27 -44t51 -16q36 0 57.5 22t21.5 61q0 35 -20 55.5t-55 20.5q-29 0 -49 -14t-28 -41l-59 6l23 226h235v-56h-186zM916 727l-515 -744h-77l516 744
h76zM1057.5 176q25.5 -25 25.5 -75q0 -51 -42 -80t-114 -29q-70 0 -110.5 28t-40.5 77q0 72 88 90q-37 11 -58 34t-21 64q0 47 39 76t102 29t101.5 -25.5t38.5 -69.5q0 -32 -19 -52.5t-60 -30.5q45 -11 70.5 -36zM873 326q-19 -15 -19 -42q0 -26 18.5 -39t51.5 -20l27 -5
q27 9 38.5 23.5t11.5 38.5q0 28 -20.5 43.5t-55.5 15.5q-33 0 -52 -15zM990 60q22 16 22 44q0 31 -20 45.5t-58 22.5l-28 6q-60 -22 -60 -71q0 -30 22 -46.5t62 -16.5q38 0 60 16z" />
    <glyph glyph-name="seveneighths" unicode="&#x215e;" horiz-adv-x="1240" 
d="M447 709v-58q-57 -55 -91 -139.5t-36 -183.5h-77v5q-1 87 36.5 171.5t101.5 145.5h-208v59h274zM916 727l-515 -744h-77l516 744h76zM1057.5 176q25.5 -25 25.5 -75q0 -51 -42 -80t-114 -29q-70 0 -110.5 28t-40.5 77q0 72 88 90q-37 11 -58 34t-21 64q0 47 39 76t102 29
t101.5 -25.5t38.5 -69.5q0 -32 -19 -52.5t-60 -30.5q45 -11 70.5 -36zM873 326q-19 -15 -19 -42q0 -26 18.5 -39t51.5 -20l27 -5q27 9 38.5 23.5t11.5 38.5q0 28 -20.5 43.5t-55.5 15.5q-33 0 -52 -15zM990 60q22 16 22 44q0 31 -20 45.5t-58 22.5l-28 6q-60 -22 -60 -71
q0 -30 22 -46.5t62 -16.5q38 0 60 16z" />
    <glyph glyph-name="percent" unicode="%" 
d="M465 730h72l-394 -744h-71zM60.5 428q-36.5 44 -36.5 121q0 74 36.5 118t96.5 44q59 0 96 -45t37 -120q0 -74 -36.5 -118t-95.5 -44q-61 0 -97.5 44zM204 470q17 27 17 76q0 50 -17 78t-47 28q-31 0 -48.5 -27.5t-17.5 -75.5q0 -51 17.5 -78.5t49.5 -27.5q29 0 46 27z
M366.5 44q-36.5 44 -36.5 121q0 74 36.5 118t96.5 44q59 0 96 -45t37 -120q0 -74 -36.5 -118t-95.5 -44q-61 0 -97.5 44zM510 86q17 27 17 76q0 50 -17 78t-47 28q-31 0 -48.5 -27.5t-17.5 -75.5q0 -51 17.5 -78.5t49.5 -27.5q29 0 46 27z" />
    <glyph glyph-name="perthousand" unicode="&#x2030;" 
d="M64 464.5q-33 38.5 -33 103.5t33 103.5t88 38.5t88 -38.5t33 -103.5t-33 -103.5t-88 -38.5t-88 38.5zM531 707v-79l-482 -468v77zM110 632.5q-15 -22.5 -15 -64.5t15 -64.5t42 -22.5t42 22.5t15 64.5t-15 64.5t-42 22.5t-42 -22.5zM545 245.5q33 -38.5 33 -103.5
t-33 -103.5t-88 -38.5q-57 0 -89 40q-32 -40 -89 -40q-55 0 -88 38.5t-33 103.5t33 103.5t88 38.5q57 0 89 -40q32 40 89 40q55 0 88 -38.5zM321 77.5q15 22.5 15 64.5t-15 64.5t-42 22.5t-42 -22.5t-15 -64.5t15 -64.5t42 -22.5t42 22.5zM499 77.5q15 22.5 15 64.5
t-15 64.5t-42 22.5t-42 -22.5t-15 -64.5t15 -64.5t42 -22.5t42 22.5z" />
    <glyph glyph-name="uni03BC" unicode="&#x3bc;" 
d="M507 500v-500h-80v95q-16 -41 -58 -74t-94 -33q-50 0 -89 18v-201h-85v695h87v-306q0 -133 104 -133q71 0 100.5 54t29.5 124v261h85z" />
    <glyph glyph-name="numbersign" unicode="#" 
d="M565 422h-112l-28 -149h106v-69h-119l-38 -204h-81l38 204h-107l-38 -204h-81l38 204h-98v69h111l28 149h-99v69h112l37 200h81l-37 -200h107l37 200h81l-37 -200h99v-69zM344 273l28 149h-107l-28 -149h107z" />
    <glyph glyph-name="uni2116" unicode="&#x2116;" 
d="M247 139h3q-12 99 -12 196v375h71v-710h-88l-117 469l-28 114h-3q13 -115 13 -202v-381h-71v710h92l112 -449zM489 666q116 0 116 -147v-82q0 -67 -32 -104t-84 -37q-54 0 -86.5 37.5t-32.5 107.5v76q0 149 119 149zM523.5 585.5q-11.5 17.5 -34.5 17.5q-24 0 -36.5 -18
t-12.5 -62v-84q0 -80 49 -80q23 0 34.5 18t11.5 61v88q0 42 -11.5 59.5z" />
    <glyph glyph-name="uni0394" unicode="&#x394;" 
d="M262 710h99l196 -710h-494zM173 75h269l-132 535z" />
    <glyph glyph-name="uni03A9" unicode="&#x3a9;" 
d="M342 212q64 16 94 76t30 147q0 95 -38.5 155.5t-116.5 60.5q-74 0 -114.5 -62t-40.5 -155q0 -83 33 -144.5t90 -77.5l-15 -212h-196v79h122l8 82q-58 29 -95.5 104t-37.5 170q0 85 31.5 151.5t87.5 103.5t128 37q74 0 129 -36t84.5 -101.5t29.5 -152.5q0 -105 -32 -177
t-100 -99l9 -82h121v-79h-196z" />
    <glyph glyph-name="pi" unicode="&#x3c0;" 
d="M514 -7q-66 0 -91 35.5t-25 94.5v309h-175v-432h-85v432h-73v68h490v-68h-72v-307q0 -29 10.5 -42t32.5 -13q10 0 28 3v-74q-18 -6 -40 -6z" />
    <glyph glyph-name="plus" unicode="+" 
d="M545 366v-73h-193v-202h-85v202h-192v73h192v190h85v-190h193z" />
    <glyph glyph-name="minus" unicode="&#x2212;" 
d="M75 368h470v-80h-470v80z" />
    <glyph glyph-name="plusminus" unicode="&#xb1;" 
d="M353 365h192v-73h-192v-160h-86v160h-192v73h192v161h86v-161zM75 0v80h470v-80h-470z" />
    <glyph glyph-name="multiply" unicode="&#xd7;" 
d="M553 513l-186 -186l186 -185l-57 -58l-186 186l-186 -186l-57 57l186 186l-186 186l57 57l186 -185l185 185z" />
    <glyph glyph-name="divide" unicode="&#xf7;" 
d="M272.5 476.5q-14.5 14.5 -14.5 37.5t14.5 37.5t37.5 14.5t37.5 -14t14.5 -38q0 -23 -14.5 -37.5t-37.5 -14.5t-37.5 14.5zM75 364h470v-76h-470v76zM272.5 100.5q-14.5 14.5 -14.5 37.5t14.5 37.5t37.5 14.5t37.5 -14t14.5 -38q0 -23 -14.5 -37.5t-37.5 -14.5t-37.5 14.5
z" />
    <glyph glyph-name="equal" unicode="=" 
d="M75 464h470v-80h-470v80zM75 274h470v-80h-470v80z" />
    <glyph glyph-name="less" unicode="&#x3c;" 
d="M77 290v72l465 205v-79l-371 -161l371 -161v-81z" />
    <glyph glyph-name="greater" unicode="&#x3e;" 
d="M77 85v81l371 161l-371 161v79l465 -205v-72z" />
    <glyph glyph-name="degree" unicode="&#xb0;" 
d="M444.5 478.5q-20.5 -36.5 -56 -58t-78.5 -21.5q-42 0 -78 21t-56.5 57.5t-20.5 80.5q0 45 21 81.5t56.5 57t77.5 20.5t78 -21t56.5 -57.5t20.5 -80.5q0 -43 -20.5 -79.5zM249.5 492.5q24.5 -26.5 60.5 -26.5t60.5 26.5t24.5 65.5q0 40 -24.5 66t-60.5 26t-60.5 -26
t-24.5 -66q0 -39 24.5 -65.5z" />
    <glyph glyph-name="approxequal" unicode="&#x2248;" 
d="M374 370q-22 6 -59 19q-32 12 -56 18.5t-48 6.5q-37 0 -75 -11.5t-61 -28.5v80q20 17 56 28.5t70 11.5q30 0 55.5 -6.5t57.5 -19.5q32 -12 52.5 -18t44.5 -6q37 0 74.5 11.5t59.5 28.5v-80q-18 -17 -53.5 -28.5t-70.5 -11.5q-25 0 -47 6zM374 180q-22 6 -59 19
q-32 12 -56 18.5t-48 6.5q-37 0 -75 -11.5t-61 -28.5v80q20 17 56 28.5t70 11.5q30 0 55.5 -6.5t57.5 -19.5q32 -12 52.5 -18t44.5 -6q37 0 74.5 11.5t59.5 28.5v-80q-18 -17 -53.5 -28.5t-70.5 -11.5q-25 0 -47 6z" />
    <glyph glyph-name="greaterequal" unicode="&#x2265;" 
d="M77 131v81l371 161l-371 161v79l465 -205v-72zM559 0h-460v75h460v-75z" />
    <glyph glyph-name="infinity" unicode="&#x221e;" 
d="M521 429.5q37 -38.5 37 -101.5q0 -40 -18 -72t-48 -49.5t-65 -17.5q-33 0 -65 23.5t-53 56.5q-53 -81 -120 -81q-32 0 -61.5 16t-47.5 47.5t-18 75.5q0 42 17.5 74t47 49.5t63.5 17.5t67.5 -22t52.5 -55q25 35 53.5 56t64.5 21q56 0 93 -38.5zM239.5 278q18.5 18 35.5 50
q-38 68 -84 68q-24 0 -41.5 -17t-17.5 -52q0 -32 21 -49.5t43 -17.5q25 0 43.5 18zM467.5 278.5q18.5 18.5 18.5 48.5q0 34 -17.5 51.5t-42.5 17.5t-42.5 -16.5t-39.5 -51.5q39 -68 81 -68q24 0 42.5 18.5z" />
    <glyph glyph-name="lessequal" unicode="&#x2264;" 
d="M86 408l465 205v-79l-371 -161l371 -161v-81l-465 205v72zM529 75v-75h-460v75h460z" />
    <glyph glyph-name="logicalnot" unicode="&#xac;" 
d="M542 374v-243h-80v163h-385v80h465z" />
    <glyph glyph-name="notequal" unicode="&#x2260;" 
d="M545 384h-185l-43 -110h228v-80h-259l-51 -131h-56l51 131h-155v80h186l43 110h-229v80h260l50 127h56l-50 -127h154v-80z" />
    <glyph glyph-name="integral" unicode="&#x222b;" 
d="M116 -43q60 0 92.5 15.5t46.5 50t14 96.5v365q0 107 51.5 168.5t163.5 60.5q24 0 49 -3v-73q-24 4 -49 4q-71 0 -100 -41t-29 -124v-365q0 -114 -56.5 -171t-183.5 -56q-19 0 -29 1v73q11 -1 30 -1z" />
    <glyph glyph-name="partialdiff" unicode="&#x2202;" 
d="M486.5 619.5q67.5 -101.5 67.5 -281.5q0 -108 -30 -188t-87.5 -123.5t-136.5 -43.5q-68 0 -121.5 31t-83.5 86t-30 124q0 67 28 120t77.5 83t112.5 30q61 0 107 -22.5t78 -73.5q0 133 -47 209t-140 76q-42 0 -85 -16l-22 71q51 20 107 20q138 0 205.5 -101.5zM417.5 108
q47.5 52 50.5 159q-30 61 -70.5 89t-95.5 28q-71 0 -111 -44t-40 -116q0 -73 42.5 -120.5t110.5 -47.5q66 0 113.5 52z" />
    <glyph glyph-name="product" unicode="&#x220f;" 
d="M463 625h-306v-713h-86v793h478v-793h-86v713z" />
    <glyph glyph-name="radical" unicode="&#x221a;" 
d="M186 302l80 -277l222 709h81l-263 -828h-79l-104 327h-72v69h135z" />
    <glyph glyph-name="summation" unicode="&#x2211;" 
d="M62 -26l278 353l-265 317v61h470v-77h-356l258 -301l-276 -338h386v-77h-495v62z" />
    <glyph glyph-name="lozenge" unicode="&#x25ca;" 
d="M271 -17l-202 372l202 372h76l204 -372l-204 -372h-76zM157 355l152 -289l155 289l-155 289z" />
    <glyph glyph-name="uni0308" unicode="&#x308;" horiz-adv-x="0" 
d="M-351 600h-119v120h119v-120zM-150 600h-119v120h119v-120z" />
    <glyph glyph-name="uni0307" unicode="&#x307;" horiz-adv-x="0" 
d="M-250 600h-120v120h120v-120z" />
    <glyph glyph-name="gravecomb" unicode="&#x300;" horiz-adv-x="0" 
d="M-289 577l-117 143h106l86 -143h-75z" />
    <glyph glyph-name="acutecomb" unicode="&#x301;" horiz-adv-x="0" 
d="M-320 720h106l-117 -143h-75z" />
    <glyph glyph-name="uni030B" unicode="&#x30b;" horiz-adv-x="0" 
d="M-394 720h91l-93 -143h-84zM-232 720h91l-93 -143h-84z" />
    <glyph glyph-name="uni0302" unicode="&#x302;" horiz-adv-x="0" 
d="M-244 577l-66 93l-66 -93h-84l103 143h94l103 -143h-84z" />
    <glyph glyph-name="uni030C" unicode="&#x30c;" horiz-adv-x="0" 
d="M-310 627l66 93h84l-103 -143h-94l-103 143h84z" />
    <glyph glyph-name="uni0306" unicode="&#x306;" horiz-adv-x="0" 
d="M-365.5 657.5q22.5 -24.5 55.5 -24.5t55.5 24.5t24.5 62.5h72q-4 -74 -47 -111t-105 -37t-105 37t-47 111h72q2 -38 24.5 -62.5z" />
    <glyph glyph-name="uni030A" unicode="&#x30a;" horiz-adv-x="0" 
d="M-387.5 580q-29.5 29 -29.5 73t29.5 73t77.5 29t77.5 -29t29.5 -73t-29.5 -73t-77.5 -29t-77.5 29zM-273.5 614.5q13.5 15.5 13.5 38.5t-13.5 38.5t-36.5 15.5t-36.5 -15.5t-13.5 -38.5t13.5 -38.5t36.5 -15.5t36.5 15.5z" />
    <glyph glyph-name="tildecomb" unicode="&#x303;" horiz-adv-x="0" 
d="M-333.5 716q18.5 -9 43.5 -28q18 -14 30 -20.5t26 -6.5q16 0 29.5 14t19.5 42l59 -10q-15 -61 -45.5 -88.5t-69.5 -27.5q-25 0 -42 9t-38 26q-17 14 -30.5 21.5t-30.5 7.5q-20 0 -33.5 -15t-18.5 -39l-60 11q11 58 43.5 85.5t70.5 27.5q28 0 46.5 -9z" />
    <glyph glyph-name="uni0304" unicode="&#x304;" horiz-adv-x="0" 
d="M-454 668h288v-68h-288v68z" />
    <glyph glyph-name="uni0312" unicode="&#x312;" horiz-adv-x="0" 
d="M-304.5 710q-8.5 -13 -8.5 -40h51v-90h-96v80q0 43 15.5 69.5t56.5 41.5l20 -38q-30 -10 -38.5 -23z" />
    <glyph glyph-name="uni0326" unicode="&#x326;" horiz-adv-x="0" 
d="M-315.5 -176q8.5 13 8.5 40h-51v90h96v-80q0 -43 -15.5 -69.5t-56.5 -41.5l-20 38q30 10 38.5 23z" />
    <glyph glyph-name="uni0327" unicode="&#x327;" horiz-adv-x="0" 
d="M-324 -49q6 6 18.5 9t24.5 3q33 0 53.5 -19.5t20.5 -51.5q0 -40 -32 -65.5t-76 -25.5q-70 0 -98 54l57 19q13 -28 42 -28q18 0 30.5 11t12.5 30q0 20 -12 30.5t-28 10.5q-23 0 -35 -15l-39 12l43 82h53z" />
    <glyph glyph-name="uni0328" unicode="&#x328;" horiz-adv-x="0" 
d="M-246.5 -183.5q-29.5 -19.5 -72.5 -19.5q-38 0 -66.5 23.5t-28.5 64.5q0 72 89 115h82q-57 -20 -82 -49t-25 -56q0 -21 11 -34.5t29 -13.5q33 0 49 46l54 -20q-10 -37 -39.5 -56.5z" />
    <glyph glyph-name="uni00A0" unicode="&#xa0;" 
 />
    <glyph glyph-name="uni1E9E" unicode="&#x1e9e;" 
d="M541 340.5q47 -51.5 47 -142.5q0 -102 -55 -158.5t-154 -56.5q-52 0 -109 15v77q54 -19 103 -19q56 0 88 36.5t32 101.5q0 132 -132 132h-52v76l162 214q-25 19 -54 26.5t-71 7.5q-81 0 -118 -44t-37 -141v-465h-93v469q0 124 65 191t183 67q77 0 136 -27t94 -76
l-169 -224q87 -8 134 -59.5z" />
    <glyph glyph-name="g.ss01" 
d="M145 -166.5q-54 40.5 -63 120.5h88q9 -48 40.5 -68.5t86.5 -20.5q65 0 95.5 35.5t30.5 111.5v85q-20 -52 -58.5 -79t-93.5 -27q-61 0 -108 33.5t-73.5 94t-26.5 138.5q0 74 27.5 132t76 90.5t108.5 32.5q52 0 91 -24.5t60 -68.5l20 81h62v-491q0 -216 -214 -216
q-95 0 -149 40.5zM387 113.5q38 50.5 38 130.5v27q0 75 -37.5 120.5t-97.5 45.5q-63 0 -100 -48.5t-37 -132.5q0 -86 37.5 -139.5t98.5 -53.5q60 0 98 50.5z" />
    <glyph glyph-name="gbreve.ss01" 
d="M145 -166.5q-54 40.5 -63 120.5h88q9 -48 40.5 -68.5t86.5 -20.5q65 0 95.5 35.5t30.5 111.5v85q-20 -52 -58.5 -79t-93.5 -27q-61 0 -108 33.5t-73.5 94t-26.5 138.5q0 74 27.5 132t76 90.5t108.5 32.5q52 0 91 -24.5t60 -68.5l20 81h62v-491q0 -216 -214 -216
q-95 0 -149 40.5zM387 113.5q38 50.5 38 130.5v27q0 75 -37.5 120.5t-97.5 45.5q-63 0 -100 -48.5t-37 -132.5q0 -86 37.5 -139.5t98.5 -53.5q60 0 98 50.5zM254.5 657.5q22.5 -24.5 55.5 -24.5t55.5 24.5t24.5 62.5h72q-4 -74 -47 -111t-105 -37t-105 37t-47 111h72
q2 -38 24.5 -62.5z" />
    <glyph glyph-name="gcircumflex.ss01" 
d="M145 -166.5q-54 40.5 -63 120.5h88q9 -48 40.5 -68.5t86.5 -20.5q65 0 95.5 35.5t30.5 111.5v85q-20 -52 -58.5 -79t-93.5 -27q-61 0 -108 33.5t-73.5 94t-26.5 138.5q0 74 27.5 132t76 90.5t108.5 32.5q52 0 91 -24.5t60 -68.5l20 81h62v-491q0 -216 -214 -216
q-95 0 -149 40.5zM387 113.5q38 50.5 38 130.5v27q0 75 -37.5 120.5t-97.5 45.5q-63 0 -100 -48.5t-37 -132.5q0 -86 37.5 -139.5t98.5 -53.5q60 0 98 50.5zM376 577l-66 93l-66 -93h-84l103 143h94l103 -143h-84z" />
    <glyph glyph-name="uni0123.ss01" 
d="M145 -166.5q-54 40.5 -63 120.5h88q9 -48 40.5 -68.5t86.5 -20.5q65 0 95.5 35.5t30.5 111.5v85q-20 -52 -58.5 -79t-93.5 -27q-61 0 -108 33.5t-73.5 94t-26.5 138.5q0 74 27.5 132t76 90.5t108.5 32.5q52 0 91 -24.5t60 -68.5l20 81h62v-491q0 -216 -214 -216
q-95 0 -149 40.5zM387 113.5q38 50.5 38 130.5v27q0 75 -37.5 120.5t-97.5 45.5q-63 0 -100 -48.5t-37 -132.5q0 -86 37.5 -139.5t98.5 -53.5q60 0 98 50.5zM315.5 710q-8.5 -13 -8.5 -40h51v-90h-96v80q0 43 15.5 69.5t56.5 41.5l20 -38q-30 -10 -38.5 -23z" />
    <glyph glyph-name="gdotaccent.ss01" 
d="M145 -166.5q-54 40.5 -63 120.5h88q9 -48 40.5 -68.5t86.5 -20.5q65 0 95.5 35.5t30.5 111.5v85q-20 -52 -58.5 -79t-93.5 -27q-61 0 -108 33.5t-73.5 94t-26.5 138.5q0 74 27.5 132t76 90.5t108.5 32.5q52 0 91 -24.5t60 -68.5l20 81h62v-491q0 -216 -214 -216
q-95 0 -149 40.5zM387 113.5q38 50.5 38 130.5v27q0 75 -37.5 120.5t-97.5 45.5q-63 0 -100 -48.5t-37 -132.5q0 -86 37.5 -139.5t98.5 -53.5q60 0 98 50.5zM370 600h-120v120h120v-120z" />
    <glyph glyph-name="g.sups.ss01" 
d="M196 188q-42 29 -49 89h76q13 -65 93 -65q93 0 93 102v64q-14 -34 -44.5 -52.5t-75.5 -18.5t-80 24t-54.5 67t-19.5 99q0 84 43.5 135.5t113.5 51.5q44 0 75.5 -18t44.5 -51l10 60h62v-352q0 -164 -170 -164q-76 0 -118 29zM382.5 395.5q27.5 34.5 27.5 87.5v25
q0 52 -27 85.5t-70 33.5q-46 0 -72 -35t-26 -96q0 -62 26 -98.5t71 -36.5q43 0 70.5 34.5z" />
    <glyph glyph-name="a.sups" 
d="M478 310h-77q-4 30 -6 62q-36 -71 -130 -71q-55 0 -89 29.5t-34 76.5q0 53 41 78.5t117 34.5l90 11q-1 53 -17.5 75.5t-57.5 22.5q-38 0 -58.5 -18t-22.5 -52h-81q5 59 48.5 92t117.5 33q76 0 112 -36.5t36 -113.5v-107q0 -81 11 -117zM243 456q-21 -15 -21 -42t18.5 -43
t50.5 -16q45 0 72.5 29t27.5 75v28l-80 -10q-47 -6 -68 -21z" />
    <glyph glyph-name="b.sups" 
d="M259 666q32 18 73 18q71 0 111 -52.5t40 -138.5q0 -87 -40.5 -139.5t-113.5 -52.5q-41 0 -73.5 18t-45.5 50l-8 -59h-65v529h76v-221q14 30 46 48zM237 393.5q26 -34.5 70 -34.5q46 0 71.5 36t25.5 98q0 61 -25.5 97t-71.5 36q-43 0 -69.5 -34.5t-26.5 -88.5v-22
q0 -53 26 -87.5z" />
    <glyph glyph-name="c.sups" 
d="M185.5 354.5q-46.5 53.5 -46.5 139.5q0 85 46.5 137.5t134.5 52.5q67 0 110 -34.5t50 -95.5l-75 -11q-5 40 -28 60.5t-62 20.5q-48 0 -73.5 -34.5t-25.5 -93.5q0 -61 26.5 -97t74.5 -36q39 0 61.5 22t28.5 61l74 -14q-10 -57 -51.5 -94t-111.5 -37q-86 0 -132.5 53.5z
" />
    <glyph glyph-name="d.sups" 
d="M483 310h-73v65q-14 -34 -45.5 -54t-76.5 -20q-69 0 -110.5 52t-41.5 139q0 86 43 139t117 53q40 0 69 -17t41 -46v218h77v-529zM382.5 591.5q-25.5 34.5 -69.5 34.5q-47 0 -72 -35.5t-25 -97.5t25 -98t70 -36q44 0 70.5 34t26.5 89v20q0 55 -25.5 89.5z" />
    <glyph glyph-name="e.sups" 
d="M479 477h-263q1 -53 28.5 -84.5t75.5 -31.5q65 0 97 67l61 -27q-21 -47 -61.5 -73.5t-95.5 -26.5q-88 0 -135 51.5t-47 142.5q0 86 47.5 137.5t127.5 51.5q83 0 124.5 -50t41.5 -133q0 -16 -1 -24zM380.5 601.5q-22.5 29.5 -68.5 29.5t-72 -31.5t-25 -75.5h187
q1 48 -21.5 77.5z" />
    <glyph glyph-name="f.sups" 
d="M336 619v-309h-76v309h-116v56h116v38q0 128 151 128q35 0 65 -6v-59q-30 4 -58 4q-45 0 -63.5 -15.5t-18.5 -54.5v-35h140v-56h-140z" />
    <glyph glyph-name="g.sups" 
d="M462.5 355.5q32.5 -26.5 32.5 -73.5q0 -60 -51.5 -91.5t-144.5 -31.5q-84 0 -129.5 25t-45.5 68q0 29 19 48t53 27q-26 9 -40 27t-14 41q0 24 15.5 43t42.5 28q-49 32 -49 94q0 57 43 90.5t109 33.5q44 0 77 -15q11 30 36.5 45.5t61.5 15.5q7 0 15 -2v-58q-4 0 -11 1.5
t-15 1.5q-37 0 -55 -23q42 -34 42 -89q0 -56 -43.5 -89t-109.5 -33q-41 0 -72 12q-22 -12 -22 -32q0 -16 15.5 -26t45.5 -10l100 -1q62 0 94.5 -26.5zM247 615.5q-21 -20.5 -21 -55.5q0 -33 21 -53t54 -20q34 0 55.5 20.5t21.5 53.5q0 34 -21.5 54.5t-54.5 20.5
q-34 0 -55 -20.5zM420 270q0 48 -69 48l-102 1q-10 0 -15 1q-19 -6 -29 -19t-10 -32q0 -60 111 -60q114 0 114 61z" />
    <glyph glyph-name="h.sups" 
d="M270 664q32 20 75 20q55 0 89 -31q38 -35 38 -119v-224h-76v216q0 95 -79 95q-46 0 -69.5 -33.5t-23.5 -77.5v-200h-76v529h76v-229q14 34 46 54z" />
    <glyph glyph-name="i.sups" 
d="M349 735h-96v102h96v-102zM148 368h121v249h-110v58h185v-307h127v-58h-323v58z" />
    <glyph glyph-name="j.sups" 
d="M437 735h-95v102h95v-102zM263 227q46 0 68.5 21.5t22.5 68.5v300h-146v58h223v-365q0 -68 -37.5 -106.5t-116.5 -38.5q-53 0 -94 12v61q49 -11 80 -11z" />
    <glyph glyph-name="k.sups" 
d="M391 310l-109 180l-66 -67v-113h-76v529h76v-342l165 178h91l-136 -141l144 -224h-89z" />
    <glyph glyph-name="l.sups" 
d="M148 368h119v414h-110v57h187v-471h127v-58h-323v58z" />
    <glyph glyph-name="m.sups" 
d="M205.5 668q21.5 16 50.5 16q30 0 49.5 -15.5t27.5 -43.5q12 28 35 43.5t54 15.5q38 0 62 -28t24 -86v-260h-68v253q0 63 -43 63q-27 0 -41 -19.5t-14 -49.5v-247h-66v251q0 65 -43 65q-28 0 -41 -23t-13 -56v-237h-68v365h63v-53q10 30 31.5 46z" />
    <glyph glyph-name="n.sups" 
d="M268.5 663.5q31.5 20.5 77.5 20.5q55 0 88 -30q38 -36 38 -120v-224h-76v216q0 95 -77 95q-48 0 -71.5 -33.5t-23.5 -78.5v-199h-76v365h73v-68q16 36 47.5 56.5z" />
    <glyph glyph-name="o.sups" 
d="M180 352.5q-50 51.5 -50 140.5q0 88 50 139.5t130 51.5t130 -51.5t50 -139.5q0 -89 -50 -140.5t-130 -51.5t-130 51.5zM383.5 395q26.5 35 26.5 98t-26.5 97.5t-73.5 34.5t-74 -35t-27 -97q0 -63 27 -98t74 -35t73.5 35z" />
    <glyph glyph-name="p.sups" 
d="M257 663.5q33 20.5 74 20.5q72 0 112 -52.5t40 -138.5q0 -87 -41 -139.5t-115 -52.5q-38 0 -69.5 17.5t-44.5 44.5v-195h-76v507h73v-63q14 31 47 51.5zM237.5 393.5q26.5 -34.5 70.5 -34.5q45 0 70.5 36t25.5 98t-24.5 97.5t-70.5 35.5q-44 0 -71 -35t-27 -91v-16
q0 -56 26.5 -90.5z" />
    <glyph glyph-name="q.sups" 
d="M483 168h-77v204q-14 -32 -46.5 -51.5t-73.5 -19.5q-69 0 -109.5 52.5t-40.5 138.5q0 85 42.5 138.5t114.5 53.5q40 0 71 -17.5t43 -46.5l10 55h66v-507zM381.5 591.5q-26.5 34.5 -70.5 34.5q-46 0 -70.5 -36t-24.5 -97t25 -97.5t68 -36.5q45 0 72 34t27 87v23
q0 54 -26.5 88.5z" />
    <glyph glyph-name="r.sups" 
d="M296.5 651q45.5 31 101.5 31q42 0 65 -9v-68q-34 9 -71 9q-67 0 -113 -45t-46 -126v-133h-76v365h74v-113q20 58 65.5 89z" />
    <glyph glyph-name="s.sups" 
d="M208.5 328q-43.5 27 -59.5 78l56 30q24 -79 117 -79q37 0 57 13.5t20 39.5q0 24 -14.5 35.5t-48.5 16.5l-59 8q-54 7 -82 34t-28 70q0 51 40.5 80.5t109.5 29.5q60 0 100 -24t53 -69l-53 -32q-11 34 -37.5 52t-66.5 18q-35 0 -55 -13t-20 -37q0 -21 15.5 -33.5
t48.5 -16.5l64 -9q53 -7 78.5 -33t25.5 -71q0 -54 -40.5 -84.5t-112.5 -30.5q-65 0 -108.5 27z" />
    <glyph glyph-name="t.sups" 
d="M254 675v94l73 29v-123h142v-54h-142v-182q0 -35 21.5 -53t60.5 -18q36 0 60 4v-59q-43 -9 -75 -9q-68 0 -104 32t-36 93v192h-104v54h104z" />
    <glyph glyph-name="u.sups" 
d="M350.5 322q-32.5 -21 -74.5 -21q-58 0 -90 31q-37 35 -37 113v230h77v-222q0 -92 77 -92q45 0 68 34t23 76v204h76v-365h-73v62q-14 -29 -46.5 -50z" />
    <glyph glyph-name="v.sups" 
d="M202 675l92 -247q11 -28 17 -51h2q5 19 16 51l94 247h77l-145 -365h-86l-149 365h82z" />
    <glyph glyph-name="w.sups" 
d="M207 427l3.5 -29t2.5 -22h4l10 55l49 244h68l49 -244q6 -32 9 -55h4l7 51l39 248h72l-74 -365h-83l-49 241q-6 28 -6 52h-4q-3 -32 -7 -52l-49 -241h-82l-74 365h71z" />
    <glyph glyph-name="x.sups" 
d="M211 310h-84l137 190l-128 175h88l87 -127l85 127h86l-126 -176l137 -189h-89l-97 140z" />
    <glyph glyph-name="y.sups" 
d="M411 675h80l-143 -385q-26 -70 -64 -98.5t-96 -28.5q-24 0 -40 4v60q16 -4 35 -4q33 0 53.5 16.5t31.5 50.5l7 21l-146 364h85l101 -293z" />
    <glyph glyph-name="z.sups" 
d="M365 617h-204v58h295v-49l-210 -257h221v-59h-315v50z" />
    <glyph glyph-name="uni24FF" unicode="&#x24ff;" 
d="M161 20q-64 37 -99.5 107.5t-35.5 167.5v120q0 97 35.5 167.5t99.5 107.5t148 37t148.5 -37t100 -107.5t35.5 -167.5v-120q0 -97 -35.5 -167.5t-100 -107.5t-148.5 -37t-148 37zM388.5 209.5q26.5 39.5 26.5 145.5t-26.5 145.5t-78.5 39.5t-78.5 -39.5t-26.5 -145.5
t26.5 -145.5t78.5 -39.5t78.5 39.5zM287 224q-9 10 -14.5 40.5t-5.5 90.5t5.5 90.5t14.5 40.5t23 10t23 -10t14.5 -40.5t5.5 -90.5t-5.5 -90.5t-14.5 -40.5t-23 -10t-23 10z" />
    <glyph glyph-name="uni2776" unicode="&#x2776;" 
d="M161 20q-64 37 -99.5 107.5t-35.5 167.5v120q0 97 35.5 167.5t99.5 107.5t148 37t148.5 -37t100 -107.5t35.5 -167.5v-120q0 -97 -35.5 -167.5t-100 -107.5t-148.5 -37t-148 37zM410 231h-68v301h-48q-8 -23 -26.5 -36.5t-43.5 -13.5h-5v-58h6q19 0 34 6.5t23 16.5v-216
h-71v-53h199v53z" />
    <glyph glyph-name="uni2777" unicode="&#x2777;" 
d="M161 20q-64 37 -99.5 107.5t-35.5 167.5v120q0 97 35.5 167.5t99.5 107.5t148 37t148.5 -37t100 -107.5t35.5 -167.5v-120q0 -97 -35.5 -167.5t-100 -107.5t-148.5 -37t-148 37zM413 219h-138q54 60 79.5 91.5t40.5 64.5t15 70q0 91 -99 91q-50 0 -76 -24.5t-26 -66.5
q0 -17 1 -25l61 -5q-1 11 -1 33q0 43 39 43q38 0 38 -44q0 -36 -16 -70.5t-44 -69.5t-80 -92v-41h206v45z" />
    <glyph glyph-name="uni2778" unicode="&#x2778;" 
d="M161 20q-64 37 -99.5 107.5t-35.5 167.5v120q0 97 35.5 167.5t99.5 107.5t148 37t148.5 -37t100 -107.5t35.5 -167.5v-120q0 -97 -35.5 -167.5t-100 -107.5t-148.5 -37t-148 37zM411 273q0 44 -14.5 64t-45.5 25q57 11 57 83q0 50 -25 72.5t-74 22.5t-74.5 -25.5
t-25.5 -85.5l61 -6q0 42 9.5 57.5t29.5 15.5q19 0 28.5 -11.5t9.5 -39.5q0 -36 -11.5 -50t-33.5 -14h-15v-42h15q25 0 36.5 -13.5t11.5 -52.5q0 -32 -10 -45t-30 -13q-21 0 -31 15.5t-10 59.5l-61 -5q0 -64 25 -89.5t78 -25.5q100 0 100 103z" />
    <glyph glyph-name="uni2779" unicode="&#x2779;" 
d="M161 20q-64 37 -99.5 107.5t-35.5 167.5v120q0 97 35.5 167.5t99.5 107.5t148 37t148.5 -37t100 -107.5t35.5 -167.5v-120q0 -97 -35.5 -167.5t-100 -107.5t-148.5 -37t-148 37zM381 178v81h42v45h-42v228h-70l-114 -230v-43h127v-81h57zM324 472v-168h-80z" />
    <glyph glyph-name="uni277A" unicode="&#x277a;" 
d="M161 20q-64 37 -99.5 107.5t-35.5 167.5v120q0 97 35.5 167.5t99.5 107.5t148 37t148.5 -37t100 -107.5t35.5 -167.5v-120q0 -97 -35.5 -167.5t-100 -107.5t-148.5 -37t-148 37zM385.5 203.5q25.5 29.5 25.5 95.5t-20 94t-61 28q-48 0 -65 -34l5 103h127v46h-174
l-11 -197l56 -4q2 20 13.5 31t29.5 11q21 0 30 -16.5t9 -61.5q0 -47 -10 -64t-31 -17t-31 15t-10 54l-60 -6q0 -107 101 -107q51 0 76.5 29.5z" />
    <glyph glyph-name="uni277B" unicode="&#x277b;" 
d="M161 20q-64 37 -99.5 107.5t-35.5 167.5v120q0 97 35.5 167.5t99.5 107.5t148 37t148.5 -37t100 -107.5t35.5 -167.5v-120q0 -97 -35.5 -167.5t-100 -107.5t-148.5 -37t-148 37zM387 199.5q25 29.5 25 94.5q0 69 -20.5 96t-61.5 27q-44 0 -62 -28q2 66 12 87.5t31 21.5
q19 0 28.5 -13t9.5 -44l60 6q0 49 -24.5 71t-72.5 22q-36 0 -58.5 -16.5t-34.5 -58t-12 -115.5q0 -70 11 -109t33.5 -55t60.5 -16q50 0 75 29.5zM287 222.5q-9 9.5 -14.5 37t-5.5 81.5q12 32 44 32q20 0 30 -16.5t10 -62.5q0 -47 -10 -64t-30 -17q-15 0 -24 9.5z" />
    <glyph glyph-name="uni277C" unicode="&#x277c;" 
d="M161 20q-64 37 -99.5 107.5t-35.5 167.5v120q0 97 35.5 167.5t99.5 107.5t148 37t148.5 -37t100 -107.5t35.5 -167.5v-120q0 -97 -35.5 -167.5t-100 -107.5t-148.5 -37t-148 37zM342.5 350.5q18.5 74.5 64.5 141.5v40h-194v-47h136q-46 -68 -66.5 -143.5t-20.5 -163.5h62
q0 98 18.5 172.5z" />
    <glyph glyph-name="uni277D" unicode="&#x277d;" 
d="M161 20q-64 37 -99.5 107.5t-35.5 167.5v120q0 97 35.5 167.5t99.5 107.5t148 37t148.5 -37t100 -107.5t35.5 -167.5v-120q0 -97 -35.5 -167.5t-100 -107.5t-148.5 -37t-148 37zM385 196q27 25 27 78q0 43 -13 63.5t-40 31.5q24 11 35 29t11 52q0 45 -25 67.5t-71 22.5
q-44 0 -70.5 -23t-26.5 -67q0 -40 12.5 -60.5t36.5 -31.5q-27 -9 -40.5 -29t-13.5 -55q0 -52 26.5 -77.5t75.5 -25.5t76 25zM279.5 404q-9.5 12 -9.5 46q0 29 10 40.5t29 11.5t28.5 -11t9.5 -41t-7 -45t-23 -22l-8 3q-20 6 -29.5 18zM278.5 225.5q-10.5 13.5 -10.5 48.5
q0 33 8 47.5t26 21.5l8 -3q16 -6 23.5 -11t12 -17.5t4.5 -37.5q0 -35 -10 -48.5t-30 -13.5q-21 0 -31.5 13.5z" />
    <glyph glyph-name="uni277E" unicode="&#x277e;" 
d="M161 20q-64 37 -99.5 107.5t-35.5 167.5v120q0 97 35.5 167.5t99.5 107.5t148 37t148.5 -37t100 -107.5t35.5 -167.5v-120q0 -97 -35.5 -167.5t-100 -107.5t-148.5 -37t-148 37zM367 184.5q22 14.5 33.5 53.5t11.5 111q0 78 -10.5 119t-32.5 56.5t-60 15.5
q-50 0 -75.5 -28.5t-25.5 -92.5q0 -62 21 -88t62 -26q43 0 61 26q0 -50 -5 -75.5t-14 -34.5t-23 -9q-19 0 -29 14.5t-10 48.5l-60 -6q0 -99 97 -99q37 0 59 14.5zM278.5 364q-10.5 15 -10.5 55q0 47 10 63.5t31 16.5q14 0 22.5 -8t14 -34t6.5 -77q-11 -31 -43 -31
q-20 0 -30.5 15z" />
    <glyph glyph-name="zero.case" 
d="M563 355q0 -370 -253 -370t-253 370q0 372 253 372t253 -372zM187.5 583q-42.5 -67 -42.5 -228q0 -90 14 -152l276 374q-40 73 -125 73q-80 0 -122.5 -67zM432.5 129q42.5 67 42.5 226q0 90 -14 152l-276 -374q40 -71 125 -71q80 0 122.5 67z" />
    <glyph glyph-name="one.case" 
d="M534 83v-83h-441v83h185v489q-18 -23 -68.5 -39.5t-88.5 -16.5h-28v81h19q34 0 72.5 15.5t68 42t39.5 55.5h71v-627h171z" />
    <glyph glyph-name="two.case" 
d="M308 296q66 71 92.5 121.5t26.5 104.5q0 61 -33 95.5t-91 34.5q-60 0 -94.5 -35.5t-34.5 -97.5q0 -21 4 -54l-89 7q-5 25 -5 53q0 59 27.5 105t77.5 71.5t115 25.5q99 0 157 -54.5t58 -147.5q0 -46 -13 -85.5t-45.5 -86t-92.5 -111.5q-40 -45 -126 -123q1 1 -41 -38h331
v-81h-455v74q122 107 231 222z" />
    <glyph glyph-name="three.case" 
d="M359 419.5q29 13.5 49 41.5t20 70q0 57 -35 88t-94 31q-65 0 -100.5 -43.5t-35.5 -122.5l-83 18q0 102 59 163.5t165 61.5q95 0 154.5 -52t59.5 -144q0 -53 -35.5 -95t-87.5 -57q70 -11 108.5 -58.5t38.5 -116.5q0 -67 -32 -116.5t-86.5 -76t-121.5 -26.5
q-70 0 -122.5 28t-81.5 77.5t-31 111.5l87 11q2 -68 43 -110t105 -42q68 0 109 35t41 107q0 45 -32 86.5t-115 41.5h-43v75h40q28 0 57 13.5z" />
    <glyph glyph-name="four.case" 
d="M448 180v-180h-85v180h-316v62l304 468h97v-459h114v-71h-114zM331 548l-18 -31l-131 -199l-21 -33q-14 -24 -21 -34h223v354q-12 -25 -32 -57z" />
    <glyph glyph-name="five.case" 
d="M190 631l-28 -257q22 46 64.5 73t96.5 27q65 0 113.5 -30.5t75 -85t26.5 -125.5q0 -73 -29 -129.5t-81 -87.5t-121 -31q-89 0 -152 47.5t-78 130.5l93 11q10 -51 48.5 -81.5t90.5 -30.5q64 0 101.5 44.5t37.5 126.5q0 70 -33.5 117.5t-101.5 47.5q-63 0 -96 -34.5
t-45 -79.5l-89 9l38 417h387v-79h-318z" />
    <glyph glyph-name="six.case" 
d="M445 444q49 -30 75.5 -84.5t26.5 -127.5t-28.5 -129t-80.5 -87t-120 -31q-124 0 -187 90t-63 267q0 185 67 285t192 100q87 0 141.5 -46.5t70.5 -132.5l-90 -20q-24 124 -123 124q-82 0 -125 -70.5t-45 -208.5q24 48 70 74.5t106 26.5q64 0 113 -30zM419.5 106.5
q37.5 46.5 37.5 124.5q0 77 -38.5 122.5t-103.5 45.5q-57 0 -97.5 -36.5t-58.5 -104.5q8 -91 51 -144.5t109 -53.5q63 0 100.5 46.5z" />
    <glyph glyph-name="seven.case" 
d="M543 710v-71q-104 -114 -170 -282.5t-72 -356.5h-99q10 163 75.5 335t168.5 296h-363v79h460z" />
    <glyph glyph-name="eight.case" 
d="M524.5 307.5q34.5 -47.5 34.5 -121.5q0 -60 -30.5 -105.5t-86 -70.5t-129.5 -25q-75 0 -132 24t-88.5 68.5t-31.5 102.5q0 75 36 124t107 71q-61 27 -89 69t-28 104q0 53 28 93.5t79 63t117 22.5q101 0 161.5 -48t60.5 -129q0 -62 -30.5 -104.5t-89.5 -62.5
q77 -28 111.5 -75.5zM212 629.5q-35 -29.5 -35 -81.5q0 -48 28 -78.5t90 -49.5l34 -10q63 25 88.5 55t25.5 81q0 53 -35.5 83t-99.5 30q-61 0 -96 -29.5zM427.5 91q41.5 34 41.5 95q0 52 -29.5 86.5t-93.5 54.5l-65 20q-69 -25 -99 -61t-30 -93q0 -61 44 -98.5t117 -37.5
t114.5 34z" />
    <glyph glyph-name="nine.case" 
d="M550 371q0 -179 -58.5 -282.5t-195.5 -103.5q-91 0 -148.5 50t-70.5 142l90 20q7 -64 39.5 -100.5t90.5 -36.5q91 0 126.5 75.5t36.5 222.5q-26 -44 -69 -66.5t-99 -22.5q-64 0 -114.5 26.5t-79.5 77.5t-29 124q0 66 28.5 118.5t81.5 82t122 29.5q249 0 249 -356z
M401.5 381.5q44.5 37.5 56.5 94.5q-8 76 -45 126t-113 50q-64 0 -102.5 -42.5t-38.5 -111.5q0 -71 39.5 -112.5t102.5 -41.5q56 0 100.5 37.5z" />
    <glyph glyph-name="uni24EA" unicode="&#x24ea;" 
d="M161 20q-64 37 -99.5 107.5t-35.5 167.5v120q0 97 35.5 167.5t99.5 107.5t148 37t148.5 -37t100 -107.5t35.5 -167.5v-120q0 -97 -35.5 -167.5t-100 -107.5t-148.5 -37t-148 37zM429.5 60q52.5 31 81.5 90.5t29 142.5v124q0 83 -29 142.5t-81.5 90.5t-120.5 31t-120 -31
t-81 -90.5t-29 -142.5v-124q0 -83 29 -142.5t81 -90.5t120 -31t120.5 31zM231.5 209.5q-26.5 39.5 -26.5 145.5t26.5 145.5t78.5 39.5t78.5 -39.5t26.5 -145.5t-26.5 -145.5t-78.5 -39.5t-78.5 39.5zM333 224q9 10 14.5 40.5t5.5 90.5t-5.5 90.5t-14.5 40.5t-23 10t-23 -10
t-14.5 -40.5t-5.5 -90.5t5.5 -90.5t14.5 -40.5t23 -10t23 10z" />
    <glyph glyph-name="uni2460" unicode="&#x2460;" 
d="M161 20q-64 37 -99.5 107.5t-35.5 167.5v120q0 97 35.5 167.5t99.5 107.5t148 37t148.5 -37t100 -107.5t35.5 -167.5v-120q0 -97 -35.5 -167.5t-100 -107.5t-148.5 -37t-148 37zM429.5 60q52.5 31 81.5 90.5t29 142.5v124q0 83 -29 142.5t-81.5 90.5t-120.5 31t-120 -31
t-81 -90.5t-29 -142.5v-124q0 -83 29 -142.5t81 -90.5t120 -31t120.5 31zM410 231h-68v301h-48q-8 -23 -26.5 -36.5t-43.5 -13.5h-5v-58h6q19 0 34 6.5t23 16.5v-216h-71v-53h199v53z" />
    <glyph glyph-name="uni2461" unicode="&#x2461;" 
d="M161 20q-64 37 -99.5 107.5t-35.5 167.5v120q0 97 35.5 167.5t99.5 107.5t148 37t148.5 -37t100 -107.5t35.5 -167.5v-120q0 -97 -35.5 -167.5t-100 -107.5t-148.5 -37t-148 37zM429.5 60q52.5 31 81.5 90.5t29 142.5v124q0 83 -29 142.5t-81.5 90.5t-120.5 31t-120 -31
t-81 -90.5t-29 -142.5v-124q0 -83 29 -142.5t81 -90.5t120 -31t120.5 31zM287 307q28 35 44 69.5t16 70.5q0 44 -38 44q-39 0 -39 -43q0 -22 1 -33l-61 5q-1 8 -1 25q0 42 26 66.5t76 24.5q99 0 99 -91q0 -37 -15 -70t-40.5 -64.5t-79.5 -91.5h138v-45h-206v41q52 57 80 92z
" />
    <glyph glyph-name="uni2462" unicode="&#x2462;" 
d="M161 20q-64 37 -99.5 107.5t-35.5 167.5v120q0 97 35.5 167.5t99.5 107.5t148 37t148.5 -37t100 -107.5t35.5 -167.5v-120q0 -97 -35.5 -167.5t-100 -107.5t-148.5 -37t-148 37zM429.5 60q52.5 31 81.5 90.5t29 142.5v124q0 83 -29 142.5t-81.5 90.5t-120.5 31t-120 -31
t-81 -90.5t-29 -142.5v-124q0 -83 29 -142.5t81 -90.5t120 -31t120.5 31zM233 195.5q-25 25.5 -25 89.5l61 5q0 -44 10 -59.5t31 -15.5q20 0 30 13t10 45q0 39 -11.5 52.5t-36.5 13.5h-15v42h15q22 0 33.5 14t11.5 50q0 28 -9.5 39.5t-28.5 11.5q-20 0 -29.5 -15.5
t-9.5 -57.5l-61 6q0 60 25.5 85.5t74.5 25.5t74 -22.5t25 -72.5q0 -72 -57 -83q31 -5 45.5 -25t14.5 -64q0 -103 -100 -103q-53 0 -78 25.5z" />
    <glyph glyph-name="uni2463" unicode="&#x2463;" 
d="M161 20q-64 37 -99.5 107.5t-35.5 167.5v120q0 97 35.5 167.5t99.5 107.5t148 37t148.5 -37t100 -107.5t35.5 -167.5v-120q0 -97 -35.5 -167.5t-100 -107.5t-148.5 -37t-148 37zM429.5 60q52.5 31 81.5 90.5t29 142.5v124q0 83 -29 142.5t-81.5 90.5t-120.5 31t-120 -31
t-81 -90.5t-29 -142.5v-124q0 -83 29 -142.5t81 -90.5t120 -31t120.5 31zM381 259v-81h-57v81h-127v43l114 230h70v-228h42v-45h-42zM244 304h80v168z" />
    <glyph glyph-name="uni2464" unicode="&#x2464;" 
d="M161 20q-64 37 -99.5 107.5t-35.5 167.5v120q0 97 35.5 167.5t99.5 107.5t148 37t148.5 -37t100 -107.5t35.5 -167.5v-120q0 -97 -35.5 -167.5t-100 -107.5t-148.5 -37t-148 37zM429.5 60q52.5 31 81.5 90.5t29 142.5v124q0 83 -29 142.5t-81.5 90.5t-120.5 31t-120 -31
t-81 -90.5t-29 -142.5v-124q0 -83 29 -142.5t81 -90.5t120 -31t120.5 31zM208 281l60 6q0 -39 10 -54t31 -15t31 17t10 64q0 45 -9 61.5t-30 16.5q-18 0 -29.5 -11t-13.5 -31l-56 4l11 197h174v-46h-127l-5 -103q17 34 65 34q41 0 61 -28t20 -94t-25.5 -95.5t-76.5 -29.5
q-101 0 -101 107z" />
    <glyph glyph-name="uni2465" unicode="&#x2465;" 
d="M457.5 690q64.5 -37 100 -107.5t35.5 -167.5v-120q0 -97 -35.5 -167.5t-100 -107.5t-148.5 -37t-148 37t-99.5 107.5t-35.5 167.5v120q0 97 35.5 167.5t99.5 107.5t148 37t148.5 -37zM540 417q0 83 -29 142.5t-81.5 90.5t-120.5 31t-120 -31t-81 -90.5t-29 -142.5v-124
q0 -83 29 -142.5t81 -90.5t120 -31t120.5 31t81.5 90.5t29 142.5v124zM391.5 390q20.5 -27 20.5 -96q0 -65 -25 -94.5t-75 -29.5q-38 0 -60.5 16t-33.5 55t-11 109q0 74 12 115.5t34.5 58t58.5 16.5q48 0 72.5 -22t24.5 -71l-60 -6q0 31 -9.5 44t-28.5 13q-21 0 -31 -21.5
t-12 -87.5q18 28 62 28q41 0 61.5 -27zM341 230q10 17 10 64q0 46 -10 62.5t-30 16.5q-32 0 -44 -32q0 -54 5.5 -81.5t14.5 -37t24 -9.5q20 0 30 17z" />
    <glyph glyph-name="uni2466" unicode="&#x2466;" 
d="M161 20q-64 37 -99.5 107.5t-35.5 167.5v120q0 97 35.5 167.5t99.5 107.5t148 37t148.5 -37t100 -107.5t35.5 -167.5v-120q0 -97 -35.5 -167.5t-100 -107.5t-148.5 -37t-148 37zM429.5 60q52.5 31 81.5 90.5t29 142.5v124q0 83 -29 142.5t-81.5 90.5t-120.5 31t-120 -31
t-81 -90.5t-29 -142.5v-124q0 -83 29 -142.5t81 -90.5t120 -31t120.5 31zM407 532v-40q-45 -67 -64 -138t-19 -155v-21h-62v8q0 169 87 299h-136v47h194z" />
    <glyph glyph-name="uni2467" unicode="&#x2467;" 
d="M457.5 690q64.5 -37 100 -107.5t35.5 -167.5v-120q0 -97 -35.5 -167.5t-100 -107.5t-148.5 -37t-148 37t-99.5 107.5t-35.5 167.5v120q0 97 35.5 167.5t99.5 107.5t148 37t148.5 -37zM540 417q0 83 -29 142.5t-81.5 90.5t-120.5 31t-120 -31t-81 -90.5t-29 -142.5v-124
q0 -83 29 -142.5t81 -90.5t120 -31t120.5 31t81.5 90.5t29 142.5v124zM399 337.5q13 -20.5 13 -63.5q0 -53 -27 -78t-76 -25t-75.5 25.5t-26.5 77.5q0 35 13.5 55t40.5 29q-24 11 -36.5 31.5t-12.5 60.5q0 44 26.5 67t70.5 23q46 0 71 -22.5t25 -67.5q0 -34 -11 -52t-35 -29
q27 -11 40 -31.5zM280 490.5q-10 -11.5 -10 -40.5q0 -34 9.5 -46t29.5 -18l8 -3q16 7 23 22t7 45t-9.5 41t-28.5 11t-29 -11.5zM340 225.5q10 13.5 10 48.5q0 25 -4.5 37.5t-12 17.5t-23.5 11l-8 3q-18 -7 -26 -21.5t-8 -47.5q0 -35 10.5 -48.5t31.5 -13.5q20 0 30 13.5z
" />
    <glyph glyph-name="uni2468" unicode="&#x2468;" 
d="M457.5 690q64.5 -37 100 -107.5t35.5 -167.5v-120q0 -97 -35.5 -167.5t-100 -107.5t-148.5 -37t-148 37t-99.5 107.5t-35.5 167.5v120q0 97 35.5 167.5t99.5 107.5t148 37t148.5 -37zM540 417q0 83 -29 142.5t-81.5 90.5t-120.5 31t-120 -31t-81 -90.5t-29 -142.5v-124
q0 -83 29 -142.5t81 -90.5t120 -31t120.5 31t81.5 90.5t29 142.5v124zM369 524.5q22 -15.5 32.5 -56.5t10.5 -119q0 -72 -11.5 -111t-33.5 -53.5t-59 -14.5q-97 0 -97 99l60 6q0 -34 10 -48.5t29 -14.5q14 0 23 9t14 34.5t5 75.5q-18 -26 -61 -26q-41 0 -62 26t-21 88
q0 64 25.5 92.5t75.5 28.5q38 0 60 -15.5zM352 380q-1 51 -6.5 77t-14 34t-22.5 8q-21 0 -31 -16.5t-10 -63.5q0 -40 10.5 -55t30.5 -15q32 0 43 31z" />
    <glyph glyph-name="zero.osf" 
d="M447 514.5q58 -35.5 89.5 -100t31.5 -150.5q0 -84 -31 -147t-89 -97.5t-137 -34.5q-80 0 -138.5 35t-89.5 99t-31 150q0 84 31 147.5t89.5 98.5t137.5 35t137 -35.5zM185 417.5q-46 -55.5 -46 -150.5q0 -69 25 -121l244 296q-42 31 -98 31q-79 0 -125 -55.5zM435.5 114
q45.5 55 45.5 148q0 81 -32 134l-247 -299q43 -38 109 -38q79 0 124.5 55z" />
    <glyph glyph-name="one.osf" 
d="M547 77v-77h-441v77h185v323q-17 -23 -64 -39.5t-83 -16.5h-38v81h29q32 0 68.5 15t64.5 40.5t37 54.5h71v-458h171z" />
    <glyph glyph-name="two.osf" 
d="M108 76l143 89q93 60 131.5 105.5t38.5 105.5q0 46 -29.5 72.5t-80.5 26.5q-57 0 -90.5 -29.5t-33.5 -79.5q0 -33 4 -50l-91 11q-3 23 -3 39q0 53 27 95t75.5 65.5t110.5 23.5q94 0 147 -44.5t53 -123.5q0 -46 -20 -86.5t-61 -79.5q-64 -61 -207 -139h321v-77h-475v52z
" />
    <glyph glyph-name="three.osf" 
d="M140 -109q-64 56 -67 157l88 11q3 -73 43.5 -111t114.5 -38q69 0 109 36t40 91q0 60 -39.5 96t-112.5 36h-43v74h40q65 0 98 32.5t33 84.5q0 54 -33 84.5t-95 30.5q-69 0 -107.5 -42.5t-38.5 -118.5l-84 18q0 100 64 159t171 59q100 0 156.5 -51.5t56.5 -138.5
q0 -50 -33 -90.5t-87 -53.5q68 -12 106 -59t38 -120q0 -55 -30 -101.5t-85 -73.5t-127 -27q-112 0 -176 56z" />
    <glyph glyph-name="four.osf" 
d="M373 31h-326v61l311 443h100v-434h114v-70h-114v-181h-85v181zM373 354q0 63 2 95h-2q-18 -40 -50 -86l-135 -196q-32 -45 -52 -66h237v253z" />
    <glyph glyph-name="five.osf" 
d="M153 -115q-63 50 -76 135l93 11q10 -55 48.5 -87t91.5 -32q71 0 109 48t38 121q0 79 -36 123.5t-95 44.5q-56 4 -97 -28t-55 -88l-86 9l41 393h395v-78h-325l-28 -226q25 45 69.5 69t98.5 24q99 0 153.5 -63.5t54.5 -174.5q0 -69 -29.5 -126t-83.5 -91t-126 -34
q-92 0 -155 50z" />
    <glyph glyph-name="six.osf" 
d="M445.5 434.5q48.5 -29.5 75 -83t26.5 -124.5q0 -72 -29 -126.5t-81 -85t-119 -30.5q-124 0 -187 88t-63 259q0 182 67 280t192 98q87 0 141.5 -44t70.5 -128l-90 -20q-23 117 -123 117q-82 0 -124.5 -68.5t-45.5 -202.5q24 47 70.5 73.5t105.5 26.5q65 0 113.5 -29.5z
M419.5 105q37.5 45 37.5 121q0 75 -38 119t-104 44q-57 0 -97.5 -36t-58.5 -105q8 -86 50.5 -137t109.5 -51q63 0 100.5 45z" />
    <glyph glyph-name="seven.osf" 
d="M441 452h-358v83h460v-70q-122 -134 -184 -287.5t-62 -310.5v-17h-99v10q0 294 243 592z" />
    <glyph glyph-name="eight.osf" 
d="M516.5 301q32.5 -45 32.5 -115q0 -60 -29 -105.5t-82.5 -70.5t-124.5 -25q-72 0 -127 24t-85 68.5t-30 102.5q0 143 135 185q-57 27 -83 67t-26 99q0 53 27 93.5t75.5 63t111.5 22.5q97 0 154.5 -48t57.5 -129q0 -59 -28.5 -99.5t-83.5 -59.5q73 -28 105.5 -73z
M219.5 612.5q-32.5 -29.5 -32.5 -81.5q0 -45 25.5 -73.5t82.5 -47.5l34 -10q57 23 80.5 52t23.5 77q0 53 -33 83t-92 30q-56 0 -88.5 -29.5zM420.5 91q38.5 34 38.5 95q0 48 -27 79.5t-86 51.5l-64 20q-65 -23 -92.5 -56.5t-27.5 -87.5q0 -61 41.5 -98.5t109.5 -37.5
q69 0 107.5 34z" />
    <glyph glyph-name="nine.osf" 
d="M544 201q0 -166 -60 -266t-187 -100q-95 0 -152 47t-74 135l90 20q11 -61 43.5 -94t93.5 -33q80 0 117 72.5t39 205.5q-26 -44 -69 -66.5t-99 -22.5q-64 0 -114.5 25.5t-79.5 76t-29 121.5q0 65 28.5 117t80.5 81.5t120 29.5q252 0 252 -349zM395.5 211.5
q44.5 37.5 56.5 93.5q-9 73 -46.5 121.5t-114.5 48.5q-62 0 -100 -42t-38 -110q0 -69 39.5 -109t102.5 -40q56 0 100.5 37.5z" />
    <glyph glyph-name="zero.subs" 
d="M455 311q49 -67 49 -198q0 -135 -47 -199.5t-146 -64.5q-97 0 -146 67t-49 198q0 264 195 264q95 0 144 -67zM224.5 266.5q-27.5 -48.5 -27.5 -152.5q0 -59 9 -101l192 250q-26 52 -87 52q-59 0 -86.5 -48.5zM396.5 -40.5q26.5 47.5 26.5 153.5q0 66 -10 106l-193 -250
q28 -57 91 -57q59 0 85.5 47.5z" />
    <glyph glyph-name="one.subs" 
d="M484 -75v-65h-348v65h139v337q-15 -17 -53.5 -29.5t-68.5 -12.5h-15v71h11q40 0 82.5 22.5t55.5 53.5h67v-442h130z" />
    <glyph glyph-name="two.subs" 
d="M318 84q41 42 58 75t17 68q0 41 -22.5 63.5t-63.5 22.5q-43 0 -66.5 -24t-23.5 -66q0 -15 3 -36l-80 7q-4 17 -4 34q0 67 47 108.5t124 41.5q79 0 123.5 -39t44.5 -109q0 -44 -20 -82.5t-71 -91.5q-53 -56 -147 -128h251v-68h-356v63q119 92 186 161z" />
    <glyph glyph-name="three.subs" 
d="M368 173q26 23 26 60q0 39 -23 60t-61 21q-49 0 -73.5 -28.5t-22.5 -79.5l-80 11q-1 75 46 118t132 43q75 0 119.5 -36.5t44.5 -100.5q0 -43 -26.5 -74t-70.5 -41q52 -5 82.5 -39.5t30.5 -86.5q0 -68 -49.5 -109.5t-130.5 -41.5q-86 0 -134.5 43t-50.5 116l82 7
q0 -45 28 -73.5t75 -28.5q46 0 71.5 23t25.5 67q0 40 -25.5 64t-76.5 24h-35v59h32q38 0 64 23z" />
    <glyph glyph-name="four.subs" 
d="M429 -16v-124h-76v124h-244v56l230 327h90v-322h82v-61h-82zM319 233l-107 -146q-18 -25 -35 -42h176v244q-13 -28 -34 -56z" />
    <glyph glyph-name="five.subs" 
d="M226 301l-19 -172q40 71 126 71q72 0 114.5 -47t42.5 -125q0 -83 -48.5 -131t-133.5 -48q-75 0 -122.5 36t-56.5 97l79 10q8 -37 34.5 -58t67.5 -21q49 0 75 30t26 84q0 51 -25.5 80t-72.5 29q-37 0 -64.5 -20.5t-37.5 -54.5l-73 7l29 299h298v-66h-239z" />
    <glyph glyph-name="six.subs" 
d="M452 154q43 -47 43 -126q0 -80 -48 -129.5t-128 -49.5q-95 0 -145 65t-50 191q0 129 51.5 201t147.5 72q69 0 111.5 -33.5t53.5 -96.5l-79 -14q-16 81 -88 81q-58 0 -87.5 -50.5t-30.5 -142.5q17 38 52.5 58.5t80.5 20.5q73 0 116 -47zM390 -56q26 31 26 82
q0 52 -26.5 82t-71.5 30q-41 0 -71 -25.5t-42 -71.5q7 -60 36 -94t78 -34q45 0 71 31z" />
    <glyph glyph-name="seven.subs" 
d="M485 367v-64q-75 -78 -122 -194t-51 -249h-89v4q4 116 51 230.5t131 204.5h-270v68h350z" />
    <glyph glyph-name="eight.subs" 
d="M471 85.5q28 -32.5 28 -89.5q0 -67 -51.5 -107t-137.5 -40q-87 0 -138 38.5t-51 103.5q0 98 104 128q-44 17 -66 47t-22 77q0 61 47 98t124 37t123 -34t46 -93q0 -87 -90 -114q56 -19 84 -51.5zM241 300q-24 -21 -24 -57q0 -32 21 -51t64 -31l29 -8q38 15 54 35.5
t16 52.5q0 37 -25.5 58.5t-69.5 21.5q-41 0 -65 -21zM389.5 -65.5q28.5 23.5 28.5 63.5q0 37 -22.5 58.5t-66.5 33.5l-45 12q-43 -16 -63 -40t-20 -60q0 -41 30 -66t80 -25t78.5 23.5z" />
    <glyph glyph-name="nine.subs" 
d="M446 314q50 -64 50 -192t-48 -200.5t-146 -72.5q-72 0 -116 34.5t-55 99.5l79 14q17 -83 95 -83q57 0 84.5 50.5t27.5 141.5v11q-17 -36 -50 -54t-75 -18q-75 0 -122 44.5t-47 119.5t48 122t130 47q95 0 145 -64zM374.5 131q30.5 24 40.5 64q-6 54 -33 87t-80 33
q-46 0 -73 -28.5t-27 -75.5t29 -75.5t74 -28.5q39 0 69.5 24z" />
    <glyph glyph-name="zero.dnom" 
d="M423.5 339q38.5 -51 38.5 -149q0 -101 -37 -149.5t-115 -48.5q-76 0 -114.5 50.5t-38.5 147.5q0 200 153 200q75 0 113.5 -51zM248.5 303q-19.5 -36 -19.5 -113q0 -43 6 -72l140 176q-19 45 -65 45q-42 0 -61.5 -36zM371 76.5q18 33.5 18 113.5q0 40 -5 73l-139 -176
q19 -44 65 -44q43 0 61 33.5z" />
    <glyph glyph-name="one.dnom" 
d="M452 51v-51h-284v51h110v250q-13 -13 -44 -24t-56 -11h-5v61h4q32 0 66 15.5t46 38.5h59v-330h104z" />
    <glyph glyph-name="two.dnom" 
d="M318 170q51 50 51 96q0 32 -16.5 49.5t-47.5 17.5t-48 -16.5t-17 -47.5q0 -18 2 -24l-71 6q-2 18 -2 22q0 53 37.5 85t98.5 32q65 0 100 -31.5t35 -88.5q0 -55 -48.5 -108t-130.5 -107h192v-55h-286v52q100 68 151 118z" />
    <glyph glyph-name="three.dnom" 
d="M351.5 230.5q19.5 14.5 19.5 44.5q0 29 -17 44.5t-46 15.5q-33 0 -50 -20.5t-15 -54.5l-74 6q-2 57 35 90.5t104 33.5q63 0 99 -28t36 -77q0 -36 -21.5 -60t-57.5 -30q41 -2 65 -27t24 -67q0 -49 -39 -79t-103 -30q-68 0 -105.5 32t-38.5 89l74 5q-1 -31 18.5 -52
t51.5 -21q30 0 49 16t19 46q0 63 -73 63h-29v46h26q29 0 48.5 14.5z" />
    <glyph glyph-name="four.dnom" 
d="M410 90v-90h-66v90h-197v50l184 241h79v-239h63v-52h-63zM344 325l-143 -183h143v183z" />
    <glyph glyph-name="five.dnom" 
d="M248 325l-13 -124q32 55 100 55q55 0 87 -34.5t32 -92.5q0 -66 -39 -101.5t-108 -35.5q-59 0 -98 29t-44 77l65 7q6 -28 27 -44t51 -16q36 0 57.5 22t21.5 61q0 35 -20 55.5t-55 20.5q-29 0 -49 -14t-28 -41l-59 6l23 226h235v-56h-186z" />
    <glyph glyph-name="six.dnom" 
d="M425 223.5q33 -34.5 33 -94.5t-37.5 -98.5t-100.5 -38.5q-74 0 -116 49t-42 146q0 93 41 148t115 55q57 0 90.5 -27t41.5 -77l-67 -8q-10 58 -68 58q-40 0 -63 -36t-23 -92v-25q11 37 40 56t68 19q55 0 88 -34.5zM371 67.5q20 22.5 20 56.5q0 39 -19.5 61.5t-52.5 22.5
q-31 0 -55 -20t-32 -54q13 -89 85 -89q34 0 54 22.5z" />
    <glyph glyph-name="seven.dnom" 
d="M447 381v-58q-57 -55 -91 -139.5t-36 -183.5h-77v5q-1 87 36.5 171.5t101.5 145.5h-208v59h274z" />
    <glyph glyph-name="eight.dnom" 
d="M437.5 176q25.5 -25 25.5 -75q0 -51 -42 -80t-114 -29q-70 0 -110.5 28t-40.5 77q0 72 88 90q-37 11 -58 34t-21 64q0 47 39 76t102 29t101.5 -25.5t38.5 -69.5q0 -32 -19 -52.5t-60 -30.5q45 -11 70.5 -36zM253 326q-19 -15 -19 -42q0 -26 18.5 -39t51.5 -20l27 -5
q27 9 38.5 23.5t11.5 38.5q0 28 -20.5 43.5t-55.5 15.5q-33 0 -52 -15zM370 60q22 16 22 44q0 31 -20 45.5t-58 22.5l-28 6q-60 -22 -60 -71q0 -30 22 -46.5t62 -16.5q38 0 60 16z" />
    <glyph glyph-name="nine.dnom" 
d="M416.5 341.5q41.5 -48.5 41.5 -147.5q0 -98 -39.5 -150t-117.5 -52q-55 0 -89.5 25.5t-41.5 75.5l67 11q5 -27 23 -42t46 -15q41 0 63.5 33t22.5 90v42q-8 -38 -35.5 -58t-64.5 -20q-60 0 -95.5 35.5t-35.5 90.5q0 57 37.5 93.5t104.5 36.5q72 0 113.5 -48.5zM360.5 203
q22.5 18 29.5 52q-6 40 -27.5 62t-56.5 22t-56 -21.5t-21 -54.5q0 -34 22 -56t56 -22q31 0 53.5 18z" />
    <glyph glyph-name="zero.numr" 
d="M423.5 667q38.5 -51 38.5 -149q0 -101 -37 -149.5t-115 -48.5q-76 0 -114.5 50.5t-38.5 147.5q0 200 153 200q75 0 113.5 -51zM248.5 631q-19.5 -36 -19.5 -113q0 -43 6 -72l140 176q-19 45 -65 45q-42 0 -61.5 -36zM371 404.5q18 33.5 18 113.5q0 40 -5 73l-139 -176
q19 -44 65 -44q43 0 61 33.5z" />
    <glyph glyph-name="one.numr" 
d="M452 379v-51h-284v51h110v250q-13 -13 -44 -24t-56 -11h-5v61h4q32 0 66 15.5t46 38.5h59v-330h104z" />
    <glyph glyph-name="two.numr" 
d="M318 498q51 50 51 96q0 32 -16.5 49.5t-47.5 17.5t-48 -16.5t-17 -47.5q0 -18 2 -24l-71 6q-2 18 -2 22q0 53 37.5 85t98.5 32q65 0 100 -31.5t35 -88.5q0 -55 -48.5 -108t-130.5 -107h192v-55h-286v52q100 68 151 118z" />
    <glyph glyph-name="three.numr" 
d="M351.5 558.5q19.5 14.5 19.5 44.5q0 29 -17 44.5t-46 15.5q-33 0 -50 -20.5t-15 -54.5l-74 6q-2 57 35 90.5t104 33.5q63 0 99 -28t36 -77q0 -36 -21.5 -60t-57.5 -30q41 -2 65 -27t24 -67q0 -49 -39 -79t-103 -30q-68 0 -105.5 32t-38.5 89l74 5q-1 -31 18.5 -52
t51.5 -21q30 0 49 16t19 46q0 63 -73 63h-29v46h26q29 0 48.5 14.5z" />
    <glyph glyph-name="four.numr" 
d="M410 418v-90h-66v90h-197v50l184 241h79v-239h63v-52h-63zM344 653l-143 -183h143v183z" />
    <glyph glyph-name="five.numr" 
d="M248 653l-13 -124q32 55 100 55q55 0 87 -34.5t32 -92.5q0 -66 -39 -101.5t-108 -35.5q-59 0 -98 29t-44 77l65 7q6 -28 27 -44t51 -16q36 0 57.5 22t21.5 61q0 35 -20 55.5t-55 20.5q-29 0 -49 -14t-28 -41l-59 6l23 226h235v-56h-186z" />
    <glyph glyph-name="six.numr" 
d="M425 551.5q33 -34.5 33 -94.5t-37.5 -98.5t-100.5 -38.5q-74 0 -116 49t-42 146q0 93 41 148t115 55q57 0 90.5 -27t41.5 -77l-67 -8q-10 58 -68 58q-40 0 -63 -36t-23 -92v-25q11 37 40 56t68 19q55 0 88 -34.5zM371 395.5q20 22.5 20 56.5q0 39 -19.5 61.5t-52.5 22.5
q-31 0 -55 -20t-32 -54q13 -89 85 -89q34 0 54 22.5z" />
    <glyph glyph-name="seven.numr" 
d="M447 709v-58q-57 -55 -91 -139.5t-36 -183.5h-77v5q-1 87 36.5 171.5t101.5 145.5h-208v59h274z" />
    <glyph glyph-name="eight.numr" 
d="M437.5 504q25.5 -25 25.5 -75q0 -51 -42 -80t-114 -29q-70 0 -110.5 28t-40.5 77q0 72 88 90q-37 11 -58 34t-21 64q0 47 39 76t102 29t101.5 -25.5t38.5 -69.5q0 -32 -19 -52.5t-60 -30.5q45 -11 70.5 -36zM253 654q-19 -15 -19 -42q0 -26 18.5 -39t51.5 -20l27 -5
q27 9 38.5 23.5t11.5 38.5q0 28 -20.5 43.5t-55.5 15.5q-33 0 -52 -15zM370 388q22 16 22 44q0 31 -20 45.5t-58 22.5l-28 6q-60 -22 -60 -71q0 -30 22 -46.5t62 -16.5q38 0 60 16z" />
    <glyph glyph-name="nine.numr" 
d="M416.5 669.5q41.5 -48.5 41.5 -147.5q0 -98 -39.5 -150t-117.5 -52q-55 0 -89.5 25.5t-41.5 75.5l67 11q5 -27 23 -42t46 -15q41 0 63.5 33t22.5 90v42q-8 -38 -35.5 -58t-64.5 -20q-60 0 -95.5 35.5t-35.5 90.5q0 57 37.5 93.5t104.5 36.5q72 0 113.5 -48.5zM360.5 531
q22.5 18 29.5 52q-6 40 -27.5 62t-56.5 22t-56 -21.5t-21 -54.5q0 -34 22 -56t56 -22q31 0 53.5 18z" />
    <glyph glyph-name="zero.sups" 
d="M455 761q49 -67 49 -198q0 -135 -47 -199.5t-146 -64.5q-97 0 -146 67t-49 198q0 264 195 264q95 0 144 -67zM224.5 716.5q-27.5 -48.5 -27.5 -152.5q0 -59 9 -101l192 250q-26 52 -87 52q-59 0 -86.5 -48.5zM396.5 409.5q26.5 47.5 26.5 153.5q0 66 -10 106l-193 -250
q28 -57 91 -57q59 0 85.5 47.5z" />
    <glyph glyph-name="one.sups" unicode="&#xb9;" 
d="M484 375v-65h-348v65h139v337q-15 -17 -53.5 -29.5t-68.5 -12.5h-15v71h11q40 0 82.5 22.5t55.5 53.5h67v-442h130z" />
    <glyph glyph-name="two.sups" unicode="&#xb2;" 
d="M318 534q41 42 58 75t17 68q0 41 -22.5 63.5t-63.5 22.5q-43 0 -66.5 -24t-23.5 -66q0 -15 3 -36l-80 7q-4 17 -4 34q0 67 47 108.5t124 41.5q79 0 123.5 -39t44.5 -109q0 -44 -20 -82.5t-71 -91.5q-53 -56 -147 -128h251v-68h-356v63q119 92 186 161z" />
    <glyph glyph-name="three.sups" unicode="&#xb3;" 
d="M368 623q26 23 26 60q0 39 -23 60t-61 21q-49 0 -73.5 -28.5t-22.5 -79.5l-80 11q-1 75 46 118t132 43q75 0 119.5 -36.5t44.5 -100.5q0 -43 -26.5 -74t-70.5 -41q52 -5 82.5 -39.5t30.5 -86.5q0 -68 -49.5 -109.5t-130.5 -41.5q-86 0 -134.5 43t-50.5 116l82 7
q0 -45 28 -73.5t75 -28.5q46 0 71.5 23t25.5 67q0 40 -25.5 64t-76.5 24h-35v59h32q38 0 64 23z" />
    <glyph glyph-name="four.sups" 
d="M429 434v-124h-76v124h-244v56l230 327h90v-322h82v-61h-82zM319 683l-107 -146q-18 -25 -35 -42h176v244q-13 -28 -34 -56z" />
    <glyph glyph-name="five.sups" 
d="M226 751l-19 -172q40 71 126 71q72 0 114.5 -47t42.5 -125q0 -83 -48.5 -131t-133.5 -48q-75 0 -122.5 36t-56.5 97l79 10q8 -37 34.5 -58t67.5 -21q49 0 75 30t26 84q0 51 -25.5 80t-72.5 29q-37 0 -64.5 -20.5t-37.5 -54.5l-73 7l29 299h298v-66h-239z" />
    <glyph glyph-name="six.sups" 
d="M452 604q43 -47 43 -126q0 -80 -48 -129.5t-128 -49.5q-95 0 -145 65t-50 191q0 129 51.5 201t147.5 72q69 0 111.5 -33.5t53.5 -96.5l-79 -14q-16 81 -88 81q-58 0 -87.5 -50.5t-30.5 -142.5q17 38 52.5 58.5t80.5 20.5q73 0 116 -47zM390 394q26 31 26 82
q0 52 -26.5 82t-71.5 30q-41 0 -71 -25.5t-42 -71.5q7 -60 36 -94t78 -34q45 0 71 31z" />
    <glyph glyph-name="seven.sups" 
d="M485 817v-64q-75 -78 -122 -194t-51 -249h-89v4q4 116 51 230.5t131 204.5h-270v68h350z" />
    <glyph glyph-name="eight.sups" 
d="M471 535.5q28 -32.5 28 -89.5q0 -67 -51.5 -107t-137.5 -40q-87 0 -138 38.5t-51 103.5q0 98 104 128q-44 17 -66 47t-22 77q0 61 47 98t124 37t123 -34t46 -93q0 -87 -90 -114q56 -19 84 -51.5zM241 750q-24 -21 -24 -57q0 -32 21 -51t64 -31l29 -8q38 15 54 35.5
t16 52.5q0 37 -25.5 58.5t-69.5 21.5q-41 0 -65 -21zM389.5 384.5q28.5 23.5 28.5 63.5q0 37 -22.5 58.5t-66.5 33.5l-45 12q-43 -16 -63 -40t-20 -60q0 -41 30 -66t80 -25t78.5 23.5z" />
    <glyph glyph-name="nine.sups" 
d="M446 764q50 -64 50 -192t-48 -200.5t-146 -72.5q-72 0 -116 34.5t-55 99.5l79 14q17 -83 95 -83q57 0 84.5 50.5t27.5 141.5v11q-17 -36 -50 -54t-75 -18q-75 0 -122 44.5t-47 119.5t48 122t130 47q95 0 145 -64zM374.5 581q30.5 24 40.5 64q-6 54 -33 87t-80 33
q-46 0 -73 -28.5t-27 -75.5t29 -75.5t74 -28.5q39 0 69.5 24z" />
    <glyph glyph-name="colon.case" 
d="M376 422h-133v128h133v-128zM376 0h-133v128h133v-128z" />
    <glyph glyph-name="semicolon.case" 
d="M376 422h-133v128h133v-128zM303 -63.5q13 20.5 13 63.5h-73v128h133v-128q0 -59 -22 -92t-79 -56l-26 46q41 18 54 38.5z" />
    <glyph glyph-name="exclamdown.case" 
d="M376 582h-133v128h133v-128zM275 484h69l16 -484h-101z" />
    <glyph glyph-name="questiondown.case" 
d="M377 710v-128h-133v128h133zM531 185q0 -92 -59 -147t-162 -55q-111 0 -166.5 46.5t-55.5 130.5q0 50 25.5 93.5t64.5 76.5l54 45q23 20 32 40.5t9 50.5v18h85v-42q0 -28 -10 -51.5t-47 -54.5l-51 -43q-32 -27 -49.5 -58t-17.5 -75q0 -45 32 -73.5t95 -28.5
q60 0 95.5 34.5t35.5 102.5q0 31 -5 53l91 -11q4 -26 4 -52z" />
    <glyph glyph-name="bullet.case" 
d="M377.5 424q26.5 -26 26.5 -69q0 -41 -26.5 -66.5t-68.5 -25.5q-41 0 -67.5 25.5t-26.5 66.5q0 42 26.5 68.5t67.5 26.5q42 0 68.5 -26z" />
    <glyph glyph-name="periodcentered.loclCAT.case" horiz-adv-x="0" 
d="M-69 311h-133v128h133v-128z" />
    <glyph glyph-name="slash.case" 
d="M148 -25l244 760h79l-244 -760h-79z" />
    <glyph glyph-name="backslash.case" 
d="M392 -25l-244 760h79l244 -760h-79z" />
    <glyph glyph-name="periodcentered.loclCAT" horiz-adv-x="0" 
d="M66 301h-133v128h133v-128z" />
    <glyph glyph-name="asterisk.ss04" 
d="M279 617h-97l79 -57l-30 -93l79 57l79 -57l-31 93l79 57h-97l-30 93z" />
    <glyph glyph-name="parenleft.case" 
d="M259.5 104q-69.5 116 -69.5 243t69.5 243t183.5 186l50 -45q-106 -82 -159 -174.5t-53 -209.5t53.5 -209.5t158.5 -174.5l-50 -45q-114 70 -183.5 186z" />
    <glyph glyph-name="parenright.case" 
d="M127 -37q105 82 158.5 174.5t53.5 209.5t-53 209.5t-159 174.5l50 45q114 -70 183.5 -186t69.5 -243t-69.5 -243t-183.5 -186z" />
    <glyph glyph-name="braceleft.case" 
d="M274 -40q-48 40 -48 107v141q0 35 -5 56.5t-22 34.5t-53 13v77q36 0 53 11.5t21.5 31t4.5 57.5v144q0 67 48 107t131 40h79v-70h-79q-48 0 -74.5 -26t-26.5 -72v-113q0 -59 -13 -96.5t-52 -51.5q38 -16 51 -55.5t13 -98.5v-109q0 -45 27.5 -71.5t75.5 -26.5h78v-70h-78
q-83 0 -131 40z" />
    <glyph glyph-name="braceright.case" 
d="M137 -80v70h78q48 0 75.5 26.5t27.5 71.5v109q0 59 13 98.5t51 55.5q-39 14 -52 51.5t-13 96.5v113q0 46 -26.5 72t-74.5 26h-79v70h79q83 0 131 -40t48 -107v-144q0 -38 4.5 -57.5t21.5 -31t53 -11.5v-77q-36 0 -53 -13t-22 -34.5t-5 -56.5v-141q0 -67 -48 -107
t-131 -40h-78z" />
    <glyph glyph-name="bracketleft.case" 
d="M200 780h283v-70h-207v-720h207v-70h-283v860z" />
    <glyph glyph-name="bracketright.case" 
d="M420 -80h-283v70h207v720h-207v70h283v-860z" />
    <glyph glyph-name="hyphen.case" 
d="M454 400v-80h-289v80h289z" />
    <glyph glyph-name="endash.case" 
d="M516 392v-64h-412v64h412z" />
    <glyph glyph-name="emdash.case" 
d="M577 392v-64h-535v64h535z" />
    <glyph glyph-name="underscore.case" 
d="M620 -18v-70h-620v70h620z" />
    <glyph glyph-name="guillemotleft.case" 
d="M65 344l173 207h90l-167 -206l164 -209h-92zM257 344l173 207h90l-167 -206l164 -209h-92z" />
    <glyph glyph-name="guillemotright.case" 
d="M333 344l-173 207h-90l167 -206l-164 -209h92zM525 344l-173 207h-90l167 -206l-164 -209h92z" />
    <glyph glyph-name="guilsinglleft.case" 
d="M168 344l173 207h90l-167 -206l164 -209h-92z" />
    <glyph glyph-name="guilsinglright.case" 
d="M284 136h-92l164 209l-167 206h90l173 -207z" />
    <glyph glyph-name="parenleft.subs" 
d="M349 -93q-48 91 -48 190q0 101 48 189.5t136 142.5l52 -37q-78 -61 -115 -132t-37 -163t37.5 -164t115.5 -134l-55 -40q-86 57 -134 148z" />
    <glyph glyph-name="parenright.subs" 
d="M204 -67q37 73 37 165t-37 163.5t-115 132.5l48 34q87 -55 134.5 -143t47.5 -187t-47 -189.5t-133 -148.5l-51 36q79 64 116 137z" />
    <glyph glyph-name="parenleft.sups" 
d="M348 358.5q-47 90.5 -47 189.5t47.5 187t134.5 143l48 -34q-78 -61 -115 -132.5t-37 -163.5t37 -165t116 -137l-51 -36q-86 58 -133 148.5z" />
    <glyph glyph-name="parenright.sups" 
d="M88 246q79 64 116 137t37 165t-37 163.5t-115 132.5l48 34q87 -55 134.5 -143t47.5 -187t-47 -189.5t-133 -148.5z" />
    <glyph glyph-name="uni0E3F" unicode="&#xe3f;" 
d="M504 302q37 -43 37 -111q0 -49 -21.5 -92t-72 -71t-130.5 -28h-9v-107h-53v107h-177v695h177v91h53v-91q114 -3 163.5 -56.5t49.5 -123.5q0 -55 -30 -98t-88 -61q64 -11 101 -54zM162 620v-233h93v233h-93zM308 620v-233q123 6 123 121q0 107 -123 112zM162 75h93v237
h-93v-237zM418.5 110q32.5 35 32.5 90q0 51 -32 81.5t-98 30.5h-13v-237h3q75 0 107.5 35z" />
    <glyph glyph-name="uni0243" unicode="&#x243;" 
d="M502 70.5q-42 -54.5 -135 -66.5v-111h-53v107h-71v-107h-53v107h-114v695h114v90h53v-90h50h21v90h53v-96q84 -16 120.5 -65t36.5 -108q0 -54 -30.5 -97t-88.5 -60q65 -11 102 -54t37 -110q0 -70 -42 -124.5zM163 390h129q137 0 137 119q0 109 -137 109h-129v-228z
M416 112.5q33 35.5 33 91.5q0 50 -32.5 80t-98.5 30h-155v-237h145q75 0 108 35.5z" />
    <glyph glyph-name="uni20BA" unicode="&#x20ba;" 
d="M552 223q-20 -94 -78 -158.5t-175 -64.5h-161v272l-71 -22v67l71 22v78l-71 -22v67l71 22v211h90v-184l217 66v-67l-217 -66v-78l217 66v-67l-217 -66v-219h57q84 0 125 45t61 117z" />
    <glyph glyph-name="uni20BD" unicode="&#x20bd;" 
d="M217 285v-84h157v-60h-157v-141h-90v141h-71v60h71v84h-70v65h70v345h196q88 0 141.5 -30.5t76.5 -77t23 -97.5t-23 -97.5t-76.5 -77t-141.5 -30.5h-106zM217 350h101q80 0 116.5 40.5t36.5 94.5q0 52 -36.5 91t-116.5 39h-101v-265z" />
    <glyph glyph-name="uni20B9" unicode="&#x20b9;" 
d="M550 630h-213q58 -38 68 -111h145v-60h-144q-7 -74 -58 -124.5t-168 -50.5l239 -284h-107l-243 296v57h102q128 0 144 106h-246v60h246q-8 50 -43 80.5t-101 30.5h-102v65h481v-65z" />
    <glyph glyph-name="uni20A9" unicode="&#x20a9;" 
d="M579 406h-39l-7 -75h46v-55h-52l-28 -276h-114l-34 276h-83l-34 -276h-114l-28 276h-52v55h46l-7 75h-39v55h33l-24 234h74l21 -234h86l31 234h97l31 -234h86l21 234h74l-24 -234h33v-55zM290 461h39l-11 88q-5 44 -6 68h-5q-1 -24 -6 -68zM148 406l7 -75h58l10 75h-75z
M274 331h71l-10 75h-51zM464 331l7 75h-75l10 -75h58zM206 276h-46l13 -148q4 -31 4 -49h4l6 49zM459 276h-46l19 -148l6 -49h4q0 18 4 49z" />
    <glyph glyph-name="uni0E3F.case" 
d="M504 308q37 -44 37 -113q0 -50 -21.5 -94t-72 -72.5t-130.5 -28.5h-9v-109h-53v109h-177v710h177v92h53v-92q114 -3 163.5 -58t49.5 -126q0 -56 -30 -100t-88 -63q64 -11 101 -55zM162 634v-239h93v239h-93zM404 599.5q-27 31.5 -96 34.5v-239q123 6 123 123
q0 50 -27 81.5zM162 77h93v241h-93v-241zM418.5 112.5q32.5 35.5 32.5 91.5q0 51 -32 82.5t-98 31.5h-13v-241h3q75 0 107.5 35.5z" />
    <glyph glyph-name="uni20BF.case" 
d="M502 72.5q-42 -55.5 -135 -68.5v-113h-53v109h-71v-109h-53v109h-114v709h114v92h53v-92h50h21v92h53v-99q84 -16 120.5 -65.5t36.5 -109.5q0 -56 -30.5 -99.5t-88.5 -61.5q65 -11 102 -54.5t37 -112.5q0 -71 -42 -126.5zM163 398h129q137 0 137 121q0 112 -137 112h-129
v-233zM416 115q33 36 33 93q0 51 -32 81.5t-99 30.5h-155v-241h145q75 0 108 36z" />
    <glyph glyph-name="currency.case" 
d="M486 205l53 -59l-40 -36l-53 57q-57 -40 -132 -40q-79 0 -137 43l-56 -61l-40 36l58 63q-47 60 -47 145q0 86 47 146l-58 63l40 36l58 -61q58 42 135 42q74 0 130 -39l55 59l40 -36l-55 -60q24 -29 37.5 -67.5t13.5 -82.5q0 -88 -49 -148zM416 240.5q41 42.5 41 112.5
t-41 112.5t-102 42.5t-102.5 -42.5t-41.5 -112.5t41.5 -112.5t102.5 -42.5t102 42.5z" />
    <glyph glyph-name="dollar.case" 
d="M535 92q-23 -45 -72 -74.5t-123 -32.5v-94h-45v95q-106 8 -163.5 68.5t-70.5 151.5l90 19q12 -68 47 -112.5t97 -52.5v261l-34 9q-81 21 -129 72.5t-48 131.5q0 50 26 92.5t74 69t111 29.5v91h45v-92q91 -7 147 -56t65 -144l-89 -27q-6 72 -38.5 108.5t-84.5 43.5v-250
l34 -9q86 -22 135 -65.5t49 -135.5q0 -52 -23 -97zM295 410v240q-67 -3 -96.5 -36.5t-29.5 -77.5q0 -46 33 -78.5t88 -46.5zM435.5 88.5q37.5 27.5 37.5 87.5q0 61 -33.5 89t-90.5 42l-9 2v-251q58 3 95.5 30.5z" />
    <glyph glyph-name="Euro.case" 
d="M607 121q-35 -64 -93.5 -100t-136.5 -36q-114 0 -184.5 73.5t-89.5 204.5h-90v62h84q-1 12 -1 37q0 26 1 39h-84v61h90q21 129 94.5 197t189.5 68q77 0 129.5 -32.5t89.5 -95.5l-70 -57q-58 104 -156 104q-72 0 -119.5 -46t-63.5 -138h271v-61h-278q-1 -12 -1 -38t1 -38
h278v-62h-272q17 -99 65 -148.5t118 -49.5q49 0 90.5 26t71.5 78z" />
    <glyph glyph-name="florin.case" 
d="M367 621q-17 -27 -24 -84l-12 -92h106v-67h-114l-67 -531h-86l66 531h-94v67h102l10 78q9 70 24 112t50.5 66t100.5 24q32 0 49 -7v-75q-22 5 -48 5q-46 0 -63 -27z" />
    <glyph glyph-name="uni20BA.case" 
d="M552 228q-20 -96 -78 -162t-175 -66h-161v277l-71 -22v69l71 22v79l-71 -22v68l71 22v217h90v-189l217 68v-69l-217 -67v-79l217 67v-69l-217 -67v-223h57q84 0 125.5 45.5t60.5 119.5z" />
    <glyph glyph-name="uni20BD.case" 
d="M217 291v-86h157v-61h-157v-144h-90v144h-71v61h71v86h-70v66h70v353h196q88 0 141.5 -31t76.5 -78.5t23 -100.5t-23 -100t-76.5 -78t-141.5 -31h-106zM217 357h101q80 0 116.5 41.5t36.5 96.5q0 53 -36.5 93.5t-116.5 40.5h-101v-272z" />
    <glyph glyph-name="uni20B9.case" 
d="M550 644h-214q59 -38 69 -114h145v-62h-144q-7 -75 -58 -126.5t-168 -51.5l239 -290h-107l-243 302v58h102q128 0 144 108h-246v62h246q-8 51 -43 82.5t-101 31.5h-102v66h481v-66z" />
    <glyph glyph-name="sterling.case" 
d="M583 158q-12 -91 -62.5 -132t-114.5 -41q-25 0 -44 3t-48 9q-30 7 -53 10.5t-53 3.5q-75 0 -153 -19l-19 64q142 49 142 190q0 48 -8 93h-109v64h97q-13 63 -13 107q0 68 26.5 117t72.5 74.5t103 25.5q79 0 128.5 -41.5t67.5 -116.5l-88 -22q-23 103 -109 103
q-48 0 -77 -34t-29 -103q0 -43 13 -110h171v-64h-160q6 -36 6 -75q0 -71 -26 -114t-74 -69q28 7 74 7q27 0 51.5 -4t29.5 -5q45 -9 80 -9q37 0 64 24.5t34 80.5z" />
    <glyph glyph-name="uni20A9.case" 
d="M579 414h-39l-7 -76h46v-56h-52l-28 -282h-114l-34 282h-83l-34 -282h-114l-28 282h-52v56h46l-7 76h-39v56h33l-24 240h74l21 -240h86l31 240h97l31 -240h86l21 240h74l-24 -240h33v-56zM290 470h39l-11 91q-5 43 -6 70h-5q-1 -27 -6 -70zM149 414l6 -76h58l10 76h-74z
M274 338h71l-9 76h-53zM464 338l6 76h-74l10 -76h58zM206 282h-46l13 -151q4 -32 4 -50h4q2 26 6 50zM459 282h-46l19 -151q4 -24 6 -50h4q0 18 4 50z" />
    <glyph glyph-name="yen.case" 
d="M572 710l-217 -369h184v-61h-184v-73h184v-61h-184v-146h-90v146h-187v61h187v73h-187v61h187l-218 369h101l161 -286l162 286h101z" />
    <glyph glyph-name="plus.case" 
d="M545 409v-73h-193v-202h-85v202h-192v73h192v190h85v-190h193z" />
    <glyph glyph-name="minus.case" 
d="M75 413h470v-80h-470v80z" />
    <glyph glyph-name="multiply.case" 
d="M553 556l-186 -186l186 -185l-57 -58l-186 186l-186 -186l-57 57l186 186l-186 186l57 57l186 -185l185 185z" />
    <glyph glyph-name="divide.case" 
d="M272.5 523.5q-14.5 14.5 -14.5 37.5t14.5 37.5t37.5 14.5t37.5 -14t14.5 -38q0 -23 -14.5 -37.5t-37.5 -14.5t-37.5 14.5zM75 411h470v-76h-470v76zM272.5 147.5q-14.5 14.5 -14.5 37.5t14.5 37.5t37.5 14.5t37.5 -14t14.5 -38q0 -23 -14.5 -37.5t-37.5 -14.5t-37.5 14.5
z" />
    <glyph glyph-name="equal.case" 
d="M75 508h470v-80h-470v80zM75 318h470v-80h-470v80z" />
    <glyph glyph-name="notequal.case" 
d="M545 428h-185l-43 -110h228v-80h-259l-51 -131h-56l51 131h-155v80h186l43 110h-229v80h260l50 127h56l-50 -127h154v-80z" />
    <glyph glyph-name="greater.case" 
d="M51 132v81l371 161l-371 161v79l465 -205v-72z" />
    <glyph glyph-name="less.case" 
d="M97 337v72l465 205v-79l-371 -161l371 -161v-81z" />
    <glyph glyph-name="plusminus.case" 
d="M353 465h192v-73h-192v-160h-86v160h-192v73h192v161h86v-161zM75 100v80h470v-80h-470z" />
    <glyph glyph-name="approxequal.case" 
d="M374 420q-22 6 -59 19q-32 12 -56 18.5t-48 6.5q-37 0 -75 -11.5t-61 -28.5v80q20 17 56 28.5t70 11.5q30 0 55.5 -6.5t57.5 -19.5q32 -12 52.5 -18t44.5 -6q37 0 74.5 11.5t59.5 28.5v-80q-18 -17 -53.5 -28.5t-70.5 -11.5q-25 0 -47 6zM374 230q-22 6 -59 19
q-32 12 -56 18.5t-48 6.5q-37 0 -75 -11.5t-61 -28.5v80q20 17 56 28.5t70 11.5q30 0 55.5 -6.5t57.5 -19.5q32 -12 52.5 -18t44.5 -6q37 0 74.5 11.5t59.5 28.5v-80q-18 -17 -53.5 -28.5t-70.5 -11.5q-25 0 -47 6z" />
    <glyph glyph-name="logicalnot.case" 
d="M552 418v-243h-80v163h-385v80h465z" />
    <glyph glyph-name="infinity.case" 
d="M521 469.5q37 -38.5 37 -101.5q0 -40 -18 -72t-48 -49.5t-65 -17.5q-33 0 -65 23.5t-53 56.5q-53 -81 -120 -81q-32 0 -61.5 16t-47.5 47.5t-18 75.5q0 42 17.5 74t47 49.5t63.5 17.5t67.5 -22t52.5 -55q25 35 53.5 56t64.5 21q56 0 93 -38.5zM239.5 318q18.5 18 35.5 50
q-38 68 -84 68q-24 0 -41.5 -17t-17.5 -52q0 -32 21 -49.5t43 -17.5q25 0 43.5 18zM467.5 318.5q18.5 18.5 18.5 48.5q0 34 -17.5 51.5t-42.5 17.5t-42.5 -16.5t-39.5 -51.5q39 -68 81 -68q24 0 42.5 18.5z" />
    <glyph glyph-name="integral.case" 
d="M116 57q60 0 92.5 15.5t46.5 50t14 96.5v265q0 107 51.5 168.5t163.5 60.5q24 0 49 -3v-73q-24 4 -49 4q-71 0 -100 -41t-29 -124v-265q0 -114 -56.5 -171t-183.5 -56q-19 0 -29 1v73q11 -1 30 -1z" />
    <glyph glyph-name="arrowup" unicode="&#x2191;" 
d="M281 586h-94l123 164l123 -164h-94v-621h-58v621z" />
    <glyph glyph-name="uni2197" unicode="&#x2197;" 
d="M112 225l-43 42l364 364l-79 80h201v-202l-79 80z" />
    <glyph glyph-name="arrowright" unicode="&#x2192;" 
d="M414 358v95l164 -123l-164 -123v95h-359v56h359z" />
    <glyph glyph-name="uni2198" unicode="&#x2198;" 
d="M476 133l79 80v-202h-201l79 80l-364 364l43 42z" />
    <glyph glyph-name="arrowdown" unicode="&#x2193;" 
d="M339 124h94l-123 -164l-123 164h94v621h58v-621z" />
    <glyph glyph-name="uni2199" unicode="&#x2199;" 
d="M508 497l43 -42l-364 -364l79 -80h-201v202l79 -80z" />
    <glyph glyph-name="arrowleft" unicode="&#x2190;" 
d="M206 302v-95l-164 123l164 123v-95h359v-56h-359z" />
    <glyph glyph-name="uni2196" unicode="&#x2196;" 
d="M146 588l-79 -80v202h201l-79 -80l364 -364l-43 -42z" />
    <glyph glyph-name="arrowboth" unicode="&#x2194;" 
d="M206 302v-95l-164 123l164 123v-95h195v95l164 -123l-164 -123v95h-195z" />
    <glyph glyph-name="arrowupdn" unicode="&#x2195;" 
d="M187 124h94v462h-94l123 164l123 -164h-94v-462h94l-123 -164z" />
    <glyph glyph-name="uni21A9" unicode="&#x21a9;" 
d="M208 453v-95h133q69 0 109 35t40 100q0 66 -39.5 100.5t-109.5 34.5h-96v56h107q93 0 147.5 -50t54.5 -141t-55 -141t-147 -50h-144v-95l-164 123z" />
    <glyph glyph-name="uni21AA" unicode="&#x21aa;" 
d="M412 302h-144q-92 0 -147 50t-55 141t54.5 141t147.5 50h107v-56h-96q-70 0 -109.5 -34.5t-39.5 -100.5q0 -65 40 -100t109 -35h133v95l164 -123l-164 -123v95z" />
    <glyph glyph-name="uni21B0" unicode="&#x21b0;" 
d="M467 572h-260v-95l-164 123l164 123v-95h319v-628h-59v572z" />
    <glyph glyph-name="uni21B1" unicode="&#x21b1;" 
d="M153 0h-59v628h319v95l164 -123l-164 -123v95h-260v-572z" />
    <glyph glyph-name="uni21B2" unicode="&#x21b2;" 
d="M492 710h59v-628h-319v-95l-164 123l164 123v-95h260v572z" />
    <glyph glyph-name="uni21B3" unicode="&#x21b3;" 
d="M413 138v95l164 -123l-164 -123v95h-319v628h59v-572h260z" />
    <glyph glyph-name="uni21B4" unicode="&#x21b4;" 
d="M440 152v502h-385v56h444v-558h93l-123 -164l-123 164h94z" />
    <glyph glyph-name="uni21B5" unicode="&#x21b5;" 
d="M618 352l-123 -164l-123 164h87v57q0 134 -36.5 196.5t-114.5 62.5q-49 0 -80 -21t-49 -67l-56 23q54 123 185 123q108 0 161.5 -82t53.5 -231v-61h95zM390 62q31 21 49 67l56 -23q-54 -123 -185 -123q-108 0 -161.5 82t-53.5 231v56h-93l123 164l123 -164h-89v-52
q0 -134 36.5 -196.5t114.5 -62.5q49 0 80 21z" />
    <glyph glyph-name="uni21C4" unicode="&#x21c4;" 
d="M206 418v-95l-164 123l164 123v-95h309v-56h-309zM414 242v95l164 -123l-164 -123v95h-308v56h308z" />
    <glyph glyph-name="uni21C5" unicode="&#x21c5;" 
d="M455 586v-542h-58v542h-94l123 164l123 -164h-94zM165 124v542h58v-542h94l-123 -164l-123 164h94z" />
    <glyph glyph-name="carriagereturn.alt" 
d="M412 352v57q0 134 -36.5 196.5t-114.5 62.5q-77 0 -113 -62.5t-36 -196.5v-109q0 -134 36.5 -196.5t114.5 -62.5q49 0 80 21t49 67l56 -23q-54 -123 -185 -123q-108 0 -161.5 82t-53.5 231v113q0 151 53.5 234t159.5 83q108 0 161.5 -82t53.5 -231v-61h95l-123 -164
l-123 164h87z" />
    <glyph glyph-name="arrowright.case" 
d="M414 387v95l164 -123l-164 -123v95h-359v56h359z" />
    <glyph glyph-name="arrowleft.case" 
d="M206 331v-95l-164 123l164 123v-95h359v-56h-359z" />
    <glyph glyph-name="arrowright.ss03.case" 
d="M262 120l49 -49l288 288l-288 287l-48 -49l210 -203h-438v-70h438z" />
    <glyph glyph-name="arrowleft.ss03.case" 
d="M358 120l-49 -49l-288 288l288 287l48 -49l-210 -203h438v-70h-438z" />
    <glyph glyph-name="arrowup.ss03" 
d="M70 413l-47 50l288 287l286 -287l-48 -50l-203 212v-660h-72v660z" />
    <glyph glyph-name="uni2197.ss03" 
d="M115 222l-50 50l376 375l-294 -5v68h406v-407h-69l5 294z" />
    <glyph glyph-name="arrowright.ss03" 
d="M35 295v70h438l-210 203l48 49l288 -287l-288 -288l-49 49l211 204h-438z" />
    <glyph glyph-name="uni2198.ss03" 
d="M484 395h69v-407h-406v68l294 -5l-376 375l50 50l374 -375z" />
    <glyph glyph-name="arrowdown.ss03" 
d="M277 85v660h72v-660l203 212l48 -50l-286 -287l-288 287l47 50z" />
    <glyph glyph-name="uni2199.ss03" 
d="M505 476l50 -50l-376 -375l294 5v-68h-406v407h69l-5 -294z" />
    <glyph glyph-name="arrowleft.ss03" 
d="M358 91l-49 -49l-288 288l288 287l48 -49l-210 -203h438v-70h-438z" />
    <glyph glyph-name="uni2196.ss03" 
d="M136 303h-69v407h406v-68l-294 5l376 -375l-50 -50l-374 375z" />
    <glyph glyph-name="uni25CF" unicode="&#x25cf;" 
d="M183.5 15.5q-55.5 32.5 -89 100t-33.5 168.5v148q0 100 33.5 166t89 97.5t123.5 31.5q71 0 127.5 -31.5t90 -98t33.5 -165.5v-148q0 -101 -34 -168.5t-90.5 -100t-126.5 -32.5q-68 0 -123.5 32.5z" />
    <glyph glyph-name="circle" unicode="&#x25cb;" 
d="M184.5 14.5q-56.5 31.5 -90 98t-33.5 166.5v149q0 100 33.5 167t90 99.5t125.5 32.5t125.5 -32.5t90 -99.5t33.5 -167v-149q0 -100 -33.5 -166.5t-90 -98t-125.5 -31.5t-125.5 31.5zM452.5 91q56.5 61 56.5 188v149q0 86 -27 142.5t-72 83t-100 26.5t-100 -26.5t-72 -83
t-27 -142.5v-149q0 -127 56.5 -188t142.5 -61t142.5 61z" />
    <glyph glyph-name="uni2105" unicode="&#x2105;" 
d="M203.5 651.5q-16.5 17.5 -41.5 17.5q-71 0 -71 -103q0 -55 17.5 -80.5t54.5 -25.5q25 0 41.5 16t20.5 44l67 -11q-12 -53 -46.5 -80.5t-82.5 -27.5q-64 0 -101.5 42.5t-37.5 122.5q0 77 37.5 119.5t100.5 42.5q52 0 88 -30t40 -87l-67 -9q-3 32 -19.5 49.5zM567 728
l-454 -742h-71l453 742h72zM558.5 30.5q-37.5 -42.5 -99.5 -42.5q-64 0 -101.5 42.5t-37.5 122.5q0 77 37.5 119.5t100.5 42.5q62 0 100 -43.5t38 -121.5q0 -77 -37.5 -119.5zM405.5 73q18.5 -26 53.5 -26q32 0 50 26t18 77q0 52 -18 79t-51 27q-34 0 -52.5 -26t-18.5 -77
q0 -54 18.5 -80z" />
    <glyph glyph-name="at.case" 
d="M129 57q-73 74 -73 202v185q0 87 32.5 153.5t92 103t137.5 36.5q74 0 129.5 -33t85.5 -94t30 -142v-127q0 -81 -26 -122.5t-77 -41.5q-31 0 -51.5 15.5t-25.5 41.5q-16 -27 -44 -42.5t-60 -15.5q-47 0 -77 29t-30 75q0 42 27.5 68.5t79.5 35.5l98 17v7q0 43 -14.5 62
t-47.5 19q-34 0 -51.5 -17.5t-17.5 -51.5h-64q0 59 37 93.5t100 34.5q62 0 91.5 -37.5t29.5 -116.5v-104q0 -31 7 -45t22 -14q34 0 34 83v146q0 105 -50 163.5t-139 58.5q-92 0 -144.5 -61.5t-52.5 -170.5v-195q0 -64 26.5 -113t75.5 -76t113 -27q62 0 125 29l21 -48
q-68 -37 -149 -37q-127 0 -200 74zM354.5 256q22.5 25 22.5 64v32l-79 -17q-60 -12 -60 -54q0 -23 16 -36.5t43 -13.5q35 0 57.5 25z" />
    <glyph glyph-name="section.case" 
d="M499 124q0 -68 -56.5 -105t-148.5 -37q-86 0 -140 40t-60 103l85 18q10 -41 43.5 -65t82.5 -24q47 0 76.5 16t29.5 44q0 18 -8 31t-29.5 25.5t-63.5 28.5l-80 30q-76 28 -109.5 63t-33.5 84q0 38 19.5 68t60.5 49q-41 37 -41 94q0 65 54.5 102.5t140.5 37.5
q82 0 130.5 -34.5t58.5 -96.5l-84 -20q-18 86 -116 86q-41 0 -67.5 -18.5t-26.5 -48.5q0 -19 7 -32t27 -25.5t60 -27.5l80 -30q75 -29 109 -64.5t34 -83.5q0 -38 -19.5 -69.5t-61.5 -49.5q47 -38 47 -89zM372 259q14 -5 29 -14q41 31 41 70q0 26 -14.5 43.5t-37.5 29.5
t-67 30l-37 15l-66 28l-0.5 0.5l-0.5 0.5q-22 -16 -31.5 -32.5t-9.5 -36.5q0 -24 11 -39.5t33.5 -28.5t68.5 -32z" />
    <glyph glyph-name="bar.case" 
d="M348 -18h-77v743h77v-743z" />
    <glyph glyph-name="brokenbar.case" 
d="M348 432h-77v293h77v-293zM348 -18h-77v329h77v-329z" />
    <glyph glyph-name="plus.subs" 
d="M487 131v-62h-142v-144h-70v144h-142v62h142v137h70v-137h142z" />
    <glyph glyph-name="minus.subs" 
d="M132 132h356v-64h-356v64z" />
    <glyph glyph-name="multiply.subs" 
d="M496 233l-137 -134l137 -133l-48 -49l-138 135l-138 -135l-48 48l137 134l-137 134l48 47l138 -134l137 134z" />
    <glyph glyph-name="divide.subs" 
d="M278.5 200.5q-12.5 11.5 -12.5 30.5t12.5 31.5t31.5 12.5t31 -12t12 -32q0 -19 -12 -30.5t-31 -11.5t-31.5 11.5zM132 130h356v-62h-356v62zM278.5 -66q-12.5 12 -12.5 31t12.5 31t31.5 12t31 -12t12 -31t-12 -31t-31 -12t-31.5 12z" />
    <glyph glyph-name="plus.sups" 
d="M487 579v-58h-145v-146h-64v146h-145v58h145v139h64v-139h145z" />
    <glyph glyph-name="minus.sups" 
d="M132 580h356v-59h-356v59z" />
    <glyph glyph-name="multiply.sups" 
d="M494 685l-139 -136l139 -135l-44 -45l-140 137l-140 -137l-44 44l139 136l-139 136l44 43l140 -136l139 136z" />
    <glyph glyph-name="divide.sups" 
d="M280 653q-12 11 -12 29q0 19 12 30.5t30 11.5t29.5 -11.5t11.5 -30.5q0 -18 -11.5 -29t-29.5 -11t-30 11zM132 578h356v-57h-356v57zM280 385.5q-12 11.5 -12 29.5t12 29t30 11t29.5 -11t11.5 -29t-11.5 -29.5t-29.5 -11.5t-30 11.5z" />
    <glyph glyph-name="uni0308.case" horiz-adv-x="0" 
d="M-369 773h-109v111h109v-111zM-142 773h-109v111h109v-111z" />
    <glyph glyph-name="uni0307.case" horiz-adv-x="0" 
d="M-250 773h-120v111h120v-111z" />
    <glyph glyph-name="gravecomb.case" horiz-adv-x="0" 
d="M-298 777l-104 107h114l70 -107h-80z" />
    <glyph glyph-name="acutecomb.case" horiz-adv-x="0" 
d="M-332 884h114l-104 -107h-80z" />
    <glyph glyph-name="uni030B.case" horiz-adv-x="0" 
d="M-374 884h91l-72 -107h-84zM-212 884h91l-72 -107h-84z" />
    <glyph glyph-name="uni0302.case" horiz-adv-x="0" 
d="M-247 776l-65 69l-63 -69h-85l97 108h105l98 -108h-87z" />
    <glyph glyph-name="uni030C.case" horiz-adv-x="0" 
d="M-373 884l65 -69l63 69h85l-97 -108h-105l-98 108h87z" />
    <glyph glyph-name="uni0306.case" horiz-adv-x="0" 
d="M-367.5 845.5q22.5 -15.5 57.5 -15.5t57.5 15.5t27.5 38.5h77q-9 -56 -53.5 -85.5t-108.5 -29.5t-109 29.5t-53 85.5h78q4 -23 26.5 -38.5z" />
    <glyph glyph-name="uni030A.case" horiz-adv-x="0" 
d="M-382.5 759.5q-27.5 25.5 -27.5 65.5t27.5 65.5t72.5 25.5t72.5 -25.5t27.5 -65.5t-27.5 -65.5t-72.5 -25.5t-72.5 25.5zM-278.5 792q12.5 13 12.5 33t-12.5 33t-31.5 13t-31.5 -13t-12.5 -33t12.5 -33t31.5 -13t31.5 13z" />
    <glyph glyph-name="tildecomb.case" horiz-adv-x="0" 
d="M-338 881.5q19 -7.5 42 -21.5q21 -13 34 -18.5t30 -5.5q43 0 52 45l59 -10q-8 -49 -39 -75t-80 -26q-27 0 -45 7.5t-41 21.5q-18 12 -31.5 18t-31.5 6q-40 0 -51 -48l-60 11q10 52 43 77.5t75 25.5q25 0 44 -7.5z" />
    <glyph glyph-name="uni0304.case" horiz-adv-x="0" 
d="M-470 841h320v-68h-320v68z" />
    <glyph glyph-name="uniE000" unicode="&#xe000;" 
d="M274 152l-123 -164l-123 164h93v558h444v-56h-385v-502h94z" />
    <glyph glyph-name="caronaccentcomb" 
d="M261 560l16 167h85l-48 -167h-53z" />
  </font>
</defs>
</svg>
